<?xml version="1.0" encoding="UTF-8" standalone="no"?>
<!DOCTYPE svg PUBLIC "-//W3C//DTD SVG 1.1//EN" "http://www.w3.org/Graphics/SVG/1.1/DTD/svg11.dtd">
<!-- Created with Vectornator (http://vectornator.io/) -->
<svg height="100%" stroke-miterlimit="10" style="fill-rule:nonzero;clip-rule:evenodd;stroke-linecap:round;stroke-linejoin:round;" version="1.1" viewBox="0 0 512 512" width="100%" xml:space="preserve" xmlns="http://www.w3.org/2000/svg" xmlns:vectornator="http://vectornator.io" xmlns:xlink="http://www.w3.org/1999/xlink">
<defs/>
<clipPath id="ArtboardFrame">
<rect height="512" width="512" x="0" y="0"/>
</clipPath>
<g clip-path="url(#ArtboardFrame)" id="Untitled" vectornator:layerName="Untitled">
<path d="M32.7281 258.283C32.7281 135.138 132.557 35.3087 255.703 35.3087C378.848 35.3087 478.677 135.138 478.677 258.283C478.677 381.429 378.848 481.258 255.703 481.258C132.557 481.258 32.7281 381.429 32.7281 258.283Z" fill="#f9f9f9" fill-rule="nonzero" opacity="1" stroke="none"/>
<g opacity="1">
<path d="M422.841 204.192L415.306 196.656C410.898 192.241 403.737 192.241 399.321 196.656C394.906 201.068 394.906 208.225 399.321 212.641L406.857 220.177C409.065 222.385 411.957 223.49 414.849 223.49C417.741 223.49 420.634 222.385 422.841 220.177C427.257 215.765 427.257 208.608 422.841 204.192Z" fill="#000000" fill-rule="nonzero" opacity="1" stroke="none"/>
<path d="M377.625 196.656C373.21 192.24 366.049 192.24 361.641 196.656L354.105 204.192C349.689 208.607 349.689 215.765 354.105 220.177C356.313 222.385 359.205 223.49 362.097 223.49C364.989 223.49 367.882 222.385 370.089 220.177L377.625 212.641C382.04 208.225 382.04 201.069 377.625 196.656Z" fill="#000000" fill-rule="nonzero" opacity="1" stroke="none"/>
<path d="M422.843 151.439C420.635 149.231 417.743 148.126 414.85 148.126C411.958 148.126 409.065 149.231 406.858 151.439L399.322 158.974C394.907 163.39 394.907 170.547 399.322 174.96C403.737 179.375 410.898 179.375 415.307 174.96L422.843 167.424C427.259 163.009 427.259 155.851 422.843 151.439Z" fill="#000000" fill-rule="nonzero" opacity="1" stroke="none"/>
<path d="M378.527 161.728L362.542 145.742C349.32 132.513 327.797 132.521 314.583 145.742L309.255 151.07L293.266 135.082C288.851 130.666 281.697 130.666 277.281 135.082L247.1 165.263C232.408 159.046 216.466 155.777 200.009 155.777C167.763 155.777 137.485 168.299 114.748 191.036C67.7349 238.05 67.7349 314.549 114.748 361.561C137.486 384.299 167.763 396.821 200.009 396.821C232.255 396.821 262.536 384.299 285.274 361.561C308.012 338.824 320.534 308.547 320.534 276.301C320.534 259.843 317.265 243.902 311.048 229.209L341.229 199.028C345.644 194.616 345.644 187.455 341.229 183.043L325.24 167.054L330.568 161.726C334.973 157.321 342.144 157.314 346.557 161.726L362.542 177.711C364.75 179.919 367.642 181.024 370.534 181.024C373.426 181.024 376.319 179.919 378.526 177.711C382.942 173.3 382.942 166.139 378.527 161.728ZM253.337 329.511C239.093 343.759 220.175 351.604 200.069 351.604C179.962 351.604 161.044 343.759 146.8 329.511C142.385 325.099 142.385 317.938 146.8 313.526C151.215 309.111 158.369 309.111 162.785 313.526C172.76 323.501 186.005 328.995 200.069 328.995C214.134 328.995 227.377 323.501 237.353 313.526C241.769 309.111 248.923 309.111 253.339 313.526C257.752 317.938 257.752 325.099 253.337 329.511Z" fill="#000000" fill-rule="nonzero" opacity="1" stroke="none"/>
</g>
<path d="M74.7561 75.242C26.4528 123.652-0.0880832 187.979 0.000213598 256.331C0.088534 324.701 26.7956 388.959 75.2237 437.244C123.634 485.547 187.96 512.088 256.331 512C324.701 511.911 388.959 485.204 437.226 436.776C485.547 388.348 512.088 324.04 512 255.669C511.911 187.317 485.204 123.041 436.758 74.7744C388.366 26.4528 324.04-0.0881068 255.669 0.000213598C187.299 0.088534 123.041 26.7956 74.7561 75.242ZM256.26 457.143C202.536 457.212 151.986 436.359 113.958 398.41C75.9291 360.461 54.9267 309.965 54.8573 256.26C54.7999 211.789 69.2643 169.677 95.6787 134.808L377.606 416.008C342.842 442.512 300.731 457.085 256.26 457.143ZM398.061 113.608C436.107 151.539 457.092 202.035 457.161 255.74C457.218 300.211 442.754 342.342 416.34 377.174L134.449 96.0106C169.194 69.5063 211.324 54.933 255.777 54.8756C309.482 54.7879 360.014 75.6598 398.061 113.608Z" fill="#db2127" fill-rule="nonzero" opacity="1" stroke="none"/>
</g>
</svg>
