<?xml version="1.0" encoding="UTF-8" standalone="no"?>
<!DOCTYPE svg PUBLIC "-//W3C//DTD SVG 1.1//EN" "http://www.w3.org/Graphics/SVG/1.1/DTD/svg11.dtd">
<!-- Created with Vectornator (http://vectornator.io/) -->
<svg height="100%" stroke-miterlimit="10" style="fill-rule:nonzero;clip-rule:evenodd;stroke-linecap:round;stroke-linejoin:round;" version="1.1" viewBox="0 0 520 180" width="100%" xml:space="preserve" xmlns="http://www.w3.org/2000/svg" xmlns:xlink="http://www.w3.org/1999/xlink">
<defs>
<clipPath id="TextBounds">
<rect height="40.3209" width="431.138" x="111.404" y="22.7621"/>
</clipPath>
<clipPath id="TextBounds_2">
<rect height="40.3209" width="391.103" x="111.404" y="66"/>
</clipPath>
</defs>
<g id="Zona">
<g opacity="1">
<path d="M24.2529 103.066C22.5556 105.442 19.8781 106.928 16.7872 107.06C11.3195 107.293 6.67162 103.092 6.43863 97.6246C6.26401 93.5267 8.63109 89.8953 12.165 88.2316C14.6357 88.7754 16.1187 89.7209 15.2433 91.197C14.0984 93.0482 12.4989 94.4144 16.091 94.1167C19.6824 93.8933 18.1477 95.0378 20.545 95.5104C23.0166 95.9837 20.9716 97.0796 20.4378 98.0407C19.8999 98.998 20.017 100.002 21.5976 99.9344C23.0377 99.8731 24.4595 99.3824 24.2529 103.066" fill="#231f20" fill-rule="evenodd" opacity="1" stroke="none"/>
<path d="M18.467 89.0422C20.2205 89.5461 24.5305 87.5601 22.7095 90.5192C21.8349 91.9249 20.278 92.6402 18.0251 92.1615C14.8263 91.5041 16.7175 88.542 18.467 89.0422" fill="#231f20" fill-rule="evenodd" opacity="1" stroke="none"/>
<path d="M25.3714 92.0635C26.7342 91.9311 29.0614 92.4106 28.1829 93.8165C27.2342 95.2253 28.1337 96.055 27.1613 96.8158C26.114 97.6541 23.4097 98.4184 22.9977 97.2826C22.5193 96.1496 22.2525 94.9333 23.1331 93.672C24.0177 92.4105 24.0084 92.192 25.3714 92.0635" fill="#231f20" fill-rule="evenodd" opacity="1" stroke="none"/>
<path d="M8.51152 87.0893C8.51152 87.0893 9.29446 86.837 9.74221 87.2519C10.1236 87.6696 10.2886 88.2373 9.66308 88.698C8.95638 89.0878 8.30944 89.045 7.98688 88.265C7.73756 87.5523 8.51152 87.0893 8.51152 87.0893" fill="#231f20" fill-rule="evenodd" opacity="1" stroke="none"/>
<path d="M10.8353 85.8369C10.8353 85.8369 11.7109 86.0146 12.1402 85.9963C12.5734 85.9778 12.3152 86.7082 11.8332 87.2331C11.3482 87.6878 11.0502 87.4855 10.6697 86.9973C10.2119 86.4382 10.8353 85.8369 10.8353 85.8369" fill="#231f20" fill-rule="evenodd" opacity="1" stroke="none"/>
<path d="M25.663 85.4201C26.5203 85.1685 27.1773 85.3555 27.6983 85.8377C28.2943 86.2463 28.386 86.7467 27.4748 87.2899C26.6337 87.8301 25.7703 87.9373 25.1722 87.3881C24.4997 86.8381 24.8097 85.6715 25.663 85.4201" fill="#231f20" fill-rule="evenodd" opacity="1" stroke="none"/>
<path d="M35.2051 86.0222C36.4237 85.8999 36.371 86.4065 36.8867 86.6738C37.4055 87.0114 38.3087 87.837 37.5226 88.0152C36.7395 88.2636 36.4936 89.2828 35.6219 89.1049C34.7503 88.927 33.7981 88.604 33.6202 87.8218C33.4459 87.0355 33.9828 86.1486 35.2051 86.0222" fill="#231f20" fill-rule="evenodd" opacity="1" stroke="none"/>
<path d="M38.6394 88.902C39.217 88.8774 40.5465 89.6144 39.3984 89.7377C38.3203 89.854 37.7528 90.0228 37.7313 89.5194C37.7801 89.0129 38.6394 88.902 38.6394 88.902" fill="#231f20" fill-rule="evenodd" opacity="1" stroke="none"/>
<path d="M26.5559 101.236C27.2496 100.632 28.2166 99.6524 29.6751 100.024C31.1296 100.392 31.9526 101.081 32.9778 101.467C34.0032 101.857 34.0276 102.431 33.2692 103.257C32.5146 104.083 32.4742 104.878 31.2618 105.145C29.9722 105.345 30.0001 107.65 28.9747 107.26C27.9494 106.87 25.2998 105.614 26.3564 104.994C27.4059 104.3 27.5777 103.284 26.4821 102.897C25.3827 102.514 25.9327 101.841 26.5559 101.236" fill="#231f20" fill-rule="evenodd" opacity="1" stroke="none"/>
<path d="M37.2364 96.5312C38.526 96.3316 38.8178 96.3895 38.989 97.1055C39.0968 97.8907 38.7562 98.3392 38.1053 98.2966C37.4575 98.3242 37.2732 97.3937 36.6995 97.4181C36.0546 97.516 36.021 96.7276 37.2364 96.5312" fill="#231f20" fill-rule="evenodd" opacity="1" stroke="none"/>
<path d="M45.6204 98.7661C46.4615 98.2259 46.8631 97.5598 47.5356 98.1098C48.2079 98.6558 48.5916 99.2181 48.3343 99.8781C48.1432 100.531 48.371 100.741 46.8637 100.875C45.3565 101.014 45.1845 100.372 44.8101 100.028C44.3615 99.6838 44.7764 99.2361 45.6204 98.7661" fill="#231f20" fill-rule="evenodd" opacity="1" stroke="none"/>
<path d="M53.7435 96.6215C54.7504 96.5786 55.2142 97.2782 56.2975 97.3767C57.4518 97.3979 57.8078 97.3123 58.4222 98.1502C59.0297 98.918 59.2047 99.63 58.1389 100.035C57.0741 100.37 56.5118 100.753 55.2841 100.661C54.1298 100.64 53.4024 100.452 52.306 100.139C51.2868 99.8931 51.0539 99.4729 51.4472 98.5178C51.7665 97.5698 52.7396 96.7346 53.7435 96.6215" fill="#231f20" fill-rule="evenodd" opacity="1" stroke="none"/>
<path d="M54.8241 105.005C55.8485 105.466 57.9396 105.451 59.1206 106.19C60.3828 107.001 61.3256 107.105 62.4984 107.559C63.6681 107.944 64.4077 108.416 63.8515 108.944C63.3023 109.543 62.4856 109.003 61.1867 108.984C59.9622 108.966 58.0156 108.978 56.5053 109.042C54.9277 109.18 54.6236 108.833 53.5861 108.158C52.5516 107.553 51.8456 107.869 51.6583 106.868C51.5413 105.864 51.8973 105.779 52.8857 105.303C53.8009 104.759 53.7918 104.545 54.8241 105.005" fill="#231f20" fill-rule="evenodd" opacity="1" stroke="none"/>
<path d="M40.8983 104.66C41.6906 104.626 42.0619 104.9 42.3042 105.538C42.5464 106.177 43.059 106.37 42.3624 106.904C41.8101 107.432 41.1776 107.819 40.4838 106.769C39.7931 105.79 40.039 104.771 40.8983 104.66" fill="#231f20" fill-rule="evenodd" opacity="1" stroke="none"/>
<path d="M10.4523 83.5464C10.1788 83.9178 9.6135 84.2312 9.16574 83.8163C8.64699 83.4787 8.58905 83.7705 8.47498 82.837C8.29383 81.9806 8.10968 81.054 8.36472 80.2495C8.61977 79.4449 9.20941 78.0514 9.75876 79.1071C10.3815 80.2339 11.1831 80.4187 11.2228 81.3515C11.333 82.2851 10.6485 83.1041 10.4523 83.5464" fill="#231f20" fill-rule="evenodd" opacity="1" stroke="none"/>
<path d="M16.2021 79.8412C16.2021 79.8412 16.672 79.0314 17.4672 79.0679C18.2624 79.1044 18.6431 79.5965 19.1557 79.7897C19.6653 79.9126 20.0244 79.8973 19.9259 80.9806C19.8275 82.0678 19.9934 82.5651 20.0331 83.4978C20.073 84.4345 19.8951 85.3061 19.2596 85.6225C18.6239 85.9351 18.2404 85.3767 17.4726 85.9841C16.7791 86.5923 15.6949 86.5642 15.7232 85.4839C15.7475 84.4038 15.5632 83.4733 15.382 82.6169C15.275 81.7574 14.2832 80.5016 15.2075 80.1729C16.2021 79.8412 16.2021 79.8412 16.2021 79.8412" fill="#231f20" fill-rule="evenodd" opacity="1" stroke="none"/>
<path d="M25.443 73.4655C26.0541 72.5754 26.8127 71.7533 26.2846 71.1971C25.6856 70.7183 25.1089 70.6725 24.7681 71.1171C24.3534 71.5687 23.73 72.17 23.7576 72.8179C23.715 73.4687 23.6714 74.19 24.5186 73.7942C25.443 73.4655 25.443 73.4655 25.443 73.4655" fill="#231f20" fill-rule="evenodd" opacity="1" stroke="none"/>
<path d="M15.3465 68.203C15.3465 68.203 16.581 66.7116 16.6702 65.4098C16.8296 64.1049 16.7379 63.6045 17.3512 62.8589C17.8983 62.1162 18.4749 62.162 19.0525 62.1374C19.7004 62.1098 20.0067 62.6011 20.6576 62.6438C21.3086 62.6903 21.7074 63.6078 21.8153 64.3968C21.9162 65.1119 22.0943 65.898 21.766 66.6353C21.4406 67.439 21.2588 68.3108 21.3048 69.3919C21.3539 70.5432 21.3753 71.0466 20.7866 72.3697C20.197 73.7633 19.1716 73.373 18.4496 73.4038C17.7315 73.4344 17.8202 73.8646 16.9087 72.75C16.0003 71.7096 15.6351 71.5805 15.0979 70.8097C14.6341 70.1101 15.3465 68.203 15.3465 68.203" fill="#231f20" fill-rule="evenodd" opacity="1" stroke="none"/>
<path d="M24.9799 65.994C25.9499 65.0847 26.0088 64.7225 26.6383 64.2656C27.2668 63.8752 27.7896 64.2166 28.0928 64.6337C28.471 64.9773 28.4863 65.3363 27.958 66.5162C27.4293 67.6882 27.5983 68.2596 26.6961 69.0175C25.7168 69.7082 24.9734 69.2355 24.4453 68.6794C23.8472 68.1301 24.0839 66.8963 24.9799 65.994" fill="#231f20" fill-rule="evenodd" opacity="1" stroke="none"/>
<path d="M27.2203 81.3188C29.0498 80.3025 28.8198 79.9526 29.0498 80.3025C29.2829 80.7265 28.3404 82.2798 29.5993 81.3621C30.8551 80.3702 31.6291 79.9072 31.7269 80.552C31.8988 81.1898 31.9049 81.3342 31.1494 82.2305C30.4712 83.1977 30.0656 83.864 29.2864 84.1123C28.4262 84.2936 27.3552 84.4839 27.3307 83.9102C27.3031 83.2623 27.3702 83.1852 25.9586 83.824C24.54 84.3888 25.4579 82.258 27.2203 81.3188" fill="#231f20" fill-rule="evenodd" opacity="1" stroke="none"/>
<path d="M36.9378 67.5019C39.3042 65.5987 39.1352 65.0272 38.6814 64.4718C38.2236 63.9127 38.0701 63.7042 37.0846 64.2506C36.1664 64.7237 36.4033 65.1437 35.3261 65.1895C34.3192 65.2325 33.3454 66.1419 34.5181 66.5963C35.765 67.0475 34.6407 69.4726 36.9378 67.5019" fill="#231f20" fill-rule="evenodd" opacity="1" stroke="none"/>
<path d="M49.0968 72.1721C51.3963 71.9998 50.896 72.0955 51.0799 71.3643C51.2678 70.6369 50.4199 71.107 50.1715 70.3239C49.9201 69.4706 49.6005 68.7609 48.4923 69.8207C47.3166 70.9499 46.724 72.2732 49.0968 72.1721" fill="#231f20" fill-rule="evenodd" opacity="1" stroke="none"/>
<path d="M55.9892 76.5624C57.6063 75.6998 57.9569 75.3955 58.9823 75.7858C60.0075 76.1722 60.5844 76.2219 60.7687 77.1524C60.9498 78.0087 61.3212 78.2822 60.406 78.8256C59.4947 79.3688 59.7856 79.4971 58.0729 79.8594C56.4273 80.1446 55.629 80.0379 54.9048 79.9241C54.1032 79.7393 53.8215 79.8256 54.282 78.7972C54.8158 77.8361 54.3651 77.351 55.9892 76.5624" fill="#231f20" fill-rule="evenodd" opacity="1" stroke="none"/>
<path d="M33.8501 47.5254C36.8406 43.2927 36.0026 43.9032 36.1225 43.3233C36.3125 42.7366 36.3561 42.0153 35.346 41.9841C34.3361 41.9567 33.433 41.1311 32.5308 41.889C31.6248 42.647 31.8091 43.5775 30.4952 44.8573C29.1845 46.2112 28.4748 46.5307 28.3671 47.3994C28.2666 48.342 28.705 48.5384 29.534 49.3671C30.3662 50.27 30.7864 51.6909 33.8501 47.5254" fill="#231f20" fill-rule="evenodd" opacity="1" stroke="none"/>
<path d="M46.2347 45.5589C47.386 45.5098 47.4777 46.0103 48.6541 44.8068C49.8295 43.6737 50.1733 43.2993 50.8456 43.8454C51.4448 44.3282 51.4937 45.4756 50.956 46.4368C50.3511 47.4713 50.7071 47.3858 49.8937 48.5738C49.0098 49.761 48.7365 50.1362 47.0229 50.5689C45.3805 50.9283 44.7883 50.5195 43.9043 50.0528C43.0204 49.5861 41.0401 48.8064 42.3385 47.1637C43.7113 45.5218 45.0834 45.608 46.2347 45.5589" fill="#231f20" fill-rule="evenodd" opacity="1" stroke="none"/>
<path d="M16.1619 87.338L5.62122 51.3549L9.20508 50.8824L16.6806 87.6756L15.7747 88.4375L0 68.2822L3.61722 60.1144" fill="#231f20" fill-rule="evenodd" opacity="1" stroke="none"/>
<path d="M20.344 29.8696L19.7446 85.1679L27.4357 30.7366L20.344 29.8696Z" fill="#231f20" fill-rule="evenodd" opacity="1" stroke="none"/>
<path d="M23.0231 87.6947L38.8165 35.407L42.2987 35.2095L35.5563 55.0394L49.3662 25L51.1699 33.8779L23.0231 87.6947" fill="#231f20" fill-rule="evenodd" opacity="1" stroke="none"/>
<path d="M33.4834 76.0787L64.8064 31.8143L68.1423 35.2391L33.4834 76.0787Z" fill="#231f20" fill-rule="evenodd" opacity="1" stroke="none"/>
<path d="M26.4278 91.4398L66.708 44.0375L71.4134 51.332L26.4278 91.4398Z" fill="#231f20" fill-rule="evenodd" opacity="1" stroke="none"/>
<path d="M34.5383 87.3486L82.1447 51.3714L86.1473 56.7821L34.5383 87.3486Z" fill="#231f20" fill-rule="evenodd" opacity="1" stroke="none"/>
<path d="M32.661 91.8609L86.5836 69.1764L88.8458 76.8541L32.661 91.8609Z" fill="#231f20" fill-rule="evenodd" opacity="1" stroke="none"/>
<path d="M42.5792 91.063L93.7133 80.2689L95.6482 88.9946L42.5792 91.063Z" fill="#231f20" fill-rule="evenodd" opacity="1" stroke="none"/>
<path d="M31.4559 94.4707L100.536 92.0906L101.898 98.6748L31.4559 94.4707Z" fill="#231f20" fill-rule="evenodd" opacity="1" stroke="none"/>
<path d="M23.8634 98.9738L109.717 103.596L107.918 108.253L23.8634 98.9738" fill="#231f20" fill-rule="evenodd" opacity="1" stroke="none"/>
</g>
<path d="M27.102 108.674L474.16 108.674C477.734 108.674 480.631 109.118 480.631 109.667L480.631 111.682C480.631 112.23 477.734 112.674 474.16 112.674L27.102 112.674C23.5282 112.674 20.6311 112.23 20.6311 111.682L20.6311 109.667C20.6311 109.118 23.5282 108.674 27.102 108.674Z" fill="#231f20" fill-rule="nonzero" opacity="1" stroke="none"/>
<g fill="#231f20" opacity="1" stroke="none">
<path clip-path="url(#TextBounds)" d="M117.732 40.3801L121.302 40.3801C121.914 40.3801 122.487 40.3347 123.019 40.2441C123.552 40.1534 124.017 39.9947 124.413 39.7681C124.81 39.5414 125.122 39.2467 125.348 38.8841C125.575 38.5214 125.688 38.0681 125.688 37.5241C125.688 36.7534 125.382 36.1754 124.77 35.7901C124.158 35.4047 123.297 35.2121 122.186 35.2121C120.94 35.2121 119.852 35.3537 118.922 35.6371C117.993 35.9204 117.109 36.3001 116.27 36.7761L114.57 32.5941C115.477 32.0274 116.571 31.5684 117.851 31.2171C119.132 30.8657 120.588 30.6901 122.22 30.6901C123.49 30.6901 124.668 30.8317 125.756 31.1151C126.844 31.3984 127.785 31.8177 128.578 32.3731C129.372 32.9284 129.989 33.6311 130.431 34.4811C130.873 35.3311 131.094 36.3227 131.094 37.4561C131.094 38.3174 130.862 39.1731 130.397 40.0231C129.933 40.8731 129.224 41.5927 128.272 42.1821C128.794 42.4541 129.287 42.7714 129.751 43.1341C130.216 43.4967 130.624 43.9161 130.975 44.3921C131.327 44.8681 131.604 45.4064 131.808 46.0071C132.012 46.6077 132.114 47.2821 132.114 48.0301C132.114 50.5461 131.225 52.3764 129.445 53.5211C127.666 54.6657 125.19 55.2381 122.016 55.2381C121.223 55.2381 120.435 55.1814 119.653 55.0681C118.871 54.9547 118.123 54.8131 117.409 54.6431C116.695 54.4731 116.027 54.2747 115.403 54.0481C114.78 53.8214 114.23 53.5834 113.754 53.3341L115.318 49.1861C115.636 49.3221 116.027 49.4751 116.491 49.6451C116.956 49.8151 117.472 49.9794 118.038 50.1381C118.605 50.2967 119.194 50.4327 119.806 50.5461C120.418 50.6594 121.03 50.7161 121.642 50.7161C123.138 50.7161 124.345 50.5007 125.263 50.0701C126.181 49.6394 126.64 48.8914 126.64 47.8261C126.64 47.1687 126.493 46.6361 126.198 46.2281C125.904 45.8201 125.501 45.5084 124.991 45.2931C124.481 45.0777 123.881 44.9304 123.189 44.8511C122.498 44.7717 121.744 44.7321 120.928 44.7321L117.732 44.7321L117.732 40.3801Z"/>
<path clip-path="url(#TextBounds)" d="M140.818 42.9641C140.818 44.1201 140.96 45.1627 141.243 46.0921C141.527 47.0214 141.935 47.8204 142.467 48.4891C143 49.1577 143.652 49.6734 144.422 50.0361C145.193 50.3987 146.077 50.5801 147.074 50.5801C148.049 50.5801 148.927 50.3987 149.709 50.0361C150.491 49.6734 151.149 49.1577 151.681 48.4891C152.214 47.8204 152.622 47.0214 152.905 46.0921C153.189 45.1627 153.33 44.1201 153.33 42.9641C153.33 41.8081 153.189 40.7597 152.905 39.8191C152.622 38.8784 152.214 38.0737 151.681 37.4051C151.149 36.7364 150.491 36.2207 149.709 35.8581C148.927 35.4954 148.049 35.3141 147.074 35.3141C146.077 35.3141 145.193 35.5011 144.422 35.8751C143.652 36.2491 143 36.7704 142.467 37.4391C141.935 38.1077 141.527 38.9124 141.243 39.8531C140.96 40.7937 140.818 41.8307 140.818 42.9641ZM158.804 42.9641C158.804 44.9814 158.504 46.7551 157.903 48.2851C157.303 49.8151 156.481 51.0957 155.438 52.1271C154.396 53.1584 153.155 53.9347 151.715 54.4561C150.276 54.9774 148.729 55.2381 147.074 55.2381C145.465 55.2381 143.946 54.9774 142.518 54.4561C141.09 53.9347 139.844 53.1584 138.778 52.1271C137.713 51.0957 136.874 49.8151 136.262 48.2851C135.65 46.7551 135.344 44.9814 135.344 42.9641C135.344 40.9467 135.662 39.1731 136.296 37.6431C136.931 36.1131 137.787 34.8267 138.863 33.7841C139.94 32.7414 141.187 31.9594 142.603 31.4381C144.02 30.9167 145.51 30.6561 147.074 30.6561C148.684 30.6561 150.202 30.9167 151.63 31.4381C153.058 31.9594 154.305 32.7414 155.37 33.7841C156.436 34.8267 157.274 36.1131 157.886 37.6431C158.498 39.1731 158.804 40.9467 158.804 42.9641Z"/>
<path clip-path="url(#TextBounds)" d="M177.436 31.2001L182.74 31.2001L182.74 54.7621L177.436 54.7621L177.436 44.7661L168.528 44.7661L168.528 54.7621L163.224 54.7621L163.224 31.2001L168.528 31.2001L168.528 40.2101L177.436 40.2101L177.436 31.2001Z"/>
<path clip-path="url(#TextBounds)" d="M203.956 54.7621C203.707 53.9461 203.429 53.1074 203.123 52.2461C202.817 51.3847 202.517 50.5234 202.222 49.6621L193.042 49.6621C192.748 50.5234 192.447 51.3847 192.141 52.2461C191.835 53.1074 191.558 53.9461 191.308 54.7621L185.8 54.7621C186.684 52.2234 187.523 49.8774 188.316 47.7241C189.11 45.5707 189.886 43.5421 190.645 41.6381C191.405 39.7341 192.153 37.9264 192.889 36.2151C193.626 34.5037 194.391 32.8321 195.184 31.2001L200.25 31.2001C201.021 32.8321 201.78 34.5037 202.528 36.2151C203.276 37.9264 204.03 39.7341 204.789 41.6381C205.549 43.5421 206.325 45.5707 207.118 47.7241C207.912 49.8774 208.75 52.2234 209.634 54.7621L203.956 54.7621ZM197.598 36.5381C197.485 36.8781 197.315 37.3427 197.088 37.9321C196.862 38.5214 196.601 39.2014 196.306 39.9721C196.012 40.7427 195.689 41.5927 195.337 42.5221C194.986 43.4514 194.629 44.4261 194.266 45.4461L200.964 45.4461C200.602 44.4261 200.25 43.4514 199.91 42.5221C199.57 41.5927 199.247 40.7427 198.941 39.9721C198.635 39.2014 198.369 38.5214 198.142 37.9321C197.916 37.3427 197.734 36.8781 197.598 36.5381Z"/>
<path clip-path="url(#TextBounds)" d="M233.4 47.8601C232.743 49.3561 232.052 50.5857 231.326 51.5491C230.601 52.5124 229.853 53.2661 229.082 53.8101C228.312 54.3541 227.53 54.7281 226.736 54.9321C225.943 55.1361 225.138 55.2381 224.322 55.2381C223.552 55.2381 222.753 55.1644 221.925 55.0171C221.098 54.8697 220.322 54.6601 219.596 54.3881L220.548 50.1381C221.659 50.5461 222.758 50.7501 223.846 50.7501C224.549 50.7501 225.223 50.5914 225.869 50.2741C226.515 49.9567 227.133 49.2767 227.722 48.2341C226.793 46.7834 225.903 45.2931 225.053 43.7631C224.203 42.2331 223.399 40.7257 222.639 39.2411C221.88 37.7564 221.177 36.3284 220.531 34.9571C219.885 33.5857 219.313 32.3334 218.814 31.2001L224.696 31.2001C225.059 32.0841 225.461 33.0304 225.903 34.0391C226.345 35.0477 226.816 36.0904 227.314 37.1671C227.813 38.2437 228.317 39.3204 228.827 40.3971C229.337 41.4737 229.83 42.5221 230.306 43.5421C231.032 41.5474 231.723 39.5074 232.38 37.4221C233.038 35.3367 233.672 33.2627 234.284 31.2001L239.962 31.2001C239.373 32.9454 238.795 34.5774 238.228 36.0961C237.662 37.6147 237.106 39.0541 236.562 40.4141C236.018 41.7741 235.48 43.0661 234.947 44.2901C234.415 45.5141 233.899 46.7041 233.4 47.8601Z"/>
<path clip-path="url(#TextBounds)" d="M250.094 30.9281C253.608 30.9281 256.305 31.5457 258.186 32.7811C260.068 34.0164 261.008 36.0394 261.008 38.8501C261.008 41.6834 260.056 43.7291 258.152 44.9871C256.248 46.2451 253.528 46.8741 249.992 46.8741L248.326 46.8741L248.326 54.7621L243.022 54.7621L243.022 31.5401C244.178 31.3134 245.402 31.1547 246.694 31.0641C247.986 30.9734 249.12 30.9281 250.094 30.9281ZM250.434 35.4501C250.049 35.4501 249.669 35.4614 249.295 35.4841C248.921 35.5067 248.598 35.5294 248.326 35.5521L248.326 42.3521L249.992 42.3521C251.828 42.3521 253.211 42.1027 254.14 41.6041C255.07 41.1054 255.534 40.1761 255.534 38.8161C255.534 38.1587 255.415 37.6147 255.177 37.1841C254.939 36.7534 254.599 36.4077 254.157 36.1471C253.715 35.8864 253.177 35.7051 252.542 35.6031C251.908 35.5011 251.205 35.4501 250.434 35.4501Z"/>
<path clip-path="url(#TextBounds)" d="M278.382 54.7621C278.133 53.9461 277.855 53.1074 277.549 52.2461C277.243 51.3847 276.943 50.5234 276.648 49.6621L267.468 49.6621C267.174 50.5234 266.873 51.3847 266.567 52.2461C266.261 53.1074 265.984 53.9461 265.734 54.7621L260.226 54.7621C261.11 52.2234 261.949 49.8774 262.742 47.7241C263.536 45.5707 264.312 43.5421 265.071 41.6381C265.831 39.7341 266.579 37.9264 267.315 36.2151C268.052 34.5037 268.817 32.8321 269.61 31.2001L274.676 31.2001C275.447 32.8321 276.206 34.5037 276.954 36.2151C277.702 37.9264 278.456 39.7341 279.215 41.6381C279.975 43.5421 280.751 45.5707 281.544 47.7241C282.338 49.8774 283.176 52.2234 284.06 54.7621L278.382 54.7621ZM272.024 36.5381C271.911 36.8781 271.741 37.3427 271.514 37.9321C271.288 38.5214 271.027 39.2014 270.732 39.9721C270.438 40.7427 270.115 41.5927 269.763 42.5221C269.412 43.4514 269.055 44.4261 268.692 45.4461L275.39 45.4461C275.028 44.4261 274.676 43.4514 274.336 42.5221C273.996 41.5927 273.673 40.7427 273.367 39.9721C273.061 39.2014 272.795 38.5214 272.568 37.9321C272.342 37.3427 272.16 36.8781 272.024 36.5381Z"/>
<path clip-path="url(#TextBounds)" d="M285.556 54.7621C286.214 53.6061 286.916 52.4501 287.664 51.2941C288.412 50.1381 289.177 49.0217 289.959 47.9451C290.741 46.8684 291.546 45.8597 292.373 44.9191C293.201 43.9784 294.034 43.1341 294.872 42.3861C293.92 41.4114 293.036 40.4594 292.22 39.5301C291.404 38.6007 290.628 37.6827 289.891 36.7761C289.155 35.8694 288.435 34.9571 287.732 34.0391C287.03 33.1211 286.316 32.1747 285.59 31.2001L291.982 31.2001C292.662 32.1521 293.303 33.0247 293.903 33.8181C294.504 34.6114 295.093 35.3821 295.671 36.1301C296.249 36.8781 296.833 37.6147 297.422 38.3401C298.012 39.0654 298.646 39.8361 299.326 40.6521L299.326 31.2001L304.494 31.2001L304.494 40.6521C305.174 39.8134 305.826 39.0144 306.449 38.2551C307.073 37.4957 307.679 36.7421 308.268 35.9941C308.858 35.2461 309.447 34.4811 310.036 33.6991C310.626 32.9171 311.226 32.0841 311.838 31.2001L318.196 31.2001C317.38 32.2654 316.615 33.2627 315.901 34.1921C315.187 35.1214 314.468 36.0281 313.742 36.9121C313.017 37.7961 312.275 38.6801 311.515 39.5641C310.756 40.4481 309.923 41.3774 309.016 42.3521C310.852 44.0521 312.53 45.9617 314.048 48.0811C315.567 50.2004 316.984 52.4274 318.298 54.7621L312.382 54.7621C311.68 53.6967 311.022 52.7107 310.41 51.8041C309.798 50.8974 309.186 50.0247 308.574 49.1861C307.962 48.3474 307.328 47.5257 306.67 46.7211C306.013 45.9164 305.288 45.0834 304.494 44.2221L304.494 54.7621L299.326 54.7621L299.326 44.2221C298.51 45.1741 297.774 46.0581 297.116 46.8741C296.459 47.6901 295.83 48.5061 295.229 49.3221C294.629 50.1381 294.022 50.9824 293.41 51.8551C292.798 52.7277 292.141 53.6967 291.438 54.7621L285.556 54.7621Z"/>
<path clip-path="url(#TextBounds)" d="M321.358 54.7621L321.358 31.2001L337.27 31.2001L337.27 35.6541L326.662 35.6541L326.662 40.2781L336.08 40.2781L336.08 44.6301L326.662 44.6301L326.662 50.3081L338.052 50.3081L338.052 54.7621L321.358 54.7621Z"/>
<path clip-path="url(#TextBounds)" d="M356.174 31.2001L361.478 31.2001L361.478 54.7621L356.174 54.7621L356.174 44.7661L347.266 44.7661L347.266 54.7621L341.962 54.7621L341.962 31.2001L347.266 31.2001L347.266 40.2101L356.174 40.2101L356.174 31.2001Z"/>
<path clip-path="url(#TextBounds)" d="M381.13 31.2001L386.434 31.2001L386.434 54.7621L381.13 54.7621L381.13 44.7661L372.222 44.7661L372.222 54.7621L366.918 54.7621L366.918 31.2001L372.222 31.2001L372.222 40.2101L381.13 40.2101L381.13 31.2001Z"/>
<path clip-path="url(#TextBounds)" d="M402.482 35.5181C401.802 35.5181 401.151 35.5691 400.527 35.6711C399.904 35.7731 399.354 35.9431 398.878 36.1811C398.402 36.4191 398.017 36.7477 397.722 37.1671C397.428 37.5864 397.28 38.1134 397.28 38.7481C397.28 39.9494 397.705 40.7767 398.555 41.2301C399.405 41.6834 400.669 41.9101 402.346 41.9101L404.556 41.9101L404.556 35.5521C404.284 35.5294 403.99 35.5181 403.672 35.5181C403.355 35.5181 402.958 35.5181 402.482 35.5181ZM402.72 30.9621C403.672 30.9621 404.789 31.0187 406.069 31.1321C407.35 31.2454 408.614 31.4381 409.86 31.7101L409.86 54.7621L404.556 54.7621L404.556 46.2961L402.924 46.2961C402.63 46.2961 402.346 46.2961 402.074 46.2961C401.802 46.2961 401.474 46.2734 401.088 46.2281C400.34 47.2481 399.519 48.5231 398.623 50.0531C397.728 51.5831 396.895 53.1527 396.124 54.7621L390.514 54.7621C390.922 53.8327 391.359 52.9147 391.823 52.0081C392.288 51.1014 392.758 50.2401 393.234 49.4241C393.71 48.6081 394.175 47.8544 394.628 47.1631C395.082 46.4717 395.501 45.8654 395.886 45.3441C395.388 45.1174 394.895 44.8171 394.407 44.4431C393.92 44.0691 393.484 43.6214 393.098 43.1001C392.713 42.5787 392.401 41.9611 392.163 41.2471C391.925 40.5331 391.806 39.7114 391.806 38.7821C391.806 37.4901 392.061 36.3567 392.571 35.3821C393.081 34.4074 393.807 33.5914 394.747 32.9341C395.688 32.2767 396.833 31.7837 398.181 31.4551C399.53 31.1264 401.043 30.9621 402.72 30.9621Z"/>
<path clip-path="url(#TextBounds)" d="M420.162 37.2861C420.162 39.1221 420.094 40.8334 419.958 42.4201C419.822 44.0067 419.641 45.6161 419.414 47.2481L415.538 47.2481C415.312 45.6161 415.125 44.0067 414.977 42.4201C414.83 40.8334 414.756 39.1221 414.756 37.2861L414.756 31.2001L420.162 31.2001L420.162 37.2861ZM420.604 52.0761C420.604 53.0734 420.281 53.8441 419.635 54.3881C418.989 54.9321 418.258 55.2041 417.442 55.2041C416.626 55.2041 415.895 54.9321 415.249 54.3881C414.603 53.8441 414.28 53.0734 414.28 52.0761C414.28 51.0787 414.603 50.3081 415.249 49.7641C415.895 49.2201 416.626 48.9481 417.442 48.9481C418.258 48.9481 418.989 49.2201 419.635 49.7641C420.281 50.3081 420.604 51.0787 420.604 52.0761Z"/>
</g>
<g fill="#231f20" opacity="1" stroke="none">
<path clip-path="url(#TextBounds_2)" d="M122.984 86.288C122.984 85.7467 122.863 85.266 122.62 84.846C122.378 84.426 121.958 84.076 121.36 83.796C120.763 83.516 119.96 83.3013 118.952 83.152C117.944 83.0027 116.675 82.928 115.144 82.928C115.35 81.192 115.518 79.428 115.648 77.636C115.779 75.844 115.882 74.164 115.956 72.596L126.456 72.596L126.456 76.096L119.456 76.096C119.419 76.768 119.377 77.4167 119.33 78.042C119.284 78.6673 119.232 79.2133 119.176 79.68C121.902 79.8667 123.913 80.506 125.21 81.598C126.508 82.69 127.156 84.2067 127.156 86.148C127.156 87.044 126.998 87.8747 126.68 88.64C126.363 89.4053 125.887 90.068 125.252 90.628C124.618 91.188 123.82 91.6267 122.858 91.944C121.897 92.2613 120.772 92.42 119.484 92.42C118.98 92.42 118.453 92.3873 117.902 92.322C117.352 92.2567 116.82 92.1727 116.306 92.07C115.793 91.9673 115.331 91.86 114.92 91.748C114.51 91.636 114.192 91.524 113.968 91.412L114.724 87.968C115.191 88.1733 115.807 88.374 116.572 88.57C117.338 88.766 118.252 88.864 119.316 88.864C120.604 88.864 121.538 88.6073 122.116 88.094C122.695 87.5807 122.984 86.9787 122.984 86.288Z"/>
<path clip-path="url(#TextBounds_2)" d="M143.76 82.256C143.76 85.5227 143.14 88.0287 141.898 89.774C140.657 91.5193 138.944 92.392 136.76 92.392C134.576 92.392 132.864 91.5193 131.622 89.774C130.381 88.0287 129.76 85.5227 129.76 82.256C129.76 80.632 129.924 79.1947 130.25 77.944C130.577 76.6933 131.048 75.6387 131.664 74.78C132.28 73.9213 133.018 73.268 133.876 72.82C134.735 72.372 135.696 72.148 136.76 72.148C138.944 72.148 140.657 73.0207 141.898 74.766C143.14 76.5113 143.76 79.008 143.76 82.256ZM139.504 82.256C139.504 81.2853 139.458 80.4033 139.364 79.61C139.271 78.8167 139.122 78.1307 138.916 77.552C138.711 76.9733 138.431 76.5253 138.076 76.208C137.722 75.8907 137.283 75.732 136.76 75.732C136.238 75.732 135.804 75.8907 135.458 76.208C135.113 76.5253 134.833 76.9733 134.618 77.552C134.404 78.1307 134.25 78.8167 134.156 79.61C134.063 80.4033 134.016 81.2853 134.016 82.256C134.016 83.2267 134.063 84.1133 134.156 84.916C134.25 85.7187 134.404 86.4093 134.618 86.988C134.833 87.5667 135.113 88.0147 135.458 88.332C135.804 88.6493 136.238 88.808 136.76 88.808C137.283 88.808 137.722 88.6493 138.076 88.332C138.431 88.0147 138.711 87.5667 138.916 86.988C139.122 86.4093 139.271 85.7187 139.364 84.916C139.458 84.1133 139.504 83.2267 139.504 82.256Z"/>
<path clip-path="url(#TextBounds_2)" d="M145.412 81.752L153.532 81.752L153.532 85.532L145.412 85.532L145.412 81.752Z"/>
<path clip-path="url(#TextBounds_2)" d="M164.312 86.288C164.312 85.7467 164.191 85.266 163.948 84.846C163.706 84.426 163.286 84.076 162.688 83.796C162.091 83.516 161.288 83.3013 160.28 83.152C159.272 83.0027 158.003 82.928 156.472 82.928C156.678 81.192 156.846 79.428 156.976 77.636C157.107 75.844 157.21 74.164 157.284 72.596L167.784 72.596L167.784 76.096L160.784 76.096C160.747 76.768 160.705 77.4167 160.658 78.042C160.612 78.6673 160.56 79.2133 160.504 79.68C163.23 79.8667 165.241 80.506 166.538 81.598C167.836 82.69 168.484 84.2067 168.484 86.148C168.484 87.044 168.326 87.8747 168.008 88.64C167.691 89.4053 167.215 90.068 166.58 90.628C165.946 91.188 165.148 91.6267 164.186 91.944C163.225 92.2613 162.1 92.42 160.812 92.42C160.308 92.42 159.781 92.3873 159.23 92.322C158.68 92.2567 158.148 92.1727 157.634 92.07C157.121 91.9673 156.659 91.86 156.248 91.748C155.838 91.636 155.52 91.524 155.296 91.412L156.052 87.968C156.519 88.1733 157.135 88.374 157.9 88.57C158.666 88.766 159.58 88.864 160.644 88.864C161.932 88.864 162.866 88.6073 163.444 88.094C164.023 87.5807 164.312 86.9787 164.312 86.288Z"/>
<path clip-path="url(#TextBounds_2)" d="M184.976 86.596C184.976 87.436 184.832 88.206 184.542 88.906C184.253 89.606 183.819 90.2173 183.24 90.74C182.662 91.2627 181.938 91.6687 181.07 91.958C180.202 92.2473 179.199 92.392 178.06 92.392C176.754 92.392 175.666 92.21 174.798 91.846C173.93 91.482 173.23 91.0293 172.698 90.488C172.166 89.9467 171.788 89.354 171.564 88.71C171.34 88.066 171.228 87.4733 171.228 86.932C171.228 86.372 171.303 85.8587 171.452 85.392C171.602 84.9253 171.807 84.5007 172.068 84.118C172.33 83.7353 172.624 83.3853 172.95 83.068C173.277 82.7507 173.627 82.452 174 82.172C173.198 81.5187 172.605 80.8747 172.222 80.24C171.84 79.6053 171.648 78.7933 171.648 77.804C171.648 77.0573 171.802 76.3387 172.11 75.648C172.418 74.9573 172.852 74.3553 173.412 73.842C173.972 73.3287 174.649 72.918 175.442 72.61C176.236 72.302 177.118 72.148 178.088 72.148C179.227 72.148 180.202 72.3113 181.014 72.638C181.826 72.9647 182.494 73.38 183.016 73.884C183.539 74.388 183.917 74.9527 184.15 75.578C184.384 76.2033 184.5 76.824 184.5 77.44C184.5 78.336 184.262 79.1713 183.786 79.946C183.31 80.7207 182.718 81.332 182.008 81.78C183.072 82.4707 183.833 83.194 184.29 83.95C184.748 84.706 184.976 85.588 184.976 86.596ZM175.288 86.764C175.288 86.988 175.34 87.2353 175.442 87.506C175.545 87.7767 175.708 88.024 175.932 88.248C176.156 88.472 176.446 88.6587 176.8 88.808C177.155 88.9573 177.584 89.032 178.088 89.032C179.059 89.032 179.768 88.7987 180.216 88.332C180.664 87.8653 180.888 87.3427 180.888 86.764C180.888 86.3347 180.79 85.952 180.594 85.616C180.398 85.28 180.132 84.986 179.796 84.734C179.46 84.482 179.064 84.258 178.606 84.062C178.149 83.866 177.659 83.684 177.136 83.516C176.614 83.908 176.175 84.3653 175.82 84.888C175.466 85.4107 175.288 86.036 175.288 86.764ZM180.468 77.552C180.468 77.3467 180.426 77.1273 180.342 76.894C180.258 76.6607 180.118 76.4413 179.922 76.236C179.726 76.0307 179.479 75.858 179.18 75.718C178.882 75.578 178.518 75.508 178.088 75.508C177.678 75.508 177.323 75.5733 177.024 75.704C176.726 75.8347 176.478 76.0073 176.282 76.222C176.086 76.4367 175.942 76.6653 175.848 76.908C175.755 77.1507 175.708 77.384 175.708 77.608C175.708 78.2053 175.928 78.7653 176.366 79.288C176.805 79.8107 177.556 80.2587 178.62 80.632C179.218 80.2587 179.675 79.8293 179.992 79.344C180.31 78.8587 180.468 78.2613 180.468 77.552Z"/>
<path clip-path="url(#TextBounds_2)" d="M198.864 83.516C198.827 84.1693 198.79 84.8787 198.752 85.644C198.715 86.4093 198.682 87.1793 198.654 87.954C198.626 88.7287 198.598 89.466 198.57 90.166C198.542 90.866 198.519 91.4773 198.5 92L194.44 92C194.478 90.9733 194.538 89.816 194.622 88.528C194.706 87.24 194.8 85.9287 194.902 84.594C195.005 83.2593 195.117 81.9573 195.238 80.688C195.36 79.4187 195.476 78.28 195.588 77.272L199.06 77.272C199.863 78.5787 200.6 79.932 201.272 81.332C201.944 82.732 202.654 84.272 203.4 85.952C204.184 84.16 204.95 82.5033 205.696 80.982C206.443 79.4607 207.115 78.224 207.712 77.272L211.24 77.272C211.371 78.28 211.497 79.4187 211.618 80.688C211.74 81.9573 211.852 83.2593 211.954 84.594C212.057 85.9287 212.146 87.24 212.22 88.528C212.295 89.816 212.351 90.9733 212.388 92L208.244 92C208.207 90.544 208.156 89.0973 208.09 87.66C208.025 86.2227 207.964 84.832 207.908 83.488L204.828 90.264L201.944 90.264L198.864 83.516Z"/>
<path clip-path="url(#TextBounds_2)" d="M215.328 84.748C215.328 83.4413 215.529 82.298 215.93 81.318C216.332 80.338 216.859 79.5213 217.512 78.868C218.166 78.2147 218.917 77.72 219.766 77.384C220.616 77.048 221.488 76.88 222.384 76.88C224.475 76.88 226.127 77.5193 227.34 78.798C228.554 80.0767 229.16 81.9573 229.16 84.44C229.16 84.6827 229.151 84.9487 229.132 85.238C229.114 85.5273 229.095 85.784 229.076 86.008L219.612 86.008C219.706 86.8667 220.107 87.548 220.816 88.052C221.526 88.556 222.478 88.808 223.672 88.808C224.438 88.808 225.189 88.738 225.926 88.598C226.664 88.458 227.266 88.2853 227.732 88.08L228.292 91.468C228.068 91.58 227.77 91.692 227.396 91.804C227.023 91.916 226.608 92.014 226.15 92.098C225.693 92.182 225.203 92.252 224.68 92.308C224.158 92.364 223.635 92.392 223.112 92.392C221.787 92.392 220.634 92.196 219.654 91.804C218.674 91.412 217.862 90.8753 217.218 90.194C216.574 89.5127 216.098 88.7053 215.79 87.772C215.482 86.8387 215.328 85.8307 215.328 84.748ZM225.128 83.152C225.11 82.7973 225.049 82.452 224.946 82.116C224.844 81.78 224.685 81.4813 224.47 81.22C224.256 80.9587 223.985 80.744 223.658 80.576C223.332 80.408 222.926 80.324 222.44 80.324C221.974 80.324 221.572 80.4033 221.236 80.562C220.9 80.7207 220.62 80.9307 220.396 81.192C220.172 81.4533 220 81.7567 219.878 82.102C219.757 82.4473 219.668 82.7973 219.612 83.152L225.128 83.152Z"/>
<path clip-path="url(#TextBounds_2)" d="M244.56 80.688L239.856 80.688L239.856 92L235.684 92L235.684 80.688L230.98 80.688L230.98 77.272L244.56 77.272L244.56 80.688Z"/>
<path clip-path="url(#TextBounds_2)" d="M256.516 84.748C256.516 83.46 256.227 82.4287 255.648 81.654C255.07 80.8793 254.211 80.492 253.072 80.492C252.699 80.492 252.354 80.506 252.036 80.534C251.719 80.562 251.458 80.5947 251.252 80.632L251.252 88.164C251.514 88.332 251.854 88.472 252.274 88.584C252.694 88.696 253.119 88.752 253.548 88.752C255.527 88.752 256.516 87.4173 256.516 84.748ZM260.772 84.636C260.772 85.7747 260.632 86.8107 260.352 87.744C260.072 88.6773 259.662 89.48 259.12 90.152C258.579 90.824 257.907 91.3467 257.104 91.72C256.302 92.0933 255.378 92.28 254.332 92.28C253.754 92.28 253.212 92.224 252.708 92.112C252.204 92 251.719 91.8413 251.252 91.636L251.252 97.18L247.08 97.18L247.08 77.776C247.454 77.664 247.883 77.5567 248.368 77.454C248.854 77.3513 249.362 77.2627 249.894 77.188C250.426 77.1133 250.968 77.0527 251.518 77.006C252.069 76.9593 252.596 76.936 253.1 76.936C254.314 76.936 255.396 77.118 256.348 77.482C257.3 77.846 258.103 78.3593 258.756 79.022C259.41 79.6847 259.909 80.492 260.254 81.444C260.6 82.396 260.772 83.46 260.772 84.636Z"/>
<path clip-path="url(#TextBounds_2)" d="M268.164 92L263.992 92L263.992 77.272L268.164 77.272L268.164 92ZM268.556 73.016C268.556 73.7813 268.309 74.3833 267.814 74.822C267.32 75.2607 266.736 75.48 266.064 75.48C265.392 75.48 264.809 75.2607 264.314 74.822C263.82 74.3833 263.572 73.7813 263.572 73.016C263.572 72.2507 263.82 71.6487 264.314 71.21C264.809 70.7713 265.392 70.552 266.064 70.552C266.736 70.552 267.32 70.7713 267.814 71.21C268.309 71.6487 268.556 72.2507 268.556 73.016Z"/>
<path clip-path="url(#TextBounds_2)" d="M276.256 88.92C276.518 88.9573 276.868 88.99 277.306 89.018C277.745 89.046 278.151 89.06 278.524 89.06C279.458 89.06 280.186 88.9433 280.708 88.71C281.231 88.4767 281.492 88.052 281.492 87.436C281.492 86.8387 281.254 86.4233 280.778 86.19C280.302 85.9567 279.607 85.84 278.692 85.84L276.256 85.84L276.256 88.92ZM278.608 83.04C279.299 83.04 279.859 82.9513 280.288 82.774C280.718 82.5967 280.932 82.2093 280.932 81.612C280.932 81.052 280.69 80.6693 280.204 80.464C279.719 80.2587 279.084 80.156 278.3 80.156C278.039 80.156 277.698 80.17 277.278 80.198C276.858 80.226 276.518 80.2587 276.256 80.296L276.256 83.04L278.608 83.04ZM278.468 92.28C277.946 92.28 277.386 92.2613 276.788 92.224C276.191 92.1867 275.603 92.1353 275.024 92.07C274.446 92.0047 273.9 91.93 273.386 91.846C272.873 91.762 272.439 91.6827 272.084 91.608L272.084 77.496C272.439 77.4213 272.873 77.3513 273.386 77.286C273.9 77.2207 274.446 77.16 275.024 77.104C275.603 77.048 276.191 77.006 276.788 76.978C277.386 76.95 277.946 76.936 278.468 76.936C279.682 76.936 280.704 77.0573 281.534 77.3C282.365 77.5427 283.037 77.86 283.55 78.252C284.064 78.644 284.432 79.0827 284.656 79.568C284.88 80.0533 284.992 80.5387 284.992 81.024C284.992 81.6773 284.834 82.2747 284.516 82.816C284.199 83.3573 283.798 83.7493 283.312 83.992C283.574 84.104 283.84 84.2627 284.11 84.468C284.381 84.6733 284.628 84.9207 284.852 85.21C285.076 85.4993 285.258 85.8447 285.398 86.246C285.538 86.6473 285.608 87.1093 285.608 87.632C285.608 88.2293 285.492 88.808 285.258 89.368C285.025 89.928 284.628 90.4227 284.068 90.852C283.508 91.2813 282.771 91.6267 281.856 91.888C280.942 92.1493 279.812 92.28 278.468 92.28Z"/>
<path clip-path="url(#TextBounds_2)" d="M294.96 84.972L308.12 84.972L308.12 88.472L294.96 88.472L294.96 84.972ZM294.96 78.84L308.12 78.84L308.12 82.34L294.96 82.34L294.96 78.84Z"/>
<path clip-path="url(#TextBounds_2)" d="M326.292 86.288C326.292 85.7467 326.171 85.266 325.928 84.846C325.686 84.426 325.266 84.076 324.668 83.796C324.071 83.516 323.268 83.3013 322.26 83.152C321.252 83.0027 319.983 82.928 318.452 82.928C318.658 81.192 318.826 79.428 318.956 77.636C319.087 75.844 319.19 74.164 319.264 72.596L329.764 72.596L329.764 76.096L322.764 76.096C322.727 76.768 322.685 77.4167 322.638 78.042C322.592 78.6673 322.54 79.2133 322.484 79.68C325.21 79.8667 327.221 80.506 328.518 81.598C329.816 82.69 330.464 84.2067 330.464 86.148C330.464 87.044 330.306 87.8747 329.988 88.64C329.671 89.4053 329.195 90.068 328.56 90.628C327.926 91.188 327.128 91.6267 326.166 91.944C325.205 92.2613 324.08 92.42 322.792 92.42C322.288 92.42 321.761 92.3873 321.21 92.322C320.66 92.2567 320.128 92.1727 319.614 92.07C319.101 91.9673 318.639 91.86 318.228 91.748C317.818 91.636 317.5 91.524 317.276 91.412L318.032 87.968C318.499 88.1733 319.115 88.374 319.88 88.57C320.646 88.766 321.56 88.864 322.624 88.864C323.912 88.864 324.846 88.6073 325.424 88.094C326.003 87.5807 326.292 86.9787 326.292 86.288Z"/>
<path clip-path="url(#TextBounds_2)" d="M346.424 89.088C346.835 89.088 347.227 89.0787 347.6 89.06C347.974 89.0413 348.272 89.0133 348.496 88.976L348.496 85.812C348.328 85.7747 348.076 85.7373 347.74 85.7C347.404 85.6627 347.096 85.644 346.816 85.644C346.424 85.644 346.056 85.6673 345.71 85.714C345.365 85.7607 345.062 85.8493 344.8 85.98C344.539 86.1107 344.334 86.288 344.184 86.512C344.035 86.736 343.96 87.016 343.96 87.352C343.96 88.0053 344.18 88.458 344.618 88.71C345.057 88.962 345.659 89.088 346.424 89.088ZM346.088 76.88C347.32 76.88 348.347 77.02 349.168 77.3C349.99 77.58 350.648 77.9813 351.142 78.504C351.637 79.0267 351.987 79.6613 352.192 80.408C352.398 81.1547 352.5 81.9853 352.5 82.9L352.5 91.58C351.903 91.7107 351.072 91.8647 350.008 92.042C348.944 92.2193 347.656 92.308 346.144 92.308C345.192 92.308 344.329 92.224 343.554 92.056C342.78 91.888 342.112 91.6127 341.552 91.23C340.992 90.8473 340.563 90.348 340.264 89.732C339.966 89.116 339.816 88.36 339.816 87.464C339.816 86.6053 339.989 85.8773 340.334 85.28C340.68 84.6827 341.142 84.2067 341.72 83.852C342.299 83.4973 342.962 83.2407 343.708 83.082C344.455 82.9233 345.23 82.844 346.032 82.844C346.574 82.844 347.054 82.8673 347.474 82.914C347.894 82.9607 348.235 83.0213 348.496 83.096L348.496 82.704C348.496 81.9947 348.282 81.4253 347.852 80.996C347.423 80.5667 346.676 80.352 345.612 80.352C344.903 80.352 344.203 80.4033 343.512 80.506C342.822 80.6087 342.224 80.7533 341.72 80.94L341.188 77.58C341.431 77.5053 341.734 77.426 342.098 77.342C342.462 77.258 342.859 77.1833 343.288 77.118C343.718 77.0527 344.17 76.9967 344.646 76.95C345.122 76.9033 345.603 76.88 346.088 76.88Z"/>
<path clip-path="url(#TextBounds_2)" d="M360.452 88.92C360.714 88.9573 361.064 88.99 361.502 89.018C361.941 89.046 362.347 89.06 362.72 89.06C363.654 89.06 364.382 88.9433 364.904 88.71C365.427 88.4767 365.688 88.052 365.688 87.436C365.688 86.8387 365.45 86.4233 364.974 86.19C364.498 85.9567 363.803 85.84 362.888 85.84L360.452 85.84L360.452 88.92ZM362.804 83.04C363.495 83.04 364.055 82.9513 364.484 82.774C364.914 82.5967 365.128 82.2093 365.128 81.612C365.128 81.052 364.886 80.6693 364.4 80.464C363.915 80.2587 363.28 80.156 362.496 80.156C362.235 80.156 361.894 80.17 361.474 80.198C361.054 80.226 360.714 80.2587 360.452 80.296L360.452 83.04L362.804 83.04ZM362.664 92.28C362.142 92.28 361.582 92.2613 360.984 92.224C360.387 92.1867 359.799 92.1353 359.22 92.07C358.642 92.0047 358.096 91.93 357.582 91.846C357.069 91.762 356.635 91.6827 356.28 91.608L356.28 77.496C356.635 77.4213 357.069 77.3513 357.582 77.286C358.096 77.2207 358.642 77.16 359.22 77.104C359.799 77.048 360.387 77.006 360.984 76.978C361.582 76.95 362.142 76.936 362.664 76.936C363.878 76.936 364.9 77.0573 365.73 77.3C366.561 77.5427 367.233 77.86 367.746 78.252C368.26 78.644 368.628 79.0827 368.852 79.568C369.076 80.0533 369.188 80.5387 369.188 81.024C369.188 81.6773 369.03 82.2747 368.712 82.816C368.395 83.3573 367.994 83.7493 367.508 83.992C367.77 84.104 368.036 84.2627 368.306 84.468C368.577 84.6733 368.824 84.9207 369.048 85.21C369.272 85.4993 369.454 85.8447 369.594 86.246C369.734 86.6473 369.804 87.1093 369.804 87.632C369.804 88.2293 369.688 88.808 369.454 89.368C369.221 89.928 368.824 90.4227 368.264 90.852C367.704 91.2813 366.967 91.6267 366.052 91.888C365.138 92.1493 364.008 92.28 362.664 92.28Z"/>
<path clip-path="url(#TextBounds_2)" d="M385.204 80.688L380.5 80.688L380.5 92L376.328 92L376.328 80.688L371.624 80.688L371.624 77.272L385.204 77.272L385.204 80.688Z"/>
<path clip-path="url(#TextBounds_2)" d="M401.5 84.608C401.5 85.7653 401.332 86.8247 400.996 87.786C400.66 88.7473 400.175 89.5687 399.54 90.25C398.906 90.9313 398.145 91.4587 397.258 91.832C396.372 92.2053 395.378 92.392 394.276 92.392C393.194 92.392 392.209 92.2053 391.322 91.832C390.436 91.4587 389.675 90.9313 389.04 90.25C388.406 89.5687 387.911 88.7473 387.556 87.786C387.202 86.8247 387.024 85.7653 387.024 84.608C387.024 83.4507 387.206 82.396 387.57 81.444C387.934 80.492 388.438 79.68 389.082 79.008C389.726 78.336 390.492 77.8133 391.378 77.44C392.265 77.0667 393.231 76.88 394.276 76.88C395.34 76.88 396.316 77.0667 397.202 77.44C398.089 77.8133 398.85 78.336 399.484 79.008C400.119 79.68 400.614 80.492 400.968 81.444C401.323 82.396 401.5 83.4507 401.5 84.608ZM397.244 84.608C397.244 83.32 396.988 82.3073 396.474 81.57C395.961 80.8327 395.228 80.464 394.276 80.464C393.324 80.464 392.587 80.8327 392.064 81.57C391.542 82.3073 391.28 83.32 391.28 84.608C391.28 85.896 391.542 86.918 392.064 87.674C392.587 88.43 393.324 88.808 394.276 88.808C395.228 88.808 395.961 88.43 396.474 87.674C396.988 86.918 397.244 85.896 397.244 84.608Z"/>
<path clip-path="url(#TextBounds_2)" d="M417.572 73.828C416.882 73.9773 416.228 74.08 415.612 74.136C414.996 74.192 414.362 74.276 413.708 74.388C413.148 74.4813 412.588 74.6213 412.028 74.808C411.468 74.9947 410.95 75.2513 410.474 75.578C409.998 75.9047 409.583 76.3153 409.228 76.81C408.874 77.3047 408.622 77.916 408.472 78.644C409.686 78.0653 410.862 77.776 412 77.776C412.896 77.776 413.727 77.9253 414.492 78.224C415.258 78.5227 415.925 78.9707 416.494 79.568C417.064 80.1653 417.512 80.9073 417.838 81.794C418.165 82.6807 418.328 83.712 418.328 84.888C418.328 86.1573 418.142 87.2587 417.768 88.192C417.395 89.1253 416.886 89.9047 416.242 90.53C415.598 91.1553 414.852 91.622 414.002 91.93C413.153 92.238 412.243 92.392 411.272 92.392C408.678 92.392 406.82 91.6033 405.7 90.026C404.58 88.4487 404.02 86.1293 404.02 83.068C404.02 81.052 404.216 79.3393 404.608 77.93C405 76.5207 405.588 75.3447 406.372 74.402C407.156 73.4593 408.127 72.7173 409.284 72.176C410.442 71.6347 411.786 71.2053 413.316 70.888C413.932 70.7573 414.553 70.6593 415.178 70.594C415.804 70.5287 416.443 70.4213 417.096 70.272L417.572 73.828ZM408.388 82.06C408.351 82.3213 408.328 82.62 408.318 82.956C408.309 83.292 408.304 83.5907 408.304 83.852C408.304 85.4947 408.533 86.736 408.99 87.576C409.448 88.416 410.218 88.836 411.3 88.836C412.215 88.836 412.915 88.4813 413.4 87.772C413.886 87.0627 414.128 86.1107 414.128 84.916C414.128 84.4493 414.072 83.9967 413.96 83.558C413.848 83.1193 413.671 82.732 413.428 82.396C413.186 82.06 412.887 81.7893 412.532 81.584C412.178 81.3787 411.758 81.276 411.272 81.276C410.787 81.276 410.278 81.332 409.746 81.444C409.214 81.556 408.762 81.7613 408.388 82.06Z"/>
<path clip-path="url(#TextBounds_2)" d="M434.624 77.272C433.784 80.1093 432.907 82.7693 431.992 85.252C431.078 87.7347 430.079 90.1427 428.996 92.476C428.604 93.316 428.212 94.03 427.82 94.618C427.428 95.206 426.999 95.6913 426.532 96.074C426.066 96.4567 425.538 96.7367 424.95 96.914C424.362 97.0913 423.676 97.18 422.892 97.18C422.239 97.18 421.637 97.1193 421.086 96.998C420.536 96.8767 420.083 96.7413 419.728 96.592L420.456 93.26C420.886 93.4093 421.268 93.512 421.604 93.568C421.94 93.624 422.295 93.652 422.668 93.652C423.415 93.652 423.989 93.4513 424.39 93.05C424.792 92.6487 425.132 92.0933 425.412 91.384C424.46 89.5173 423.508 87.422 422.556 85.098C421.604 82.774 420.708 80.1653 419.868 77.272L424.292 77.272C424.479 78 424.698 78.7887 424.95 79.638C425.202 80.4873 425.468 81.346 425.748 82.214C426.028 83.082 426.313 83.9267 426.602 84.748C426.892 85.5693 427.167 86.316 427.428 86.988C427.671 86.316 427.923 85.5693 428.184 84.748C428.446 83.9267 428.702 83.082 428.954 82.214C429.206 81.346 429.449 80.4873 429.682 79.638C429.916 78.7887 430.126 78 430.312 77.272L434.624 77.272Z"/>
<path clip-path="url(#TextBounds_2)" d="M436.164 84.636C436.164 83.572 436.337 82.5687 436.682 81.626C437.028 80.6833 437.527 79.862 438.18 79.162C438.834 78.462 439.627 77.9067 440.56 77.496C441.494 77.0853 442.558 76.88 443.752 76.88C444.536 76.88 445.255 76.95 445.908 77.09C446.562 77.23 447.196 77.4307 447.812 77.692L446.944 81.024C446.552 80.8747 446.123 80.744 445.656 80.632C445.19 80.52 444.667 80.464 444.088 80.464C442.856 80.464 441.937 80.8467 441.33 81.612C440.724 82.3773 440.42 83.3853 440.42 84.636C440.42 85.9613 440.705 86.988 441.274 87.716C441.844 88.444 442.838 88.808 444.256 88.808C444.76 88.808 445.302 88.7613 445.88 88.668C446.459 88.5747 446.991 88.4253 447.476 88.22L448.064 91.636C447.579 91.8413 446.972 92.0187 446.244 92.168C445.516 92.3173 444.714 92.392 443.836 92.392C442.492 92.392 441.335 92.1913 440.364 91.79C439.394 91.3887 438.596 90.8427 437.97 90.152C437.345 89.4613 436.888 88.6447 436.598 87.702C436.309 86.7593 436.164 85.7373 436.164 84.636Z"/>
<path clip-path="url(#TextBounds_2)" d="M455.036 92L450.864 92L450.864 77.272L455.036 77.272L455.036 92ZM455.428 73.016C455.428 73.7813 455.181 74.3833 454.686 74.822C454.192 75.2607 453.608 75.48 452.936 75.48C452.264 75.48 451.681 75.2607 451.186 74.822C450.692 74.3833 450.444 73.7813 450.444 73.016C450.444 72.2507 450.692 71.6487 451.186 71.21C451.681 70.7713 452.264 70.552 452.936 70.552C453.608 70.552 454.192 70.7713 454.686 71.21C455.181 71.6487 455.428 72.2507 455.428 73.016Z"/>
<path clip-path="url(#TextBounds_2)" d="M463.128 88.92C463.39 88.9573 463.74 88.99 464.178 89.018C464.617 89.046 465.023 89.06 465.396 89.06C466.33 89.06 467.058 88.9433 467.58 88.71C468.103 88.4767 468.364 88.052 468.364 87.436C468.364 86.8387 468.126 86.4233 467.65 86.19C467.174 85.9567 466.479 85.84 465.564 85.84L463.128 85.84L463.128 88.92ZM465.48 83.04C466.171 83.04 466.731 82.9513 467.16 82.774C467.59 82.5967 467.804 82.2093 467.804 81.612C467.804 81.052 467.562 80.6693 467.076 80.464C466.591 80.2587 465.956 80.156 465.172 80.156C464.911 80.156 464.57 80.17 464.15 80.198C463.73 80.226 463.39 80.2587 463.128 80.296L463.128 83.04L465.48 83.04ZM465.34 92.28C464.818 92.28 464.258 92.2613 463.66 92.224C463.063 92.1867 462.475 92.1353 461.896 92.07C461.318 92.0047 460.772 91.93 460.258 91.846C459.745 91.762 459.311 91.6827 458.956 91.608L458.956 77.496C459.311 77.4213 459.745 77.3513 460.258 77.286C460.772 77.2207 461.318 77.16 461.896 77.104C462.475 77.048 463.063 77.006 463.66 76.978C464.258 76.95 464.818 76.936 465.34 76.936C466.554 76.936 467.576 77.0573 468.406 77.3C469.237 77.5427 469.909 77.86 470.422 78.252C470.936 78.644 471.304 79.0827 471.528 79.568C471.752 80.0533 471.864 80.5387 471.864 81.024C471.864 81.6773 471.706 82.2747 471.388 82.816C471.071 83.3573 470.67 83.7493 470.184 83.992C470.446 84.104 470.712 84.2627 470.982 84.468C471.253 84.6733 471.5 84.9207 471.724 85.21C471.948 85.4993 472.13 85.8447 472.27 86.246C472.41 86.6473 472.48 87.1093 472.48 87.632C472.48 88.2293 472.364 88.808 472.13 89.368C471.897 89.928 471.5 90.4227 470.94 90.852C470.38 91.2813 469.643 91.6267 468.728 91.888C467.814 92.1493 466.684 92.28 465.34 92.28Z"/>
</g>
<path d="M500.631 110.674L460.631 120.674L460.631 100.674L500.631 110.674Z" fill="#231f20" fill-rule="nonzero" opacity="1" stroke="none"/>
</g>
<g id="Distance">
<path d="M373.424 155.723C376.193 155.723 378.436 157.966 378.436 160.735C378.436 163.503 376.193 165.747 373.424 165.747C370.655 165.747 368.412 163.503 368.412 160.735C368.412 157.966 370.655 155.723 373.424 155.723ZM301.166 156.814C301.03 152.211 301.07 148.229 301.304 144.919C301.539 141.569 301.974 138.886 302.617 136.919C303.194 135.152 303.937 134.131 304.962 133.538C305.974 132.955 307.205 132.825 308.797 132.825L377.328 132.825C378.735 132.825 380.057 132.845 381.354 133.037C382.67 133.232 383.945 133.604 385.225 134.308C386.018 134.744 386.67 135.331 387.211 136.025C387.577 136.488 387.891 137.001 388.162 137.542C388.387 137.448 388.626 137.37 388.87 137.307C391.081 136.635 393.805 136.916 393.801 139.241L393.792 143.666C393.79 144.193 393.359 144.624 392.832 144.624L392.352 144.624C392.088 144.624 391.872 144.409 391.872 144.146L391.872 139.858C391.872 139.387 391.635 138.984 391.105 138.84C390.54 138.725 389.879 138.746 389.278 138.9C389.089 138.949 388.908 139.012 388.736 139.089C389.236 140.887 389.71 142.692 390.127 144.519C390.598 146.594 390.991 148.68 391.251 150.781L391.255 150.839L391.255 157.195L391.25 157.26C391.141 159.178 390.324 160.284 389.106 160.921C387.945 161.528 386.442 161.671 384.861 161.693L379.896 161.695C379.631 161.695 379.416 161.479 379.416 161.213L379.42 161.153C379.427 161.019 379.432 160.881 379.432 160.737C379.432 159.165 378.826 157.722 377.828 156.644C376.828 155.567 375.436 154.853 373.866 154.741C373.572 154.719 373.276 154.719 372.982 154.741C371.412 154.853 370.02 155.567 369.02 156.644C367.988 157.757 367.415 159.219 367.416 160.737C367.416 160.891 367.421 161.039 367.43 161.18C367.45 161.445 367.249 161.675 366.985 161.693L332.846 161.695C332.58 161.695 332.364 161.479 332.364 161.213L332.368 161.153C332.484 159.495 331.908 157.862 330.776 156.644C329.779 155.567 328.384 154.853 326.814 154.741C326.525 154.719 326.222 154.719 325.931 154.741C324.361 154.853 322.968 155.567 321.97 156.644C320.937 157.756 320.363 159.218 320.364 160.737C320.364 160.891 320.37 161.039 320.38 161.18C320.399 161.445 320.199 161.675 319.935 161.693L306.468 161.695L306.405 161.691C304.969 161.573 303.779 161.149 302.885 160.369C301.979 159.578 301.391 158.439 301.172 156.898C301.172 156.898 301.166 156.814 301.166 156.814ZM364.472 150.962L364.472 160.731L366.454 160.731C366.454 158.913 367.159 157.24 368.318 155.991C369.477 154.741 371.092 153.914 372.915 153.783C373.258 153.758 373.591 153.758 373.933 153.783C375.756 153.914 377.372 154.741 378.531 155.991C379.689 157.24 380.394 158.913 380.396 160.731L381.115 160.731L381.115 150.962C381.115 150.962 364.472 150.962 364.472 150.962ZM363.87 160.731L363.87 150.962L349.982 150.962L349.982 160.731L363.87 160.731ZM349.38 160.731L349.38 150.962L335.492 150.962L335.492 160.731L349.38 160.731ZM334.89 160.731L334.89 150.962L308.252 150.962L308.252 160.731L319.403 160.731C319.403 158.972 320.069 157.279 321.266 155.991C322.425 154.741 324.042 153.914 325.864 153.783C326.206 153.758 326.541 153.758 326.883 153.783C328.705 153.914 330.32 154.741 331.481 155.991C332.64 157.24 333.342 158.913 333.344 160.731C333.344 160.731 334.89 160.731 334.89 160.731ZM307.651 160.731L307.651 150.661C307.651 150.495 307.785 150.361 307.951 150.361L381.415 150.361C381.582 150.361 381.716 150.495 381.716 150.661L381.716 160.731L384.856 160.731C386.306 160.715 387.671 160.59 388.662 160.072C389.585 159.589 390.205 158.725 390.292 157.204L390.292 150.866C390.035 148.793 389.651 146.752 389.191 144.729C388.729 142.701 388.188 140.677 387.617 138.652C387.302 137.906 386.924 137.211 386.456 136.615C385.993 136.023 385.437 135.521 384.763 135.15C383.595 134.507 382.426 134.167 381.214 133.988C379.988 133.806 378.701 133.787 377.328 133.787L308.797 133.787C307.357 133.787 306.264 133.893 305.44 134.37C304.63 134.835 304.027 135.695 303.529 137.216C302.912 139.108 302.493 141.714 302.263 144.983C302.236 145.368 302.211 145.763 302.189 146.169L302.58 146.169C302.872 146.169 303.111 146.406 303.111 146.698L303.111 150.904C303.111 151.257 302.821 151.547 302.466 151.547L302.048 151.547C302.044 153.189 302.07 154.935 302.124 156.78C302.312 158.073 302.789 159.013 303.515 159.647C304.245 160.284 305.248 160.632 306.481 160.731C306.481 160.731 307.651 160.731 307.651 160.731ZM381.375 135.679C387.427 136.586 386.793 144.354 387.865 150.716L383.952 150.716C382.663 150.716 381.629 149.66 381.605 148.371C381.605 148.371 381.375 135.679 381.375 135.679ZM310.925 135.69L312.659 135.69C312.659 135.717 312.661 135.744 312.667 135.773L314.401 145.626L309.927 145.626C307.745 145.626 305.956 143.838 305.956 141.654L305.956 140.657C305.956 137.926 308.192 135.69 310.925 135.69ZM313.628 135.69L323.768 135.69C323.768 135.717 323.77 135.744 323.774 135.773L325.509 145.626L315.37 145.626C315.37 145.598 315.366 145.571 315.363 145.542C315.363 145.542 313.628 135.69 313.628 135.69ZM324.735 135.69L334.876 135.69C334.876 135.717 334.878 135.744 334.883 135.773L336.616 145.626L326.477 145.626C326.477 145.598 326.476 145.571 326.47 145.542C326.47 145.542 324.735 135.69 324.735 135.69ZM335.845 135.69L345.983 135.69C345.983 135.717 345.987 135.744 345.991 135.773L347.725 145.626L337.585 145.626C337.585 145.598 337.583 145.571 337.578 145.542C337.578 145.542 335.845 135.69 335.845 135.69ZM346.952 135.69L357.093 135.69C357.093 135.717 357.094 135.744 357.1 135.773L358.833 145.626L348.694 145.626C348.694 145.598 348.692 145.571 348.687 145.542C348.687 145.542 346.952 135.69 346.952 135.69ZM358.061 135.69L368.2 135.69C368.2 135.717 368.202 135.744 368.207 135.773L369.942 145.626L359.801 145.626C359.801 145.598 359.8 145.571 359.794 145.542C359.794 145.542 358.061 135.69 358.061 135.69ZM369.169 135.69L379.992 135.69L379.992 145.626L370.911 145.626C370.911 145.598 370.907 145.571 370.903 145.542C370.903 145.542 369.169 135.69 369.169 135.69ZM358.02 158.383L358.02 158.737C358.02 158.857 357.924 158.953 357.804 158.953L356.093 158.953C355.95 158.953 355.832 158.835 355.832 158.692L355.832 158.383L358.02 158.383ZM343.53 158.383L343.53 158.737C343.53 158.857 343.434 158.953 343.314 158.953L341.603 158.953C341.46 158.953 341.342 158.835 341.342 158.692L341.342 158.383L343.53 158.383ZM326.372 155.723C329.141 155.723 331.386 157.966 331.386 160.735C331.386 163.503 329.141 165.747 326.372 165.747C323.606 165.747 321.36 163.503 321.36 160.735C321.36 157.966 323.606 155.723 326.372 155.723ZM326.374 159.71C326.939 159.71 327.397 160.168 327.397 160.735C327.397 161.3 326.939 161.76 326.374 161.76C325.816 161.749 325.368 161.293 325.368 160.735C325.368 160.176 325.816 159.72 326.374 159.71ZM326.374 157.986C327.892 157.986 329.121 159.217 329.121 160.735C329.121 162.252 327.892 163.484 326.374 163.484C324.855 163.484 323.625 162.252 323.625 160.735C323.625 159.217 324.855 157.986 326.374 157.986ZM373.424 159.71C373.983 159.72 374.43 160.176 374.43 160.735C374.43 161.293 373.983 161.749 373.424 161.76C372.859 161.76 372.399 161.3 372.399 160.735C372.399 160.168 372.859 159.71 373.424 159.71ZM373.424 157.986C374.942 157.986 376.173 159.217 376.173 160.735C376.173 162.252 374.942 163.484 373.424 163.484C371.907 163.484 370.675 162.252 370.675 160.735C370.675 159.217 371.907 157.986 373.424 157.986Z" fill="#000000" fill-rule="evenodd" opacity="1" stroke="none"/>
<path d="M278.533 155.723C281.302 155.723 283.545 157.966 283.545 160.735C283.545 163.503 281.302 165.747 278.533 165.747C275.764 165.747 273.521 163.503 273.521 160.735C273.521 157.966 275.764 155.723 278.533 155.723ZM206.275 156.814C206.139 152.211 206.179 148.229 206.413 144.919C206.648 141.569 207.083 138.886 207.725 136.919C208.303 135.152 209.045 134.131 210.07 133.538C211.083 132.955 212.314 132.825 213.906 132.825L282.437 132.825C283.844 132.825 285.166 132.845 286.462 133.037C287.779 133.232 289.054 133.604 290.334 134.308C291.127 134.744 291.779 135.331 292.32 136.025C292.686 136.488 292.999 137.001 293.271 137.542C293.495 137.448 293.734 137.37 293.979 137.307C296.19 136.635 298.913 136.916 298.91 139.241L298.901 143.666C298.899 144.193 298.468 144.624 297.941 144.624L297.461 144.624C297.197 144.624 296.981 144.409 296.981 144.146L296.981 139.858C296.981 139.387 296.744 138.984 296.213 138.84C295.648 138.725 294.988 138.746 294.386 138.9C294.198 138.949 294.017 139.012 293.845 139.089C294.345 140.887 294.819 142.692 295.236 144.519C295.706 146.594 296.099 148.68 296.36 150.781L296.364 150.839L296.364 157.195L296.358 157.26C296.25 159.178 295.433 160.284 294.214 160.921C293.054 161.528 291.551 161.671 289.97 161.693L285.005 161.695C284.74 161.695 284.525 161.479 284.525 161.213L284.528 161.153C284.536 161.019 284.541 160.881 284.541 160.737C284.541 159.165 283.934 157.722 282.937 156.644C281.937 155.567 280.545 154.853 278.975 154.741C278.681 154.719 278.385 154.719 278.091 154.741C276.521 154.853 275.129 155.567 274.129 156.644C273.097 157.757 272.524 159.219 272.525 160.737C272.525 160.891 272.53 161.039 272.539 161.18C272.559 161.445 272.358 161.675 272.094 161.693L237.955 161.695C237.689 161.695 237.473 161.479 237.473 161.213L237.477 161.153C237.593 159.495 237.017 157.862 235.885 156.644C234.887 155.567 233.493 154.853 231.923 154.741C231.633 154.719 231.331 154.719 231.039 154.741C229.469 154.853 228.077 155.567 227.079 156.644C226.046 157.756 225.472 159.218 225.473 160.737C225.473 160.891 225.478 161.039 225.489 161.18C225.507 161.445 225.308 161.675 225.044 161.693L211.577 161.695L211.514 161.691C210.078 161.573 208.888 161.149 207.993 160.369C207.088 159.578 206.499 158.439 206.28 156.898C206.28 156.898 206.275 156.814 206.275 156.814ZM269.58 150.962L269.58 160.731L271.563 160.731C271.563 158.913 272.267 157.24 273.426 155.991C274.585 154.741 276.201 153.914 278.024 153.783C278.366 153.758 278.699 153.758 279.042 153.783C280.865 153.914 282.48 154.741 283.639 155.991C284.798 157.24 285.503 158.913 285.504 160.731L286.223 160.731L286.223 150.962C286.223 150.962 269.58 150.962 269.58 150.962ZM268.979 160.731L268.979 150.962L255.09 150.962L255.09 160.731L268.979 160.731ZM254.489 160.731L254.489 150.962L240.6 150.962L240.6 160.731L254.489 160.731ZM239.999 160.731L239.999 150.962L213.361 150.962L213.361 160.731L224.511 160.731C224.512 158.972 225.178 157.279 226.375 155.991C227.534 154.741 229.151 153.914 230.972 153.783C231.315 153.758 231.65 153.758 231.992 153.783C233.813 153.914 235.429 154.741 236.589 155.991C237.748 157.24 238.451 158.913 238.453 160.731C238.453 160.731 239.999 160.731 239.999 160.731ZM212.759 160.731L212.759 150.661C212.759 150.495 212.893 150.361 213.06 150.361L286.524 150.361C286.69 150.361 286.824 150.495 286.824 150.661L286.824 160.731L289.964 160.731C291.415 160.715 292.78 160.59 293.771 160.072C294.694 159.589 295.313 158.725 295.4 157.204L295.4 150.866C295.143 148.793 294.759 146.752 294.299 144.729C293.838 142.701 293.296 140.677 292.726 138.652C292.411 137.906 292.032 137.211 291.565 136.615C291.102 136.023 290.546 135.521 289.872 135.15C288.704 134.507 287.534 134.167 286.323 133.988C285.097 133.806 283.809 133.787 282.437 133.787L213.906 133.787C212.466 133.787 211.372 133.893 210.548 134.37C209.739 134.835 209.136 135.695 208.638 137.216C208.02 139.108 207.602 141.714 207.372 144.983C207.345 145.368 207.32 145.763 207.298 146.169L207.689 146.169C207.981 146.169 208.22 146.406 208.22 146.698L208.22 150.904C208.22 151.257 207.93 151.547 207.575 151.547L207.157 151.547C207.153 153.189 207.178 154.935 207.233 156.78C207.421 158.073 207.897 159.013 208.623 159.647C209.353 160.284 210.356 160.632 211.59 160.731C211.59 160.731 212.759 160.731 212.759 160.731ZM286.484 135.679C292.536 136.586 291.902 144.354 292.974 150.716L289.061 150.716C287.772 150.716 286.738 149.66 286.714 148.371C286.714 148.371 286.484 135.679 286.484 135.679ZM216.033 135.69L217.768 135.69C217.768 135.717 217.77 135.744 217.775 135.773L219.51 145.626L215.036 145.626C212.854 145.626 211.064 143.838 211.064 141.654L211.064 140.657C211.064 137.926 213.301 135.69 216.033 135.69ZM218.737 135.69L228.877 135.69C228.877 135.717 228.879 135.744 228.883 135.773L230.617 145.626L220.479 145.626C220.479 145.598 220.475 145.571 220.472 145.542C220.472 145.542 218.737 135.69 218.737 135.69ZM229.844 135.69L239.985 135.69C239.985 135.717 239.986 135.744 239.992 135.773L241.725 145.626L231.586 145.626C231.586 145.598 231.584 145.571 231.579 145.542C231.579 145.542 229.844 135.69 229.844 135.69ZM240.953 135.69L251.092 135.69C251.092 135.717 251.096 135.744 251.099 135.773L252.834 145.626L242.694 145.626C242.694 145.598 242.692 145.571 242.686 145.542C242.686 145.542 240.953 135.69 240.953 135.69ZM252.061 135.69L262.201 135.69C262.201 135.717 262.203 135.744 262.209 135.773L263.941 145.626L253.803 145.626C253.803 145.598 253.801 145.571 253.796 145.542C253.796 145.542 252.061 135.69 252.061 135.69ZM263.17 135.69L273.309 135.69C273.309 135.717 273.311 135.744 273.316 135.773L275.051 145.626L264.91 145.626C264.91 145.598 264.908 145.571 264.903 145.542C264.903 145.542 263.17 135.69 263.17 135.69ZM274.277 135.69L285.101 135.69L285.101 145.626L276.019 145.626C276.019 145.598 276.016 145.571 276.012 145.542C276.012 145.542 274.277 135.69 274.277 135.69ZM263.128 158.383L263.128 158.737C263.128 158.857 263.032 158.953 262.913 158.953L261.202 158.953C261.059 158.953 260.941 158.835 260.941 158.692L260.941 158.383L263.128 158.383ZM248.638 158.383L248.638 158.737C248.638 158.857 248.542 158.953 248.423 158.953L246.712 158.953C246.569 158.953 246.451 158.835 246.451 158.692L246.451 158.383L248.638 158.383ZM231.481 155.723C234.25 155.723 236.495 157.966 236.495 160.735C236.495 163.503 234.25 165.747 231.481 165.747C228.714 165.747 226.469 163.503 226.469 160.735C226.469 157.966 228.714 155.723 231.481 155.723ZM231.483 159.71C232.048 159.71 232.506 160.168 232.506 160.735C232.506 161.3 232.048 161.76 231.483 161.76C230.924 161.749 230.477 161.293 230.477 160.735C230.477 160.176 230.924 159.72 231.483 159.71ZM231.483 157.986C233 157.986 234.23 159.217 234.23 160.735C234.23 162.252 233 163.484 231.483 163.484C229.964 163.484 228.734 162.252 228.734 160.735C228.734 159.217 229.964 157.986 231.483 157.986ZM278.533 159.71C279.091 159.72 279.539 160.176 279.539 160.735C279.539 161.293 279.091 161.749 278.533 161.76C277.968 161.76 277.508 161.3 277.508 160.735C277.508 160.168 277.968 159.71 278.533 159.71ZM278.533 157.986C280.05 157.986 281.282 159.217 281.282 160.735C281.282 162.252 280.05 163.484 278.533 163.484C277.015 163.484 275.784 162.252 275.784 160.735C275.784 159.217 277.015 157.986 278.533 157.986Z" fill="#000000" fill-rule="evenodd" opacity="1" stroke="none"/>
<path d="M183.704 155.723C186.472 155.723 188.716 157.966 188.716 160.735C188.716 163.503 186.472 165.747 183.704 165.747C180.935 165.747 178.691 163.503 178.691 160.735C178.691 157.966 180.935 155.723 183.704 155.723ZM111.446 156.814C111.31 152.211 111.35 148.229 111.583 144.919C111.819 141.569 112.253 138.886 112.896 136.919C113.474 135.152 114.216 134.131 115.241 133.538C116.253 132.955 117.485 132.825 119.077 132.825L187.608 132.825C189.015 132.825 190.337 132.845 191.633 133.037C192.95 133.232 194.224 133.604 195.505 134.308C196.298 134.744 196.95 135.331 197.491 136.025C197.857 136.488 198.17 137.001 198.442 137.542C198.666 137.448 198.905 137.37 199.15 137.307C201.361 136.635 204.084 136.916 204.081 139.241L204.072 143.666C204.07 144.193 203.639 144.624 203.112 144.624L202.632 144.624C202.368 144.624 202.152 144.409 202.152 144.146L202.152 139.858C202.152 139.387 201.915 138.984 201.384 138.84C200.819 138.725 200.158 138.746 199.557 138.9C199.369 138.949 199.188 139.012 199.016 139.089C199.516 140.887 199.99 142.692 200.407 144.519C200.877 146.594 201.27 148.68 201.531 150.781L201.535 150.839L201.535 157.195L201.529 157.26C201.421 159.178 200.604 160.284 199.385 160.921C198.225 161.528 196.722 161.671 195.141 161.693L190.176 161.695C189.911 161.695 189.696 161.479 189.696 161.213L189.699 161.153C189.707 161.019 189.712 160.881 189.712 160.737C189.712 159.165 189.105 157.722 188.108 156.644C187.108 155.567 185.716 154.853 184.146 154.741C183.851 154.719 183.556 154.719 183.262 154.741C181.692 154.853 180.299 155.567 179.3 156.644C178.268 157.757 177.695 159.219 177.696 160.737C177.696 160.891 177.701 161.039 177.71 161.18C177.73 161.445 177.529 161.675 177.265 161.693L143.126 161.695C142.859 161.695 142.644 161.479 142.644 161.213L142.648 161.153C142.764 159.495 142.188 157.862 141.056 156.644C140.058 155.567 138.664 154.853 137.094 154.741C136.804 154.719 136.502 154.719 136.21 154.741C134.64 154.853 133.248 155.567 132.25 156.644C131.217 157.756 130.643 159.218 130.644 160.737C130.644 160.891 130.649 161.039 130.66 161.18C130.678 161.445 130.479 161.675 130.215 161.693L116.748 161.695L116.684 161.691C115.249 161.573 114.059 161.149 113.164 160.369C112.259 159.578 111.67 158.439 111.451 156.898C111.451 156.898 111.446 156.814 111.446 156.814ZM174.751 150.962L174.751 160.731L176.734 160.731C176.734 158.913 177.438 157.24 178.597 155.991C179.756 154.741 181.371 153.914 183.195 153.783C183.537 153.758 183.87 153.758 184.213 153.783C186.036 153.914 187.651 154.741 188.81 155.991C189.969 157.24 190.674 158.913 190.675 160.731L191.394 160.731L191.394 150.962C191.394 150.962 174.751 150.962 174.751 150.962ZM174.15 160.731L174.15 150.962L160.261 150.962L160.261 160.731L174.15 160.731ZM159.66 160.731L159.66 150.962L145.771 150.962L145.771 160.731L159.66 160.731ZM145.17 160.731L145.17 150.962L118.531 150.962L118.531 160.731L129.682 160.731C129.683 158.972 130.349 157.279 131.546 155.991C132.705 154.741 134.322 153.914 136.143 153.783C136.486 153.758 136.82 153.758 137.163 153.783C138.984 153.914 140.6 154.741 141.76 155.991C142.919 157.24 143.622 158.913 143.624 160.731C143.624 160.731 145.17 160.731 145.17 160.731ZM117.93 160.731L117.93 150.661C117.93 150.495 118.064 150.361 118.231 150.361L191.695 150.361C191.861 150.361 191.995 150.495 191.995 150.661L191.995 160.731L195.135 160.731C196.586 160.715 197.951 160.59 198.942 160.072C199.865 159.589 200.484 158.725 200.571 157.204L200.571 150.866C200.314 148.793 199.93 146.752 199.47 144.729C199.009 142.701 198.467 140.677 197.897 138.652C197.582 137.906 197.203 137.211 196.736 136.615C196.273 136.023 195.717 135.521 195.043 135.15C193.875 134.507 192.705 134.167 191.494 133.988C190.268 133.806 188.98 133.787 187.608 133.787L119.077 133.787C117.637 133.787 116.543 133.893 115.719 134.37C114.91 134.835 114.307 135.695 113.809 137.216C113.191 139.108 112.773 141.714 112.543 144.983C112.516 145.368 112.491 145.763 112.469 146.169L112.86 146.169C113.152 146.169 113.391 146.406 113.391 146.698L113.391 150.904C113.391 151.257 113.101 151.547 112.746 151.547L112.328 151.547C112.324 153.189 112.349 154.935 112.404 156.78C112.592 158.073 113.068 159.013 113.794 159.647C114.524 160.284 115.527 160.632 116.761 160.731C116.761 160.731 117.93 160.731 117.93 160.731ZM191.655 135.679C197.707 136.586 197.073 144.354 198.145 150.716L194.232 150.716C192.942 150.716 191.908 149.66 191.885 148.371C191.885 148.371 191.655 135.679 191.655 135.679ZM121.204 135.69L122.939 135.69C122.939 135.717 122.941 135.744 122.946 135.773L124.681 145.626L120.206 145.626C118.024 145.626 116.235 143.838 116.235 141.654L116.235 140.657C116.235 137.926 118.472 135.69 121.204 135.69ZM123.908 135.69L134.048 135.69C134.048 135.717 134.05 135.744 134.054 135.773L135.788 145.626L125.65 145.626C125.65 145.598 125.646 145.571 125.642 145.542C125.642 145.542 123.908 135.69 123.908 135.69ZM135.015 135.69L145.156 135.69C145.156 135.717 145.157 135.744 145.163 135.773L146.896 145.626L136.757 145.626C136.757 145.598 136.755 145.571 136.75 145.542C136.75 145.542 135.015 135.69 135.015 135.69ZM146.124 135.69L156.263 135.69C156.263 135.717 156.267 135.744 156.27 135.773L158.005 145.626L147.865 145.626C147.865 145.598 147.863 145.571 147.857 145.542C147.857 145.542 146.124 135.69 146.124 135.69ZM157.232 135.69L167.372 135.69C167.372 135.717 167.374 135.744 167.379 135.773L169.112 145.626L158.974 145.626C158.974 145.598 158.972 145.571 158.967 145.542C158.967 145.542 157.232 135.69 157.232 135.69ZM168.341 135.69L178.48 135.69C178.48 135.717 178.481 135.744 178.487 135.773L180.222 145.626L170.081 145.626C170.081 145.598 170.079 145.571 170.074 145.542C170.074 145.542 168.341 135.69 168.341 135.69ZM179.448 135.69L190.272 135.69L190.272 145.626L181.19 145.626C181.19 145.598 181.187 145.571 181.183 145.542C181.183 145.542 179.448 135.69 179.448 135.69ZM168.299 158.383L168.299 158.737C168.299 158.857 168.203 158.953 168.084 158.953L166.373 158.953C166.23 158.953 166.112 158.835 166.112 158.692L166.112 158.383L168.299 158.383ZM153.809 158.383L153.809 158.737C153.809 158.857 153.713 158.953 153.594 158.953L151.883 158.953C151.74 158.953 151.622 158.835 151.622 158.692L151.622 158.383L153.809 158.383ZM136.652 155.723C139.421 155.723 141.666 157.966 141.666 160.735C141.666 163.503 139.421 165.747 136.652 165.747C133.885 165.747 131.64 163.503 131.64 160.735C131.64 157.966 133.885 155.723 136.652 155.723ZM136.654 159.71C137.219 159.71 137.677 160.168 137.677 160.735C137.677 161.3 137.219 161.76 136.654 161.76C136.095 161.749 135.648 161.293 135.648 160.735C135.648 160.176 136.095 159.72 136.654 159.71ZM136.654 157.986C138.171 157.986 139.401 159.217 139.401 160.735C139.401 162.252 138.171 163.484 136.654 163.484C135.135 163.484 133.905 162.252 133.905 160.735C133.905 159.217 135.135 157.986 136.654 157.986ZM183.704 159.71C184.262 159.72 184.71 160.176 184.71 160.735C184.71 161.293 184.262 161.749 183.704 161.76C183.139 161.76 182.679 161.3 182.679 160.735C182.679 160.168 183.139 159.71 183.704 159.71ZM183.704 157.986C185.221 157.986 186.453 159.217 186.453 160.735C186.453 162.252 185.221 163.484 183.704 163.484C182.186 163.484 180.955 162.252 180.955 160.735C180.955 159.217 182.186 157.986 183.704 157.986Z" fill="#000000" fill-rule="evenodd" opacity="1" stroke="none"/>
<path d="M86.528 155.723C89.2967 155.723 91.5403 157.966 91.5403 160.735C91.5403 163.503 89.2967 165.747 86.528 165.747C83.7593 165.747 81.5157 163.503 81.5157 160.735C81.5157 157.966 83.7593 155.723 86.528 155.723ZM14.2701 156.814C14.1343 152.211 14.1741 148.229 14.4077 144.919C14.6431 141.569 15.0777 138.886 15.7205 136.919C16.2982 135.152 17.0406 134.131 18.0655 133.538C19.0777 132.955 20.3091 132.825 21.9008 132.825L90.4321 132.825C91.8391 132.825 93.161 132.845 94.4575 133.037C95.7739 133.232 97.0487 133.604 98.329 134.308C99.1221 134.744 99.774 135.331 100.315 136.025C100.681 136.488 100.994 137.001 101.266 137.542C101.491 137.448 101.73 137.37 101.974 137.307C104.185 136.635 106.909 136.916 106.905 139.241L106.896 143.666C106.894 144.193 106.463 144.624 105.936 144.624L105.456 144.624C105.192 144.624 104.976 144.409 104.976 144.146L104.976 139.858C104.976 139.387 104.739 138.984 104.209 138.84C103.644 138.725 102.983 138.746 102.382 138.9C102.193 138.949 102.012 139.012 101.84 139.089C102.34 140.887 102.814 142.692 103.231 144.519C103.702 146.594 104.095 148.68 104.355 150.781L104.359 150.839L104.359 157.195L104.353 157.26C104.245 159.178 103.428 160.284 102.21 160.921C101.049 161.528 99.5458 161.671 97.965 161.693L92.9998 161.695C92.7354 161.695 92.5199 161.479 92.5199 161.213L92.5236 161.153C92.5308 161.019 92.5362 160.881 92.5362 160.737C92.5362 159.165 91.9296 157.722 90.9319 156.644C89.9323 155.567 88.5398 154.853 86.9699 154.741C86.6757 154.719 86.3803 154.719 86.0862 154.741C84.5162 154.853 83.1237 155.567 82.1242 156.644C81.092 157.757 80.5189 159.219 80.5198 160.737C80.5198 160.891 80.5252 161.039 80.5343 161.18C80.5542 161.445 80.3532 161.675 80.0888 161.693L45.9499 161.695C45.6837 161.695 45.4683 161.479 45.4683 161.213L45.4719 161.153C45.5883 159.495 45.012 157.862 43.8802 156.644C42.8824 155.567 41.4881 154.853 39.9182 154.741C39.6284 154.719 39.326 154.719 39.0345 154.741C37.4645 154.853 36.072 155.567 35.0743 156.644C34.0409 157.756 33.467 159.218 33.4681 160.737C33.4681 160.891 33.4736 161.039 33.4844 161.18C33.5025 161.445 33.3033 161.675 33.039 161.693L19.5721 161.695L19.5087 161.691C18.0727 161.573 16.8831 161.149 15.9885 160.369C15.0831 159.578 14.4946 158.439 14.2755 156.898C14.2755 156.898 14.2701 156.814 14.2701 156.814ZM77.5755 150.962L77.5755 160.731L79.5583 160.731C79.5583 158.913 80.2627 157.24 81.4216 155.991C82.5805 154.741 84.1957 153.914 86.0192 153.783C86.3614 153.758 86.6946 153.758 87.0369 153.783C88.8603 153.914 90.4756 154.741 91.6345 155.991C92.7934 157.24 93.4978 158.913 93.4996 160.731L94.2185 160.731L94.2185 150.962C94.2185 150.962 77.5755 150.962 77.5755 150.962ZM76.9743 160.731L76.9743 150.962L63.0855 150.962L63.0855 160.731L76.9743 160.731ZM62.4843 160.731L62.4843 150.962L48.5955 150.962L48.5955 160.731L62.4843 160.731ZM47.9943 160.731L47.9943 150.962L21.3557 150.962L21.3557 160.731L32.5066 160.731C32.5074 158.972 33.173 157.279 34.3699 155.991C35.5288 154.741 37.1458 153.914 38.9675 153.783C39.3097 153.758 39.6447 153.758 39.987 153.783C41.8086 153.914 43.4239 154.741 44.5846 155.991C45.7435 157.24 46.4461 158.913 46.4479 160.731C46.4479 160.731 47.9943 160.731 47.9943 160.731ZM20.7545 160.731L20.7545 150.661C20.7545 150.495 20.8885 150.361 21.0551 150.361L94.5191 150.361C94.6857 150.361 94.8197 150.495 94.8197 150.661L94.8197 160.731L97.9596 160.731C99.41 160.715 100.775 160.59 101.766 160.072C102.689 159.589 103.309 158.725 103.396 157.204L103.396 150.866C103.138 148.793 102.755 146.752 102.295 144.729C101.833 142.701 101.291 140.677 100.721 138.652C100.406 137.906 100.028 137.211 99.5603 136.615C99.0968 136.023 98.5408 135.521 97.8672 135.15C96.6993 134.507 95.5295 134.167 94.3181 133.988C93.0922 133.806 91.8047 133.787 90.4321 133.787L21.9008 133.787C20.4612 133.787 19.3675 133.893 18.5436 134.37C17.7341 134.835 17.1311 135.695 16.6332 137.216C16.0157 139.108 15.5974 141.714 15.3674 144.983C15.3403 145.368 15.3149 145.763 15.2932 146.169L15.6843 146.169C15.9758 146.169 16.2149 146.406 16.2149 146.698L16.2149 150.904C16.2149 151.257 15.9251 151.547 15.5702 151.547L15.1519 151.547C15.1483 153.189 15.1737 154.935 15.228 156.78C15.4163 158.073 15.8925 159.013 16.6187 159.647C17.3484 160.284 18.3516 160.632 19.5848 160.731C19.5848 160.731 20.7545 160.731 20.7545 160.731ZM94.4792 135.679C100.531 136.586 99.8971 144.354 100.969 150.716L97.056 150.716C95.7667 150.716 94.7327 149.66 94.7092 148.371C94.7092 148.371 94.4792 135.679 94.4792 135.679ZM24.0284 135.69L25.7632 135.69C25.7632 135.717 25.765 135.744 25.7704 135.773L27.5052 145.626L23.0307 145.626C20.8487 145.626 19.0596 143.838 19.0596 141.654L19.0596 140.657C19.0596 137.926 21.296 135.69 24.0284 135.69ZM26.732 135.69L36.8724 135.69C36.8724 135.717 36.8742 135.744 36.8778 135.773L38.6126 145.626L28.4739 145.626C28.4739 145.598 28.4703 145.571 28.4667 145.542C28.4667 145.542 26.732 135.69 26.732 135.69ZM37.8394 135.69L47.9798 135.69C47.9798 135.717 47.9816 135.744 47.9871 135.773L49.72 145.626L39.5814 145.626C39.5814 145.598 39.5796 145.571 39.5741 145.542C39.5741 145.542 37.8394 135.69 37.8394 135.69ZM48.9486 135.69L59.0872 135.69C59.0872 135.717 59.0909 135.744 59.0945 135.773L60.8292 145.626L50.6888 145.626C50.6888 145.598 50.687 145.571 50.6815 145.542C50.6815 145.542 48.9486 135.69 48.9486 135.69ZM60.056 135.69L70.1965 135.69C70.1965 135.717 70.1983 135.744 70.2037 135.773L71.9366 145.626L61.798 145.626C61.798 145.598 61.7962 145.571 61.7908 145.542C61.7908 145.542 60.056 135.69 60.056 135.69ZM71.1652 135.69L81.3039 135.69C81.3039 135.717 81.3057 135.744 81.3111 135.773L83.0459 145.626L72.9054 145.626C72.9054 145.598 72.9036 145.571 72.8982 145.542C72.8982 145.542 71.1652 135.69 71.1652 135.69ZM82.2727 135.69L93.0958 135.69L93.0958 145.626L84.0146 145.626C84.0146 145.598 84.011 145.571 84.0074 145.542C84.0074 145.542 82.2727 135.69 82.2727 135.69ZM71.1236 158.383L71.1236 158.737C71.1236 158.857 71.0276 158.953 70.9081 158.953L69.1969 158.953C69.0539 158.953 68.9362 158.835 68.9362 158.692L68.9362 158.383L71.1236 158.383ZM56.6336 158.383L56.6336 158.737C56.6336 158.857 56.5376 158.953 56.4181 158.953L54.7069 158.953C54.5639 158.953 54.4462 158.835 54.4462 158.692L54.4462 158.383L56.6336 158.383ZM39.4763 155.723C42.245 155.723 44.4904 157.966 44.4904 160.735C44.4904 163.503 42.245 165.747 39.4763 165.747C36.7094 165.747 34.4641 163.503 34.4641 160.735C34.4641 157.966 36.7094 155.723 39.4763 155.723ZM39.4781 159.71C40.0431 159.71 40.5012 160.168 40.5012 160.735C40.5012 161.3 40.0431 161.76 39.4781 161.76C38.9196 161.749 38.4723 161.293 38.4723 160.735C38.4723 160.176 38.9196 159.72 39.4781 159.71ZM39.4781 157.986C40.9956 157.986 42.2251 159.217 42.2251 160.735C42.2251 162.252 40.9956 163.484 39.4781 163.484C37.9589 163.484 36.7294 162.252 36.7294 160.735C36.7294 159.217 37.9589 157.986 39.4781 157.986ZM86.528 159.71C87.0866 159.72 87.5338 160.176 87.5338 160.735C87.5338 161.293 87.0866 161.749 86.528 161.76C85.9631 161.76 85.5031 161.3 85.5031 160.735C85.5031 160.168 85.9631 159.71 86.528 159.71ZM86.528 157.986C88.0455 157.986 89.2768 159.217 89.2768 160.735C89.2768 162.252 88.0455 163.484 86.528 163.484C85.0106 163.484 83.7792 162.252 83.7792 160.735C83.7792 159.217 85.0106 157.986 86.528 157.986Z" fill="#000000" fill-rule="evenodd" opacity="1" stroke="none"/>
<path d="M469.326 155.723C472.095 155.723 474.338 157.966 474.338 160.735C474.338 163.503 472.095 165.747 469.326 165.747C466.557 165.747 464.314 163.503 464.314 160.735C464.314 157.966 466.557 155.723 469.326 155.723ZM397.068 156.814C396.932 152.211 396.972 148.229 397.206 144.919C397.441 141.569 397.876 138.886 398.519 136.919C399.096 135.152 399.839 134.131 400.864 133.538C401.876 132.955 403.107 132.825 404.699 132.825L473.23 132.825C474.637 132.825 475.959 132.845 477.256 133.037C478.572 133.232 479.847 133.604 481.127 134.308C481.92 134.744 482.572 135.331 483.113 136.025C483.479 136.488 483.792 137.001 484.064 137.542C484.289 137.448 484.528 137.37 484.772 137.307C486.983 136.635 489.707 136.916 489.703 139.241L489.694 143.666C489.692 144.193 489.261 144.624 488.734 144.624L488.254 144.624C487.99 144.624 487.774 144.409 487.774 144.146L487.774 139.858C487.774 139.387 487.537 138.984 487.007 138.84C486.442 138.725 485.781 138.746 485.18 138.9C484.991 138.949 484.81 139.012 484.638 139.089C485.138 140.887 485.612 142.692 486.029 144.519C486.5 146.594 486.893 148.68 487.153 150.781L487.157 150.839L487.157 157.195L487.152 157.26C487.043 159.178 486.226 160.284 485.008 160.921C483.847 161.528 482.344 161.671 480.763 161.693L475.798 161.695C475.533 161.695 475.318 161.479 475.318 161.213L475.322 161.153C475.329 161.019 475.334 160.881 475.334 160.737C475.334 159.165 474.728 157.722 473.73 156.644C472.73 155.567 471.338 154.853 469.768 154.741C469.474 154.719 469.178 154.719 468.884 154.741C467.314 154.853 465.922 155.567 464.922 156.644C463.89 157.757 463.317 159.219 463.318 160.737C463.318 160.891 463.323 161.039 463.332 161.18C463.352 161.445 463.151 161.675 462.887 161.693L428.748 161.695C428.482 161.695 428.266 161.479 428.266 161.213L428.27 161.153C428.386 159.495 427.81 157.862 426.678 156.644C425.68 155.567 424.286 154.853 422.716 154.741C422.426 154.719 422.124 154.719 421.833 154.741C420.263 154.853 418.87 155.567 417.872 156.644C416.839 157.756 416.265 159.218 416.266 160.737C416.266 160.891 416.272 161.039 416.282 161.18C416.301 161.445 416.101 161.675 415.837 161.693L402.37 161.695L402.307 161.691C400.871 161.573 399.681 161.149 398.787 160.369C397.881 159.578 397.293 158.439 397.074 156.898C397.074 156.898 397.068 156.814 397.068 156.814ZM460.373 150.962L460.373 160.731L462.356 160.731C462.356 158.913 463.061 157.24 464.22 155.991C465.379 154.741 466.994 153.914 468.817 153.783C469.159 153.758 469.493 153.758 469.835 153.783C471.658 153.914 473.274 154.741 474.432 155.991C475.591 157.24 476.296 158.913 476.298 160.731L477.016 160.731L477.016 150.962C477.016 150.962 460.373 150.962 460.373 150.962ZM459.772 160.731L459.772 150.962L445.883 150.962L445.883 160.731L459.772 160.731ZM445.282 160.731L445.282 150.962L431.394 150.962L431.394 160.731L445.282 160.731ZM430.792 160.731L430.792 150.962L404.154 150.962L404.154 160.731L415.305 160.731C415.305 158.972 415.971 157.279 417.168 155.991C418.327 154.741 419.944 153.914 421.766 153.783C422.108 153.758 422.443 153.758 422.785 153.783C424.607 153.914 426.222 154.741 427.383 155.991C428.542 157.24 429.244 158.913 429.246 160.731C429.246 160.731 430.792 160.731 430.792 160.731ZM403.553 160.731L403.553 150.661C403.553 150.495 403.687 150.361 403.853 150.361L477.317 150.361C477.484 150.361 477.618 150.495 477.618 150.661L477.618 160.731L480.758 160.731C482.208 160.715 483.573 160.59 484.564 160.072C485.487 159.589 486.107 158.725 486.194 157.204L486.194 150.866C485.936 148.793 485.553 146.752 485.093 144.729C484.631 142.701 484.089 140.677 483.519 138.652C483.204 137.906 482.826 137.211 482.358 136.615C481.895 136.023 481.339 135.521 480.665 135.15C479.497 134.507 478.328 134.167 477.116 133.988C475.89 133.806 474.603 133.787 473.23 133.787L404.699 133.787C403.259 133.787 402.165 133.893 401.342 134.37C400.532 134.835 399.929 135.695 399.431 137.216C398.814 139.108 398.395 141.714 398.165 144.983C398.138 145.368 398.113 145.763 398.091 146.169L398.482 146.169C398.774 146.169 399.013 146.406 399.013 146.698L399.013 150.904C399.013 151.257 398.723 151.547 398.368 151.547L397.95 151.547C397.946 153.189 397.972 154.935 398.026 156.78C398.214 158.073 398.691 159.013 399.417 159.647C400.146 160.284 401.15 160.632 402.383 160.731C402.383 160.731 403.553 160.731 403.553 160.731ZM477.277 135.679C483.329 136.586 482.695 144.354 483.767 150.716L479.854 150.716C478.565 150.716 477.531 149.66 477.507 148.371C477.507 148.371 477.277 135.679 477.277 135.679ZM406.826 135.69L408.561 135.69C408.561 135.717 408.563 135.744 408.568 135.773L410.303 145.626L405.829 145.626C403.647 145.626 401.858 143.838 401.858 141.654L401.858 140.657C401.858 137.926 404.094 135.69 406.826 135.69ZM409.53 135.69L419.67 135.69C419.67 135.717 419.672 135.744 419.676 135.773L421.411 145.626L411.272 145.626C411.272 145.598 411.268 145.571 411.265 145.542C411.265 145.542 409.53 135.69 409.53 135.69ZM420.637 135.69L430.778 135.69C430.778 135.717 430.78 135.744 430.785 135.773L432.518 145.626L422.379 145.626C422.379 145.598 422.378 145.571 422.372 145.542C422.372 145.542 420.637 135.69 420.637 135.69ZM431.747 135.69L441.885 135.69C441.885 135.717 441.889 135.744 441.893 135.773L443.627 145.626L433.487 145.626C433.487 145.598 433.485 145.571 433.48 145.542C433.48 145.542 431.747 135.69 431.747 135.69ZM442.854 135.69L452.994 135.69C452.994 135.717 452.996 135.744 453.002 135.773L454.735 145.626L444.596 145.626C444.596 145.598 444.594 145.571 444.589 145.542C444.589 145.542 442.854 135.69 442.854 135.69ZM453.963 135.69L464.102 135.69C464.102 135.717 464.104 135.744 464.109 135.773L465.844 145.626L455.703 145.626C455.703 145.598 455.702 145.571 455.696 145.542C455.696 145.542 453.963 135.69 453.963 135.69ZM465.071 135.69L475.894 135.69L475.894 145.626L466.813 145.626C466.813 145.598 466.809 145.571 466.805 145.542C466.805 145.542 465.071 135.69 465.071 135.69ZM453.922 158.383L453.922 158.737C453.922 158.857 453.826 158.953 453.706 158.953L451.995 158.953C451.852 158.953 451.734 158.835 451.734 158.692L451.734 158.383L453.922 158.383ZM439.432 158.383L439.432 158.737C439.432 158.857 439.336 158.953 439.216 158.953L437.505 158.953C437.362 158.953 437.244 158.835 437.244 158.692L437.244 158.383L439.432 158.383ZM422.274 155.723C425.043 155.723 427.288 157.966 427.288 160.735C427.288 163.503 425.043 165.747 422.274 165.747C419.507 165.747 417.262 163.503 417.262 160.735C417.262 157.966 419.507 155.723 422.274 155.723ZM422.276 159.71C422.841 159.71 423.299 160.168 423.299 160.735C423.299 161.3 422.841 161.76 422.276 161.76C421.718 161.749 421.27 161.293 421.27 160.735C421.27 160.176 421.718 159.72 422.276 159.71ZM422.276 157.986C423.794 157.986 425.023 159.217 425.023 160.735C425.023 162.252 423.794 163.484 422.276 163.484C420.757 163.484 419.527 162.252 419.527 160.735C419.527 159.217 420.757 157.986 422.276 157.986ZM469.326 159.71C469.885 159.72 470.332 160.176 470.332 160.735C470.332 161.293 469.885 161.749 469.326 161.76C468.761 161.76 468.301 161.3 468.301 160.735C468.301 160.168 468.761 159.71 469.326 159.71ZM469.326 157.986C470.843 157.986 472.075 159.217 472.075 160.735C472.075 162.252 470.843 163.484 469.326 163.484C467.809 163.484 466.577 162.252 466.577 160.735C466.577 159.217 467.809 157.986 469.326 157.986Z" fill="#000000" fill-rule="evenodd" opacity="1" stroke="none"/>
</g>
</svg>
