<?xml version="1.0" encoding="UTF-8" standalone="no"?>
<!DOCTYPE svg PUBLIC "-//W3C//DTD SVG 1.1//EN" "http://www.w3.org/Graphics/SVG/1.1/DTD/svg11.dtd">
<!-- Created with Vectornator (http://vectornator.io/) -->
<svg height="100%" stroke-miterlimit="10" style="fill-rule:nonzero;clip-rule:evenodd;stroke-linecap:round;stroke-linejoin:round;" version="1.1" viewBox="0 0 520 220" width="100%" xml:space="preserve" xmlns="http://www.w3.org/2000/svg" xmlns:xlink="http://www.w3.org/1999/xlink">
<defs>
<clipPath id="TextBounds">
<rect height="40.3209" width="374.117" x="111.404" y="22.7621"/>
</clipPath>
<clipPath id="TextBounds_2">
<rect height="40.3209" width="369.775" x="111.404" y="66"/>
</clipPath>
</defs>
<g id="Zona">
<g opacity="1">
<path d="M24.2529 103.066C22.5556 105.442 19.8781 106.928 16.7872 107.06C11.3195 107.293 6.67162 103.092 6.43863 97.6246C6.26401 93.5267 8.63109 89.8953 12.165 88.2316C14.6357 88.7754 16.1187 89.7209 15.2433 91.197C14.0984 93.0482 12.4989 94.4144 16.091 94.1167C19.6824 93.8933 18.1477 95.0378 20.545 95.5104C23.0166 95.9837 20.9716 97.0796 20.4378 98.0407C19.8999 98.998 20.017 100.002 21.5976 99.9344C23.0377 99.8731 24.4595 99.3824 24.2529 103.066" fill="#db2127" fill-rule="evenodd" opacity="1" stroke="none"/>
<path d="M18.467 89.0422C20.2205 89.5461 24.5305 87.5601 22.7095 90.5192C21.8349 91.9249 20.278 92.6402 18.0251 92.1615C14.8263 91.5041 16.7175 88.542 18.467 89.0422" fill="#db2127" fill-rule="evenodd" opacity="1" stroke="none"/>
<path d="M25.3714 92.0635C26.7342 91.9311 29.0614 92.4106 28.1829 93.8165C27.2342 95.2253 28.1337 96.055 27.1613 96.8158C26.114 97.6541 23.4097 98.4184 22.9977 97.2826C22.5193 96.1496 22.2525 94.9333 23.1331 93.672C24.0177 92.4105 24.0084 92.192 25.3714 92.0635" fill="#db2127" fill-rule="evenodd" opacity="1" stroke="none"/>
<path d="M8.51152 87.0893C8.51152 87.0893 9.29446 86.837 9.74221 87.2519C10.1236 87.6696 10.2886 88.2373 9.66308 88.698C8.95638 89.0878 8.30944 89.045 7.98688 88.265C7.73756 87.5523 8.51152 87.0893 8.51152 87.0893" fill="#db2127" fill-rule="evenodd" opacity="1" stroke="none"/>
<path d="M10.8353 85.8369C10.8353 85.8369 11.7109 86.0146 12.1402 85.9963C12.5734 85.9778 12.3152 86.7082 11.8332 87.2331C11.3482 87.6878 11.0502 87.4855 10.6697 86.9973C10.2119 86.4382 10.8353 85.8369 10.8353 85.8369" fill="#db2127" fill-rule="evenodd" opacity="1" stroke="none"/>
<path d="M25.663 85.4201C26.5203 85.1685 27.1773 85.3555 27.6983 85.8377C28.2943 86.2463 28.386 86.7467 27.4748 87.2899C26.6337 87.8301 25.7703 87.9373 25.1722 87.3881C24.4997 86.8381 24.8097 85.6715 25.663 85.4201" fill="#db2127" fill-rule="evenodd" opacity="1" stroke="none"/>
<path d="M35.2051 86.0222C36.4237 85.8999 36.371 86.4065 36.8867 86.6738C37.4055 87.0114 38.3087 87.837 37.5226 88.0152C36.7395 88.2636 36.4936 89.2828 35.6219 89.1049C34.7503 88.927 33.7981 88.604 33.6202 87.8218C33.4459 87.0355 33.9828 86.1486 35.2051 86.0222" fill="#db2127" fill-rule="evenodd" opacity="1" stroke="none"/>
<path d="M38.6394 88.902C39.217 88.8774 40.5465 89.6144 39.3984 89.7377C38.3203 89.854 37.7528 90.0228 37.7313 89.5194C37.7801 89.0129 38.6394 88.902 38.6394 88.902" fill="#db2127" fill-rule="evenodd" opacity="1" stroke="none"/>
<path d="M26.5559 101.236C27.2496 100.632 28.2166 99.6524 29.6751 100.024C31.1296 100.392 31.9526 101.081 32.9778 101.467C34.0032 101.857 34.0276 102.431 33.2692 103.257C32.5146 104.083 32.4742 104.878 31.2618 105.145C29.9722 105.345 30.0001 107.65 28.9747 107.26C27.9494 106.87 25.2998 105.614 26.3564 104.994C27.4059 104.3 27.5777 103.284 26.4821 102.897C25.3827 102.514 25.9327 101.841 26.5559 101.236" fill="#db2127" fill-rule="evenodd" opacity="1" stroke="none"/>
<path d="M37.2364 96.5312C38.526 96.3316 38.8178 96.3895 38.989 97.1055C39.0968 97.8907 38.7562 98.3392 38.1053 98.2966C37.4575 98.3242 37.2732 97.3937 36.6995 97.4181C36.0546 97.516 36.021 96.7276 37.2364 96.5312" fill="#db2127" fill-rule="evenodd" opacity="1" stroke="none"/>
<path d="M45.6204 98.7661C46.4615 98.2259 46.8631 97.5598 47.5356 98.1098C48.2079 98.6558 48.5916 99.2181 48.3343 99.8781C48.1432 100.531 48.371 100.741 46.8637 100.875C45.3565 101.014 45.1845 100.372 44.8101 100.028C44.3615 99.6838 44.7764 99.2361 45.6204 98.7661" fill="#db2127" fill-rule="evenodd" opacity="1" stroke="none"/>
<path d="M53.7435 96.6215C54.7504 96.5786 55.2142 97.2782 56.2975 97.3767C57.4518 97.3979 57.8078 97.3123 58.4222 98.1502C59.0297 98.918 59.2047 99.63 58.1389 100.035C57.0741 100.37 56.5118 100.753 55.2841 100.661C54.1298 100.64 53.4024 100.452 52.306 100.139C51.2868 99.8931 51.0539 99.4729 51.4472 98.5178C51.7665 97.5698 52.7396 96.7346 53.7435 96.6215" fill="#db2127" fill-rule="evenodd" opacity="1" stroke="none"/>
<path d="M54.8241 105.005C55.8485 105.466 57.9396 105.451 59.1206 106.19C60.3828 107.001 61.3256 107.105 62.4984 107.559C63.6681 107.944 64.4077 108.416 63.8515 108.944C63.3023 109.543 62.4856 109.003 61.1867 108.984C59.9622 108.966 58.0156 108.978 56.5053 109.042C54.9277 109.18 54.6236 108.833 53.5861 108.158C52.5516 107.553 51.8456 107.869 51.6583 106.868C51.5413 105.864 51.8973 105.779 52.8857 105.303C53.8009 104.759 53.7918 104.545 54.8241 105.005" fill="#db2127" fill-rule="evenodd" opacity="1" stroke="none"/>
<path d="M40.8983 104.66C41.6906 104.626 42.0619 104.9 42.3042 105.538C42.5464 106.177 43.059 106.37 42.3624 106.904C41.8101 107.432 41.1776 107.819 40.4838 106.769C39.7931 105.79 40.039 104.771 40.8983 104.66" fill="#db2127" fill-rule="evenodd" opacity="1" stroke="none"/>
<path d="M10.4523 83.5464C10.1788 83.9178 9.6135 84.2312 9.16574 83.8163C8.64699 83.4787 8.58905 83.7705 8.47498 82.837C8.29383 81.9806 8.10968 81.054 8.36472 80.2495C8.61977 79.4449 9.20941 78.0514 9.75876 79.1071C10.3815 80.2339 11.1831 80.4187 11.2228 81.3515C11.333 82.2851 10.6485 83.1041 10.4523 83.5464" fill="#db2127" fill-rule="evenodd" opacity="1" stroke="none"/>
<path d="M16.2021 79.8412C16.2021 79.8412 16.672 79.0314 17.4672 79.0679C18.2624 79.1044 18.6431 79.5965 19.1557 79.7897C19.6653 79.9126 20.0244 79.8973 19.9259 80.9806C19.8275 82.0678 19.9934 82.5651 20.0331 83.4978C20.073 84.4345 19.8951 85.3061 19.2596 85.6225C18.6239 85.9351 18.2404 85.3767 17.4726 85.9841C16.7791 86.5923 15.6949 86.5642 15.7232 85.4839C15.7475 84.4038 15.5632 83.4733 15.382 82.6169C15.275 81.7574 14.2832 80.5016 15.2075 80.1729C16.2021 79.8412 16.2021 79.8412 16.2021 79.8412" fill="#db2127" fill-rule="evenodd" opacity="1" stroke="none"/>
<path d="M25.443 73.4655C26.0541 72.5754 26.8127 71.7533 26.2846 71.1971C25.6856 70.7183 25.1089 70.6725 24.7681 71.1171C24.3534 71.5687 23.73 72.17 23.7576 72.8179C23.715 73.4687 23.6714 74.19 24.5186 73.7942C25.443 73.4655 25.443 73.4655 25.443 73.4655" fill="#db2127" fill-rule="evenodd" opacity="1" stroke="none"/>
<path d="M15.3465 68.203C15.3465 68.203 16.581 66.7116 16.6702 65.4098C16.8296 64.1049 16.7379 63.6045 17.3512 62.8589C17.8983 62.1162 18.4749 62.162 19.0525 62.1374C19.7004 62.1098 20.0067 62.6011 20.6576 62.6438C21.3086 62.6903 21.7074 63.6078 21.8153 64.3968C21.9162 65.1119 22.0943 65.898 21.766 66.6353C21.4406 67.439 21.2588 68.3108 21.3048 69.3919C21.3539 70.5432 21.3753 71.0466 20.7866 72.3697C20.197 73.7633 19.1716 73.373 18.4496 73.4038C17.7315 73.4344 17.8202 73.8646 16.9087 72.75C16.0003 71.7096 15.6351 71.5805 15.0979 70.8097C14.6341 70.1101 15.3465 68.203 15.3465 68.203" fill="#db2127" fill-rule="evenodd" opacity="1" stroke="none"/>
<path d="M24.9799 65.994C25.9499 65.0847 26.0088 64.7225 26.6383 64.2656C27.2668 63.8752 27.7896 64.2166 28.0928 64.6337C28.471 64.9773 28.4863 65.3363 27.958 66.5162C27.4293 67.6882 27.5983 68.2596 26.6961 69.0175C25.7168 69.7082 24.9734 69.2355 24.4453 68.6794C23.8472 68.1301 24.0839 66.8963 24.9799 65.994" fill="#db2127" fill-rule="evenodd" opacity="1" stroke="none"/>
<path d="M27.2203 81.3188C29.0498 80.3025 28.8198 79.9526 29.0498 80.3025C29.2829 80.7265 28.3404 82.2798 29.5993 81.3621C30.8551 80.3702 31.6291 79.9072 31.7269 80.552C31.8988 81.1898 31.9049 81.3342 31.1494 82.2305C30.4712 83.1977 30.0656 83.864 29.2864 84.1123C28.4262 84.2936 27.3552 84.4839 27.3307 83.9102C27.3031 83.2623 27.3702 83.1852 25.9586 83.824C24.54 84.3888 25.4579 82.258 27.2203 81.3188" fill="#db2127" fill-rule="evenodd" opacity="1" stroke="none"/>
<path d="M36.9378 67.5019C39.3042 65.5987 39.1352 65.0272 38.6814 64.4718C38.2236 63.9127 38.0701 63.7042 37.0846 64.2506C36.1664 64.7237 36.4033 65.1437 35.3261 65.1895C34.3192 65.2325 33.3454 66.1419 34.5181 66.5963C35.765 67.0475 34.6407 69.4726 36.9378 67.5019" fill="#db2127" fill-rule="evenodd" opacity="1" stroke="none"/>
<path d="M49.0968 72.1721C51.3963 71.9998 50.896 72.0955 51.0799 71.3643C51.2678 70.6369 50.4199 71.107 50.1715 70.3239C49.9201 69.4706 49.6005 68.7609 48.4923 69.8207C47.3166 70.9499 46.724 72.2732 49.0968 72.1721" fill="#db2127" fill-rule="evenodd" opacity="1" stroke="none"/>
<path d="M55.9892 76.5624C57.6063 75.6998 57.9569 75.3955 58.9823 75.7858C60.0075 76.1722 60.5844 76.2219 60.7687 77.1524C60.9498 78.0087 61.3212 78.2822 60.406 78.8256C59.4947 79.3688 59.7856 79.4971 58.0729 79.8594C56.4273 80.1446 55.629 80.0379 54.9048 79.9241C54.1032 79.7393 53.8215 79.8256 54.282 78.7972C54.8158 77.8361 54.3651 77.351 55.9892 76.5624" fill="#db2127" fill-rule="evenodd" opacity="1" stroke="none"/>
<path d="M33.8501 47.5254C36.8406 43.2927 36.0026 43.9032 36.1225 43.3233C36.3125 42.7366 36.3561 42.0153 35.346 41.9841C34.3361 41.9567 33.433 41.1311 32.5308 41.889C31.6248 42.647 31.8091 43.5775 30.4952 44.8573C29.1845 46.2112 28.4748 46.5307 28.3671 47.3994C28.2666 48.342 28.705 48.5384 29.534 49.3671C30.3662 50.27 30.7864 51.6909 33.8501 47.5254" fill="#db2127" fill-rule="evenodd" opacity="1" stroke="none"/>
<path d="M46.2347 45.5589C47.386 45.5098 47.4777 46.0103 48.6541 44.8068C49.8295 43.6737 50.1733 43.2993 50.8456 43.8454C51.4448 44.3282 51.4937 45.4756 50.956 46.4368C50.3511 47.4713 50.7071 47.3858 49.8937 48.5738C49.0098 49.761 48.7365 50.1362 47.0229 50.5689C45.3805 50.9283 44.7883 50.5195 43.9043 50.0528C43.0204 49.5861 41.0401 48.8064 42.3385 47.1637C43.7113 45.5218 45.0834 45.608 46.2347 45.5589" fill="#db2127" fill-rule="evenodd" opacity="1" stroke="none"/>
<path d="M16.1619 87.338L5.62122 51.3549L9.20508 50.8824L16.6806 87.6756L15.7747 88.4375L0 68.2822L3.61722 60.1144" fill="#db2127" fill-rule="evenodd" opacity="1" stroke="none"/>
<path d="M20.344 29.8696L19.7446 85.1679L27.4357 30.7366L20.344 29.8696Z" fill="#db2127" fill-rule="evenodd" opacity="1" stroke="none"/>
<path d="M23.0231 87.6947L38.8165 35.407L42.2987 35.2095L35.5563 55.0394L49.3662 25L51.1699 33.8779L23.0231 87.6947" fill="#db2127" fill-rule="evenodd" opacity="1" stroke="none"/>
<path d="M33.4834 76.0787L64.8064 31.8143L68.1423 35.2391L33.4834 76.0787Z" fill="#db2127" fill-rule="evenodd" opacity="1" stroke="none"/>
<path d="M26.4278 91.4398L66.708 44.0375L71.4134 51.332L26.4278 91.4398Z" fill="#db2127" fill-rule="evenodd" opacity="1" stroke="none"/>
<path d="M34.5383 87.3486L82.1447 51.3714L86.1473 56.7821L34.5383 87.3486Z" fill="#db2127" fill-rule="evenodd" opacity="1" stroke="none"/>
<path d="M32.661 91.8609L86.5836 69.1764L88.8458 76.8541L32.661 91.8609Z" fill="#db2127" fill-rule="evenodd" opacity="1" stroke="none"/>
<path d="M42.5792 91.063L93.7133 80.2689L95.6482 88.9946L42.5792 91.063Z" fill="#db2127" fill-rule="evenodd" opacity="1" stroke="none"/>
<path d="M31.4559 94.4707L100.536 92.0906L101.898 98.6748L31.4559 94.4707Z" fill="#db2127" fill-rule="evenodd" opacity="1" stroke="none"/>
<path d="M23.8634 98.9738L109.717 103.596L107.918 108.253L23.8634 98.9738" fill="#db2127" fill-rule="evenodd" opacity="1" stroke="none"/>
</g>
<path d="M19.1009 113L466.159 113C469.733 113 472.63 113.444 472.63 113.992L472.63 116.008C472.63 116.556 469.733 117 466.159 117L19.1009 117C15.5271 117 12.63 116.556 12.63 116.008L12.63 113.992C12.63 113.444 15.5271 113 19.1009 113Z" fill="#db2127" fill-rule="nonzero" opacity="1" stroke="none"/>
<g fill="#db2127" opacity="1" stroke="none">
<path clip-path="url(#TextBounds)" d="M117.732 40.3801L121.302 40.3801C121.914 40.3801 122.487 40.3347 123.019 40.2441C123.552 40.1534 124.017 39.9947 124.413 39.7681C124.81 39.5414 125.122 39.2467 125.348 38.8841C125.575 38.5214 125.688 38.0681 125.688 37.5241C125.688 36.7534 125.382 36.1754 124.77 35.7901C124.158 35.4047 123.297 35.2121 122.186 35.2121C120.94 35.2121 119.852 35.3537 118.922 35.6371C117.993 35.9204 117.109 36.3001 116.27 36.7761L114.57 32.5941C115.477 32.0274 116.571 31.5684 117.851 31.2171C119.132 30.8657 120.588 30.6901 122.22 30.6901C123.49 30.6901 124.668 30.8317 125.756 31.1151C126.844 31.3984 127.785 31.8177 128.578 32.3731C129.372 32.9284 129.989 33.6311 130.431 34.4811C130.873 35.3311 131.094 36.3227 131.094 37.4561C131.094 38.3174 130.862 39.1731 130.397 40.0231C129.933 40.8731 129.224 41.5927 128.272 42.1821C128.794 42.4541 129.287 42.7714 129.751 43.1341C130.216 43.4967 130.624 43.9161 130.975 44.3921C131.327 44.8681 131.604 45.4064 131.808 46.0071C132.012 46.6077 132.114 47.2821 132.114 48.0301C132.114 50.5461 131.225 52.3764 129.445 53.5211C127.666 54.6657 125.19 55.2381 122.016 55.2381C121.223 55.2381 120.435 55.1814 119.653 55.0681C118.871 54.9547 118.123 54.8131 117.409 54.6431C116.695 54.4731 116.027 54.2747 115.403 54.0481C114.78 53.8214 114.23 53.5834 113.754 53.3341L115.318 49.1861C115.636 49.3221 116.027 49.4751 116.491 49.6451C116.956 49.8151 117.472 49.9794 118.038 50.1381C118.605 50.2967 119.194 50.4327 119.806 50.5461C120.418 50.6594 121.03 50.7161 121.642 50.7161C123.138 50.7161 124.345 50.5007 125.263 50.0701C126.181 49.6394 126.64 48.8914 126.64 47.8261C126.64 47.1687 126.493 46.6361 126.198 46.2281C125.904 45.8201 125.501 45.5084 124.991 45.2931C124.481 45.0777 123.881 44.9304 123.189 44.8511C122.498 44.7717 121.744 44.7321 120.928 44.7321L117.732 44.7321L117.732 40.3801Z"/>
<path clip-path="url(#TextBounds)" d="M140.818 42.9641C140.818 44.1201 140.96 45.1627 141.243 46.0921C141.527 47.0214 141.935 47.8204 142.467 48.4891C143 49.1577 143.652 49.6734 144.422 50.0361C145.193 50.3987 146.077 50.5801 147.074 50.5801C148.049 50.5801 148.927 50.3987 149.709 50.0361C150.491 49.6734 151.149 49.1577 151.681 48.4891C152.214 47.8204 152.622 47.0214 152.905 46.0921C153.189 45.1627 153.33 44.1201 153.33 42.9641C153.33 41.8081 153.189 40.7597 152.905 39.8191C152.622 38.8784 152.214 38.0737 151.681 37.4051C151.149 36.7364 150.491 36.2207 149.709 35.8581C148.927 35.4954 148.049 35.3141 147.074 35.3141C146.077 35.3141 145.193 35.5011 144.422 35.8751C143.652 36.2491 143 36.7704 142.467 37.4391C141.935 38.1077 141.527 38.9124 141.243 39.8531C140.96 40.7937 140.818 41.8307 140.818 42.9641ZM158.804 42.9641C158.804 44.9814 158.504 46.7551 157.903 48.2851C157.303 49.8151 156.481 51.0957 155.438 52.1271C154.396 53.1584 153.155 53.9347 151.715 54.4561C150.276 54.9774 148.729 55.2381 147.074 55.2381C145.465 55.2381 143.946 54.9774 142.518 54.4561C141.09 53.9347 139.844 53.1584 138.778 52.1271C137.713 51.0957 136.874 49.8151 136.262 48.2851C135.65 46.7551 135.344 44.9814 135.344 42.9641C135.344 40.9467 135.662 39.1731 136.296 37.6431C136.931 36.1131 137.787 34.8267 138.863 33.7841C139.94 32.7414 141.187 31.9594 142.603 31.4381C144.02 30.9167 145.51 30.6561 147.074 30.6561C148.684 30.6561 150.202 30.9167 151.63 31.4381C153.058 31.9594 154.305 32.7414 155.37 33.7841C156.436 34.8267 157.274 36.1131 157.886 37.6431C158.498 39.1731 158.804 40.9467 158.804 42.9641Z"/>
<path clip-path="url(#TextBounds)" d="M177.436 31.2001L182.74 31.2001L182.74 54.7621L177.436 54.7621L177.436 44.7661L168.528 44.7661L168.528 54.7621L163.224 54.7621L163.224 31.2001L168.528 31.2001L168.528 40.2101L177.436 40.2101L177.436 31.2001Z"/>
<path clip-path="url(#TextBounds)" d="M203.956 54.7621C203.707 53.9461 203.429 53.1074 203.123 52.2461C202.817 51.3847 202.517 50.5234 202.222 49.6621L193.042 49.6621C192.748 50.5234 192.447 51.3847 192.141 52.2461C191.835 53.1074 191.558 53.9461 191.308 54.7621L185.8 54.7621C186.684 52.2234 187.523 49.8774 188.316 47.7241C189.11 45.5707 189.886 43.5421 190.645 41.6381C191.405 39.7341 192.153 37.9264 192.889 36.2151C193.626 34.5037 194.391 32.8321 195.184 31.2001L200.25 31.2001C201.021 32.8321 201.78 34.5037 202.528 36.2151C203.276 37.9264 204.03 39.7341 204.789 41.6381C205.549 43.5421 206.325 45.5707 207.118 47.7241C207.912 49.8774 208.75 52.2234 209.634 54.7621L203.956 54.7621ZM197.598 36.5381C197.485 36.8781 197.315 37.3427 197.088 37.9321C196.862 38.5214 196.601 39.2014 196.306 39.9721C196.012 40.7427 195.689 41.5927 195.337 42.5221C194.986 43.4514 194.629 44.4261 194.266 45.4461L200.964 45.4461C200.602 44.4261 200.25 43.4514 199.91 42.5221C199.57 41.5927 199.247 40.7427 198.941 39.9721C198.635 39.2014 198.369 38.5214 198.142 37.9321C197.916 37.3427 197.734 36.8781 197.598 36.5381Z"/>
<path clip-path="url(#TextBounds)" d="M233.4 47.8601C232.743 49.3561 232.052 50.5857 231.326 51.5491C230.601 52.5124 229.853 53.2661 229.082 53.8101C228.312 54.3541 227.53 54.7281 226.736 54.9321C225.943 55.1361 225.138 55.2381 224.322 55.2381C223.552 55.2381 222.753 55.1644 221.925 55.0171C221.098 54.8697 220.322 54.6601 219.596 54.3881L220.548 50.1381C221.659 50.5461 222.758 50.7501 223.846 50.7501C224.549 50.7501 225.223 50.5914 225.869 50.2741C226.515 49.9567 227.133 49.2767 227.722 48.2341C226.793 46.7834 225.903 45.2931 225.053 43.7631C224.203 42.2331 223.399 40.7257 222.639 39.2411C221.88 37.7564 221.177 36.3284 220.531 34.9571C219.885 33.5857 219.313 32.3334 218.814 31.2001L224.696 31.2001C225.059 32.0841 225.461 33.0304 225.903 34.0391C226.345 35.0477 226.816 36.0904 227.314 37.1671C227.813 38.2437 228.317 39.3204 228.827 40.3971C229.337 41.4737 229.83 42.5221 230.306 43.5421C231.032 41.5474 231.723 39.5074 232.38 37.4221C233.038 35.3367 233.672 33.2627 234.284 31.2001L239.962 31.2001C239.373 32.9454 238.795 34.5774 238.228 36.0961C237.662 37.6147 237.106 39.0541 236.562 40.4141C236.018 41.7741 235.48 43.0661 234.947 44.2901C234.415 45.5141 233.899 46.7041 233.4 47.8601Z"/>
<path clip-path="url(#TextBounds)" d="M250.094 30.9281C253.608 30.9281 256.305 31.5457 258.186 32.7811C260.068 34.0164 261.008 36.0394 261.008 38.8501C261.008 41.6834 260.056 43.7291 258.152 44.9871C256.248 46.2451 253.528 46.8741 249.992 46.8741L248.326 46.8741L248.326 54.7621L243.022 54.7621L243.022 31.5401C244.178 31.3134 245.402 31.1547 246.694 31.0641C247.986 30.9734 249.12 30.9281 250.094 30.9281ZM250.434 35.4501C250.049 35.4501 249.669 35.4614 249.295 35.4841C248.921 35.5067 248.598 35.5294 248.326 35.5521L248.326 42.3521L249.992 42.3521C251.828 42.3521 253.211 42.1027 254.14 41.6041C255.07 41.1054 255.534 40.1761 255.534 38.8161C255.534 38.1587 255.415 37.6147 255.177 37.1841C254.939 36.7534 254.599 36.4077 254.157 36.1471C253.715 35.8864 253.177 35.7051 252.542 35.6031C251.908 35.5011 251.205 35.4501 250.434 35.4501Z"/>
<path clip-path="url(#TextBounds)" d="M278.382 54.7621C278.133 53.9461 277.855 53.1074 277.549 52.2461C277.243 51.3847 276.943 50.5234 276.648 49.6621L267.468 49.6621C267.174 50.5234 266.873 51.3847 266.567 52.2461C266.261 53.1074 265.984 53.9461 265.734 54.7621L260.226 54.7621C261.11 52.2234 261.949 49.8774 262.742 47.7241C263.536 45.5707 264.312 43.5421 265.071 41.6381C265.831 39.7341 266.579 37.9264 267.315 36.2151C268.052 34.5037 268.817 32.8321 269.61 31.2001L274.676 31.2001C275.447 32.8321 276.206 34.5037 276.954 36.2151C277.702 37.9264 278.456 39.7341 279.215 41.6381C279.975 43.5421 280.751 45.5707 281.544 47.7241C282.338 49.8774 283.176 52.2234 284.06 54.7621L278.382 54.7621ZM272.024 36.5381C271.911 36.8781 271.741 37.3427 271.514 37.9321C271.288 38.5214 271.027 39.2014 270.732 39.9721C270.438 40.7427 270.115 41.5927 269.763 42.5221C269.412 43.4514 269.055 44.4261 268.692 45.4461L275.39 45.4461C275.028 44.4261 274.676 43.4514 274.336 42.5221C273.996 41.5927 273.673 40.7427 273.367 39.9721C273.061 39.2014 272.795 38.5214 272.568 37.9321C272.342 37.3427 272.16 36.8781 272.024 36.5381Z"/>
<path clip-path="url(#TextBounds)" d="M285.556 54.7621C286.214 53.6061 286.916 52.4501 287.664 51.2941C288.412 50.1381 289.177 49.0217 289.959 47.9451C290.741 46.8684 291.546 45.8597 292.373 44.9191C293.201 43.9784 294.034 43.1341 294.872 42.3861C293.92 41.4114 293.036 40.4594 292.22 39.5301C291.404 38.6007 290.628 37.6827 289.891 36.7761C289.155 35.8694 288.435 34.9571 287.732 34.0391C287.03 33.1211 286.316 32.1747 285.59 31.2001L291.982 31.2001C292.662 32.1521 293.303 33.0247 293.903 33.8181C294.504 34.6114 295.093 35.3821 295.671 36.1301C296.249 36.8781 296.833 37.6147 297.422 38.3401C298.012 39.0654 298.646 39.8361 299.326 40.6521L299.326 31.2001L304.494 31.2001L304.494 40.6521C305.174 39.8134 305.826 39.0144 306.449 38.2551C307.073 37.4957 307.679 36.7421 308.268 35.9941C308.858 35.2461 309.447 34.4811 310.036 33.6991C310.626 32.9171 311.226 32.0841 311.838 31.2001L318.196 31.2001C317.38 32.2654 316.615 33.2627 315.901 34.1921C315.187 35.1214 314.468 36.0281 313.742 36.9121C313.017 37.7961 312.275 38.6801 311.515 39.5641C310.756 40.4481 309.923 41.3774 309.016 42.3521C310.852 44.0521 312.53 45.9617 314.048 48.0811C315.567 50.2004 316.984 52.4274 318.298 54.7621L312.382 54.7621C311.68 53.6967 311.022 52.7107 310.41 51.8041C309.798 50.8974 309.186 50.0247 308.574 49.1861C307.962 48.3474 307.328 47.5257 306.67 46.7211C306.013 45.9164 305.288 45.0834 304.494 44.2221L304.494 54.7621L299.326 54.7621L299.326 44.2221C298.51 45.1741 297.774 46.0581 297.116 46.8741C296.459 47.6901 295.83 48.5061 295.229 49.3221C294.629 50.1381 294.022 50.9824 293.41 51.8551C292.798 52.7277 292.141 53.6967 291.438 54.7621L285.556 54.7621Z"/>
<path clip-path="url(#TextBounds)" d="M321.358 54.7621L321.358 31.2001L337.27 31.2001L337.27 35.6541L326.662 35.6541L326.662 40.2781L336.08 40.2781L336.08 44.6301L326.662 44.6301L326.662 50.3081L338.052 50.3081L338.052 54.7621L321.358 54.7621Z"/>
<path clip-path="url(#TextBounds)" d="M356.174 31.2001L361.478 31.2001L361.478 54.7621L356.174 54.7621L356.174 44.7661L347.266 44.7661L347.266 54.7621L341.962 54.7621L341.962 31.2001L347.266 31.2001L347.266 40.2101L356.174 40.2101L356.174 31.2001Z"/>
<path clip-path="url(#TextBounds)" d="M381.13 31.2001L386.434 31.2001L386.434 54.7621L381.13 54.7621L381.13 44.7661L372.222 44.7661L372.222 54.7621L366.918 54.7621L366.918 31.2001L372.222 31.2001L372.222 40.2101L381.13 40.2101L381.13 31.2001Z"/>
<path clip-path="url(#TextBounds)" d="M402.482 35.5181C401.802 35.5181 401.151 35.5691 400.527 35.6711C399.904 35.7731 399.354 35.9431 398.878 36.1811C398.402 36.4191 398.017 36.7477 397.722 37.1671C397.428 37.5864 397.28 38.1134 397.28 38.7481C397.28 39.9494 397.705 40.7767 398.555 41.2301C399.405 41.6834 400.669 41.9101 402.346 41.9101L404.556 41.9101L404.556 35.5521C404.284 35.5294 403.99 35.5181 403.672 35.5181C403.355 35.5181 402.958 35.5181 402.482 35.5181ZM402.72 30.9621C403.672 30.9621 404.789 31.0187 406.069 31.1321C407.35 31.2454 408.614 31.4381 409.86 31.7101L409.86 54.7621L404.556 54.7621L404.556 46.2961L402.924 46.2961C402.63 46.2961 402.346 46.2961 402.074 46.2961C401.802 46.2961 401.474 46.2734 401.088 46.2281C400.34 47.2481 399.519 48.5231 398.623 50.0531C397.728 51.5831 396.895 53.1527 396.124 54.7621L390.514 54.7621C390.922 53.8327 391.359 52.9147 391.823 52.0081C392.288 51.1014 392.758 50.2401 393.234 49.4241C393.71 48.6081 394.175 47.8544 394.628 47.1631C395.082 46.4717 395.501 45.8654 395.886 45.3441C395.388 45.1174 394.895 44.8171 394.407 44.4431C393.92 44.0691 393.484 43.6214 393.098 43.1001C392.713 42.5787 392.401 41.9611 392.163 41.2471C391.925 40.5331 391.806 39.7114 391.806 38.7821C391.806 37.4901 392.061 36.3567 392.571 35.3821C393.081 34.4074 393.807 33.5914 394.747 32.9341C395.688 32.2767 396.833 31.7837 398.181 31.4551C399.53 31.1264 401.043 30.9621 402.72 30.9621Z"/>
<path clip-path="url(#TextBounds)" d="M420.162 37.2861C420.162 39.1221 420.094 40.8334 419.958 42.4201C419.822 44.0067 419.641 45.6161 419.414 47.2481L415.538 47.2481C415.312 45.6161 415.125 44.0067 414.977 42.4201C414.83 40.8334 414.756 39.1221 414.756 37.2861L414.756 31.2001L420.162 31.2001L420.162 37.2861ZM420.604 52.0761C420.604 53.0734 420.281 53.8441 419.635 54.3881C418.989 54.9321 418.258 55.2041 417.442 55.2041C416.626 55.2041 415.895 54.9321 415.249 54.3881C414.603 53.8441 414.28 53.0734 414.28 52.0761C414.28 51.0787 414.603 50.3081 415.249 49.7641C415.895 49.2201 416.626 48.9481 417.442 48.9481C418.258 48.9481 418.989 49.2201 419.635 49.7641C420.281 50.3081 420.604 51.0787 420.604 52.0761Z"/>
</g>
<g fill="#ff0000" opacity="1" stroke="none">
<path clip-path="url(#TextBounds_2)" d="M126.792 77.692C126.792 78.4013 126.652 79.0827 126.372 79.736C126.092 80.3893 125.728 81.0193 125.28 81.626C124.832 82.2327 124.328 82.816 123.768 83.376C123.208 83.936 122.658 84.468 122.116 84.972C121.836 85.2333 121.533 85.5273 121.206 85.854C120.88 86.1807 120.567 86.512 120.268 86.848C119.97 87.184 119.704 87.4967 119.47 87.786C119.237 88.0753 119.092 88.3133 119.036 88.5L127.38 88.5L127.38 92L114.444 92C114.407 91.7947 114.388 91.5333 114.388 91.216C114.388 90.8987 114.388 90.6747 114.388 90.544C114.388 89.648 114.533 88.8267 114.822 88.08C115.112 87.3333 115.49 86.638 115.956 85.994C116.423 85.35 116.95 84.748 117.538 84.188C118.126 83.628 118.71 83.068 119.288 82.508C119.736 82.0787 120.156 81.6727 120.548 81.29C120.94 80.9073 121.286 80.534 121.584 80.17C121.883 79.806 122.116 79.442 122.284 79.078C122.452 78.714 122.536 78.3453 122.536 77.972C122.536 77.1507 122.303 76.572 121.836 76.236C121.37 75.9 120.791 75.732 120.1 75.732C119.596 75.732 119.125 75.8113 118.686 75.97C118.248 76.1287 117.846 76.3153 117.482 76.53C117.118 76.7447 116.806 76.9593 116.544 77.174C116.283 77.3887 116.087 77.5613 115.956 77.692L113.884 74.78C114.706 74.0147 115.662 73.3847 116.754 72.89C117.846 72.3953 119.018 72.148 120.268 72.148C121.407 72.148 122.387 72.2787 123.208 72.54C124.03 72.8013 124.706 73.17 125.238 73.646C125.77 74.122 126.162 74.7007 126.414 75.382C126.666 76.0633 126.792 76.8333 126.792 77.692Z"/>
<path clip-path="url(#TextBounds_2)" d="M143.76 82.256C143.76 85.5227 143.14 88.0287 141.898 89.774C140.657 91.5193 138.944 92.392 136.76 92.392C134.576 92.392 132.864 91.5193 131.622 89.774C130.381 88.0287 129.76 85.5227 129.76 82.256C129.76 80.632 129.924 79.1947 130.25 77.944C130.577 76.6933 131.048 75.6387 131.664 74.78C132.28 73.9213 133.018 73.268 133.876 72.82C134.735 72.372 135.696 72.148 136.76 72.148C138.944 72.148 140.657 73.0207 141.898 74.766C143.14 76.5113 143.76 79.008 143.76 82.256ZM139.504 82.256C139.504 81.2853 139.458 80.4033 139.364 79.61C139.271 78.8167 139.122 78.1307 138.916 77.552C138.711 76.9733 138.431 76.5253 138.076 76.208C137.722 75.8907 137.283 75.732 136.76 75.732C136.238 75.732 135.804 75.8907 135.458 76.208C135.113 76.5253 134.833 76.9733 134.618 77.552C134.404 78.1307 134.25 78.8167 134.156 79.61C134.063 80.4033 134.016 81.2853 134.016 82.256C134.016 83.2267 134.063 84.1133 134.156 84.916C134.25 85.7187 134.404 86.4093 134.618 86.988C134.833 87.5667 135.113 88.0147 135.458 88.332C135.804 88.6493 136.238 88.808 136.76 88.808C137.283 88.808 137.722 88.6493 138.076 88.332C138.431 88.0147 138.711 87.5667 138.916 86.988C139.122 86.4093 139.271 85.7187 139.364 84.916C139.458 84.1133 139.504 83.2267 139.504 82.256Z"/>
<path clip-path="url(#TextBounds_2)" d="M157.536 83.516C157.499 84.1693 157.462 84.8787 157.424 85.644C157.387 86.4093 157.354 87.1793 157.326 87.954C157.298 88.7287 157.27 89.466 157.242 90.166C157.214 90.866 157.191 91.4773 157.172 92L153.112 92C153.15 90.9733 153.21 89.816 153.294 88.528C153.378 87.24 153.472 85.9287 153.574 84.594C153.677 83.2593 153.789 81.9573 153.91 80.688C154.032 79.4187 154.148 78.28 154.26 77.272L157.732 77.272C158.535 78.5787 159.272 79.932 159.944 81.332C160.616 82.732 161.326 84.272 162.072 85.952C162.856 84.16 163.622 82.5033 164.368 80.982C165.115 79.4607 165.787 78.224 166.384 77.272L169.912 77.272C170.043 78.28 170.169 79.4187 170.29 80.688C170.412 81.9573 170.524 83.2593 170.626 84.594C170.729 85.9287 170.818 87.24 170.892 88.528C170.967 89.816 171.023 90.9733 171.06 92L166.916 92C166.879 90.544 166.828 89.0973 166.762 87.66C166.697 86.2227 166.636 84.832 166.58 83.488L163.5 90.264L160.616 90.264L157.536 83.516Z"/>
<path clip-path="url(#TextBounds_2)" d="M174 84.748C174 83.4413 174.201 82.298 174.602 81.318C175.004 80.338 175.531 79.5213 176.184 78.868C176.838 78.2147 177.589 77.72 178.438 77.384C179.288 77.048 180.16 76.88 181.056 76.88C183.147 76.88 184.799 77.5193 186.012 78.798C187.226 80.0767 187.832 81.9573 187.832 84.44C187.832 84.6827 187.823 84.9487 187.804 85.238C187.786 85.5273 187.767 85.784 187.748 86.008L178.284 86.008C178.378 86.8667 178.779 87.548 179.488 88.052C180.198 88.556 181.15 88.808 182.344 88.808C183.11 88.808 183.861 88.738 184.598 88.598C185.336 88.458 185.938 88.2853 186.404 88.08L186.964 91.468C186.74 91.58 186.442 91.692 186.068 91.804C185.695 91.916 185.28 92.014 184.822 92.098C184.365 92.182 183.875 92.252 183.352 92.308C182.83 92.364 182.307 92.392 181.784 92.392C180.459 92.392 179.306 92.196 178.326 91.804C177.346 91.412 176.534 90.8753 175.89 90.194C175.246 89.5127 174.77 88.7053 174.462 87.772C174.154 86.8387 174 85.8307 174 84.748ZM183.8 83.152C183.782 82.7973 183.721 82.452 183.618 82.116C183.516 81.78 183.357 81.4813 183.142 81.22C182.928 80.9587 182.657 80.744 182.33 80.576C182.004 80.408 181.598 80.324 181.112 80.324C180.646 80.324 180.244 80.4033 179.908 80.562C179.572 80.7207 179.292 80.9307 179.068 81.192C178.844 81.4533 178.672 81.7567 178.55 82.102C178.429 82.4473 178.34 82.7973 178.284 83.152L183.8 83.152Z"/>
<path clip-path="url(#TextBounds_2)" d="M203.232 80.688L198.528 80.688L198.528 92L194.356 92L194.356 80.688L189.652 80.688L189.652 77.272L203.232 77.272L203.232 80.688Z"/>
<path clip-path="url(#TextBounds_2)" d="M215.188 84.748C215.188 83.46 214.899 82.4287 214.32 81.654C213.742 80.8793 212.883 80.492 211.744 80.492C211.371 80.492 211.026 80.506 210.708 80.534C210.391 80.562 210.13 80.5947 209.924 80.632L209.924 88.164C210.186 88.332 210.526 88.472 210.946 88.584C211.366 88.696 211.791 88.752 212.22 88.752C214.199 88.752 215.188 87.4173 215.188 84.748ZM219.444 84.636C219.444 85.7747 219.304 86.8107 219.024 87.744C218.744 88.6773 218.334 89.48 217.792 90.152C217.251 90.824 216.579 91.3467 215.776 91.72C214.974 92.0933 214.05 92.28 213.004 92.28C212.426 92.28 211.884 92.224 211.38 92.112C210.876 92 210.391 91.8413 209.924 91.636L209.924 97.18L205.752 97.18L205.752 77.776C206.126 77.664 206.555 77.5567 207.04 77.454C207.526 77.3513 208.034 77.2627 208.566 77.188C209.098 77.1133 209.64 77.0527 210.19 77.006C210.741 76.9593 211.268 76.936 211.772 76.936C212.986 76.936 214.068 77.118 215.02 77.482C215.972 77.846 216.775 78.3593 217.428 79.022C218.082 79.6847 218.581 80.492 218.926 81.444C219.272 82.396 219.444 83.46 219.444 84.636Z"/>
<path clip-path="url(#TextBounds_2)" d="M226.836 92L222.664 92L222.664 77.272L226.836 77.272L226.836 92ZM227.228 73.016C227.228 73.7813 226.981 74.3833 226.486 74.822C225.992 75.2607 225.408 75.48 224.736 75.48C224.064 75.48 223.481 75.2607 222.986 74.822C222.492 74.3833 222.244 73.7813 222.244 73.016C222.244 72.2507 222.492 71.6487 222.986 71.21C223.481 70.7713 224.064 70.552 224.736 70.552C225.408 70.552 225.992 70.7713 226.486 71.21C226.981 71.6487 227.228 72.2507 227.228 73.016Z"/>
<path clip-path="url(#TextBounds_2)" d="M234.928 88.92C235.19 88.9573 235.54 88.99 235.978 89.018C236.417 89.046 236.823 89.06 237.196 89.06C238.13 89.06 238.858 88.9433 239.38 88.71C239.903 88.4767 240.164 88.052 240.164 87.436C240.164 86.8387 239.926 86.4233 239.45 86.19C238.974 85.9567 238.279 85.84 237.364 85.84L234.928 85.84L234.928 88.92ZM237.28 83.04C237.971 83.04 238.531 82.9513 238.96 82.774C239.39 82.5967 239.604 82.2093 239.604 81.612C239.604 81.052 239.362 80.6693 238.876 80.464C238.391 80.2587 237.756 80.156 236.972 80.156C236.711 80.156 236.37 80.17 235.95 80.198C235.53 80.226 235.19 80.2587 234.928 80.296L234.928 83.04L237.28 83.04ZM237.14 92.28C236.618 92.28 236.058 92.2613 235.46 92.224C234.863 92.1867 234.275 92.1353 233.696 92.07C233.118 92.0047 232.572 91.93 232.058 91.846C231.545 91.762 231.111 91.6827 230.756 91.608L230.756 77.496C231.111 77.4213 231.545 77.3513 232.058 77.286C232.572 77.2207 233.118 77.16 233.696 77.104C234.275 77.048 234.863 77.006 235.46 76.978C236.058 76.95 236.618 76.936 237.14 76.936C238.354 76.936 239.376 77.0573 240.206 77.3C241.037 77.5427 241.709 77.86 242.222 78.252C242.736 78.644 243.104 79.0827 243.328 79.568C243.552 80.0533 243.664 80.5387 243.664 81.024C243.664 81.6773 243.506 82.2747 243.188 82.816C242.871 83.3573 242.47 83.7493 241.984 83.992C242.246 84.104 242.512 84.2627 242.782 84.468C243.053 84.6733 243.3 84.9207 243.524 85.21C243.748 85.4993 243.93 85.8447 244.07 86.246C244.21 86.6473 244.28 87.1093 244.28 87.632C244.28 88.2293 244.164 88.808 243.93 89.368C243.697 89.928 243.3 90.4227 242.74 90.852C242.18 91.2813 241.443 91.6267 240.528 91.888C239.614 92.1493 238.484 92.28 237.14 92.28Z"/>
<path clip-path="url(#TextBounds_2)" d="M253.632 84.972L266.792 84.972L266.792 88.472L253.632 88.472L253.632 84.972ZM253.632 78.84L266.792 78.84L266.792 82.34L253.632 82.34L253.632 78.84Z"/>
<path clip-path="url(#TextBounds_2)" d="M288.772 77.692C288.772 78.4013 288.632 79.0827 288.352 79.736C288.072 80.3893 287.708 81.0193 287.26 81.626C286.812 82.2327 286.308 82.816 285.748 83.376C285.188 83.936 284.638 84.468 284.096 84.972C283.816 85.2333 283.513 85.5273 283.186 85.854C282.86 86.1807 282.547 86.512 282.248 86.848C281.95 87.184 281.684 87.4967 281.45 87.786C281.217 88.0753 281.072 88.3133 281.016 88.5L289.36 88.5L289.36 92L276.424 92C276.387 91.7947 276.368 91.5333 276.368 91.216C276.368 90.8987 276.368 90.6747 276.368 90.544C276.368 89.648 276.513 88.8267 276.802 88.08C277.092 87.3333 277.47 86.638 277.936 85.994C278.403 85.35 278.93 84.748 279.518 84.188C280.106 83.628 280.69 83.068 281.268 82.508C281.716 82.0787 282.136 81.6727 282.528 81.29C282.92 80.9073 283.266 80.534 283.564 80.17C283.863 79.806 284.096 79.442 284.264 79.078C284.432 78.714 284.516 78.3453 284.516 77.972C284.516 77.1507 284.283 76.572 283.816 76.236C283.35 75.9 282.771 75.732 282.08 75.732C281.576 75.732 281.105 75.8113 280.666 75.97C280.228 76.1287 279.826 76.3153 279.462 76.53C279.098 76.7447 278.786 76.9593 278.524 77.174C278.263 77.3887 278.067 77.5613 277.936 77.692L275.864 74.78C276.686 74.0147 277.642 73.3847 278.734 72.89C279.826 72.3953 280.998 72.148 282.248 72.148C283.387 72.148 284.367 72.2787 285.188 72.54C286.01 72.8013 286.686 73.17 287.218 73.646C287.75 74.122 288.142 74.7007 288.394 75.382C288.646 76.0633 288.772 76.8333 288.772 77.692Z"/>
<path clip-path="url(#TextBounds_2)" d="M305.096 89.088C305.507 89.088 305.899 89.0787 306.272 89.06C306.646 89.0413 306.944 89.0133 307.168 88.976L307.168 85.812C307 85.7747 306.748 85.7373 306.412 85.7C306.076 85.6627 305.768 85.644 305.488 85.644C305.096 85.644 304.728 85.6673 304.382 85.714C304.037 85.7607 303.734 85.8493 303.472 85.98C303.211 86.1107 303.006 86.288 302.856 86.512C302.707 86.736 302.632 87.016 302.632 87.352C302.632 88.0053 302.852 88.458 303.29 88.71C303.729 88.962 304.331 89.088 305.096 89.088ZM304.76 76.88C305.992 76.88 307.019 77.02 307.84 77.3C308.662 77.58 309.32 77.9813 309.814 78.504C310.309 79.0267 310.659 79.6613 310.864 80.408C311.07 81.1547 311.172 81.9853 311.172 82.9L311.172 91.58C310.575 91.7107 309.744 91.8647 308.68 92.042C307.616 92.2193 306.328 92.308 304.816 92.308C303.864 92.308 303.001 92.224 302.226 92.056C301.452 91.888 300.784 91.6127 300.224 91.23C299.664 90.8473 299.235 90.348 298.936 89.732C298.638 89.116 298.488 88.36 298.488 87.464C298.488 86.6053 298.661 85.8773 299.006 85.28C299.352 84.6827 299.814 84.2067 300.392 83.852C300.971 83.4973 301.634 83.2407 302.38 83.082C303.127 82.9233 303.902 82.844 304.704 82.844C305.246 82.844 305.726 82.8673 306.146 82.914C306.566 82.9607 306.907 83.0213 307.168 83.096L307.168 82.704C307.168 81.9947 306.954 81.4253 306.524 80.996C306.095 80.5667 305.348 80.352 304.284 80.352C303.575 80.352 302.875 80.4033 302.184 80.506C301.494 80.6087 300.896 80.7533 300.392 80.94L299.86 77.58C300.103 77.5053 300.406 77.426 300.77 77.342C301.134 77.258 301.531 77.1833 301.96 77.118C302.39 77.0527 302.842 76.9967 303.318 76.95C303.794 76.9033 304.275 76.88 304.76 76.88Z"/>
<path clip-path="url(#TextBounds_2)" d="M319.124 88.92C319.386 88.9573 319.736 88.99 320.174 89.018C320.613 89.046 321.019 89.06 321.392 89.06C322.326 89.06 323.054 88.9433 323.576 88.71C324.099 88.4767 324.36 88.052 324.36 87.436C324.36 86.8387 324.122 86.4233 323.646 86.19C323.17 85.9567 322.475 85.84 321.56 85.84L319.124 85.84L319.124 88.92ZM321.476 83.04C322.167 83.04 322.727 82.9513 323.156 82.774C323.586 82.5967 323.8 82.2093 323.8 81.612C323.8 81.052 323.558 80.6693 323.072 80.464C322.587 80.2587 321.952 80.156 321.168 80.156C320.907 80.156 320.566 80.17 320.146 80.198C319.726 80.226 319.386 80.2587 319.124 80.296L319.124 83.04L321.476 83.04ZM321.336 92.28C320.814 92.28 320.254 92.2613 319.656 92.224C319.059 92.1867 318.471 92.1353 317.892 92.07C317.314 92.0047 316.768 91.93 316.254 91.846C315.741 91.762 315.307 91.6827 314.952 91.608L314.952 77.496C315.307 77.4213 315.741 77.3513 316.254 77.286C316.768 77.2207 317.314 77.16 317.892 77.104C318.471 77.048 319.059 77.006 319.656 76.978C320.254 76.95 320.814 76.936 321.336 76.936C322.55 76.936 323.572 77.0573 324.402 77.3C325.233 77.5427 325.905 77.86 326.418 78.252C326.932 78.644 327.3 79.0827 327.524 79.568C327.748 80.0533 327.86 80.5387 327.86 81.024C327.86 81.6773 327.702 82.2747 327.384 82.816C327.067 83.3573 326.666 83.7493 326.18 83.992C326.442 84.104 326.708 84.2627 326.978 84.468C327.249 84.6733 327.496 84.9207 327.72 85.21C327.944 85.4993 328.126 85.8447 328.266 86.246C328.406 86.6473 328.476 87.1093 328.476 87.632C328.476 88.2293 328.36 88.808 328.126 89.368C327.893 89.928 327.496 90.4227 326.936 90.852C326.376 91.2813 325.639 91.6267 324.724 91.888C323.81 92.1493 322.68 92.28 321.336 92.28Z"/>
<path clip-path="url(#TextBounds_2)" d="M343.876 80.688L339.172 80.688L339.172 92L335 92L335 80.688L330.296 80.688L330.296 77.272L343.876 77.272L343.876 80.688Z"/>
<path clip-path="url(#TextBounds_2)" d="M360.172 84.608C360.172 85.7653 360.004 86.8247 359.668 87.786C359.332 88.7473 358.847 89.5687 358.212 90.25C357.578 90.9313 356.817 91.4587 355.93 91.832C355.044 92.2053 354.05 92.392 352.948 92.392C351.866 92.392 350.881 92.2053 349.994 91.832C349.108 91.4587 348.347 90.9313 347.712 90.25C347.078 89.5687 346.583 88.7473 346.228 87.786C345.874 86.8247 345.696 85.7653 345.696 84.608C345.696 83.4507 345.878 82.396 346.242 81.444C346.606 80.492 347.11 79.68 347.754 79.008C348.398 78.336 349.164 77.8133 350.05 77.44C350.937 77.0667 351.903 76.88 352.948 76.88C354.012 76.88 354.988 77.0667 355.874 77.44C356.761 77.8133 357.522 78.336 358.156 79.008C358.791 79.68 359.286 80.492 359.64 81.444C359.995 82.396 360.172 83.4507 360.172 84.608ZM355.916 84.608C355.916 83.32 355.66 82.3073 355.146 81.57C354.633 80.8327 353.9 80.464 352.948 80.464C351.996 80.464 351.259 80.8327 350.736 81.57C350.214 82.3073 349.952 83.32 349.952 84.608C349.952 85.896 350.214 86.918 350.736 87.674C351.259 88.43 351.996 88.808 352.948 88.808C353.9 88.808 354.633 88.43 355.146 87.674C355.66 86.918 355.916 85.896 355.916 84.608Z"/>
<path clip-path="url(#TextBounds_2)" d="M376.244 73.828C375.554 73.9773 374.9 74.08 374.284 74.136C373.668 74.192 373.034 74.276 372.38 74.388C371.82 74.4813 371.26 74.6213 370.7 74.808C370.14 74.9947 369.622 75.2513 369.146 75.578C368.67 75.9047 368.255 76.3153 367.9 76.81C367.546 77.3047 367.294 77.916 367.144 78.644C368.358 78.0653 369.534 77.776 370.672 77.776C371.568 77.776 372.399 77.9253 373.164 78.224C373.93 78.5227 374.597 78.9707 375.166 79.568C375.736 80.1653 376.184 80.9073 376.51 81.794C376.837 82.6807 377 83.712 377 84.888C377 86.1573 376.814 87.2587 376.44 88.192C376.067 89.1253 375.558 89.9047 374.914 90.53C374.27 91.1553 373.524 91.622 372.674 91.93C371.825 92.238 370.915 92.392 369.944 92.392C367.35 92.392 365.492 91.6033 364.372 90.026C363.252 88.4487 362.692 86.1293 362.692 83.068C362.692 81.052 362.888 79.3393 363.28 77.93C363.672 76.5207 364.26 75.3447 365.044 74.402C365.828 73.4593 366.799 72.7173 367.956 72.176C369.114 71.6347 370.458 71.2053 371.988 70.888C372.604 70.7573 373.225 70.6593 373.85 70.594C374.476 70.5287 375.115 70.4213 375.768 70.272L376.244 73.828ZM367.06 82.06C367.023 82.3213 367 82.62 366.99 82.956C366.981 83.292 366.976 83.5907 366.976 83.852C366.976 85.4947 367.205 86.736 367.662 87.576C368.12 88.416 368.89 88.836 369.972 88.836C370.887 88.836 371.587 88.4813 372.072 87.772C372.558 87.0627 372.8 86.1107 372.8 84.916C372.8 84.4493 372.744 83.9967 372.632 83.558C372.52 83.1193 372.343 82.732 372.1 82.396C371.858 82.06 371.559 81.7893 371.204 81.584C370.85 81.3787 370.43 81.276 369.944 81.276C369.459 81.276 368.95 81.332 368.418 81.444C367.886 81.556 367.434 81.7613 367.06 82.06Z"/>
<path clip-path="url(#TextBounds_2)" d="M393.296 77.272C392.456 80.1093 391.579 82.7693 390.664 85.252C389.75 87.7347 388.751 90.1427 387.668 92.476C387.276 93.316 386.884 94.03 386.492 94.618C386.1 95.206 385.671 95.6913 385.204 96.074C384.738 96.4567 384.21 96.7367 383.622 96.914C383.034 97.0913 382.348 97.18 381.564 97.18C380.911 97.18 380.309 97.1193 379.758 96.998C379.208 96.8767 378.755 96.7413 378.4 96.592L379.128 93.26C379.558 93.4093 379.94 93.512 380.276 93.568C380.612 93.624 380.967 93.652 381.34 93.652C382.087 93.652 382.661 93.4513 383.062 93.05C383.464 92.6487 383.804 92.0933 384.084 91.384C383.132 89.5173 382.18 87.422 381.228 85.098C380.276 82.774 379.38 80.1653 378.54 77.272L382.964 77.272C383.151 78 383.37 78.7887 383.622 79.638C383.874 80.4873 384.14 81.346 384.42 82.214C384.7 83.082 384.985 83.9267 385.274 84.748C385.564 85.5693 385.839 86.316 386.1 86.988C386.343 86.316 386.595 85.5693 386.856 84.748C387.118 83.9267 387.374 83.082 387.626 82.214C387.878 81.346 388.121 80.4873 388.354 79.638C388.588 78.7887 388.798 78 388.984 77.272L393.296 77.272Z"/>
<path clip-path="url(#TextBounds_2)" d="M394.836 84.636C394.836 83.572 395.009 82.5687 395.354 81.626C395.7 80.6833 396.199 79.862 396.852 79.162C397.506 78.462 398.299 77.9067 399.232 77.496C400.166 77.0853 401.23 76.88 402.424 76.88C403.208 76.88 403.927 76.95 404.58 77.09C405.234 77.23 405.868 77.4307 406.484 77.692L405.616 81.024C405.224 80.8747 404.795 80.744 404.328 80.632C403.862 80.52 403.339 80.464 402.76 80.464C401.528 80.464 400.609 80.8467 400.002 81.612C399.396 82.3773 399.092 83.3853 399.092 84.636C399.092 85.9613 399.377 86.988 399.946 87.716C400.516 88.444 401.51 88.808 402.928 88.808C403.432 88.808 403.974 88.7613 404.552 88.668C405.131 88.5747 405.663 88.4253 406.148 88.22L406.736 91.636C406.251 91.8413 405.644 92.0187 404.916 92.168C404.188 92.3173 403.386 92.392 402.508 92.392C401.164 92.392 400.007 92.1913 399.036 91.79C398.066 91.3887 397.268 90.8427 396.642 90.152C396.017 89.4613 395.56 88.6447 395.27 87.702C394.981 86.7593 394.836 85.7373 394.836 84.636Z"/>
<path clip-path="url(#TextBounds_2)" d="M422.948 77.272L422.948 92L418.748 92C418.748 91.0667 418.758 90.138 418.776 89.214C418.795 88.29 418.814 87.436 418.832 86.652C418.851 85.868 418.874 85.182 418.902 84.594C418.93 84.006 418.944 83.572 418.944 83.292C418.403 84.0573 417.862 84.832 417.32 85.616C416.779 86.4 416.261 87.17 415.766 87.926C415.272 88.682 414.805 89.4053 414.366 90.096C413.928 90.7867 413.54 91.4213 413.204 92L409.536 92L409.536 77.272L413.708 77.272C413.708 78.2053 413.704 79.0967 413.694 79.946C413.685 80.7953 413.671 81.5653 413.652 82.256C413.634 82.9467 413.615 83.5487 413.596 84.062C413.578 84.5753 413.568 84.972 413.568 85.252C414.688 83.6093 415.72 82.1347 416.662 80.828C417.605 79.5213 418.524 78.336 419.42 77.272L422.948 77.272Z"/>
</g>
<path d="M492.63 115L452.63 125L452.63 105L492.63 115Z" fill="#db2127" fill-rule="nonzero" opacity="1" stroke="none"/>
</g>
<g id="Distance">
<path d="M433.74 189.497C440.593 189.497 446.146 195.05 446.146 201.903C446.146 208.755 440.593 214.308 433.74 214.308C426.887 214.308 421.334 208.755 421.334 201.903C421.334 195.05 426.887 189.497 433.74 189.497ZM254.899 192.2C254.563 180.807 254.661 170.952 255.239 162.759C255.822 154.468 256.898 147.826 258.489 142.958C259.918 138.584 261.756 136.056 264.292 134.591C266.798 133.148 269.845 132.825 273.785 132.825L443.403 132.825C446.885 132.825 450.157 132.874 453.366 133.349C456.624 133.833 459.779 134.752 462.948 136.496C464.911 137.576 466.524 139.028 467.864 140.744C468.77 141.892 469.545 143.16 470.217 144.5C470.773 144.267 471.365 144.074 471.97 143.917C477.442 142.255 484.183 142.949 484.174 148.704L484.151 159.657C484.147 160.962 483.08 162.028 481.776 162.028L480.588 162.028C479.934 162.028 479.4 161.495 479.4 160.845L479.4 150.232C479.4 149.067 478.813 148.068 477.5 147.714C476.102 147.427 474.466 147.48 472.978 147.861C472.512 147.982 472.064 148.139 471.638 148.328C472.875 152.778 474.049 157.246 475.08 161.768C476.245 166.905 477.218 172.068 477.863 177.266L477.872 177.41L477.872 193.141L477.859 193.302C477.59 198.048 475.569 200.787 472.552 202.364C469.679 203.866 465.96 204.22 462.047 204.274L449.758 204.278C449.104 204.278 448.57 203.745 448.57 203.086L448.579 202.938C448.597 202.606 448.611 202.266 448.611 201.907C448.611 198.017 447.109 194.445 444.64 191.778C442.166 189.112 438.719 187.346 434.834 187.068C434.105 187.014 433.374 187.014 432.646 187.068C428.761 187.346 425.314 189.112 422.84 191.778C420.286 194.533 418.867 198.151 418.869 201.907C418.869 202.288 418.883 202.656 418.905 203.005C418.955 203.66 418.457 204.229 417.803 204.274L333.308 204.278C332.649 204.278 332.115 203.745 332.115 203.086L332.124 202.938C332.413 198.833 330.986 194.793 328.185 191.778C325.715 189.112 322.264 187.346 318.379 187.068C317.662 187.014 316.913 187.014 316.192 187.068C312.306 187.346 308.859 189.112 306.39 191.778C303.832 194.531 302.412 198.15 302.415 201.907C302.415 202.288 302.428 202.656 302.455 203.005C302.5 203.66 302.007 204.229 301.352 204.274L268.021 204.278L267.864 204.269C264.31 203.978 261.366 202.929 259.152 200.998C256.911 199.039 255.454 196.22 254.912 192.406C254.912 192.406 254.899 192.2 254.899 192.2ZM411.582 177.715L411.582 201.894L416.49 201.894C416.49 197.394 418.233 193.253 421.101 190.161C423.97 187.068 427.967 185.02 432.481 184.697C433.328 184.634 434.152 184.634 434.999 184.697C439.513 185.02 443.51 187.068 446.379 190.161C449.247 193.253 450.99 197.394 450.995 201.894L452.774 201.894L452.774 177.715C452.774 177.715 411.582 177.715 411.582 177.715ZM410.094 201.894L410.094 177.715L375.719 177.715L375.719 201.894L410.094 201.894ZM374.231 201.894L374.231 177.715L339.855 177.715L339.855 201.894L374.231 201.894ZM338.368 201.894L338.368 177.715L272.436 177.715L272.436 201.894L300.035 201.894C300.037 197.541 301.684 193.35 304.647 190.161C307.515 187.068 311.517 185.02 316.026 184.697C316.873 184.634 317.702 184.634 318.549 184.697C323.058 185.02 327.055 187.068 329.928 190.161C332.797 193.253 334.536 197.394 334.54 201.894C334.54 201.894 338.368 201.894 338.368 201.894ZM270.948 201.894L270.948 176.971C270.948 176.558 271.28 176.227 271.692 176.227L453.518 176.227C453.93 176.227 454.262 176.558 454.262 176.971L454.262 201.894L462.034 201.894C465.623 201.854 469.003 201.544 471.454 200.262C473.74 199.066 475.273 196.928 475.488 193.163L475.488 177.477C474.851 172.345 473.901 167.294 472.763 162.288C471.62 157.269 470.28 152.258 468.868 147.247C468.088 145.401 467.152 143.68 465.995 142.205C464.848 140.74 463.472 139.498 461.805 138.58C458.914 136.989 456.019 136.146 453.021 135.702C449.986 135.254 446.8 135.205 443.403 135.205L273.785 135.205C270.222 135.205 267.515 135.469 265.476 136.648C263.472 137.8 261.98 139.929 260.747 143.693C259.219 148.377 258.184 154.826 257.615 162.916C257.547 163.87 257.485 164.847 257.431 165.851L258.399 165.851C259.12 165.851 259.712 166.438 259.712 167.16L259.712 177.571C259.712 178.445 258.995 179.162 258.117 179.162L257.081 179.162C257.072 183.227 257.135 187.548 257.27 192.115C257.736 195.315 258.914 197.641 260.712 199.209C262.518 200.787 265.001 201.647 268.053 201.894C268.053 201.894 270.948 201.894 270.948 201.894ZM453.42 139.888C468.398 142.134 466.829 161.361 469.482 177.105L459.797 177.105C456.606 177.105 454.047 174.492 453.989 171.301C453.989 171.301 453.42 139.888 453.42 139.888ZM279.051 139.915L283.345 139.915C283.345 139.982 283.349 140.05 283.363 140.121L287.656 164.507L276.582 164.507C271.181 164.507 266.753 160.083 266.753 154.678L266.753 152.209C266.753 145.45 272.288 139.915 279.051 139.915ZM285.742 139.915L310.84 139.915C310.84 139.982 310.845 140.05 310.854 140.121L315.147 164.507L290.054 164.507C290.054 164.44 290.045 164.372 290.036 164.301C290.036 164.301 285.742 139.915 285.742 139.915ZM313.234 139.915L338.332 139.915C338.332 139.982 338.336 140.05 338.35 140.121L342.639 164.507L317.545 164.507C317.545 164.44 317.541 164.372 317.527 164.301C317.527 164.301 313.234 139.915 313.234 139.915ZM340.729 139.915L365.823 139.915C365.823 139.982 365.832 140.05 365.841 140.121L370.134 164.507L345.036 164.507C345.036 164.44 345.032 164.372 345.018 164.301C345.018 164.301 340.729 139.915 340.729 139.915ZM368.221 139.915L393.319 139.915C393.319 139.982 393.323 140.05 393.337 140.121L397.626 164.507L372.532 164.507C372.532 164.44 372.528 164.372 372.514 164.301C372.514 164.301 368.221 139.915 368.221 139.915ZM395.716 139.915L420.81 139.915C420.81 139.982 420.814 140.05 420.828 140.121L425.121 164.507L400.023 164.507C400.023 164.44 400.019 164.372 400.006 164.301C400.006 164.301 395.716 139.915 395.716 139.915ZM423.208 139.915L449.995 139.915L449.995 164.507L427.519 164.507C427.519 164.44 427.51 164.372 427.501 164.301C427.501 164.301 423.208 139.915 423.208 139.915ZM395.613 196.081L395.613 196.959C395.613 197.255 395.376 197.493 395.08 197.493L390.845 197.493C390.491 197.493 390.199 197.201 390.199 196.847L390.199 196.081L395.613 196.081ZM359.75 196.081L359.75 196.959C359.75 197.255 359.513 197.493 359.217 197.493L354.981 197.493C354.627 197.493 354.336 197.201 354.336 196.847L354.336 196.081L359.75 196.081ZM317.285 189.497C324.138 189.497 329.695 195.05 329.695 201.903C329.695 208.755 324.138 214.308 317.285 214.308C310.437 214.308 304.88 208.755 304.88 201.903C304.88 195.05 310.437 189.497 317.285 189.497ZM317.29 199.366C318.688 199.366 319.822 200.5 319.822 201.903C319.822 203.301 318.688 204.44 317.29 204.44C315.907 204.414 314.8 203.285 314.8 201.903C314.8 200.52 315.907 199.392 317.29 199.366ZM317.29 195.099C321.045 195.099 324.089 198.147 324.089 201.903C324.089 205.659 321.045 208.706 317.29 208.706C313.529 208.706 310.486 205.659 310.486 201.903C310.486 198.147 313.529 195.099 317.29 195.099ZM433.74 199.366C435.122 199.392 436.229 200.52 436.229 201.903C436.229 203.285 435.122 204.414 433.74 204.44C432.342 204.44 431.203 203.301 431.203 201.903C431.203 200.5 432.342 199.366 433.74 199.366ZM433.74 195.099C437.496 195.099 440.543 198.147 440.543 201.903C440.543 205.659 437.496 208.706 433.74 208.706C429.984 208.706 426.937 205.659 426.937 201.903C426.937 198.147 429.984 195.099 433.74 195.099Z" fill="#767272" fill-rule="evenodd" opacity="1" stroke="none"/>
<path d="M193.226 189.497C200.079 189.497 205.632 195.05 205.632 201.903C205.632 208.755 200.079 214.308 193.226 214.308C186.373 214.308 180.82 208.755 180.82 201.903C180.82 195.05 186.373 189.497 193.226 189.497ZM14.3847 192.2C14.0486 180.807 14.1472 170.952 14.7254 162.759C15.308 154.468 16.3836 147.826 17.9747 142.958C19.4043 138.584 21.2419 136.056 23.7786 134.591C26.2839 133.148 29.3315 132.825 33.271 132.825L202.889 132.825C206.371 132.825 209.643 132.874 212.852 133.349C216.11 133.833 219.265 134.752 222.434 136.496C224.397 137.576 226.01 139.028 227.35 140.744C228.256 141.892 229.031 143.16 229.703 144.5C230.259 144.267 230.851 144.074 231.456 143.917C236.928 142.255 243.669 142.949 243.66 148.704L243.637 159.657C243.633 160.962 242.566 162.028 241.262 162.028L240.074 162.028C239.42 162.028 238.887 161.495 238.887 160.845L238.887 150.232C238.887 149.067 238.299 148.068 236.986 147.714C235.588 147.427 233.952 147.48 232.464 147.861C231.998 147.982 231.55 148.139 231.124 148.328C232.361 152.778 233.535 157.246 234.566 161.768C235.731 166.905 236.704 172.068 237.349 177.266L237.358 177.41L237.358 193.141L237.345 193.302C237.076 198.048 235.055 200.787 232.038 202.364C229.166 203.866 225.446 204.22 221.533 204.274L209.244 204.278C208.59 204.278 208.056 203.745 208.056 203.086L208.065 202.938C208.083 202.606 208.097 202.266 208.097 201.907C208.097 198.017 206.595 194.445 204.126 191.778C201.652 189.112 198.205 187.346 194.32 187.068C193.592 187.014 192.861 187.014 192.133 187.068C188.247 187.346 184.8 189.112 182.326 191.778C179.772 194.533 178.353 198.151 178.355 201.907C178.355 202.288 178.369 202.656 178.391 203.005C178.441 203.66 177.943 204.229 177.289 204.274L92.7937 204.278C92.1348 204.278 91.6015 203.745 91.6015 203.086L91.6105 202.938C91.8987 198.833 90.4723 194.793 87.671 191.778C85.2015 189.112 81.7505 187.346 77.8648 187.068C77.1477 187.014 76.3993 187.014 75.6777 187.068C71.792 187.346 68.3455 189.112 65.876 191.778C63.3183 194.531 61.8979 198.15 61.9007 201.907C61.9007 202.288 61.9141 202.656 61.941 203.005C61.9858 203.66 61.4928 204.229 60.8385 204.274L27.5074 204.278L27.3506 204.269C23.7965 203.978 20.852 202.929 18.638 200.998C16.3971 199.039 14.9405 196.22 14.3982 192.406C14.3982 192.406 14.3847 192.2 14.3847 192.2ZM171.068 177.715L171.068 201.894L175.976 201.894C175.976 197.394 177.719 193.253 180.587 190.161C183.456 187.068 187.454 185.02 191.967 184.697C192.814 184.634 193.638 184.634 194.485 184.697C198.999 185.02 202.996 187.068 205.865 190.161C208.733 193.253 210.476 197.394 210.481 201.894L212.26 201.894L212.26 177.715C212.26 177.715 171.068 177.715 171.068 177.715ZM169.58 201.894L169.58 177.715L135.205 177.715L135.205 201.894L169.58 201.894ZM133.717 201.894L133.717 177.715L99.3415 177.715L99.3415 201.894L133.717 201.894ZM97.8536 201.894L97.8536 177.715L31.922 177.715L31.922 201.894L59.5208 201.894C59.5228 197.541 61.1702 193.35 64.1326 190.161C67.001 187.068 71.0032 185.02 75.5119 184.697C76.3589 184.634 77.1881 184.634 78.0351 184.697C82.5438 185.02 86.5416 187.068 89.4144 190.161C92.2827 193.253 94.0217 197.394 94.0261 201.894C94.0261 201.894 97.8536 201.894 97.8536 201.894ZM30.434 201.894L30.434 176.971C30.434 176.558 30.7657 176.227 31.178 176.227L213.004 176.227C213.417 176.227 213.748 176.558 213.748 176.971L213.748 201.894L221.52 201.894C225.11 201.854 228.489 201.544 230.94 200.262C233.226 199.066 234.759 196.928 234.974 193.163L234.974 177.477C234.338 172.345 233.387 167.294 232.249 162.288C231.106 157.269 229.766 152.258 228.354 147.247C227.575 145.401 226.638 143.68 225.482 142.205C224.334 140.74 222.958 139.498 221.291 138.58C218.4 136.989 215.505 136.146 212.507 135.702C209.473 135.254 206.286 135.205 202.889 135.205L33.271 135.205C29.708 135.205 27.001 135.469 24.9618 136.648C22.9584 137.8 21.466 139.929 20.2335 143.693C18.7052 148.377 17.6699 154.826 17.1007 162.916C17.0335 163.87 16.9707 164.847 16.917 165.851L17.885 165.851C18.6066 165.851 19.1982 166.438 19.1982 167.16L19.1982 177.571C19.1982 178.445 18.4811 179.162 17.6027 179.162L16.5674 179.162C16.5584 183.227 16.6212 187.548 16.7556 192.115C17.2217 195.315 18.4004 197.641 20.1976 199.209C22.0038 200.787 24.4867 201.647 27.5388 201.894C27.5388 201.894 30.434 201.894 30.434 201.894ZM212.906 139.888C227.884 142.134 226.315 161.361 228.968 177.105L219.283 177.105C216.092 177.105 213.533 174.492 213.475 171.301C213.475 171.301 212.906 139.888 212.906 139.888ZM38.5371 139.915L42.8307 139.915C42.8307 139.982 42.8351 140.05 42.8486 140.121L47.1421 164.507L36.0676 164.507C30.6671 164.507 26.2391 160.083 26.2391 154.678L26.2391 152.209C26.2391 145.45 31.7741 139.915 38.5371 139.915ZM45.2284 139.915L70.3264 139.915C70.3264 139.982 70.3309 140.05 70.3399 140.121L74.6334 164.507L49.5399 164.507C49.5399 164.44 49.5309 164.372 49.522 164.301C49.522 164.301 45.2284 139.915 45.2284 139.915ZM72.7197 139.915L97.8177 139.915C97.8177 139.982 97.8222 140.05 97.8357 140.121L102.125 164.507L77.0312 164.507C77.0312 164.44 77.0267 164.372 77.0133 164.301C77.0133 164.301 72.7197 139.915 72.7197 139.915ZM100.215 139.915L125.309 139.915C125.309 139.982 125.318 140.05 125.327 140.121L129.621 164.507L104.522 164.507C104.522 164.44 104.518 164.372 104.505 164.301C104.505 164.301 100.215 139.915 100.215 139.915ZM127.707 139.915L152.805 139.915C152.805 139.982 152.809 140.05 152.823 140.121L157.112 164.507L132.018 164.507C132.018 164.44 132.014 164.372 132 164.301C132 164.301 127.707 139.915 127.707 139.915ZM155.203 139.915L180.296 139.915C180.296 139.982 180.301 140.05 180.314 140.121L184.608 164.507L159.51 164.507C159.51 164.44 159.505 164.372 159.492 164.301C159.492 164.301 155.203 139.915 155.203 139.915ZM182.694 139.915L209.482 139.915L209.482 164.507L187.005 164.507C187.005 164.44 186.996 164.372 186.987 164.301C186.987 164.301 182.694 139.915 182.694 139.915ZM155.099 196.081L155.099 196.959C155.099 197.255 154.862 197.493 154.566 197.493L150.331 197.493C149.977 197.493 149.685 197.201 149.685 196.847L149.685 196.081L155.099 196.081ZM119.236 196.081L119.236 196.959C119.236 197.255 118.999 197.493 118.703 197.493L114.468 197.493C114.114 197.493 113.822 197.201 113.822 196.847L113.822 196.081L119.236 196.081ZM76.7713 189.497C83.6239 189.497 89.1813 195.05 89.1813 201.903C89.1813 208.755 83.6239 214.308 76.7713 214.308C69.9231 214.308 64.3657 208.755 64.3657 201.903C64.3657 195.05 69.9231 189.497 76.7713 189.497ZM76.7757 199.366C78.1741 199.366 79.3079 200.5 79.3079 201.903C79.3079 203.301 78.1741 204.44 76.7757 204.44C75.3933 204.414 74.2863 203.285 74.2863 201.903C74.2863 200.52 75.3933 199.392 76.7757 199.366ZM76.7757 195.099C80.5315 195.099 83.5746 198.147 83.5746 201.903C83.5746 205.659 80.5315 208.706 76.7757 208.706C73.0155 208.706 69.9724 205.659 69.9724 201.903C69.9724 198.147 73.0155 195.099 76.7757 195.099ZM193.226 199.366C194.608 199.392 195.716 200.52 195.716 201.903C195.716 203.285 194.608 204.414 193.226 204.44C191.828 204.44 190.689 203.301 190.689 201.903C190.689 200.5 191.828 199.366 193.226 199.366ZM193.226 195.099C196.982 195.099 200.029 198.147 200.029 201.903C200.029 205.659 196.982 208.706 193.226 208.706C189.47 208.706 186.423 205.659 186.423 201.903C186.423 198.147 189.47 195.099 193.226 195.099Z" fill="#767272" fill-rule="evenodd" opacity="1" stroke="none"/>
</g>
</svg>
