<?xml version="1.0" encoding="UTF-8" standalone="no"?>
<!DOCTYPE svg PUBLIC "-//W3C//DTD SVG 1.1//EN" "http://www.w3.org/Graphics/SVG/1.1/DTD/svg11.dtd">
<!-- Created with Vectornator (http://vectornator.io/) -->
<svg height="100%" stroke-miterlimit="10" style="fill-rule:nonzero;clip-rule:evenodd;stroke-linecap:round;stroke-linejoin:round;" version="1.1" viewBox="0 0 520 236.104" width="100%" xml:space="preserve" xmlns="http://www.w3.org/2000/svg" xmlns:xlink="http://www.w3.org/1999/xlink">
<defs>
<clipPath id="TextBounds">
<rect height="40.3209" width="374.117" x="111.404" y="22.7621"/>
</clipPath>
<clipPath id="TextBounds_2">
<rect height="40.3209" width="369.775" x="111.404" y="66"/>
</clipPath>
</defs>
<g id="Zona">
<g opacity="1">
<path d="M24.2529 103.066C22.5556 105.442 19.8781 106.928 16.7872 107.06C11.3195 107.293 6.67162 103.092 6.43863 97.6246C6.26401 93.5267 8.63109 89.8953 12.165 88.2316C14.6357 88.7754 16.1187 89.7209 15.2433 91.197C14.0984 93.0482 12.4989 94.4144 16.091 94.1167C19.6824 93.8933 18.1477 95.0378 20.545 95.5104C23.0166 95.9837 20.9716 97.0796 20.4378 98.0407C19.8999 98.998 20.017 100.002 21.5976 99.9344C23.0377 99.8731 24.4595 99.3824 24.2529 103.066" fill="#db2127" fill-rule="evenodd" opacity="1" stroke="none"/>
<path d="M18.467 89.0422C20.2205 89.5461 24.5305 87.5601 22.7095 90.5192C21.8349 91.9249 20.278 92.6402 18.0251 92.1615C14.8263 91.5041 16.7175 88.542 18.467 89.0422" fill="#db2127" fill-rule="evenodd" opacity="1" stroke="none"/>
<path d="M25.3714 92.0635C26.7342 91.9311 29.0614 92.4106 28.1829 93.8165C27.2342 95.2253 28.1337 96.055 27.1613 96.8158C26.114 97.6541 23.4097 98.4184 22.9977 97.2826C22.5193 96.1496 22.2525 94.9333 23.1331 93.672C24.0177 92.4105 24.0084 92.192 25.3714 92.0635" fill="#db2127" fill-rule="evenodd" opacity="1" stroke="none"/>
<path d="M8.51152 87.0893C8.51152 87.0893 9.29446 86.837 9.74221 87.2519C10.1236 87.6696 10.2886 88.2373 9.66308 88.698C8.95638 89.0878 8.30944 89.045 7.98688 88.265C7.73756 87.5523 8.51152 87.0893 8.51152 87.0893" fill="#db2127" fill-rule="evenodd" opacity="1" stroke="none"/>
<path d="M10.8353 85.8369C10.8353 85.8369 11.7109 86.0146 12.1402 85.9963C12.5734 85.9778 12.3152 86.7082 11.8332 87.2331C11.3482 87.6878 11.0502 87.4855 10.6697 86.9973C10.2119 86.4382 10.8353 85.8369 10.8353 85.8369" fill="#db2127" fill-rule="evenodd" opacity="1" stroke="none"/>
<path d="M25.663 85.4201C26.5203 85.1685 27.1773 85.3555 27.6983 85.8377C28.2943 86.2463 28.386 86.7467 27.4748 87.2899C26.6337 87.8301 25.7703 87.9373 25.1722 87.3881C24.4997 86.8381 24.8097 85.6715 25.663 85.4201" fill="#db2127" fill-rule="evenodd" opacity="1" stroke="none"/>
<path d="M35.2051 86.0222C36.4237 85.8999 36.371 86.4065 36.8867 86.6738C37.4055 87.0114 38.3087 87.837 37.5226 88.0152C36.7395 88.2636 36.4936 89.2828 35.6219 89.1049C34.7503 88.927 33.7981 88.604 33.6202 87.8218C33.4459 87.0355 33.9828 86.1486 35.2051 86.0222" fill="#db2127" fill-rule="evenodd" opacity="1" stroke="none"/>
<path d="M38.6394 88.902C39.217 88.8774 40.5465 89.6144 39.3984 89.7377C38.3203 89.854 37.7528 90.0228 37.7313 89.5194C37.7801 89.0129 38.6394 88.902 38.6394 88.902" fill="#db2127" fill-rule="evenodd" opacity="1" stroke="none"/>
<path d="M26.5559 101.236C27.2496 100.632 28.2166 99.6524 29.6751 100.024C31.1296 100.392 31.9526 101.081 32.9778 101.467C34.0032 101.857 34.0276 102.431 33.2692 103.257C32.5146 104.083 32.4742 104.878 31.2618 105.145C29.9722 105.345 30.0001 107.65 28.9747 107.26C27.9494 106.87 25.2998 105.614 26.3564 104.994C27.4059 104.3 27.5777 103.284 26.4821 102.897C25.3827 102.514 25.9327 101.841 26.5559 101.236" fill="#db2127" fill-rule="evenodd" opacity="1" stroke="none"/>
<path d="M37.2364 96.5312C38.526 96.3316 38.8178 96.3895 38.989 97.1055C39.0968 97.8907 38.7562 98.3392 38.1053 98.2966C37.4575 98.3242 37.2732 97.3937 36.6995 97.4181C36.0546 97.516 36.021 96.7276 37.2364 96.5312" fill="#db2127" fill-rule="evenodd" opacity="1" stroke="none"/>
<path d="M45.6204 98.7661C46.4615 98.2259 46.8631 97.5598 47.5356 98.1098C48.2079 98.6558 48.5916 99.2181 48.3343 99.8781C48.1432 100.531 48.371 100.741 46.8637 100.875C45.3565 101.014 45.1845 100.372 44.8101 100.028C44.3615 99.6838 44.7764 99.2361 45.6204 98.7661" fill="#db2127" fill-rule="evenodd" opacity="1" stroke="none"/>
<path d="M53.7435 96.6215C54.7504 96.5786 55.2142 97.2782 56.2975 97.3767C57.4518 97.3979 57.8078 97.3123 58.4222 98.1502C59.0297 98.918 59.2047 99.63 58.1389 100.035C57.0741 100.37 56.5118 100.753 55.2841 100.661C54.1298 100.64 53.4024 100.452 52.306 100.139C51.2868 99.8931 51.0539 99.4729 51.4472 98.5178C51.7665 97.5698 52.7396 96.7346 53.7435 96.6215" fill="#db2127" fill-rule="evenodd" opacity="1" stroke="none"/>
<path d="M54.8241 105.005C55.8485 105.466 57.9396 105.451 59.1206 106.19C60.3828 107.001 61.3256 107.105 62.4984 107.559C63.6681 107.944 64.4077 108.416 63.8515 108.944C63.3023 109.543 62.4856 109.003 61.1867 108.984C59.9622 108.966 58.0156 108.978 56.5053 109.042C54.9277 109.18 54.6236 108.833 53.5861 108.158C52.5516 107.553 51.8456 107.869 51.6583 106.868C51.5413 105.864 51.8973 105.779 52.8857 105.303C53.8009 104.759 53.7918 104.545 54.8241 105.005" fill="#db2127" fill-rule="evenodd" opacity="1" stroke="none"/>
<path d="M40.8983 104.66C41.6906 104.626 42.0619 104.9 42.3042 105.538C42.5464 106.177 43.059 106.37 42.3624 106.904C41.8101 107.432 41.1776 107.819 40.4838 106.769C39.7931 105.79 40.039 104.771 40.8983 104.66" fill="#db2127" fill-rule="evenodd" opacity="1" stroke="none"/>
<path d="M10.4523 83.5464C10.1788 83.9178 9.6135 84.2312 9.16574 83.8163C8.64699 83.4787 8.58905 83.7705 8.47498 82.837C8.29383 81.9806 8.10968 81.054 8.36472 80.2495C8.61977 79.4449 9.20941 78.0514 9.75876 79.1071C10.3815 80.2339 11.1831 80.4187 11.2228 81.3515C11.333 82.2851 10.6485 83.1041 10.4523 83.5464" fill="#db2127" fill-rule="evenodd" opacity="1" stroke="none"/>
<path d="M16.2021 79.8412C16.2021 79.8412 16.672 79.0314 17.4672 79.0679C18.2624 79.1044 18.6431 79.5965 19.1557 79.7897C19.6653 79.9126 20.0244 79.8973 19.9259 80.9806C19.8275 82.0678 19.9934 82.5651 20.0331 83.4978C20.073 84.4345 19.8951 85.3061 19.2596 85.6225C18.6239 85.9351 18.2404 85.3767 17.4726 85.9841C16.7791 86.5923 15.6949 86.5642 15.7232 85.4839C15.7475 84.4038 15.5632 83.4733 15.382 82.6169C15.275 81.7574 14.2832 80.5016 15.2075 80.1729C16.2021 79.8412 16.2021 79.8412 16.2021 79.8412" fill="#db2127" fill-rule="evenodd" opacity="1" stroke="none"/>
<path d="M25.443 73.4655C26.0541 72.5754 26.8127 71.7533 26.2846 71.1971C25.6856 70.7183 25.1089 70.6725 24.7681 71.1171C24.3534 71.5687 23.73 72.17 23.7576 72.8179C23.715 73.4687 23.6714 74.19 24.5186 73.7942C25.443 73.4655 25.443 73.4655 25.443 73.4655" fill="#db2127" fill-rule="evenodd" opacity="1" stroke="none"/>
<path d="M15.3465 68.203C15.3465 68.203 16.581 66.7116 16.6702 65.4098C16.8296 64.1049 16.7379 63.6045 17.3512 62.8589C17.8983 62.1162 18.4749 62.162 19.0525 62.1374C19.7004 62.1098 20.0067 62.6011 20.6576 62.6438C21.3086 62.6903 21.7074 63.6078 21.8153 64.3968C21.9162 65.1119 22.0943 65.898 21.766 66.6353C21.4406 67.439 21.2588 68.3108 21.3048 69.3919C21.3539 70.5432 21.3753 71.0466 20.7866 72.3697C20.197 73.7633 19.1716 73.373 18.4496 73.4038C17.7315 73.4344 17.8202 73.8646 16.9087 72.75C16.0003 71.7096 15.6351 71.5805 15.0979 70.8097C14.6341 70.1101 15.3465 68.203 15.3465 68.203" fill="#db2127" fill-rule="evenodd" opacity="1" stroke="none"/>
<path d="M24.9799 65.994C25.9499 65.0847 26.0088 64.7225 26.6383 64.2656C27.2668 63.8752 27.7896 64.2166 28.0928 64.6337C28.471 64.9773 28.4863 65.3363 27.958 66.5162C27.4293 67.6882 27.5983 68.2596 26.6961 69.0175C25.7168 69.7082 24.9734 69.2355 24.4453 68.6794C23.8472 68.1301 24.0839 66.8963 24.9799 65.994" fill="#db2127" fill-rule="evenodd" opacity="1" stroke="none"/>
<path d="M27.2203 81.3188C29.0498 80.3025 28.8198 79.9526 29.0498 80.3025C29.2829 80.7265 28.3404 82.2798 29.5993 81.3621C30.8551 80.3702 31.6291 79.9072 31.7269 80.552C31.8988 81.1898 31.9049 81.3342 31.1494 82.2305C30.4712 83.1977 30.0656 83.864 29.2864 84.1123C28.4262 84.2936 27.3552 84.4839 27.3307 83.9102C27.3031 83.2623 27.3702 83.1852 25.9586 83.824C24.54 84.3888 25.4579 82.258 27.2203 81.3188" fill="#db2127" fill-rule="evenodd" opacity="1" stroke="none"/>
<path d="M36.9378 67.5019C39.3042 65.5987 39.1352 65.0272 38.6814 64.4718C38.2236 63.9127 38.0701 63.7042 37.0846 64.2506C36.1664 64.7237 36.4033 65.1437 35.3261 65.1895C34.3192 65.2325 33.3454 66.1419 34.5181 66.5963C35.765 67.0475 34.6407 69.4726 36.9378 67.5019" fill="#db2127" fill-rule="evenodd" opacity="1" stroke="none"/>
<path d="M49.0968 72.1721C51.3963 71.9998 50.896 72.0955 51.0799 71.3643C51.2678 70.6369 50.4199 71.107 50.1715 70.3239C49.9201 69.4706 49.6005 68.7609 48.4923 69.8207C47.3166 70.9499 46.724 72.2732 49.0968 72.1721" fill="#db2127" fill-rule="evenodd" opacity="1" stroke="none"/>
<path d="M55.9892 76.5624C57.6063 75.6998 57.9569 75.3955 58.9823 75.7858C60.0075 76.1722 60.5844 76.2219 60.7687 77.1524C60.9498 78.0087 61.3212 78.2822 60.406 78.8256C59.4947 79.3688 59.7856 79.4971 58.0729 79.8594C56.4273 80.1446 55.629 80.0379 54.9048 79.9241C54.1032 79.7393 53.8215 79.8256 54.282 78.7972C54.8158 77.8361 54.3651 77.351 55.9892 76.5624" fill="#db2127" fill-rule="evenodd" opacity="1" stroke="none"/>
<path d="M33.8501 47.5254C36.8406 43.2927 36.0026 43.9032 36.1225 43.3233C36.3125 42.7366 36.3561 42.0153 35.346 41.9841C34.3361 41.9567 33.433 41.1311 32.5308 41.889C31.6248 42.647 31.8091 43.5775 30.4952 44.8573C29.1845 46.2112 28.4748 46.5307 28.3671 47.3994C28.2666 48.342 28.705 48.5384 29.534 49.3671C30.3662 50.27 30.7864 51.6909 33.8501 47.5254" fill="#db2127" fill-rule="evenodd" opacity="1" stroke="none"/>
<path d="M46.2347 45.5589C47.386 45.5098 47.4777 46.0103 48.6541 44.8068C49.8295 43.6737 50.1733 43.2993 50.8456 43.8454C51.4448 44.3282 51.4937 45.4756 50.956 46.4368C50.3511 47.4713 50.7071 47.3858 49.8937 48.5738C49.0098 49.761 48.7365 50.1362 47.0229 50.5689C45.3805 50.9283 44.7883 50.5195 43.9043 50.0528C43.0204 49.5861 41.0401 48.8064 42.3385 47.1637C43.7113 45.5218 45.0834 45.608 46.2347 45.5589" fill="#db2127" fill-rule="evenodd" opacity="1" stroke="none"/>
<path d="M16.1619 87.338L5.62122 51.3549L9.20508 50.8824L16.6806 87.6756L15.7747 88.4375L0 68.2822L3.61722 60.1144" fill="#db2127" fill-rule="evenodd" opacity="1" stroke="none"/>
<path d="M20.344 29.8696L19.7446 85.1679L27.4357 30.7366L20.344 29.8696Z" fill="#db2127" fill-rule="evenodd" opacity="1" stroke="none"/>
<path d="M23.0231 87.6947L38.8165 35.407L42.2987 35.2095L35.5563 55.0394L49.3662 25L51.1699 33.8779L23.0231 87.6947" fill="#db2127" fill-rule="evenodd" opacity="1" stroke="none"/>
<path d="M33.4834 76.0787L64.8064 31.8143L68.1423 35.2391L33.4834 76.0787Z" fill="#db2127" fill-rule="evenodd" opacity="1" stroke="none"/>
<path d="M26.4278 91.4398L66.708 44.0375L71.4134 51.332L26.4278 91.4398Z" fill="#db2127" fill-rule="evenodd" opacity="1" stroke="none"/>
<path d="M34.5383 87.3486L82.1447 51.3714L86.1473 56.7821L34.5383 87.3486Z" fill="#db2127" fill-rule="evenodd" opacity="1" stroke="none"/>
<path d="M32.661 91.8609L86.5836 69.1764L88.8458 76.8541L32.661 91.8609Z" fill="#db2127" fill-rule="evenodd" opacity="1" stroke="none"/>
<path d="M42.5792 91.063L93.7133 80.2689L95.6482 88.9946L42.5792 91.063Z" fill="#db2127" fill-rule="evenodd" opacity="1" stroke="none"/>
<path d="M31.4559 94.4707L100.536 92.0906L101.898 98.6748L31.4559 94.4707Z" fill="#db2127" fill-rule="evenodd" opacity="1" stroke="none"/>
<path d="M23.8634 98.9738L109.717 103.596L107.918 108.253L23.8634 98.9738" fill="#db2127" fill-rule="evenodd" opacity="1" stroke="none"/>
</g>
<path d="M19.1009 113L466.159 113C469.733 113 472.63 113.444 472.63 113.992L472.63 116.008C472.63 116.556 469.733 117 466.159 117L19.1009 117C15.5271 117 12.63 116.556 12.63 116.008L12.63 113.992C12.63 113.444 15.5271 113 19.1009 113Z" fill="#db2127" fill-rule="nonzero" opacity="1" stroke="none"/>
<g fill="#db2127" opacity="1" stroke="none">
<path clip-path="url(#TextBounds)" d="M117.732 40.3801L121.302 40.3801C121.914 40.3801 122.487 40.3347 123.019 40.2441C123.552 40.1534 124.017 39.9947 124.413 39.7681C124.81 39.5414 125.122 39.2467 125.348 38.8841C125.575 38.5214 125.688 38.0681 125.688 37.5241C125.688 36.7534 125.382 36.1754 124.77 35.7901C124.158 35.4047 123.297 35.2121 122.186 35.2121C120.94 35.2121 119.852 35.3537 118.922 35.6371C117.993 35.9204 117.109 36.3001 116.27 36.7761L114.57 32.5941C115.477 32.0274 116.571 31.5684 117.851 31.2171C119.132 30.8657 120.588 30.6901 122.22 30.6901C123.49 30.6901 124.668 30.8317 125.756 31.1151C126.844 31.3984 127.785 31.8177 128.578 32.3731C129.372 32.9284 129.989 33.6311 130.431 34.4811C130.873 35.3311 131.094 36.3227 131.094 37.4561C131.094 38.3174 130.862 39.1731 130.397 40.0231C129.933 40.8731 129.224 41.5927 128.272 42.1821C128.794 42.4541 129.287 42.7714 129.751 43.1341C130.216 43.4967 130.624 43.9161 130.975 44.3921C131.327 44.8681 131.604 45.4064 131.808 46.0071C132.012 46.6077 132.114 47.2821 132.114 48.0301C132.114 50.5461 131.225 52.3764 129.445 53.5211C127.666 54.6657 125.19 55.2381 122.016 55.2381C121.223 55.2381 120.435 55.1814 119.653 55.0681C118.871 54.9547 118.123 54.8131 117.409 54.6431C116.695 54.4731 116.027 54.2747 115.403 54.0481C114.78 53.8214 114.23 53.5834 113.754 53.3341L115.318 49.1861C115.636 49.3221 116.027 49.4751 116.491 49.6451C116.956 49.8151 117.472 49.9794 118.038 50.1381C118.605 50.2967 119.194 50.4327 119.806 50.5461C120.418 50.6594 121.03 50.7161 121.642 50.7161C123.138 50.7161 124.345 50.5007 125.263 50.0701C126.181 49.6394 126.64 48.8914 126.64 47.8261C126.64 47.1687 126.493 46.6361 126.198 46.2281C125.904 45.8201 125.501 45.5084 124.991 45.2931C124.481 45.0777 123.881 44.9304 123.189 44.8511C122.498 44.7717 121.744 44.7321 120.928 44.7321L117.732 44.7321L117.732 40.3801Z"/>
<path clip-path="url(#TextBounds)" d="M140.818 42.9641C140.818 44.1201 140.96 45.1627 141.243 46.0921C141.527 47.0214 141.935 47.8204 142.467 48.4891C143 49.1577 143.652 49.6734 144.422 50.0361C145.193 50.3987 146.077 50.5801 147.074 50.5801C148.049 50.5801 148.927 50.3987 149.709 50.0361C150.491 49.6734 151.149 49.1577 151.681 48.4891C152.214 47.8204 152.622 47.0214 152.905 46.0921C153.189 45.1627 153.33 44.1201 153.33 42.9641C153.33 41.8081 153.189 40.7597 152.905 39.8191C152.622 38.8784 152.214 38.0737 151.681 37.4051C151.149 36.7364 150.491 36.2207 149.709 35.8581C148.927 35.4954 148.049 35.3141 147.074 35.3141C146.077 35.3141 145.193 35.5011 144.422 35.8751C143.652 36.2491 143 36.7704 142.467 37.4391C141.935 38.1077 141.527 38.9124 141.243 39.8531C140.96 40.7937 140.818 41.8307 140.818 42.9641ZM158.804 42.9641C158.804 44.9814 158.504 46.7551 157.903 48.2851C157.303 49.8151 156.481 51.0957 155.438 52.1271C154.396 53.1584 153.155 53.9347 151.715 54.4561C150.276 54.9774 148.729 55.2381 147.074 55.2381C145.465 55.2381 143.946 54.9774 142.518 54.4561C141.09 53.9347 139.844 53.1584 138.778 52.1271C137.713 51.0957 136.874 49.8151 136.262 48.2851C135.65 46.7551 135.344 44.9814 135.344 42.9641C135.344 40.9467 135.662 39.1731 136.296 37.6431C136.931 36.1131 137.787 34.8267 138.863 33.7841C139.94 32.7414 141.187 31.9594 142.603 31.4381C144.02 30.9167 145.51 30.6561 147.074 30.6561C148.684 30.6561 150.202 30.9167 151.63 31.4381C153.058 31.9594 154.305 32.7414 155.37 33.7841C156.436 34.8267 157.274 36.1131 157.886 37.6431C158.498 39.1731 158.804 40.9467 158.804 42.9641Z"/>
<path clip-path="url(#TextBounds)" d="M177.436 31.2001L182.74 31.2001L182.74 54.7621L177.436 54.7621L177.436 44.7661L168.528 44.7661L168.528 54.7621L163.224 54.7621L163.224 31.2001L168.528 31.2001L168.528 40.2101L177.436 40.2101L177.436 31.2001Z"/>
<path clip-path="url(#TextBounds)" d="M203.956 54.7621C203.707 53.9461 203.429 53.1074 203.123 52.2461C202.817 51.3847 202.517 50.5234 202.222 49.6621L193.042 49.6621C192.748 50.5234 192.447 51.3847 192.141 52.2461C191.835 53.1074 191.558 53.9461 191.308 54.7621L185.8 54.7621C186.684 52.2234 187.523 49.8774 188.316 47.7241C189.11 45.5707 189.886 43.5421 190.645 41.6381C191.405 39.7341 192.153 37.9264 192.889 36.2151C193.626 34.5037 194.391 32.8321 195.184 31.2001L200.25 31.2001C201.021 32.8321 201.78 34.5037 202.528 36.2151C203.276 37.9264 204.03 39.7341 204.789 41.6381C205.549 43.5421 206.325 45.5707 207.118 47.7241C207.912 49.8774 208.75 52.2234 209.634 54.7621L203.956 54.7621ZM197.598 36.5381C197.485 36.8781 197.315 37.3427 197.088 37.9321C196.862 38.5214 196.601 39.2014 196.306 39.9721C196.012 40.7427 195.689 41.5927 195.337 42.5221C194.986 43.4514 194.629 44.4261 194.266 45.4461L200.964 45.4461C200.602 44.4261 200.25 43.4514 199.91 42.5221C199.57 41.5927 199.247 40.7427 198.941 39.9721C198.635 39.2014 198.369 38.5214 198.142 37.9321C197.916 37.3427 197.734 36.8781 197.598 36.5381Z"/>
<path clip-path="url(#TextBounds)" d="M233.4 47.8601C232.743 49.3561 232.052 50.5857 231.326 51.5491C230.601 52.5124 229.853 53.2661 229.082 53.8101C228.312 54.3541 227.53 54.7281 226.736 54.9321C225.943 55.1361 225.138 55.2381 224.322 55.2381C223.552 55.2381 222.753 55.1644 221.925 55.0171C221.098 54.8697 220.322 54.6601 219.596 54.3881L220.548 50.1381C221.659 50.5461 222.758 50.7501 223.846 50.7501C224.549 50.7501 225.223 50.5914 225.869 50.2741C226.515 49.9567 227.133 49.2767 227.722 48.2341C226.793 46.7834 225.903 45.2931 225.053 43.7631C224.203 42.2331 223.399 40.7257 222.639 39.2411C221.88 37.7564 221.177 36.3284 220.531 34.9571C219.885 33.5857 219.313 32.3334 218.814 31.2001L224.696 31.2001C225.059 32.0841 225.461 33.0304 225.903 34.0391C226.345 35.0477 226.816 36.0904 227.314 37.1671C227.813 38.2437 228.317 39.3204 228.827 40.3971C229.337 41.4737 229.83 42.5221 230.306 43.5421C231.032 41.5474 231.723 39.5074 232.38 37.4221C233.038 35.3367 233.672 33.2627 234.284 31.2001L239.962 31.2001C239.373 32.9454 238.795 34.5774 238.228 36.0961C237.662 37.6147 237.106 39.0541 236.562 40.4141C236.018 41.7741 235.48 43.0661 234.947 44.2901C234.415 45.5141 233.899 46.7041 233.4 47.8601Z"/>
<path clip-path="url(#TextBounds)" d="M250.094 30.9281C253.608 30.9281 256.305 31.5457 258.186 32.7811C260.068 34.0164 261.008 36.0394 261.008 38.8501C261.008 41.6834 260.056 43.7291 258.152 44.9871C256.248 46.2451 253.528 46.8741 249.992 46.8741L248.326 46.8741L248.326 54.7621L243.022 54.7621L243.022 31.5401C244.178 31.3134 245.402 31.1547 246.694 31.0641C247.986 30.9734 249.12 30.9281 250.094 30.9281ZM250.434 35.4501C250.049 35.4501 249.669 35.4614 249.295 35.4841C248.921 35.5067 248.598 35.5294 248.326 35.5521L248.326 42.3521L249.992 42.3521C251.828 42.3521 253.211 42.1027 254.14 41.6041C255.07 41.1054 255.534 40.1761 255.534 38.8161C255.534 38.1587 255.415 37.6147 255.177 37.1841C254.939 36.7534 254.599 36.4077 254.157 36.1471C253.715 35.8864 253.177 35.7051 252.542 35.6031C251.908 35.5011 251.205 35.4501 250.434 35.4501Z"/>
<path clip-path="url(#TextBounds)" d="M278.382 54.7621C278.133 53.9461 277.855 53.1074 277.549 52.2461C277.243 51.3847 276.943 50.5234 276.648 49.6621L267.468 49.6621C267.174 50.5234 266.873 51.3847 266.567 52.2461C266.261 53.1074 265.984 53.9461 265.734 54.7621L260.226 54.7621C261.11 52.2234 261.949 49.8774 262.742 47.7241C263.536 45.5707 264.312 43.5421 265.071 41.6381C265.831 39.7341 266.579 37.9264 267.315 36.2151C268.052 34.5037 268.817 32.8321 269.61 31.2001L274.676 31.2001C275.447 32.8321 276.206 34.5037 276.954 36.2151C277.702 37.9264 278.456 39.7341 279.215 41.6381C279.975 43.5421 280.751 45.5707 281.544 47.7241C282.338 49.8774 283.176 52.2234 284.06 54.7621L278.382 54.7621ZM272.024 36.5381C271.911 36.8781 271.741 37.3427 271.514 37.9321C271.288 38.5214 271.027 39.2014 270.732 39.9721C270.438 40.7427 270.115 41.5927 269.763 42.5221C269.412 43.4514 269.055 44.4261 268.692 45.4461L275.39 45.4461C275.028 44.4261 274.676 43.4514 274.336 42.5221C273.996 41.5927 273.673 40.7427 273.367 39.9721C273.061 39.2014 272.795 38.5214 272.568 37.9321C272.342 37.3427 272.16 36.8781 272.024 36.5381Z"/>
<path clip-path="url(#TextBounds)" d="M285.556 54.7621C286.214 53.6061 286.916 52.4501 287.664 51.2941C288.412 50.1381 289.177 49.0217 289.959 47.9451C290.741 46.8684 291.546 45.8597 292.373 44.9191C293.201 43.9784 294.034 43.1341 294.872 42.3861C293.92 41.4114 293.036 40.4594 292.22 39.5301C291.404 38.6007 290.628 37.6827 289.891 36.7761C289.155 35.8694 288.435 34.9571 287.732 34.0391C287.03 33.1211 286.316 32.1747 285.59 31.2001L291.982 31.2001C292.662 32.1521 293.303 33.0247 293.903 33.8181C294.504 34.6114 295.093 35.3821 295.671 36.1301C296.249 36.8781 296.833 37.6147 297.422 38.3401C298.012 39.0654 298.646 39.8361 299.326 40.6521L299.326 31.2001L304.494 31.2001L304.494 40.6521C305.174 39.8134 305.826 39.0144 306.449 38.2551C307.073 37.4957 307.679 36.7421 308.268 35.9941C308.858 35.2461 309.447 34.4811 310.036 33.6991C310.626 32.9171 311.226 32.0841 311.838 31.2001L318.196 31.2001C317.38 32.2654 316.615 33.2627 315.901 34.1921C315.187 35.1214 314.468 36.0281 313.742 36.9121C313.017 37.7961 312.275 38.6801 311.515 39.5641C310.756 40.4481 309.923 41.3774 309.016 42.3521C310.852 44.0521 312.53 45.9617 314.048 48.0811C315.567 50.2004 316.984 52.4274 318.298 54.7621L312.382 54.7621C311.68 53.6967 311.022 52.7107 310.41 51.8041C309.798 50.8974 309.186 50.0247 308.574 49.1861C307.962 48.3474 307.328 47.5257 306.67 46.7211C306.013 45.9164 305.288 45.0834 304.494 44.2221L304.494 54.7621L299.326 54.7621L299.326 44.2221C298.51 45.1741 297.774 46.0581 297.116 46.8741C296.459 47.6901 295.83 48.5061 295.229 49.3221C294.629 50.1381 294.022 50.9824 293.41 51.8551C292.798 52.7277 292.141 53.6967 291.438 54.7621L285.556 54.7621Z"/>
<path clip-path="url(#TextBounds)" d="M321.358 54.7621L321.358 31.2001L337.27 31.2001L337.27 35.6541L326.662 35.6541L326.662 40.2781L336.08 40.2781L336.08 44.6301L326.662 44.6301L326.662 50.3081L338.052 50.3081L338.052 54.7621L321.358 54.7621Z"/>
<path clip-path="url(#TextBounds)" d="M356.174 31.2001L361.478 31.2001L361.478 54.7621L356.174 54.7621L356.174 44.7661L347.266 44.7661L347.266 54.7621L341.962 54.7621L341.962 31.2001L347.266 31.2001L347.266 40.2101L356.174 40.2101L356.174 31.2001Z"/>
<path clip-path="url(#TextBounds)" d="M381.13 31.2001L386.434 31.2001L386.434 54.7621L381.13 54.7621L381.13 44.7661L372.222 44.7661L372.222 54.7621L366.918 54.7621L366.918 31.2001L372.222 31.2001L372.222 40.2101L381.13 40.2101L381.13 31.2001Z"/>
<path clip-path="url(#TextBounds)" d="M402.482 35.5181C401.802 35.5181 401.151 35.5691 400.527 35.6711C399.904 35.7731 399.354 35.9431 398.878 36.1811C398.402 36.4191 398.017 36.7477 397.722 37.1671C397.428 37.5864 397.28 38.1134 397.28 38.7481C397.28 39.9494 397.705 40.7767 398.555 41.2301C399.405 41.6834 400.669 41.9101 402.346 41.9101L404.556 41.9101L404.556 35.5521C404.284 35.5294 403.99 35.5181 403.672 35.5181C403.355 35.5181 402.958 35.5181 402.482 35.5181ZM402.72 30.9621C403.672 30.9621 404.789 31.0187 406.069 31.1321C407.35 31.2454 408.614 31.4381 409.86 31.7101L409.86 54.7621L404.556 54.7621L404.556 46.2961L402.924 46.2961C402.63 46.2961 402.346 46.2961 402.074 46.2961C401.802 46.2961 401.474 46.2734 401.088 46.2281C400.34 47.2481 399.519 48.5231 398.623 50.0531C397.728 51.5831 396.895 53.1527 396.124 54.7621L390.514 54.7621C390.922 53.8327 391.359 52.9147 391.823 52.0081C392.288 51.1014 392.758 50.2401 393.234 49.4241C393.71 48.6081 394.175 47.8544 394.628 47.1631C395.082 46.4717 395.501 45.8654 395.886 45.3441C395.388 45.1174 394.895 44.8171 394.407 44.4431C393.92 44.0691 393.484 43.6214 393.098 43.1001C392.713 42.5787 392.401 41.9611 392.163 41.2471C391.925 40.5331 391.806 39.7114 391.806 38.7821C391.806 37.4901 392.061 36.3567 392.571 35.3821C393.081 34.4074 393.807 33.5914 394.747 32.9341C395.688 32.2767 396.833 31.7837 398.181 31.4551C399.53 31.1264 401.043 30.9621 402.72 30.9621Z"/>
<path clip-path="url(#TextBounds)" d="M420.162 37.2861C420.162 39.1221 420.094 40.8334 419.958 42.4201C419.822 44.0067 419.641 45.6161 419.414 47.2481L415.538 47.2481C415.312 45.6161 415.125 44.0067 414.977 42.4201C414.83 40.8334 414.756 39.1221 414.756 37.2861L414.756 31.2001L420.162 31.2001L420.162 37.2861ZM420.604 52.0761C420.604 53.0734 420.281 53.8441 419.635 54.3881C418.989 54.9321 418.258 55.2041 417.442 55.2041C416.626 55.2041 415.895 54.9321 415.249 54.3881C414.603 53.8441 414.28 53.0734 414.28 52.0761C414.28 51.0787 414.603 50.3081 415.249 49.7641C415.895 49.2201 416.626 48.9481 417.442 48.9481C418.258 48.9481 418.989 49.2201 419.635 49.7641C420.281 50.3081 420.604 51.0787 420.604 52.0761Z"/>
</g>
<g fill="#ff0000" opacity="1" stroke="none">
<path clip-path="url(#TextBounds_2)" d="M126.792 77.692C126.792 78.4013 126.652 79.0827 126.372 79.736C126.092 80.3893 125.728 81.0193 125.28 81.626C124.832 82.2327 124.328 82.816 123.768 83.376C123.208 83.936 122.658 84.468 122.116 84.972C121.836 85.2333 121.533 85.5273 121.206 85.854C120.88 86.1807 120.567 86.512 120.268 86.848C119.97 87.184 119.704 87.4967 119.47 87.786C119.237 88.0753 119.092 88.3133 119.036 88.5L127.38 88.5L127.38 92L114.444 92C114.407 91.7947 114.388 91.5333 114.388 91.216C114.388 90.8987 114.388 90.6747 114.388 90.544C114.388 89.648 114.533 88.8267 114.822 88.08C115.112 87.3333 115.49 86.638 115.956 85.994C116.423 85.35 116.95 84.748 117.538 84.188C118.126 83.628 118.71 83.068 119.288 82.508C119.736 82.0787 120.156 81.6727 120.548 81.29C120.94 80.9073 121.286 80.534 121.584 80.17C121.883 79.806 122.116 79.442 122.284 79.078C122.452 78.714 122.536 78.3453 122.536 77.972C122.536 77.1507 122.303 76.572 121.836 76.236C121.37 75.9 120.791 75.732 120.1 75.732C119.596 75.732 119.125 75.8113 118.686 75.97C118.248 76.1287 117.846 76.3153 117.482 76.53C117.118 76.7447 116.806 76.9593 116.544 77.174C116.283 77.3887 116.087 77.5613 115.956 77.692L113.884 74.78C114.706 74.0147 115.662 73.3847 116.754 72.89C117.846 72.3953 119.018 72.148 120.268 72.148C121.407 72.148 122.387 72.2787 123.208 72.54C124.03 72.8013 124.706 73.17 125.238 73.646C125.77 74.122 126.162 74.7007 126.414 75.382C126.666 76.0633 126.792 76.8333 126.792 77.692Z"/>
<path clip-path="url(#TextBounds_2)" d="M143.76 82.256C143.76 85.5227 143.14 88.0287 141.898 89.774C140.657 91.5193 138.944 92.392 136.76 92.392C134.576 92.392 132.864 91.5193 131.622 89.774C130.381 88.0287 129.76 85.5227 129.76 82.256C129.76 80.632 129.924 79.1947 130.25 77.944C130.577 76.6933 131.048 75.6387 131.664 74.78C132.28 73.9213 133.018 73.268 133.876 72.82C134.735 72.372 135.696 72.148 136.76 72.148C138.944 72.148 140.657 73.0207 141.898 74.766C143.14 76.5113 143.76 79.008 143.76 82.256ZM139.504 82.256C139.504 81.2853 139.458 80.4033 139.364 79.61C139.271 78.8167 139.122 78.1307 138.916 77.552C138.711 76.9733 138.431 76.5253 138.076 76.208C137.722 75.8907 137.283 75.732 136.76 75.732C136.238 75.732 135.804 75.8907 135.458 76.208C135.113 76.5253 134.833 76.9733 134.618 77.552C134.404 78.1307 134.25 78.8167 134.156 79.61C134.063 80.4033 134.016 81.2853 134.016 82.256C134.016 83.2267 134.063 84.1133 134.156 84.916C134.25 85.7187 134.404 86.4093 134.618 86.988C134.833 87.5667 135.113 88.0147 135.458 88.332C135.804 88.6493 136.238 88.808 136.76 88.808C137.283 88.808 137.722 88.6493 138.076 88.332C138.431 88.0147 138.711 87.5667 138.916 86.988C139.122 86.4093 139.271 85.7187 139.364 84.916C139.458 84.1133 139.504 83.2267 139.504 82.256Z"/>
<path clip-path="url(#TextBounds_2)" d="M159.664 82.256C159.664 85.5227 159.044 88.0287 157.802 89.774C156.561 91.5193 154.848 92.392 152.664 92.392C150.48 92.392 148.768 91.5193 147.526 89.774C146.285 88.0287 145.664 85.5227 145.664 82.256C145.664 80.632 145.828 79.1947 146.154 77.944C146.481 76.6933 146.952 75.6387 147.568 74.78C148.184 73.9213 148.922 73.268 149.78 72.82C150.639 72.372 151.6 72.148 152.664 72.148C154.848 72.148 156.561 73.0207 157.802 74.766C159.044 76.5113 159.664 79.008 159.664 82.256ZM155.408 82.256C155.408 81.2853 155.362 80.4033 155.268 79.61C155.175 78.8167 155.026 78.1307 154.82 77.552C154.615 76.9733 154.335 76.5253 153.98 76.208C153.626 75.8907 153.187 75.732 152.664 75.732C152.142 75.732 151.708 75.8907 151.362 76.208C151.017 76.5253 150.737 76.9733 150.522 77.552C150.308 78.1307 150.154 78.8167 150.06 79.61C149.967 80.4033 149.92 81.2853 149.92 82.256C149.92 83.2267 149.967 84.1133 150.06 84.916C150.154 85.7187 150.308 86.4093 150.522 86.988C150.737 87.5667 151.017 88.0147 151.362 88.332C151.708 88.6493 152.142 88.808 152.664 88.808C153.187 88.808 153.626 88.6493 153.98 88.332C154.335 88.0147 154.615 87.5667 154.82 86.988C155.026 86.4093 155.175 85.7187 155.268 84.916C155.362 84.1133 155.408 83.2267 155.408 82.256Z"/>
<path clip-path="url(#TextBounds_2)" d="M173.44 83.516C173.403 84.1693 173.366 84.8787 173.328 85.644C173.291 86.4093 173.258 87.1793 173.23 87.954C173.202 88.7287 173.174 89.466 173.146 90.166C173.118 90.866 173.095 91.4773 173.076 92L169.016 92C169.054 90.9733 169.114 89.816 169.198 88.528C169.282 87.24 169.376 85.9287 169.478 84.594C169.581 83.2593 169.693 81.9573 169.814 80.688C169.936 79.4187 170.052 78.28 170.164 77.272L173.636 77.272C174.439 78.5787 175.176 79.932 175.848 81.332C176.52 82.732 177.23 84.272 177.976 85.952C178.76 84.16 179.526 82.5033 180.272 80.982C181.019 79.4607 181.691 78.224 182.288 77.272L185.816 77.272C185.947 78.28 186.073 79.4187 186.194 80.688C186.316 81.9573 186.428 83.2593 186.53 84.594C186.633 85.9287 186.722 87.24 186.796 88.528C186.871 89.816 186.927 90.9733 186.964 92L182.82 92C182.783 90.544 182.732 89.0973 182.666 87.66C182.601 86.2227 182.54 84.832 182.484 83.488L179.404 90.264L176.52 90.264L173.44 83.516Z"/>
<path clip-path="url(#TextBounds_2)" d="M189.904 84.748C189.904 83.4413 190.105 82.298 190.506 81.318C190.908 80.338 191.435 79.5213 192.088 78.868C192.742 78.2147 193.493 77.72 194.342 77.384C195.192 77.048 196.064 76.88 196.96 76.88C199.051 76.88 200.703 77.5193 201.916 78.798C203.13 80.0767 203.736 81.9573 203.736 84.44C203.736 84.6827 203.727 84.9487 203.708 85.238C203.69 85.5273 203.671 85.784 203.652 86.008L194.188 86.008C194.282 86.8667 194.683 87.548 195.392 88.052C196.102 88.556 197.054 88.808 198.248 88.808C199.014 88.808 199.765 88.738 200.502 88.598C201.24 88.458 201.842 88.2853 202.308 88.08L202.868 91.468C202.644 91.58 202.346 91.692 201.972 91.804C201.599 91.916 201.184 92.014 200.726 92.098C200.269 92.182 199.779 92.252 199.256 92.308C198.734 92.364 198.211 92.392 197.688 92.392C196.363 92.392 195.21 92.196 194.23 91.804C193.25 91.412 192.438 90.8753 191.794 90.194C191.15 89.5127 190.674 88.7053 190.366 87.772C190.058 86.8387 189.904 85.8307 189.904 84.748ZM199.704 83.152C199.686 82.7973 199.625 82.452 199.522 82.116C199.42 81.78 199.261 81.4813 199.046 81.22C198.832 80.9587 198.561 80.744 198.234 80.576C197.908 80.408 197.502 80.324 197.016 80.324C196.55 80.324 196.148 80.4033 195.812 80.562C195.476 80.7207 195.196 80.9307 194.972 81.192C194.748 81.4533 194.576 81.7567 194.454 82.102C194.333 82.4473 194.244 82.7973 194.188 83.152L199.704 83.152Z"/>
<path clip-path="url(#TextBounds_2)" d="M219.136 80.688L214.432 80.688L214.432 92L210.26 92L210.26 80.688L205.556 80.688L205.556 77.272L219.136 77.272L219.136 80.688Z"/>
<path clip-path="url(#TextBounds_2)" d="M231.092 84.748C231.092 83.46 230.803 82.4287 230.224 81.654C229.646 80.8793 228.787 80.492 227.648 80.492C227.275 80.492 226.93 80.506 226.612 80.534C226.295 80.562 226.034 80.5947 225.828 80.632L225.828 88.164C226.09 88.332 226.43 88.472 226.85 88.584C227.27 88.696 227.695 88.752 228.124 88.752C230.103 88.752 231.092 87.4173 231.092 84.748ZM235.348 84.636C235.348 85.7747 235.208 86.8107 234.928 87.744C234.648 88.6773 234.238 89.48 233.696 90.152C233.155 90.824 232.483 91.3467 231.68 91.72C230.878 92.0933 229.954 92.28 228.908 92.28C228.33 92.28 227.788 92.224 227.284 92.112C226.78 92 226.295 91.8413 225.828 91.636L225.828 97.18L221.656 97.18L221.656 77.776C222.03 77.664 222.459 77.5567 222.944 77.454C223.43 77.3513 223.938 77.2627 224.47 77.188C225.002 77.1133 225.544 77.0527 226.094 77.006C226.645 76.9593 227.172 76.936 227.676 76.936C228.89 76.936 229.972 77.118 230.924 77.482C231.876 77.846 232.679 78.3593 233.332 79.022C233.986 79.6847 234.485 80.492 234.83 81.444C235.176 82.396 235.348 83.46 235.348 84.636Z"/>
<path clip-path="url(#TextBounds_2)" d="M242.74 92L238.568 92L238.568 77.272L242.74 77.272L242.74 92ZM243.132 73.016C243.132 73.7813 242.885 74.3833 242.39 74.822C241.896 75.2607 241.312 75.48 240.64 75.48C239.968 75.48 239.385 75.2607 238.89 74.822C238.396 74.3833 238.148 73.7813 238.148 73.016C238.148 72.2507 238.396 71.6487 238.89 71.21C239.385 70.7713 239.968 70.552 240.64 70.552C241.312 70.552 241.896 70.7713 242.39 71.21C242.885 71.6487 243.132 72.2507 243.132 73.016Z"/>
<path clip-path="url(#TextBounds_2)" d="M250.832 88.92C251.094 88.9573 251.444 88.99 251.882 89.018C252.321 89.046 252.727 89.06 253.1 89.06C254.034 89.06 254.762 88.9433 255.284 88.71C255.807 88.4767 256.068 88.052 256.068 87.436C256.068 86.8387 255.83 86.4233 255.354 86.19C254.878 85.9567 254.183 85.84 253.268 85.84L250.832 85.84L250.832 88.92ZM253.184 83.04C253.875 83.04 254.435 82.9513 254.864 82.774C255.294 82.5967 255.508 82.2093 255.508 81.612C255.508 81.052 255.266 80.6693 254.78 80.464C254.295 80.2587 253.66 80.156 252.876 80.156C252.615 80.156 252.274 80.17 251.854 80.198C251.434 80.226 251.094 80.2587 250.832 80.296L250.832 83.04L253.184 83.04ZM253.044 92.28C252.522 92.28 251.962 92.2613 251.364 92.224C250.767 92.1867 250.179 92.1353 249.6 92.07C249.022 92.0047 248.476 91.93 247.962 91.846C247.449 91.762 247.015 91.6827 246.66 91.608L246.66 77.496C247.015 77.4213 247.449 77.3513 247.962 77.286C248.476 77.2207 249.022 77.16 249.6 77.104C250.179 77.048 250.767 77.006 251.364 76.978C251.962 76.95 252.522 76.936 253.044 76.936C254.258 76.936 255.28 77.0573 256.11 77.3C256.941 77.5427 257.613 77.86 258.126 78.252C258.64 78.644 259.008 79.0827 259.232 79.568C259.456 80.0533 259.568 80.5387 259.568 81.024C259.568 81.6773 259.41 82.2747 259.092 82.816C258.775 83.3573 258.374 83.7493 257.888 83.992C258.15 84.104 258.416 84.2627 258.686 84.468C258.957 84.6733 259.204 84.9207 259.428 85.21C259.652 85.4993 259.834 85.8447 259.974 86.246C260.114 86.6473 260.184 87.1093 260.184 87.632C260.184 88.2293 260.068 88.808 259.834 89.368C259.601 89.928 259.204 90.4227 258.644 90.852C258.084 91.2813 257.347 91.6267 256.432 91.888C255.518 92.1493 254.388 92.28 253.044 92.28Z"/>
<path clip-path="url(#TextBounds_2)" d="M269.536 84.972L282.696 84.972L282.696 88.472L269.536 88.472L269.536 84.972ZM269.536 78.84L282.696 78.84L282.696 82.34L269.536 82.34L269.536 78.84Z"/>
<path clip-path="url(#TextBounds_2)" d="M304.676 77.692C304.676 78.4013 304.536 79.0827 304.256 79.736C303.976 80.3893 303.612 81.0193 303.164 81.626C302.716 82.2327 302.212 82.816 301.652 83.376C301.092 83.936 300.542 84.468 300 84.972C299.72 85.2333 299.417 85.5273 299.09 85.854C298.764 86.1807 298.451 86.512 298.152 86.848C297.854 87.184 297.588 87.4967 297.354 87.786C297.121 88.0753 296.976 88.3133 296.92 88.5L305.264 88.5L305.264 92L292.328 92C292.291 91.7947 292.272 91.5333 292.272 91.216C292.272 90.8987 292.272 90.6747 292.272 90.544C292.272 89.648 292.417 88.8267 292.706 88.08C292.996 87.3333 293.374 86.638 293.84 85.994C294.307 85.35 294.834 84.748 295.422 84.188C296.01 83.628 296.594 83.068 297.172 82.508C297.62 82.0787 298.04 81.6727 298.432 81.29C298.824 80.9073 299.17 80.534 299.468 80.17C299.767 79.806 300 79.442 300.168 79.078C300.336 78.714 300.42 78.3453 300.42 77.972C300.42 77.1507 300.187 76.572 299.72 76.236C299.254 75.9 298.675 75.732 297.984 75.732C297.48 75.732 297.009 75.8113 296.57 75.97C296.132 76.1287 295.73 76.3153 295.366 76.53C295.002 76.7447 294.69 76.9593 294.428 77.174C294.167 77.3887 293.971 77.5613 293.84 77.692L291.768 74.78C292.59 74.0147 293.546 73.3847 294.638 72.89C295.73 72.3953 296.902 72.148 298.152 72.148C299.291 72.148 300.271 72.2787 301.092 72.54C301.914 72.8013 302.59 73.17 303.122 73.646C303.654 74.122 304.046 74.7007 304.298 75.382C304.55 76.0633 304.676 76.8333 304.676 77.692Z"/>
<path clip-path="url(#TextBounds_2)" d="M314.672 84.636C314.672 83.572 314.845 82.5687 315.19 81.626C315.536 80.6833 316.035 79.862 316.688 79.162C317.342 78.462 318.135 77.9067 319.068 77.496C320.002 77.0853 321.066 76.88 322.26 76.88C323.044 76.88 323.763 76.95 324.416 77.09C325.07 77.23 325.704 77.4307 326.32 77.692L325.452 81.024C325.06 80.8747 324.631 80.744 324.164 80.632C323.698 80.52 323.175 80.464 322.596 80.464C321.364 80.464 320.445 80.8467 319.838 81.612C319.232 82.3773 318.928 83.3853 318.928 84.636C318.928 85.9613 319.213 86.988 319.782 87.716C320.352 88.444 321.346 88.808 322.764 88.808C323.268 88.808 323.81 88.7613 324.388 88.668C324.967 88.5747 325.499 88.4253 325.984 88.22L326.572 91.636C326.087 91.8413 325.48 92.0187 324.752 92.168C324.024 92.3173 323.222 92.392 322.344 92.392C321 92.392 319.843 92.1913 318.872 91.79C317.902 91.3887 317.104 90.8427 316.478 90.152C315.853 89.4613 315.396 88.6447 315.106 87.702C314.817 86.7593 314.672 85.7373 314.672 84.636Z"/>
<path clip-path="url(#TextBounds_2)" d="M341.552 80.688L336.848 80.688L336.848 92L332.676 92L332.676 80.688L327.972 80.688L327.972 77.272L341.552 77.272L341.552 80.688Z"/>
<path clip-path="url(#TextBounds_2)" d="M349.7 89.088C350.111 89.088 350.503 89.0787 350.876 89.06C351.25 89.0413 351.548 89.0133 351.772 88.976L351.772 85.812C351.604 85.7747 351.352 85.7373 351.016 85.7C350.68 85.6627 350.372 85.644 350.092 85.644C349.7 85.644 349.332 85.6673 348.986 85.714C348.641 85.7607 348.338 85.8493 348.076 85.98C347.815 86.1107 347.61 86.288 347.46 86.512C347.311 86.736 347.236 87.016 347.236 87.352C347.236 88.0053 347.456 88.458 347.894 88.71C348.333 88.962 348.935 89.088 349.7 89.088ZM349.364 76.88C350.596 76.88 351.623 77.02 352.444 77.3C353.266 77.58 353.924 77.9813 354.418 78.504C354.913 79.0267 355.263 79.6613 355.468 80.408C355.674 81.1547 355.776 81.9853 355.776 82.9L355.776 91.58C355.179 91.7107 354.348 91.8647 353.284 92.042C352.22 92.2193 350.932 92.308 349.42 92.308C348.468 92.308 347.605 92.224 346.83 92.056C346.056 91.888 345.388 91.6127 344.828 91.23C344.268 90.8473 343.839 90.348 343.54 89.732C343.242 89.116 343.092 88.36 343.092 87.464C343.092 86.6053 343.265 85.8773 343.61 85.28C343.956 84.6827 344.418 84.2067 344.996 83.852C345.575 83.4973 346.238 83.2407 346.984 83.082C347.731 82.9233 348.506 82.844 349.308 82.844C349.85 82.844 350.33 82.8673 350.75 82.914C351.17 82.9607 351.511 83.0213 351.772 83.096L351.772 82.704C351.772 81.9947 351.558 81.4253 351.128 80.996C350.699 80.5667 349.952 80.352 348.888 80.352C348.179 80.352 347.479 80.4033 346.788 80.506C346.098 80.6087 345.5 80.7533 344.996 80.94L344.464 77.58C344.707 77.5053 345.01 77.426 345.374 77.342C345.738 77.258 346.135 77.1833 346.564 77.118C346.994 77.0527 347.446 76.9967 347.922 76.95C348.398 76.9033 348.879 76.88 349.364 76.88Z"/>
<path clip-path="url(#TextBounds_2)" d="M358.156 88.584L359.976 88.584C360.499 87.9493 360.905 87.1607 361.194 86.218C361.484 85.2753 361.689 84.2767 361.81 83.222C361.932 82.1673 362.002 81.1173 362.02 80.072C362.039 79.0267 362.048 78.0933 362.048 77.272L373.528 77.272L373.528 88.584L376.02 88.584L376.02 96.2L372.464 96.2L372.464 92L361.712 92L361.712 96.2L358.156 96.2L358.156 88.584ZM369.356 88.584L369.356 80.688L365.94 80.688C365.903 81.3413 365.861 82.018 365.814 82.718C365.768 83.418 365.684 84.1087 365.562 84.79C365.441 85.4713 365.278 86.1387 365.072 86.792C364.867 87.4453 364.596 88.0427 364.26 88.584L369.356 88.584Z"/>
<path clip-path="url(#TextBounds_2)" d="M382.712 92L378.54 92L378.54 77.272L382.712 77.272L382.712 92ZM383.104 73.016C383.104 73.7813 382.857 74.3833 382.362 74.822C381.868 75.2607 381.284 75.48 380.612 75.48C379.94 75.48 379.357 75.2607 378.862 74.822C378.368 74.3833 378.12 73.7813 378.12 73.016C378.12 72.2507 378.368 71.6487 378.862 71.21C379.357 70.7713 379.94 70.552 380.612 70.552C381.284 70.552 381.868 70.7713 382.362 71.21C382.857 71.6487 383.104 72.2507 383.104 73.016Z"/>
<path clip-path="url(#TextBounds_2)" d="M400.408 84.608C400.408 85.7653 400.24 86.8247 399.904 87.786C399.568 88.7473 399.083 89.5687 398.448 90.25C397.814 90.9313 397.053 91.4587 396.166 91.832C395.28 92.2053 394.286 92.392 393.184 92.392C392.102 92.392 391.117 92.2053 390.23 91.832C389.344 91.4587 388.583 90.9313 387.948 90.25C387.314 89.5687 386.819 88.7473 386.464 87.786C386.11 86.8247 385.932 85.7653 385.932 84.608C385.932 83.4507 386.114 82.396 386.478 81.444C386.842 80.492 387.346 79.68 387.99 79.008C388.634 78.336 389.4 77.8133 390.286 77.44C391.173 77.0667 392.139 76.88 393.184 76.88C394.248 76.88 395.224 77.0667 396.11 77.44C396.997 77.8133 397.758 78.336 398.392 79.008C399.027 79.68 399.522 80.492 399.876 81.444C400.231 82.396 400.408 83.4507 400.408 84.608ZM396.152 84.608C396.152 83.32 395.896 82.3073 395.382 81.57C394.869 80.8327 394.136 80.464 393.184 80.464C392.232 80.464 391.495 80.8327 390.972 81.57C390.45 82.3073 390.188 83.32 390.188 84.608C390.188 85.896 390.45 86.918 390.972 87.674C391.495 88.43 392.232 88.808 393.184 88.808C394.136 88.808 394.869 88.43 395.382 87.674C395.896 86.918 396.152 85.896 396.152 84.608Z"/>
<path clip-path="url(#TextBounds_2)" d="M416.312 92L412.14 92L412.14 86.176L407.8 86.176L407.8 92L403.628 92L403.628 77.272L407.8 77.272L407.8 82.76L412.14 82.76L412.14 77.272L416.312 77.272L416.312 92Z"/>
<path clip-path="url(#TextBounds_2)" d="M433.644 77.272L433.644 92L429.444 92C429.444 91.0667 429.454 90.138 429.472 89.214C429.491 88.29 429.51 87.436 429.528 86.652C429.547 85.868 429.57 85.182 429.598 84.594C429.626 84.006 429.64 83.572 429.64 83.292C429.099 84.0573 428.558 84.832 428.016 85.616C427.475 86.4 426.957 87.17 426.462 87.926C425.968 88.682 425.501 89.4053 425.062 90.096C424.624 90.7867 424.236 91.4213 423.9 92L420.232 92L420.232 77.272L424.404 77.272C424.404 78.2053 424.4 79.0967 424.39 79.946C424.381 80.7953 424.367 81.5653 424.348 82.256C424.33 82.9467 424.311 83.5487 424.292 84.062C424.274 84.5753 424.264 84.972 424.264 85.252C425.384 83.6093 426.416 82.1347 427.358 80.828C428.301 79.5213 429.22 78.336 430.116 77.272L433.644 77.272Z"/>
</g>
<path d="M492.63 115L452.63 125L452.63 105L492.63 115Z" fill="#db2127" fill-rule="nonzero" opacity="1" stroke="none"/>
</g>
<g id="Distance">
<g opacity="1">
<path d="M250.016 141.241C240.368 131.821 227.591 126.633 214.039 126.633L160.674 126.633C147.121 126.633 134.345 131.821 124.697 141.241C115.049 150.661 109.736 163.137 109.736 176.37C109.736 189.603 115.049 202.078 124.697 211.498C134.344 220.918 147.121 226.106 160.674 226.106L214.039 226.106C227.591 226.106 240.368 220.918 250.016 211.498C259.664 202.078 264.977 189.603 264.977 176.37C264.977 163.137 259.664 150.661 250.016 141.241ZM246.586 208.149C237.854 216.674 226.295 221.369 214.039 221.369L160.674 221.369C148.417 221.369 136.859 216.674 128.127 208.149C119.396 199.623 114.587 188.337 114.587 176.37C114.587 164.402 119.395 153.116 128.127 144.591C136.859 136.065 148.417 131.37 160.674 131.37L214.039 131.37C226.295 131.37 237.854 136.065 246.586 144.591C255.317 153.116 260.126 164.402 260.126 176.37C260.126 188.337 255.317 199.623 246.586 208.149Z" fill="#767272" fill-rule="nonzero" opacity="1" stroke="none"/>
<path d="M146.12 145.58C142.108 145.58 138.843 148.768 138.843 152.686L138.843 200.054C138.843 203.972 142.108 207.159 146.12 207.159L228.592 207.159C232.605 207.159 235.869 203.972 235.869 200.054L235.869 152.686C235.869 148.768 232.605 145.58 228.592 145.58L146.12 145.58ZM184.931 187.973C179.401 186.873 175.228 182.088 175.228 176.37C175.228 170.651 179.401 165.866 184.931 164.766L184.931 187.973ZM189.782 164.766C195.311 165.866 199.485 170.651 199.485 176.37C199.485 182.088 195.311 186.873 189.782 187.973L189.782 164.766ZM143.695 164.528L153.397 164.528L153.397 188.212L143.695 188.212L143.695 164.528ZM143.695 200.054L143.695 192.948L155.823 192.948C157.162 192.948 158.249 191.888 158.249 190.58L158.249 162.159C158.249 160.851 157.162 159.791 155.823 159.791L143.695 159.791L143.695 152.686C143.695 151.38 144.783 150.317 146.12 150.317L184.931 150.317L184.931 159.963C176.714 161.116 170.377 168.033 170.377 176.37C170.377 184.707 176.714 191.624 184.931 192.776L184.931 202.422L146.12 202.422C144.783 202.422 143.695 201.36 143.695 200.054ZM231.018 188.212L221.315 188.212L221.315 164.528L231.018 164.528L231.018 188.212ZM231.018 152.686L231.018 159.791L218.89 159.791C217.55 159.791 216.464 160.851 216.464 162.159L216.464 190.58C216.464 191.888 217.55 192.948 218.89 192.948L231.018 192.948L231.018 200.054C231.018 201.36 229.93 202.422 228.592 202.422L189.782 202.422L189.782 192.776C197.999 191.623 204.336 184.707 204.336 176.37C204.336 168.033 197.999 161.116 189.782 159.963L189.782 150.317L228.592 150.317C229.93 150.317 231.018 151.38 231.018 152.686Z" fill="#767272" fill-rule="nonzero" opacity="1" stroke="none"/>
<path d="M236.863 145.739C238.502 146.907 240.06 148.21 241.494 149.612C241.967 150.076 242.589 150.308 243.21 150.308C243.83 150.308 244.45 150.077 244.924 149.616C245.872 148.691 245.873 147.192 244.927 146.266C243.316 144.69 241.565 143.225 239.723 141.913C238.64 141.142 237.123 141.373 236.334 142.43C235.544 143.486 235.781 144.968 236.863 145.739Z" fill="#767272" fill-rule="nonzero" opacity="1" stroke="none"/>
<path d="M251.073 153.808C250.362 152.7 248.865 152.364 247.73 153.058C246.594 153.752 246.25 155.213 246.961 156.322C250.813 162.33 252.849 169.262 252.849 176.37C252.849 197.265 235.439 214.264 214.039 214.264L160.674 214.264C139.274 214.264 121.864 197.265 121.864 176.37C121.864 155.474 139.274 138.475 160.674 138.475L214.039 138.475C219.274 138.475 224.355 139.48 229.142 141.462C229.292 141.524 229.441 141.587 229.591 141.651C230.817 142.177 232.248 141.632 232.786 140.434C233.325 139.236 232.766 137.839 231.54 137.314C231.372 137.242 231.205 137.171 231.036 137.102C225.647 134.87 219.929 133.738 214.039 133.738L160.674 133.738C136.599 133.738 117.012 152.863 117.012 176.37C117.012 199.877 136.599 219.001 160.674 219.001L214.039 219.001C238.114 219.001 257.7 199.877 257.7 176.37C257.7 168.372 255.408 160.571 251.073 153.808Z" fill="#767272" fill-rule="nonzero" opacity="1" stroke="none"/>
</g>
<g opacity="1">
<path d="M409.347 141.241C399.699 131.821 386.922 126.633 373.369 126.633L320.005 126.633C306.452 126.633 293.675 131.821 284.027 141.241C274.379 150.661 269.066 163.137 269.066 176.37C269.066 189.603 274.379 202.078 284.027 211.498C293.675 220.918 306.452 226.106 320.005 226.106L373.369 226.106C386.922 226.106 399.699 220.918 409.347 211.498C418.995 202.078 424.308 189.603 424.308 176.37C424.308 163.137 418.994 150.661 409.347 141.241ZM405.916 208.149C397.185 216.674 385.626 221.369 373.369 221.369L320.005 221.369C307.748 221.369 296.189 216.674 287.458 208.149C278.726 199.623 273.917 188.337 273.917 176.37C273.917 164.402 278.726 153.116 287.458 144.591C296.189 136.065 307.748 131.37 320.005 131.37L373.369 131.37C385.626 131.37 397.185 136.065 405.916 144.591C414.648 153.116 419.456 164.402 419.456 176.37C419.456 188.337 414.648 199.623 405.916 208.149Z" fill="#767272" fill-rule="nonzero" opacity="1" stroke="none"/>
<path d="M305.451 145.58C301.438 145.58 298.174 148.768 298.174 152.686L298.174 200.054C298.174 203.972 301.438 207.159 305.451 207.159L387.923 207.159C391.936 207.159 395.2 203.972 395.2 200.054L395.2 152.686C395.2 148.768 391.936 145.58 387.923 145.58L305.451 145.58ZM344.261 187.973C338.732 186.873 334.559 182.088 334.559 176.37C334.559 170.651 338.732 165.866 344.261 164.766L344.261 187.973ZM349.113 164.766C354.642 165.866 358.815 170.651 358.815 176.37C358.815 182.088 354.642 186.873 349.113 187.973L349.113 164.766ZM303.025 164.528L312.728 164.528L312.728 188.212L303.025 188.212L303.025 164.528ZM303.025 200.054L303.025 192.948L315.153 192.948C316.493 192.948 317.579 191.888 317.579 190.58L317.579 162.159C317.579 160.851 316.493 159.791 315.153 159.791L303.025 159.791L303.025 152.686C303.025 151.38 304.113 150.317 305.451 150.317L344.261 150.317L344.261 159.963C336.044 161.116 329.707 168.033 329.707 176.37C329.707 184.707 336.044 191.624 344.261 192.776L344.261 202.422L305.451 202.422C304.113 202.422 303.025 201.36 303.025 200.054ZM390.349 188.212L380.646 188.212L380.646 164.528L390.349 164.528L390.349 188.212ZM390.349 152.686L390.349 159.791L378.22 159.791C376.881 159.791 375.795 160.851 375.795 162.159L375.795 190.58C375.795 191.888 376.881 192.948 378.22 192.948L390.349 192.948L390.349 200.054C390.349 201.36 389.26 202.422 387.923 202.422L349.113 202.422L349.113 192.776C357.33 191.623 363.666 184.707 363.666 176.37C363.666 168.033 357.33 161.116 349.113 159.963L349.113 150.317L387.923 150.317C389.26 150.317 390.349 151.38 390.349 152.686Z" fill="#767272" fill-rule="nonzero" opacity="1" stroke="none"/>
<path d="M396.194 145.739C397.832 146.907 399.39 148.21 400.824 149.612C401.298 150.076 401.919 150.308 402.541 150.308C403.161 150.308 403.781 150.077 404.255 149.616C405.203 148.691 405.204 147.192 404.258 146.266C402.646 144.69 400.895 143.225 399.053 141.913C397.971 141.142 396.454 141.373 395.664 142.43C394.875 143.486 395.112 144.968 396.194 145.739Z" fill="#767272" fill-rule="nonzero" opacity="1" stroke="none"/>
<path d="M410.403 153.808C409.693 152.7 408.196 152.364 407.06 153.058C405.925 153.752 405.58 155.213 406.291 156.322C410.143 162.33 412.179 169.262 412.179 176.37C412.179 197.265 394.769 214.264 373.369 214.264L320.005 214.264C298.604 214.264 281.194 197.265 281.194 176.37C281.194 155.474 298.604 138.475 320.005 138.475L373.369 138.475C378.605 138.475 383.686 139.48 388.472 141.462C388.622 141.524 388.772 141.587 388.921 141.651C390.148 142.177 391.579 141.632 392.117 140.434C392.655 139.236 392.097 137.839 390.87 137.314C390.703 137.242 390.535 137.171 390.367 137.102C384.978 134.87 379.259 133.738 373.369 133.738L320.005 133.738C295.93 133.738 276.343 152.863 276.343 176.37C276.343 199.877 295.93 219.001 320.005 219.001L373.369 219.001C397.444 219.001 417.031 199.877 417.031 176.37C417.031 168.372 414.739 160.571 410.403 153.808Z" fill="#767272" fill-rule="nonzero" opacity="1" stroke="none"/>
</g>
</g>
</svg>
