<?xml version="1.0" encoding="UTF-8" standalone="no"?>
<!DOCTYPE svg PUBLIC "-//W3C//DTD SVG 1.1//EN" "http://www.w3.org/Graphics/SVG/1.1/DTD/svg11.dtd">
<!-- Created with Vectornator (http://vectornator.io/) -->
<svg height="100%" stroke-miterlimit="10" style="fill-rule:nonzero;clip-rule:evenodd;stroke-linecap:round;stroke-linejoin:round;" version="1.1" viewBox="0 0 520 236.104" width="100%" xml:space="preserve" xmlns="http://www.w3.org/2000/svg" xmlns:xlink="http://www.w3.org/1999/xlink">
<defs>
<clipPath id="TextBounds">
<rect height="40.3209" width="374.117" x="111.404" y="22.7621"/>
</clipPath>
<clipPath id="TextBounds_2">
<rect height="40.3209" width="369.775" x="111.404" y="66"/>
</clipPath>
</defs>
<g id="Zona">
<g opacity="1">
<path d="M24.2529 103.066C22.5556 105.442 19.8781 106.928 16.7872 107.06C11.3195 107.293 6.67162 103.092 6.43863 97.6246C6.26401 93.5267 8.63109 89.8953 12.165 88.2316C14.6357 88.7754 16.1187 89.7209 15.2433 91.197C14.0984 93.0482 12.4989 94.4144 16.091 94.1167C19.6824 93.8933 18.1477 95.0378 20.545 95.5104C23.0166 95.9837 20.9716 97.0796 20.4378 98.0407C19.8999 98.998 20.017 100.002 21.5976 99.9344C23.0377 99.8731 24.4595 99.3824 24.2529 103.066" fill="#db2127" fill-rule="evenodd" opacity="1" stroke="none"/>
<path d="M18.467 89.0422C20.2205 89.5461 24.5305 87.5601 22.7095 90.5192C21.8349 91.9249 20.278 92.6402 18.0251 92.1615C14.8263 91.5041 16.7175 88.542 18.467 89.0422" fill="#db2127" fill-rule="evenodd" opacity="1" stroke="none"/>
<path d="M25.3714 92.0635C26.7342 91.9311 29.0614 92.4106 28.1829 93.8165C27.2342 95.2253 28.1337 96.055 27.1613 96.8158C26.114 97.6541 23.4097 98.4184 22.9977 97.2826C22.5193 96.1496 22.2525 94.9333 23.1331 93.672C24.0177 92.4105 24.0084 92.192 25.3714 92.0635" fill="#db2127" fill-rule="evenodd" opacity="1" stroke="none"/>
<path d="M8.51152 87.0893C8.51152 87.0893 9.29446 86.837 9.74221 87.2519C10.1236 87.6696 10.2886 88.2373 9.66308 88.698C8.95638 89.0878 8.30944 89.045 7.98688 88.265C7.73756 87.5523 8.51152 87.0893 8.51152 87.0893" fill="#db2127" fill-rule="evenodd" opacity="1" stroke="none"/>
<path d="M10.8353 85.8369C10.8353 85.8369 11.7109 86.0146 12.1402 85.9963C12.5734 85.9778 12.3152 86.7082 11.8332 87.2331C11.3482 87.6878 11.0502 87.4855 10.6697 86.9973C10.2119 86.4382 10.8353 85.8369 10.8353 85.8369" fill="#db2127" fill-rule="evenodd" opacity="1" stroke="none"/>
<path d="M25.663 85.4201C26.5203 85.1685 27.1773 85.3555 27.6983 85.8377C28.2943 86.2463 28.386 86.7467 27.4748 87.2899C26.6337 87.8301 25.7703 87.9373 25.1722 87.3881C24.4997 86.8381 24.8097 85.6715 25.663 85.4201" fill="#db2127" fill-rule="evenodd" opacity="1" stroke="none"/>
<path d="M35.2051 86.0222C36.4237 85.8999 36.371 86.4065 36.8867 86.6738C37.4055 87.0114 38.3087 87.837 37.5226 88.0152C36.7395 88.2636 36.4936 89.2828 35.6219 89.1049C34.7503 88.927 33.7981 88.604 33.6202 87.8218C33.4459 87.0355 33.9828 86.1486 35.2051 86.0222" fill="#db2127" fill-rule="evenodd" opacity="1" stroke="none"/>
<path d="M38.6394 88.902C39.217 88.8774 40.5465 89.6144 39.3984 89.7377C38.3203 89.854 37.7528 90.0228 37.7313 89.5194C37.7801 89.0129 38.6394 88.902 38.6394 88.902" fill="#db2127" fill-rule="evenodd" opacity="1" stroke="none"/>
<path d="M26.5559 101.236C27.2496 100.632 28.2166 99.6524 29.6751 100.024C31.1296 100.392 31.9526 101.081 32.9778 101.467C34.0032 101.857 34.0276 102.431 33.2692 103.257C32.5146 104.083 32.4742 104.878 31.2618 105.145C29.9722 105.345 30.0001 107.65 28.9747 107.26C27.9494 106.87 25.2998 105.614 26.3564 104.994C27.4059 104.3 27.5777 103.284 26.4821 102.897C25.3827 102.514 25.9327 101.841 26.5559 101.236" fill="#db2127" fill-rule="evenodd" opacity="1" stroke="none"/>
<path d="M37.2364 96.5312C38.526 96.3316 38.8178 96.3895 38.989 97.1055C39.0968 97.8907 38.7562 98.3392 38.1053 98.2966C37.4575 98.3242 37.2732 97.3937 36.6995 97.4181C36.0546 97.516 36.021 96.7276 37.2364 96.5312" fill="#db2127" fill-rule="evenodd" opacity="1" stroke="none"/>
<path d="M45.6204 98.7661C46.4615 98.2259 46.8631 97.5598 47.5356 98.1098C48.2079 98.6558 48.5916 99.2181 48.3343 99.8781C48.1432 100.531 48.371 100.741 46.8637 100.875C45.3565 101.014 45.1845 100.372 44.8101 100.028C44.3615 99.6838 44.7764 99.2361 45.6204 98.7661" fill="#db2127" fill-rule="evenodd" opacity="1" stroke="none"/>
<path d="M53.7435 96.6215C54.7504 96.5786 55.2142 97.2782 56.2975 97.3767C57.4518 97.3979 57.8078 97.3123 58.4222 98.1502C59.0297 98.918 59.2047 99.63 58.1389 100.035C57.0741 100.37 56.5118 100.753 55.2841 100.661C54.1298 100.64 53.4024 100.452 52.306 100.139C51.2868 99.8931 51.0539 99.4729 51.4472 98.5178C51.7665 97.5698 52.7396 96.7346 53.7435 96.6215" fill="#db2127" fill-rule="evenodd" opacity="1" stroke="none"/>
<path d="M54.8241 105.005C55.8485 105.466 57.9396 105.451 59.1206 106.19C60.3828 107.001 61.3256 107.105 62.4984 107.559C63.6681 107.944 64.4077 108.416 63.8515 108.944C63.3023 109.543 62.4856 109.003 61.1867 108.984C59.9622 108.966 58.0156 108.978 56.5053 109.042C54.9277 109.18 54.6236 108.833 53.5861 108.158C52.5516 107.553 51.8456 107.869 51.6583 106.868C51.5413 105.864 51.8973 105.779 52.8857 105.303C53.8009 104.759 53.7918 104.545 54.8241 105.005" fill="#db2127" fill-rule="evenodd" opacity="1" stroke="none"/>
<path d="M40.8983 104.66C41.6906 104.626 42.0619 104.9 42.3042 105.538C42.5464 106.177 43.059 106.37 42.3624 106.904C41.8101 107.432 41.1776 107.819 40.4838 106.769C39.7931 105.79 40.039 104.771 40.8983 104.66" fill="#db2127" fill-rule="evenodd" opacity="1" stroke="none"/>
<path d="M10.4523 83.5464C10.1788 83.9178 9.6135 84.2312 9.16574 83.8163C8.64699 83.4787 8.58905 83.7705 8.47498 82.837C8.29383 81.9806 8.10968 81.054 8.36472 80.2495C8.61977 79.4449 9.20941 78.0514 9.75876 79.1071C10.3815 80.2339 11.1831 80.4187 11.2228 81.3515C11.333 82.2851 10.6485 83.1041 10.4523 83.5464" fill="#db2127" fill-rule="evenodd" opacity="1" stroke="none"/>
<path d="M16.2021 79.8412C16.2021 79.8412 16.672 79.0314 17.4672 79.0679C18.2624 79.1044 18.6431 79.5965 19.1557 79.7897C19.6653 79.9126 20.0244 79.8973 19.9259 80.9806C19.8275 82.0678 19.9934 82.5651 20.0331 83.4978C20.073 84.4345 19.8951 85.3061 19.2596 85.6225C18.6239 85.9351 18.2404 85.3767 17.4726 85.9841C16.7791 86.5923 15.6949 86.5642 15.7232 85.4839C15.7475 84.4038 15.5632 83.4733 15.382 82.6169C15.275 81.7574 14.2832 80.5016 15.2075 80.1729C16.2021 79.8412 16.2021 79.8412 16.2021 79.8412" fill="#db2127" fill-rule="evenodd" opacity="1" stroke="none"/>
<path d="M25.443 73.4655C26.0541 72.5754 26.8127 71.7533 26.2846 71.1971C25.6856 70.7183 25.1089 70.6725 24.7681 71.1171C24.3534 71.5687 23.73 72.17 23.7576 72.8179C23.715 73.4687 23.6714 74.19 24.5186 73.7942C25.443 73.4655 25.443 73.4655 25.443 73.4655" fill="#db2127" fill-rule="evenodd" opacity="1" stroke="none"/>
<path d="M15.3465 68.203C15.3465 68.203 16.581 66.7116 16.6702 65.4098C16.8296 64.1049 16.7379 63.6045 17.3512 62.8589C17.8983 62.1162 18.4749 62.162 19.0525 62.1374C19.7004 62.1098 20.0067 62.6011 20.6576 62.6438C21.3086 62.6903 21.7074 63.6078 21.8153 64.3968C21.9162 65.1119 22.0943 65.898 21.766 66.6353C21.4406 67.439 21.2588 68.3108 21.3048 69.3919C21.3539 70.5432 21.3753 71.0466 20.7866 72.3697C20.197 73.7633 19.1716 73.373 18.4496 73.4038C17.7315 73.4344 17.8202 73.8646 16.9087 72.75C16.0003 71.7096 15.6351 71.5805 15.0979 70.8097C14.6341 70.1101 15.3465 68.203 15.3465 68.203" fill="#db2127" fill-rule="evenodd" opacity="1" stroke="none"/>
<path d="M24.9799 65.994C25.9499 65.0847 26.0088 64.7225 26.6383 64.2656C27.2668 63.8752 27.7896 64.2166 28.0928 64.6337C28.471 64.9773 28.4863 65.3363 27.958 66.5162C27.4293 67.6882 27.5983 68.2596 26.6961 69.0175C25.7168 69.7082 24.9734 69.2355 24.4453 68.6794C23.8472 68.1301 24.0839 66.8963 24.9799 65.994" fill="#db2127" fill-rule="evenodd" opacity="1" stroke="none"/>
<path d="M27.2203 81.3188C29.0498 80.3025 28.8198 79.9526 29.0498 80.3025C29.2829 80.7265 28.3404 82.2798 29.5993 81.3621C30.8551 80.3702 31.6291 79.9072 31.7269 80.552C31.8988 81.1898 31.9049 81.3342 31.1494 82.2305C30.4712 83.1977 30.0656 83.864 29.2864 84.1123C28.4262 84.2936 27.3552 84.4839 27.3307 83.9102C27.3031 83.2623 27.3702 83.1852 25.9586 83.824C24.54 84.3888 25.4579 82.258 27.2203 81.3188" fill="#db2127" fill-rule="evenodd" opacity="1" stroke="none"/>
<path d="M36.9378 67.5019C39.3042 65.5987 39.1352 65.0272 38.6814 64.4718C38.2236 63.9127 38.0701 63.7042 37.0846 64.2506C36.1664 64.7237 36.4033 65.1437 35.3261 65.1895C34.3192 65.2325 33.3454 66.1419 34.5181 66.5963C35.765 67.0475 34.6407 69.4726 36.9378 67.5019" fill="#db2127" fill-rule="evenodd" opacity="1" stroke="none"/>
<path d="M49.0968 72.1721C51.3963 71.9998 50.896 72.0955 51.0799 71.3643C51.2678 70.6369 50.4199 71.107 50.1715 70.3239C49.9201 69.4706 49.6005 68.7609 48.4923 69.8207C47.3166 70.9499 46.724 72.2732 49.0968 72.1721" fill="#db2127" fill-rule="evenodd" opacity="1" stroke="none"/>
<path d="M55.9892 76.5624C57.6063 75.6998 57.9569 75.3955 58.9823 75.7858C60.0075 76.1722 60.5844 76.2219 60.7687 77.1524C60.9498 78.0087 61.3212 78.2822 60.406 78.8256C59.4947 79.3688 59.7856 79.4971 58.0729 79.8594C56.4273 80.1446 55.629 80.0379 54.9048 79.9241C54.1032 79.7393 53.8215 79.8256 54.282 78.7972C54.8158 77.8361 54.3651 77.351 55.9892 76.5624" fill="#db2127" fill-rule="evenodd" opacity="1" stroke="none"/>
<path d="M33.8501 47.5254C36.8406 43.2927 36.0026 43.9032 36.1225 43.3233C36.3125 42.7366 36.3561 42.0153 35.346 41.9841C34.3361 41.9567 33.433 41.1311 32.5308 41.889C31.6248 42.647 31.8091 43.5775 30.4952 44.8573C29.1845 46.2112 28.4748 46.5307 28.3671 47.3994C28.2666 48.342 28.705 48.5384 29.534 49.3671C30.3662 50.27 30.7864 51.6909 33.8501 47.5254" fill="#db2127" fill-rule="evenodd" opacity="1" stroke="none"/>
<path d="M46.2347 45.5589C47.386 45.5098 47.4777 46.0103 48.6541 44.8068C49.8295 43.6737 50.1733 43.2993 50.8456 43.8454C51.4448 44.3282 51.4937 45.4756 50.956 46.4368C50.3511 47.4713 50.7071 47.3858 49.8937 48.5738C49.0098 49.761 48.7365 50.1362 47.0229 50.5689C45.3805 50.9283 44.7883 50.5195 43.9043 50.0528C43.0204 49.5861 41.0401 48.8064 42.3385 47.1637C43.7113 45.5218 45.0834 45.608 46.2347 45.5589" fill="#db2127" fill-rule="evenodd" opacity="1" stroke="none"/>
<path d="M16.1619 87.338L5.62122 51.3549L9.20508 50.8824L16.6806 87.6756L15.7747 88.4375L0 68.2822L3.61722 60.1144" fill="#db2127" fill-rule="evenodd" opacity="1" stroke="none"/>
<path d="M20.344 29.8696L19.7446 85.1679L27.4357 30.7366L20.344 29.8696Z" fill="#db2127" fill-rule="evenodd" opacity="1" stroke="none"/>
<path d="M23.0231 87.6947L38.8165 35.407L42.2987 35.2095L35.5563 55.0394L49.3662 25L51.1699 33.8779L23.0231 87.6947" fill="#db2127" fill-rule="evenodd" opacity="1" stroke="none"/>
<path d="M33.4834 76.0787L64.8064 31.8143L68.1423 35.2391L33.4834 76.0787Z" fill="#db2127" fill-rule="evenodd" opacity="1" stroke="none"/>
<path d="M26.4278 91.4398L66.708 44.0375L71.4134 51.332L26.4278 91.4398Z" fill="#db2127" fill-rule="evenodd" opacity="1" stroke="none"/>
<path d="M34.5383 87.3486L82.1447 51.3714L86.1473 56.7821L34.5383 87.3486Z" fill="#db2127" fill-rule="evenodd" opacity="1" stroke="none"/>
<path d="M32.661 91.8609L86.5836 69.1764L88.8458 76.8541L32.661 91.8609Z" fill="#db2127" fill-rule="evenodd" opacity="1" stroke="none"/>
<path d="M42.5792 91.063L93.7133 80.2689L95.6482 88.9946L42.5792 91.063Z" fill="#db2127" fill-rule="evenodd" opacity="1" stroke="none"/>
<path d="M31.4559 94.4707L100.536 92.0906L101.898 98.6748L31.4559 94.4707Z" fill="#db2127" fill-rule="evenodd" opacity="1" stroke="none"/>
<path d="M23.8634 98.9738L109.717 103.596L107.918 108.253L23.8634 98.9738" fill="#db2127" fill-rule="evenodd" opacity="1" stroke="none"/>
</g>
<path d="M19.1009 113L466.159 113C469.733 113 472.63 113.444 472.63 113.992L472.63 116.008C472.63 116.556 469.733 117 466.159 117L19.1009 117C15.5271 117 12.63 116.556 12.63 116.008L12.63 113.992C12.63 113.444 15.5271 113 19.1009 113Z" fill="#db2127" fill-rule="nonzero" opacity="1" stroke="none"/>
<g fill="#db2127" opacity="1" stroke="none">
<path clip-path="url(#TextBounds)" d="M117.732 40.3801L121.302 40.3801C121.914 40.3801 122.487 40.3347 123.019 40.2441C123.552 40.1534 124.017 39.9947 124.413 39.7681C124.81 39.5414 125.122 39.2467 125.348 38.8841C125.575 38.5214 125.688 38.0681 125.688 37.5241C125.688 36.7534 125.382 36.1754 124.77 35.7901C124.158 35.4047 123.297 35.2121 122.186 35.2121C120.94 35.2121 119.852 35.3537 118.922 35.6371C117.993 35.9204 117.109 36.3001 116.27 36.7761L114.57 32.5941C115.477 32.0274 116.571 31.5684 117.851 31.2171C119.132 30.8657 120.588 30.6901 122.22 30.6901C123.49 30.6901 124.668 30.8317 125.756 31.1151C126.844 31.3984 127.785 31.8177 128.578 32.3731C129.372 32.9284 129.989 33.6311 130.431 34.4811C130.873 35.3311 131.094 36.3227 131.094 37.4561C131.094 38.3174 130.862 39.1731 130.397 40.0231C129.933 40.8731 129.224 41.5927 128.272 42.1821C128.794 42.4541 129.287 42.7714 129.751 43.1341C130.216 43.4967 130.624 43.9161 130.975 44.3921C131.327 44.8681 131.604 45.4064 131.808 46.0071C132.012 46.6077 132.114 47.2821 132.114 48.0301C132.114 50.5461 131.225 52.3764 129.445 53.5211C127.666 54.6657 125.19 55.2381 122.016 55.2381C121.223 55.2381 120.435 55.1814 119.653 55.0681C118.871 54.9547 118.123 54.8131 117.409 54.6431C116.695 54.4731 116.027 54.2747 115.403 54.0481C114.78 53.8214 114.23 53.5834 113.754 53.3341L115.318 49.1861C115.636 49.3221 116.027 49.4751 116.491 49.6451C116.956 49.8151 117.472 49.9794 118.038 50.1381C118.605 50.2967 119.194 50.4327 119.806 50.5461C120.418 50.6594 121.03 50.7161 121.642 50.7161C123.138 50.7161 124.345 50.5007 125.263 50.0701C126.181 49.6394 126.64 48.8914 126.64 47.8261C126.64 47.1687 126.493 46.6361 126.198 46.2281C125.904 45.8201 125.501 45.5084 124.991 45.2931C124.481 45.0777 123.881 44.9304 123.189 44.8511C122.498 44.7717 121.744 44.7321 120.928 44.7321L117.732 44.7321L117.732 40.3801Z"/>
<path clip-path="url(#TextBounds)" d="M140.818 42.9641C140.818 44.1201 140.96 45.1627 141.243 46.0921C141.527 47.0214 141.935 47.8204 142.467 48.4891C143 49.1577 143.652 49.6734 144.422 50.0361C145.193 50.3987 146.077 50.5801 147.074 50.5801C148.049 50.5801 148.927 50.3987 149.709 50.0361C150.491 49.6734 151.149 49.1577 151.681 48.4891C152.214 47.8204 152.622 47.0214 152.905 46.0921C153.189 45.1627 153.33 44.1201 153.33 42.9641C153.33 41.8081 153.189 40.7597 152.905 39.8191C152.622 38.8784 152.214 38.0737 151.681 37.4051C151.149 36.7364 150.491 36.2207 149.709 35.8581C148.927 35.4954 148.049 35.3141 147.074 35.3141C146.077 35.3141 145.193 35.5011 144.422 35.8751C143.652 36.2491 143 36.7704 142.467 37.4391C141.935 38.1077 141.527 38.9124 141.243 39.8531C140.96 40.7937 140.818 41.8307 140.818 42.9641ZM158.804 42.9641C158.804 44.9814 158.504 46.7551 157.903 48.2851C157.303 49.8151 156.481 51.0957 155.438 52.1271C154.396 53.1584 153.155 53.9347 151.715 54.4561C150.276 54.9774 148.729 55.2381 147.074 55.2381C145.465 55.2381 143.946 54.9774 142.518 54.4561C141.09 53.9347 139.844 53.1584 138.778 52.1271C137.713 51.0957 136.874 49.8151 136.262 48.2851C135.65 46.7551 135.344 44.9814 135.344 42.9641C135.344 40.9467 135.662 39.1731 136.296 37.6431C136.931 36.1131 137.787 34.8267 138.863 33.7841C139.94 32.7414 141.187 31.9594 142.603 31.4381C144.02 30.9167 145.51 30.6561 147.074 30.6561C148.684 30.6561 150.202 30.9167 151.63 31.4381C153.058 31.9594 154.305 32.7414 155.37 33.7841C156.436 34.8267 157.274 36.1131 157.886 37.6431C158.498 39.1731 158.804 40.9467 158.804 42.9641Z"/>
<path clip-path="url(#TextBounds)" d="M177.436 31.2001L182.74 31.2001L182.74 54.7621L177.436 54.7621L177.436 44.7661L168.528 44.7661L168.528 54.7621L163.224 54.7621L163.224 31.2001L168.528 31.2001L168.528 40.2101L177.436 40.2101L177.436 31.2001Z"/>
<path clip-path="url(#TextBounds)" d="M203.956 54.7621C203.707 53.9461 203.429 53.1074 203.123 52.2461C202.817 51.3847 202.517 50.5234 202.222 49.6621L193.042 49.6621C192.748 50.5234 192.447 51.3847 192.141 52.2461C191.835 53.1074 191.558 53.9461 191.308 54.7621L185.8 54.7621C186.684 52.2234 187.523 49.8774 188.316 47.7241C189.11 45.5707 189.886 43.5421 190.645 41.6381C191.405 39.7341 192.153 37.9264 192.889 36.2151C193.626 34.5037 194.391 32.8321 195.184 31.2001L200.25 31.2001C201.021 32.8321 201.78 34.5037 202.528 36.2151C203.276 37.9264 204.03 39.7341 204.789 41.6381C205.549 43.5421 206.325 45.5707 207.118 47.7241C207.912 49.8774 208.75 52.2234 209.634 54.7621L203.956 54.7621ZM197.598 36.5381C197.485 36.8781 197.315 37.3427 197.088 37.9321C196.862 38.5214 196.601 39.2014 196.306 39.9721C196.012 40.7427 195.689 41.5927 195.337 42.5221C194.986 43.4514 194.629 44.4261 194.266 45.4461L200.964 45.4461C200.602 44.4261 200.25 43.4514 199.91 42.5221C199.57 41.5927 199.247 40.7427 198.941 39.9721C198.635 39.2014 198.369 38.5214 198.142 37.9321C197.916 37.3427 197.734 36.8781 197.598 36.5381Z"/>
<path clip-path="url(#TextBounds)" d="M233.4 47.8601C232.743 49.3561 232.052 50.5857 231.326 51.5491C230.601 52.5124 229.853 53.2661 229.082 53.8101C228.312 54.3541 227.53 54.7281 226.736 54.9321C225.943 55.1361 225.138 55.2381 224.322 55.2381C223.552 55.2381 222.753 55.1644 221.925 55.0171C221.098 54.8697 220.322 54.6601 219.596 54.3881L220.548 50.1381C221.659 50.5461 222.758 50.7501 223.846 50.7501C224.549 50.7501 225.223 50.5914 225.869 50.2741C226.515 49.9567 227.133 49.2767 227.722 48.2341C226.793 46.7834 225.903 45.2931 225.053 43.7631C224.203 42.2331 223.399 40.7257 222.639 39.2411C221.88 37.7564 221.177 36.3284 220.531 34.9571C219.885 33.5857 219.313 32.3334 218.814 31.2001L224.696 31.2001C225.059 32.0841 225.461 33.0304 225.903 34.0391C226.345 35.0477 226.816 36.0904 227.314 37.1671C227.813 38.2437 228.317 39.3204 228.827 40.3971C229.337 41.4737 229.83 42.5221 230.306 43.5421C231.032 41.5474 231.723 39.5074 232.38 37.4221C233.038 35.3367 233.672 33.2627 234.284 31.2001L239.962 31.2001C239.373 32.9454 238.795 34.5774 238.228 36.0961C237.662 37.6147 237.106 39.0541 236.562 40.4141C236.018 41.7741 235.48 43.0661 234.947 44.2901C234.415 45.5141 233.899 46.7041 233.4 47.8601Z"/>
<path clip-path="url(#TextBounds)" d="M250.094 30.9281C253.608 30.9281 256.305 31.5457 258.186 32.7811C260.068 34.0164 261.008 36.0394 261.008 38.8501C261.008 41.6834 260.056 43.7291 258.152 44.9871C256.248 46.2451 253.528 46.8741 249.992 46.8741L248.326 46.8741L248.326 54.7621L243.022 54.7621L243.022 31.5401C244.178 31.3134 245.402 31.1547 246.694 31.0641C247.986 30.9734 249.12 30.9281 250.094 30.9281ZM250.434 35.4501C250.049 35.4501 249.669 35.4614 249.295 35.4841C248.921 35.5067 248.598 35.5294 248.326 35.5521L248.326 42.3521L249.992 42.3521C251.828 42.3521 253.211 42.1027 254.14 41.6041C255.07 41.1054 255.534 40.1761 255.534 38.8161C255.534 38.1587 255.415 37.6147 255.177 37.1841C254.939 36.7534 254.599 36.4077 254.157 36.1471C253.715 35.8864 253.177 35.7051 252.542 35.6031C251.908 35.5011 251.205 35.4501 250.434 35.4501Z"/>
<path clip-path="url(#TextBounds)" d="M278.382 54.7621C278.133 53.9461 277.855 53.1074 277.549 52.2461C277.243 51.3847 276.943 50.5234 276.648 49.6621L267.468 49.6621C267.174 50.5234 266.873 51.3847 266.567 52.2461C266.261 53.1074 265.984 53.9461 265.734 54.7621L260.226 54.7621C261.11 52.2234 261.949 49.8774 262.742 47.7241C263.536 45.5707 264.312 43.5421 265.071 41.6381C265.831 39.7341 266.579 37.9264 267.315 36.2151C268.052 34.5037 268.817 32.8321 269.61 31.2001L274.676 31.2001C275.447 32.8321 276.206 34.5037 276.954 36.2151C277.702 37.9264 278.456 39.7341 279.215 41.6381C279.975 43.5421 280.751 45.5707 281.544 47.7241C282.338 49.8774 283.176 52.2234 284.06 54.7621L278.382 54.7621ZM272.024 36.5381C271.911 36.8781 271.741 37.3427 271.514 37.9321C271.288 38.5214 271.027 39.2014 270.732 39.9721C270.438 40.7427 270.115 41.5927 269.763 42.5221C269.412 43.4514 269.055 44.4261 268.692 45.4461L275.39 45.4461C275.028 44.4261 274.676 43.4514 274.336 42.5221C273.996 41.5927 273.673 40.7427 273.367 39.9721C273.061 39.2014 272.795 38.5214 272.568 37.9321C272.342 37.3427 272.16 36.8781 272.024 36.5381Z"/>
<path clip-path="url(#TextBounds)" d="M285.556 54.7621C286.214 53.6061 286.916 52.4501 287.664 51.2941C288.412 50.1381 289.177 49.0217 289.959 47.9451C290.741 46.8684 291.546 45.8597 292.373 44.9191C293.201 43.9784 294.034 43.1341 294.872 42.3861C293.92 41.4114 293.036 40.4594 292.22 39.5301C291.404 38.6007 290.628 37.6827 289.891 36.7761C289.155 35.8694 288.435 34.9571 287.732 34.0391C287.03 33.1211 286.316 32.1747 285.59 31.2001L291.982 31.2001C292.662 32.1521 293.303 33.0247 293.903 33.8181C294.504 34.6114 295.093 35.3821 295.671 36.1301C296.249 36.8781 296.833 37.6147 297.422 38.3401C298.012 39.0654 298.646 39.8361 299.326 40.6521L299.326 31.2001L304.494 31.2001L304.494 40.6521C305.174 39.8134 305.826 39.0144 306.449 38.2551C307.073 37.4957 307.679 36.7421 308.268 35.9941C308.858 35.2461 309.447 34.4811 310.036 33.6991C310.626 32.9171 311.226 32.0841 311.838 31.2001L318.196 31.2001C317.38 32.2654 316.615 33.2627 315.901 34.1921C315.187 35.1214 314.468 36.0281 313.742 36.9121C313.017 37.7961 312.275 38.6801 311.515 39.5641C310.756 40.4481 309.923 41.3774 309.016 42.3521C310.852 44.0521 312.53 45.9617 314.048 48.0811C315.567 50.2004 316.984 52.4274 318.298 54.7621L312.382 54.7621C311.68 53.6967 311.022 52.7107 310.41 51.8041C309.798 50.8974 309.186 50.0247 308.574 49.1861C307.962 48.3474 307.328 47.5257 306.67 46.7211C306.013 45.9164 305.288 45.0834 304.494 44.2221L304.494 54.7621L299.326 54.7621L299.326 44.2221C298.51 45.1741 297.774 46.0581 297.116 46.8741C296.459 47.6901 295.83 48.5061 295.229 49.3221C294.629 50.1381 294.022 50.9824 293.41 51.8551C292.798 52.7277 292.141 53.6967 291.438 54.7621L285.556 54.7621Z"/>
<path clip-path="url(#TextBounds)" d="M321.358 54.7621L321.358 31.2001L337.27 31.2001L337.27 35.6541L326.662 35.6541L326.662 40.2781L336.08 40.2781L336.08 44.6301L326.662 44.6301L326.662 50.3081L338.052 50.3081L338.052 54.7621L321.358 54.7621Z"/>
<path clip-path="url(#TextBounds)" d="M356.174 31.2001L361.478 31.2001L361.478 54.7621L356.174 54.7621L356.174 44.7661L347.266 44.7661L347.266 54.7621L341.962 54.7621L341.962 31.2001L347.266 31.2001L347.266 40.2101L356.174 40.2101L356.174 31.2001Z"/>
<path clip-path="url(#TextBounds)" d="M381.13 31.2001L386.434 31.2001L386.434 54.7621L381.13 54.7621L381.13 44.7661L372.222 44.7661L372.222 54.7621L366.918 54.7621L366.918 31.2001L372.222 31.2001L372.222 40.2101L381.13 40.2101L381.13 31.2001Z"/>
<path clip-path="url(#TextBounds)" d="M402.482 35.5181C401.802 35.5181 401.151 35.5691 400.527 35.6711C399.904 35.7731 399.354 35.9431 398.878 36.1811C398.402 36.4191 398.017 36.7477 397.722 37.1671C397.428 37.5864 397.28 38.1134 397.28 38.7481C397.28 39.9494 397.705 40.7767 398.555 41.2301C399.405 41.6834 400.669 41.9101 402.346 41.9101L404.556 41.9101L404.556 35.5521C404.284 35.5294 403.99 35.5181 403.672 35.5181C403.355 35.5181 402.958 35.5181 402.482 35.5181ZM402.72 30.9621C403.672 30.9621 404.789 31.0187 406.069 31.1321C407.35 31.2454 408.614 31.4381 409.86 31.7101L409.86 54.7621L404.556 54.7621L404.556 46.2961L402.924 46.2961C402.63 46.2961 402.346 46.2961 402.074 46.2961C401.802 46.2961 401.474 46.2734 401.088 46.2281C400.34 47.2481 399.519 48.5231 398.623 50.0531C397.728 51.5831 396.895 53.1527 396.124 54.7621L390.514 54.7621C390.922 53.8327 391.359 52.9147 391.823 52.0081C392.288 51.1014 392.758 50.2401 393.234 49.4241C393.71 48.6081 394.175 47.8544 394.628 47.1631C395.082 46.4717 395.501 45.8654 395.886 45.3441C395.388 45.1174 394.895 44.8171 394.407 44.4431C393.92 44.0691 393.484 43.6214 393.098 43.1001C392.713 42.5787 392.401 41.9611 392.163 41.2471C391.925 40.5331 391.806 39.7114 391.806 38.7821C391.806 37.4901 392.061 36.3567 392.571 35.3821C393.081 34.4074 393.807 33.5914 394.747 32.9341C395.688 32.2767 396.833 31.7837 398.181 31.4551C399.53 31.1264 401.043 30.9621 402.72 30.9621Z"/>
<path clip-path="url(#TextBounds)" d="M420.162 37.2861C420.162 39.1221 420.094 40.8334 419.958 42.4201C419.822 44.0067 419.641 45.6161 419.414 47.2481L415.538 47.2481C415.312 45.6161 415.125 44.0067 414.977 42.4201C414.83 40.8334 414.756 39.1221 414.756 37.2861L414.756 31.2001L420.162 31.2001L420.162 37.2861ZM420.604 52.0761C420.604 53.0734 420.281 53.8441 419.635 54.3881C418.989 54.9321 418.258 55.2041 417.442 55.2041C416.626 55.2041 415.895 54.9321 415.249 54.3881C414.603 53.8441 414.28 53.0734 414.28 52.0761C414.28 51.0787 414.603 50.3081 415.249 49.7641C415.895 49.2201 416.626 48.9481 417.442 48.9481C418.258 48.9481 418.989 49.2201 419.635 49.7641C420.281 50.3081 420.604 51.0787 420.604 52.0761Z"/>
</g>
<g fill="#ff0000" opacity="1" stroke="none">
<path clip-path="url(#TextBounds_2)" d="M120.576 82.872C120.166 82.872 119.727 82.9093 119.26 82.984C118.794 83.0587 118.43 83.1613 118.168 83.292C118.168 83.3667 118.164 83.4787 118.154 83.628C118.145 83.7773 118.14 83.908 118.14 84.02C118.14 84.692 118.187 85.3267 118.28 85.924C118.374 86.5213 118.532 87.044 118.756 87.492C118.98 87.94 119.279 88.29 119.652 88.542C120.026 88.794 120.492 88.92 121.052 88.92C121.519 88.92 121.916 88.822 122.242 88.626C122.569 88.43 122.84 88.1827 123.054 87.884C123.269 87.5853 123.428 87.254 123.53 86.89C123.633 86.526 123.684 86.176 123.684 85.84C123.684 84.888 123.446 84.1553 122.97 83.642C122.494 83.1287 121.696 82.872 120.576 82.872ZM121.108 79.624C122.322 79.624 123.353 79.7873 124.202 80.114C125.052 80.4407 125.747 80.884 126.288 81.444C126.83 82.004 127.222 82.6573 127.464 83.404C127.707 84.1507 127.828 84.944 127.828 85.784C127.828 86.5307 127.693 87.296 127.422 88.08C127.152 88.864 126.741 89.5733 126.19 90.208C125.64 90.8427 124.94 91.3653 124.09 91.776C123.241 92.1867 122.238 92.392 121.08 92.392C118.747 92.392 116.974 91.6547 115.76 90.18C114.547 88.7053 113.94 86.6707 113.94 84.076C113.94 82.2093 114.23 80.5573 114.808 79.12C115.387 77.6827 116.213 76.474 117.286 75.494C118.36 74.514 119.657 73.7673 121.178 73.254C122.7 72.7407 124.412 72.4747 126.316 72.456C126.354 73.0347 126.391 73.5993 126.428 74.15C126.466 74.7007 126.503 75.2747 126.54 75.872C125.588 75.8907 124.697 75.9793 123.866 76.138C123.036 76.2967 122.28 76.544 121.598 76.88C120.917 77.216 120.324 77.65 119.82 78.182C119.316 78.714 118.924 79.3627 118.644 80.128C119.055 79.9413 119.475 79.8107 119.904 79.736C120.334 79.6613 120.735 79.624 121.108 79.624Z"/>
<path clip-path="url(#TextBounds_2)" d="M143.76 82.256C143.76 85.5227 143.14 88.0287 141.898 89.774C140.657 91.5193 138.944 92.392 136.76 92.392C134.576 92.392 132.864 91.5193 131.622 89.774C130.381 88.0287 129.76 85.5227 129.76 82.256C129.76 80.632 129.924 79.1947 130.25 77.944C130.577 76.6933 131.048 75.6387 131.664 74.78C132.28 73.9213 133.018 73.268 133.876 72.82C134.735 72.372 135.696 72.148 136.76 72.148C138.944 72.148 140.657 73.0207 141.898 74.766C143.14 76.5113 143.76 79.008 143.76 82.256ZM139.504 82.256C139.504 81.2853 139.458 80.4033 139.364 79.61C139.271 78.8167 139.122 78.1307 138.916 77.552C138.711 76.9733 138.431 76.5253 138.076 76.208C137.722 75.8907 137.283 75.732 136.76 75.732C136.238 75.732 135.804 75.8907 135.458 76.208C135.113 76.5253 134.833 76.9733 134.618 77.552C134.404 78.1307 134.25 78.8167 134.156 79.61C134.063 80.4033 134.016 81.2853 134.016 82.256C134.016 83.2267 134.063 84.1133 134.156 84.916C134.25 85.7187 134.404 86.4093 134.618 86.988C134.833 87.5667 135.113 88.0147 135.458 88.332C135.804 88.6493 136.238 88.808 136.76 88.808C137.283 88.808 137.722 88.6493 138.076 88.332C138.431 88.0147 138.711 87.5667 138.916 86.988C139.122 86.4093 139.271 85.7187 139.364 84.916C139.458 84.1133 139.504 83.2267 139.504 82.256Z"/>
<path clip-path="url(#TextBounds_2)" d="M157.536 83.516C157.499 84.1693 157.462 84.8787 157.424 85.644C157.387 86.4093 157.354 87.1793 157.326 87.954C157.298 88.7287 157.27 89.466 157.242 90.166C157.214 90.866 157.191 91.4773 157.172 92L153.112 92C153.15 90.9733 153.21 89.816 153.294 88.528C153.378 87.24 153.472 85.9287 153.574 84.594C153.677 83.2593 153.789 81.9573 153.91 80.688C154.032 79.4187 154.148 78.28 154.26 77.272L157.732 77.272C158.535 78.5787 159.272 79.932 159.944 81.332C160.616 82.732 161.326 84.272 162.072 85.952C162.856 84.16 163.622 82.5033 164.368 80.982C165.115 79.4607 165.787 78.224 166.384 77.272L169.912 77.272C170.043 78.28 170.169 79.4187 170.29 80.688C170.412 81.9573 170.524 83.2593 170.626 84.594C170.729 85.9287 170.818 87.24 170.892 88.528C170.967 89.816 171.023 90.9733 171.06 92L166.916 92C166.879 90.544 166.828 89.0973 166.762 87.66C166.697 86.2227 166.636 84.832 166.58 83.488L163.5 90.264L160.616 90.264L157.536 83.516Z"/>
<path clip-path="url(#TextBounds_2)" d="M174 84.748C174 83.4413 174.201 82.298 174.602 81.318C175.004 80.338 175.531 79.5213 176.184 78.868C176.838 78.2147 177.589 77.72 178.438 77.384C179.288 77.048 180.16 76.88 181.056 76.88C183.147 76.88 184.799 77.5193 186.012 78.798C187.226 80.0767 187.832 81.9573 187.832 84.44C187.832 84.6827 187.823 84.9487 187.804 85.238C187.786 85.5273 187.767 85.784 187.748 86.008L178.284 86.008C178.378 86.8667 178.779 87.548 179.488 88.052C180.198 88.556 181.15 88.808 182.344 88.808C183.11 88.808 183.861 88.738 184.598 88.598C185.336 88.458 185.938 88.2853 186.404 88.08L186.964 91.468C186.74 91.58 186.442 91.692 186.068 91.804C185.695 91.916 185.28 92.014 184.822 92.098C184.365 92.182 183.875 92.252 183.352 92.308C182.83 92.364 182.307 92.392 181.784 92.392C180.459 92.392 179.306 92.196 178.326 91.804C177.346 91.412 176.534 90.8753 175.89 90.194C175.246 89.5127 174.77 88.7053 174.462 87.772C174.154 86.8387 174 85.8307 174 84.748ZM183.8 83.152C183.782 82.7973 183.721 82.452 183.618 82.116C183.516 81.78 183.357 81.4813 183.142 81.22C182.928 80.9587 182.657 80.744 182.33 80.576C182.004 80.408 181.598 80.324 181.112 80.324C180.646 80.324 180.244 80.4033 179.908 80.562C179.572 80.7207 179.292 80.9307 179.068 81.192C178.844 81.4533 178.672 81.7567 178.55 82.102C178.429 82.4473 178.34 82.7973 178.284 83.152L183.8 83.152Z"/>
<path clip-path="url(#TextBounds_2)" d="M203.232 80.688L198.528 80.688L198.528 92L194.356 92L194.356 80.688L189.652 80.688L189.652 77.272L203.232 77.272L203.232 80.688Z"/>
<path clip-path="url(#TextBounds_2)" d="M215.188 84.748C215.188 83.46 214.899 82.4287 214.32 81.654C213.742 80.8793 212.883 80.492 211.744 80.492C211.371 80.492 211.026 80.506 210.708 80.534C210.391 80.562 210.13 80.5947 209.924 80.632L209.924 88.164C210.186 88.332 210.526 88.472 210.946 88.584C211.366 88.696 211.791 88.752 212.22 88.752C214.199 88.752 215.188 87.4173 215.188 84.748ZM219.444 84.636C219.444 85.7747 219.304 86.8107 219.024 87.744C218.744 88.6773 218.334 89.48 217.792 90.152C217.251 90.824 216.579 91.3467 215.776 91.72C214.974 92.0933 214.05 92.28 213.004 92.28C212.426 92.28 211.884 92.224 211.38 92.112C210.876 92 210.391 91.8413 209.924 91.636L209.924 97.18L205.752 97.18L205.752 77.776C206.126 77.664 206.555 77.5567 207.04 77.454C207.526 77.3513 208.034 77.2627 208.566 77.188C209.098 77.1133 209.64 77.0527 210.19 77.006C210.741 76.9593 211.268 76.936 211.772 76.936C212.986 76.936 214.068 77.118 215.02 77.482C215.972 77.846 216.775 78.3593 217.428 79.022C218.082 79.6847 218.581 80.492 218.926 81.444C219.272 82.396 219.444 83.46 219.444 84.636Z"/>
<path clip-path="url(#TextBounds_2)" d="M226.836 92L222.664 92L222.664 77.272L226.836 77.272L226.836 92ZM227.228 73.016C227.228 73.7813 226.981 74.3833 226.486 74.822C225.992 75.2607 225.408 75.48 224.736 75.48C224.064 75.48 223.481 75.2607 222.986 74.822C222.492 74.3833 222.244 73.7813 222.244 73.016C222.244 72.2507 222.492 71.6487 222.986 71.21C223.481 70.7713 224.064 70.552 224.736 70.552C225.408 70.552 225.992 70.7713 226.486 71.21C226.981 71.6487 227.228 72.2507 227.228 73.016Z"/>
<path clip-path="url(#TextBounds_2)" d="M234.928 88.92C235.19 88.9573 235.54 88.99 235.978 89.018C236.417 89.046 236.823 89.06 237.196 89.06C238.13 89.06 238.858 88.9433 239.38 88.71C239.903 88.4767 240.164 88.052 240.164 87.436C240.164 86.8387 239.926 86.4233 239.45 86.19C238.974 85.9567 238.279 85.84 237.364 85.84L234.928 85.84L234.928 88.92ZM237.28 83.04C237.971 83.04 238.531 82.9513 238.96 82.774C239.39 82.5967 239.604 82.2093 239.604 81.612C239.604 81.052 239.362 80.6693 238.876 80.464C238.391 80.2587 237.756 80.156 236.972 80.156C236.711 80.156 236.37 80.17 235.95 80.198C235.53 80.226 235.19 80.2587 234.928 80.296L234.928 83.04L237.28 83.04ZM237.14 92.28C236.618 92.28 236.058 92.2613 235.46 92.224C234.863 92.1867 234.275 92.1353 233.696 92.07C233.118 92.0047 232.572 91.93 232.058 91.846C231.545 91.762 231.111 91.6827 230.756 91.608L230.756 77.496C231.111 77.4213 231.545 77.3513 232.058 77.286C232.572 77.2207 233.118 77.16 233.696 77.104C234.275 77.048 234.863 77.006 235.46 76.978C236.058 76.95 236.618 76.936 237.14 76.936C238.354 76.936 239.376 77.0573 240.206 77.3C241.037 77.5427 241.709 77.86 242.222 78.252C242.736 78.644 243.104 79.0827 243.328 79.568C243.552 80.0533 243.664 80.5387 243.664 81.024C243.664 81.6773 243.506 82.2747 243.188 82.816C242.871 83.3573 242.47 83.7493 241.984 83.992C242.246 84.104 242.512 84.2627 242.782 84.468C243.053 84.6733 243.3 84.9207 243.524 85.21C243.748 85.4993 243.93 85.8447 244.07 86.246C244.21 86.6473 244.28 87.1093 244.28 87.632C244.28 88.2293 244.164 88.808 243.93 89.368C243.697 89.928 243.3 90.4227 242.74 90.852C242.18 91.2813 241.443 91.6267 240.528 91.888C239.614 92.1493 238.484 92.28 237.14 92.28Z"/>
<path clip-path="url(#TextBounds_2)" d="M253.632 84.972L266.792 84.972L266.792 88.472L253.632 88.472L253.632 84.972ZM253.632 78.84L266.792 78.84L266.792 82.34L253.632 82.34L253.632 78.84Z"/>
<path clip-path="url(#TextBounds_2)" d="M288.772 77.692C288.772 78.4013 288.632 79.0827 288.352 79.736C288.072 80.3893 287.708 81.0193 287.26 81.626C286.812 82.2327 286.308 82.816 285.748 83.376C285.188 83.936 284.638 84.468 284.096 84.972C283.816 85.2333 283.513 85.5273 283.186 85.854C282.86 86.1807 282.547 86.512 282.248 86.848C281.95 87.184 281.684 87.4967 281.45 87.786C281.217 88.0753 281.072 88.3133 281.016 88.5L289.36 88.5L289.36 92L276.424 92C276.387 91.7947 276.368 91.5333 276.368 91.216C276.368 90.8987 276.368 90.6747 276.368 90.544C276.368 89.648 276.513 88.8267 276.802 88.08C277.092 87.3333 277.47 86.638 277.936 85.994C278.403 85.35 278.93 84.748 279.518 84.188C280.106 83.628 280.69 83.068 281.268 82.508C281.716 82.0787 282.136 81.6727 282.528 81.29C282.92 80.9073 283.266 80.534 283.564 80.17C283.863 79.806 284.096 79.442 284.264 79.078C284.432 78.714 284.516 78.3453 284.516 77.972C284.516 77.1507 284.283 76.572 283.816 76.236C283.35 75.9 282.771 75.732 282.08 75.732C281.576 75.732 281.105 75.8113 280.666 75.97C280.228 76.1287 279.826 76.3153 279.462 76.53C279.098 76.7447 278.786 76.9593 278.524 77.174C278.263 77.3887 278.067 77.5613 277.936 77.692L275.864 74.78C276.686 74.0147 277.642 73.3847 278.734 72.89C279.826 72.3953 280.998 72.148 282.248 72.148C283.387 72.148 284.367 72.2787 285.188 72.54C286.01 72.8013 286.686 73.17 287.218 73.646C287.75 74.122 288.142 74.7007 288.394 75.382C288.646 76.0633 288.772 76.8333 288.772 77.692Z"/>
<path clip-path="url(#TextBounds_2)" d="M303.64 88.92C303.902 88.9573 304.252 88.99 304.69 89.018C305.129 89.046 305.535 89.06 305.908 89.06C306.842 89.06 307.57 88.9433 308.092 88.71C308.615 88.4767 308.876 88.052 308.876 87.436C308.876 86.8387 308.638 86.4233 308.162 86.19C307.686 85.9567 306.991 85.84 306.076 85.84L303.64 85.84L303.64 88.92ZM305.992 83.04C306.683 83.04 307.243 82.9513 307.672 82.774C308.102 82.5967 308.316 82.2093 308.316 81.612C308.316 81.052 308.074 80.6693 307.588 80.464C307.103 80.2587 306.468 80.156 305.684 80.156C305.423 80.156 305.082 80.17 304.662 80.198C304.242 80.226 303.902 80.2587 303.64 80.296L303.64 83.04L305.992 83.04ZM305.852 92.28C305.33 92.28 304.77 92.2613 304.172 92.224C303.575 92.1867 302.987 92.1353 302.408 92.07C301.83 92.0047 301.284 91.93 300.77 91.846C300.257 91.762 299.823 91.6827 299.468 91.608L299.468 77.496C299.823 77.4213 300.257 77.3513 300.77 77.286C301.284 77.2207 301.83 77.16 302.408 77.104C302.987 77.048 303.575 77.006 304.172 76.978C304.77 76.95 305.33 76.936 305.852 76.936C307.066 76.936 308.088 77.0573 308.918 77.3C309.749 77.5427 310.421 77.86 310.934 78.252C311.448 78.644 311.816 79.0827 312.04 79.568C312.264 80.0533 312.376 80.5387 312.376 81.024C312.376 81.6773 312.218 82.2747 311.9 82.816C311.583 83.3573 311.182 83.7493 310.696 83.992C310.958 84.104 311.224 84.2627 311.494 84.468C311.765 84.6733 312.012 84.9207 312.236 85.21C312.46 85.4993 312.642 85.8447 312.782 86.246C312.922 86.6473 312.992 87.1093 312.992 87.632C312.992 88.2293 312.876 88.808 312.642 89.368C312.409 89.928 312.012 90.4227 311.452 90.852C310.892 91.2813 310.155 91.6267 309.24 91.888C308.326 92.1493 307.196 92.28 305.852 92.28Z"/>
<path clip-path="url(#TextBounds_2)" d="M321.84 89.088C322.251 89.088 322.643 89.0787 323.016 89.06C323.39 89.0413 323.688 89.0133 323.912 88.976L323.912 85.812C323.744 85.7747 323.492 85.7373 323.156 85.7C322.82 85.6627 322.512 85.644 322.232 85.644C321.84 85.644 321.472 85.6673 321.126 85.714C320.781 85.7607 320.478 85.8493 320.216 85.98C319.955 86.1107 319.75 86.288 319.6 86.512C319.451 86.736 319.376 87.016 319.376 87.352C319.376 88.0053 319.596 88.458 320.034 88.71C320.473 88.962 321.075 89.088 321.84 89.088ZM321.504 76.88C322.736 76.88 323.763 77.02 324.584 77.3C325.406 77.58 326.064 77.9813 326.558 78.504C327.053 79.0267 327.403 79.6613 327.608 80.408C327.814 81.1547 327.916 81.9853 327.916 82.9L327.916 91.58C327.319 91.7107 326.488 91.8647 325.424 92.042C324.36 92.2193 323.072 92.308 321.56 92.308C320.608 92.308 319.745 92.224 318.97 92.056C318.196 91.888 317.528 91.6127 316.968 91.23C316.408 90.8473 315.979 90.348 315.68 89.732C315.382 89.116 315.232 88.36 315.232 87.464C315.232 86.6053 315.405 85.8773 315.75 85.28C316.096 84.6827 316.558 84.2067 317.136 83.852C317.715 83.4973 318.378 83.2407 319.124 83.082C319.871 82.9233 320.646 82.844 321.448 82.844C321.99 82.844 322.47 82.8673 322.89 82.914C323.31 82.9607 323.651 83.0213 323.912 83.096L323.912 82.704C323.912 81.9947 323.698 81.4253 323.268 80.996C322.839 80.5667 322.092 80.352 321.028 80.352C320.319 80.352 319.619 80.4033 318.928 80.506C318.238 80.6087 317.64 80.7533 317.136 80.94L316.604 77.58C316.847 77.5053 317.15 77.426 317.514 77.342C317.878 77.258 318.275 77.1833 318.704 77.118C319.134 77.0527 319.586 76.9967 320.062 76.95C320.538 76.9033 321.019 76.88 321.504 76.88Z"/>
<path clip-path="url(#TextBounds_2)" d="M342.14 80.688L335.868 80.688L335.868 92L331.696 92L331.696 77.272L342.14 77.272L342.14 80.688Z"/>
<path clip-path="url(#TextBounds_2)" d="M358.156 84.608C358.156 85.7653 357.988 86.8247 357.652 87.786C357.316 88.7473 356.831 89.5687 356.196 90.25C355.562 90.9313 354.801 91.4587 353.914 91.832C353.028 92.2053 352.034 92.392 350.932 92.392C349.85 92.392 348.865 92.2053 347.978 91.832C347.092 91.4587 346.331 90.9313 345.696 90.25C345.062 89.5687 344.567 88.7473 344.212 87.786C343.858 86.8247 343.68 85.7653 343.68 84.608C343.68 83.4507 343.862 82.396 344.226 81.444C344.59 80.492 345.094 79.68 345.738 79.008C346.382 78.336 347.148 77.8133 348.034 77.44C348.921 77.0667 349.887 76.88 350.932 76.88C351.996 76.88 352.972 77.0667 353.858 77.44C354.745 77.8133 355.506 78.336 356.14 79.008C356.775 79.68 357.27 80.492 357.624 81.444C357.979 82.396 358.156 83.4507 358.156 84.608ZM353.9 84.608C353.9 83.32 353.644 82.3073 353.13 81.57C352.617 80.8327 351.884 80.464 350.932 80.464C349.98 80.464 349.243 80.8327 348.72 81.57C348.198 82.3073 347.936 83.32 347.936 84.608C347.936 85.896 348.198 86.918 348.72 87.674C349.243 88.43 349.98 88.808 350.932 88.808C351.884 88.808 352.617 88.43 353.13 87.674C353.644 86.918 353.9 85.896 353.9 84.608Z"/>
<path clip-path="url(#TextBounds_2)" d="M374.06 92L369.888 92L369.888 86.176L365.548 86.176L365.548 92L361.376 92L361.376 77.272L365.548 77.272L365.548 82.76L369.888 82.76L369.888 77.272L374.06 77.272L374.06 92Z"/>
<path clip-path="url(#TextBounds_2)" d="M391.392 77.272L391.392 92L387.192 92C387.192 91.0667 387.202 90.138 387.22 89.214C387.239 88.29 387.258 87.436 387.276 86.652C387.295 85.868 387.318 85.182 387.346 84.594C387.374 84.006 387.388 83.572 387.388 83.292C386.847 84.0573 386.306 84.832 385.764 85.616C385.223 86.4 384.705 87.17 384.21 87.926C383.716 88.682 383.249 89.4053 382.81 90.096C382.372 90.7867 381.984 91.4213 381.648 92L377.98 92L377.98 77.272L382.152 77.272C382.152 78.2053 382.148 79.0967 382.138 79.946C382.129 80.7953 382.115 81.5653 382.096 82.256C382.078 82.9467 382.059 83.5487 382.04 84.062C382.022 84.5753 382.012 84.972 382.012 85.252C383.132 83.6093 384.164 82.1347 385.106 80.828C386.049 79.5213 386.968 78.336 387.864 77.272L391.392 77.272Z"/>
</g>
<path d="M492.63 115L452.63 125L452.63 105L492.63 115Z" fill="#db2127" fill-rule="nonzero" opacity="1" stroke="none"/>
</g>
<g id="Distance">
<g opacity="1">
<path d="M19.1463 193.663L21.7447 191.066L21.7447 187.392L19.1463 184.795L14.3224 184.795L11.7254 187.392L11.7254 191.066L14.3224 193.663L19.1463 193.663" fill="#767272" fill-rule="nonzero" opacity="1" stroke="none"/>
<path d="M136.652 188.126L136.652 194.052L136.652 184.618L136.652 188.126Z" fill="#767272" fill-rule="nonzero" opacity="1" stroke="none"/>
<path d="M121.653 194.052L121.653 184.618L121.653 194.052" fill="#767272" fill-rule="nonzero" opacity="1" stroke="none"/>
<path d="M121.653 188.126L136.652 188.126L136.652 184.618L121.653 184.618L121.653 188.126" fill="#767272" fill-rule="nonzero" opacity="1" stroke="none"/>
<path d="M243.59 193.663L246.188 191.066L246.188 187.392L243.59 184.795L238.764 184.795L236.167 187.392L236.167 191.066L238.764 193.663L243.59 193.663" fill="#767272" fill-rule="nonzero" opacity="1" stroke="none"/>
<path d="M19.5405 193.663L22.1362 191.066L22.1362 187.392L19.5405 184.795L14.7152 184.795L12.1169 187.392L12.1169 191.066L14.7152 193.663L19.5405 193.663" fill="#767272" fill-rule="nonzero" opacity="1" stroke="none"/>
<path d="M181.22 180.925L181.688 180.925L181.688 179.445L179.996 179.445L179.996 180.925L180.465 180.925L180.465 183.297L129.96 183.297L129.96 181.633L133.642 181.633L133.642 181.48L143.775 181.48L143.775 180.169L133.642 180.169L133.642 180.016L129.96 180.016L129.96 179.275L128.343 179.275L128.343 180.016L124.662 180.016L124.662 180.17L114.528 180.17L114.528 181.48L124.662 181.48L124.662 181.633L128.343 181.633L128.343 183.297L77.838 183.297L77.838 180.925L78.3073 180.925L78.3073 179.445L76.6166 179.445L76.6166 180.925L77.0846 180.925L77.0846 183.297L43.8425 183.297L43.8425 178.532L214.461 178.532L214.461 183.297L181.22 183.297L181.22 180.925" fill="#767272" fill-rule="nonzero" opacity="1" stroke="none"/>
<path d="M195.632 129.976L212.855 129.976L212.855 126.867L195.632 126.867L195.632 129.976" fill="#767272" fill-rule="nonzero" opacity="1" stroke="none"/>
<path d="M43.8613 129.976L62.846 129.976L62.846 126.867L43.8613 126.867L43.8613 129.976" fill="#767272" fill-rule="nonzero" opacity="1" stroke="none"/>
<path d="M227.907 190.383L242.168 190.383L242.168 188.075L227.907 188.075L227.907 190.383" fill="#767272" fill-rule="nonzero" opacity="1" stroke="none"/>
<path d="M16.1391 190.383L30.3977 190.383L30.3977 188.075L16.1391 188.075L16.1391 190.383" fill="#767272" fill-rule="nonzero" opacity="1" stroke="none"/>
<path d="M200.784 200.142C197.823 200.142 195.423 197.745 195.423 194.786C195.423 191.824 197.823 189.425 200.784 189.425C203.742 189.425 206.142 191.824 206.142 194.786C206.142 197.745 203.742 200.142 200.784 200.142ZM194.107 189.297C192.879 190.789 192.142 192.701 192.142 194.786C192.142 199.557 196.011 203.425 200.784 203.425C205.556 203.425 209.424 199.557 209.424 194.786C209.424 192.701 208.686 190.789 207.458 189.297L194.107 189.297" fill="#767272" fill-rule="nonzero" opacity="1" stroke="none"/>
<path d="M159.719 200.142C156.761 200.142 154.363 197.745 154.363 194.786C154.363 191.824 156.761 189.425 159.719 189.425C162.681 189.425 165.081 191.824 165.081 194.786C165.081 197.745 162.681 200.142 159.719 200.142ZM153.046 189.297C151.819 190.789 151.081 192.701 151.081 194.786C151.081 199.557 154.949 203.425 159.719 203.425C164.493 203.425 168.363 199.557 168.363 194.786C168.363 192.701 167.625 190.789 166.397 189.297L153.046 189.297" fill="#767272" fill-rule="nonzero" opacity="1" stroke="none"/>
<path d="M184.283 190.176L176.222 190.176L176.222 186.142L184.283 186.142L184.283 190.176" fill="#767272" fill-rule="nonzero" opacity="1" stroke="none"/>
<path d="M185.448 198.552L175.057 198.552L175.057 194.673L185.448 194.673L185.448 198.552" fill="#767272" fill-rule="nonzero" opacity="1" stroke="none"/>
<path d="M181.482 193.492L179.023 193.492L179.023 192.261L181.482 192.261L181.482 193.492" fill="#767272" fill-rule="nonzero" opacity="1" stroke="none"/>
<path d="M177.517 193.492L175.057 193.492L175.057 192.261L177.517 192.261L177.517 193.492" fill="#767272" fill-rule="nonzero" opacity="1" stroke="none"/>
<path d="M185.448 193.492L182.987 193.492L182.987 192.261L185.448 192.261L185.448 193.492" fill="#767272" fill-rule="nonzero" opacity="1" stroke="none"/>
<path d="M174.165 198.552L169.858 198.552L169.858 192.846L174.165 192.846L174.165 198.552" fill="#767272" fill-rule="nonzero" opacity="1" stroke="none"/>
<path d="M174.814 189.731C174.814 189.976 174.616 190.176 174.369 190.176L169.654 190.176C169.407 190.176 169.209 189.976 169.209 189.731L169.209 189.731C169.209 189.486 169.407 189.287 169.654 189.287L174.369 189.287C174.616 189.287 174.814 189.486 174.814 189.731L174.814 189.731" fill="#767272" fill-rule="nonzero" opacity="1" stroke="none"/>
<path d="M174.814 191.611C174.814 191.858 174.616 192.056 174.369 192.056L169.654 192.056C169.407 192.056 169.209 191.858 169.209 191.611L169.209 191.611C169.209 191.367 169.407 191.167 169.654 191.167L174.369 191.167C174.616 191.167 174.814 191.367 174.814 191.611L174.814 191.611" fill="#767272" fill-rule="nonzero" opacity="1" stroke="none"/>
<path d="M190.647 198.552L186.339 198.552L186.339 192.846L190.647 192.846L190.647 198.552" fill="#767272" fill-rule="nonzero" opacity="1" stroke="none"/>
<path d="M191.296 189.731C191.296 189.976 191.098 190.176 190.851 190.176L186.135 190.176C185.89 190.176 185.69 189.976 185.69 189.731L185.69 189.731C185.69 189.486 185.89 189.287 186.135 189.287L190.851 189.287C191.097 189.287 191.296 189.486 191.296 189.731L191.296 189.731" fill="#767272" fill-rule="nonzero" opacity="1" stroke="none"/>
<path d="M191.296 191.611C191.296 191.858 191.098 192.056 190.851 192.056L186.135 192.056C185.89 192.056 185.69 191.858 185.69 191.611L185.69 191.611C185.69 191.367 185.89 191.167 186.135 191.167L190.851 191.167C191.097 191.167 191.296 191.367 191.296 191.611L191.296 191.611" fill="#767272" fill-rule="nonzero" opacity="1" stroke="none"/>
<path d="M211.153 188.172L149.351 188.172L149.351 184.965L211.153 184.965L211.153 188.172" fill="#767272" fill-rule="nonzero" opacity="1" stroke="none"/>
<path d="M164.402 197.358L155.041 197.358L155.041 195.406L164.402 195.406L164.402 197.358" fill="#767272" fill-rule="nonzero" opacity="1" stroke="none"/>
<path d="M205.465 197.337L196.102 197.337L196.102 195.385L205.465 195.385L205.465 197.337" fill="#767272" fill-rule="nonzero" opacity="1" stroke="none"/>
<path d="M161.43 194.792C161.43 195.736 160.666 196.502 159.72 196.502C158.776 196.502 158.011 195.736 158.011 194.792C158.011 193.848 158.776 193.083 159.72 193.083C160.666 193.083 161.43 193.848 161.43 194.792" fill="#767272" fill-rule="nonzero" opacity="1" stroke="none"/>
<path d="M202.494 194.792C202.494 195.736 201.727 196.502 200.784 196.502C199.838 196.502 199.075 195.736 199.075 194.792C199.075 193.848 199.838 193.083 200.784 193.083C201.727 193.083 202.494 193.848 202.494 194.792" fill="#767272" fill-rule="nonzero" opacity="1" stroke="none"/>
<path d="M157.45 194.755L155.489 194.755L155.489 193.776L157.45 193.776L157.45 194.755" fill="#767272" fill-rule="nonzero" opacity="1" stroke="none"/>
<path d="M157.45 193.035L155.489 193.035L155.489 192.056L157.45 192.056L157.45 193.035" fill="#767272" fill-rule="nonzero" opacity="1" stroke="none"/>
<path d="M163.953 194.755L161.992 194.755L161.992 193.776L163.953 193.776L163.953 194.755" fill="#767272" fill-rule="nonzero" opacity="1" stroke="none"/>
<path d="M163.953 193.035L161.992 193.035L161.992 192.056L163.953 192.056L163.953 193.035" fill="#767272" fill-rule="nonzero" opacity="1" stroke="none"/>
<path d="M198.513 194.755L196.551 194.755L196.551 193.776L198.513 193.776L198.513 194.755" fill="#767272" fill-rule="nonzero" opacity="1" stroke="none"/>
<path d="M198.513 193.035L196.551 193.035L196.551 192.056L198.513 192.056L198.513 193.035" fill="#767272" fill-rule="nonzero" opacity="1" stroke="none"/>
<path d="M205.016 194.755L203.053 194.755L203.053 193.776L205.016 193.776L205.016 194.755" fill="#767272" fill-rule="nonzero" opacity="1" stroke="none"/>
<path d="M205.016 193.035L203.053 193.035L203.053 192.056L205.016 192.056L205.016 193.035" fill="#767272" fill-rule="nonzero" opacity="1" stroke="none"/>
<path d="M98.5858 200.142C95.6241 200.142 93.2256 197.745 93.2256 194.786C93.2256 191.824 95.6241 189.425 98.5858 189.425C101.543 189.425 103.945 191.824 103.945 194.786C103.945 197.745 101.543 200.142 98.5858 200.142ZM91.9076 189.297C90.6809 190.789 89.9421 192.701 89.9421 194.786C89.9421 199.557 93.8115 203.425 98.5858 203.425C103.356 203.425 107.224 199.557 107.224 194.786C107.224 192.701 106.487 190.789 105.259 189.297L91.9077 189.297" fill="#767272" fill-rule="nonzero" opacity="1" stroke="none"/>
<path d="M57.522 200.142C54.563 200.142 52.1631 197.745 52.1631 194.786C52.1631 191.824 54.563 189.425 57.522 189.425C60.4823 189.425 62.8822 191.824 62.8822 194.786C62.8822 197.745 60.4823 200.142 57.522 200.142ZM50.8478 189.297C49.6197 190.789 48.881 192.701 48.881 194.786C48.881 199.557 52.749 203.425 57.522 203.425C62.2936 203.425 66.163 199.557 66.163 194.786C66.163 192.701 65.4256 190.789 64.1975 189.297L50.8478 189.297" fill="#767272" fill-rule="nonzero" opacity="1" stroke="none"/>
<path d="M82.0828 190.176L74.0223 190.176L74.0223 186.142L82.0828 186.142L82.0828 190.176" fill="#767272" fill-rule="nonzero" opacity="1" stroke="none"/>
<path d="M83.2492 198.552L72.8573 198.552L72.8573 194.673L83.2493 194.673L83.2493 198.552" fill="#767272" fill-rule="nonzero" opacity="1" stroke="none"/>
<path d="M79.282 193.492L76.8231 193.492L76.8231 192.261L79.282 192.261L79.282 193.492" fill="#767272" fill-rule="nonzero" opacity="1" stroke="none"/>
<path d="M75.3175 193.492L72.8573 193.492L72.8573 192.261L75.3175 192.261L75.3175 193.492" fill="#767272" fill-rule="nonzero" opacity="1" stroke="none"/>
<path d="M83.2492 193.492L80.7877 193.492L80.7877 192.261L83.2492 192.261L83.2492 193.492" fill="#767272" fill-rule="nonzero" opacity="1" stroke="none"/>
<path d="M71.967 198.552L67.6579 198.552L67.6579 192.846L71.967 192.846L71.967 198.552" fill="#767272" fill-rule="nonzero" opacity="1" stroke="none"/>
<path d="M72.6159 189.731C72.6159 189.976 72.4148 190.176 72.1708 190.176L67.4541 190.176C67.2074 190.176 67.009 189.976 67.009 189.731L67.009 189.731C67.009 189.486 67.2074 189.287 67.4541 189.287L72.1708 189.287C72.4148 189.287 72.6159 189.486 72.6159 189.731L72.6159 189.731" fill="#767272" fill-rule="nonzero" opacity="1" stroke="none"/>
<path d="M72.6159 191.611C72.6159 191.858 72.4148 192.056 72.1708 192.056L67.4541 192.056C67.2074 192.056 67.009 191.858 67.009 191.611L67.009 191.611C67.009 191.367 67.2074 191.167 67.4541 191.167L72.1708 191.167C72.4148 191.167 72.6159 191.367 72.6159 191.611L72.6159 191.611" fill="#767272" fill-rule="nonzero" opacity="1" stroke="none"/>
<path d="M88.4472 198.552L84.1395 198.552L84.1395 192.846L88.4472 192.846L88.4472 198.552" fill="#767272" fill-rule="nonzero" opacity="1" stroke="none"/>
<path d="M89.0975 189.731C89.0975 189.976 88.8977 190.176 88.6524 190.176L83.9357 190.176C83.689 190.176 83.4906 189.976 83.4906 189.731L83.4906 189.731C83.4906 189.486 83.689 189.287 83.9357 189.287L88.6524 189.287C88.8977 189.287 89.0975 189.486 89.0975 189.731L89.0975 189.731" fill="#767272" fill-rule="nonzero" opacity="1" stroke="none"/>
<path d="M89.0975 191.611C89.0975 191.858 88.8977 192.056 88.6524 192.056L83.9357 192.056C83.689 192.056 83.4906 191.858 83.4906 191.611L83.4906 191.611C83.4906 191.367 83.689 191.167 83.9357 191.167L88.6524 191.167C88.8977 191.167 89.0975 191.367 89.0975 191.611L89.0975 191.611" fill="#767272" fill-rule="nonzero" opacity="1" stroke="none"/>
<path d="M108.954 188.172L47.1515 188.172L47.1515 184.965L108.954 184.965L108.954 188.172" fill="#767272" fill-rule="nonzero" opacity="1" stroke="none"/>
<path d="M62.2038 197.358L52.8415 197.358L52.8415 195.406L62.2038 195.406L62.2038 197.358" fill="#767272" fill-rule="nonzero" opacity="1" stroke="none"/>
<path d="M103.266 197.337L93.904 197.337L93.904 195.385L103.266 195.385L103.266 197.337" fill="#767272" fill-rule="nonzero" opacity="1" stroke="none"/>
<path d="M59.2314 194.792C59.2314 195.736 58.4672 196.502 57.522 196.502C56.5795 196.502 55.8112 195.736 55.8112 194.792C55.8112 193.848 56.5795 193.083 57.522 193.083C58.4672 193.083 59.2314 193.848 59.2314 194.792" fill="#767272" fill-rule="nonzero" opacity="1" stroke="none"/>
<path d="M100.294 194.792C100.294 195.736 99.5284 196.502 98.5858 196.502C97.6406 196.502 96.8751 195.736 96.8751 194.792C96.8751 193.848 97.6406 193.083 98.5858 193.083C99.5284 193.083 100.294 193.848 100.294 194.792" fill="#767272" fill-rule="nonzero" opacity="1" stroke="none"/>
<path d="M55.2508 194.755L53.2907 194.755L53.2907 193.776L55.2508 193.776L55.2508 194.755" fill="#767272" fill-rule="nonzero" opacity="1" stroke="none"/>
<path d="M55.2508 193.035L53.2907 193.035L53.2907 192.056L55.2508 192.056L55.2508 193.035" fill="#767272" fill-rule="nonzero" opacity="1" stroke="none"/>
<path d="M61.7533 194.755L59.7919 194.755L59.7919 193.776L61.7533 193.776L61.7533 194.755" fill="#767272" fill-rule="nonzero" opacity="1" stroke="none"/>
<path d="M61.7533 193.035L59.7919 193.035L59.7919 192.056L61.7533 192.056L61.7533 193.035" fill="#767272" fill-rule="nonzero" opacity="1" stroke="none"/>
<path d="M96.3133 194.755L94.3532 194.755L94.3532 193.776L96.3133 193.776L96.3133 194.755" fill="#767272" fill-rule="nonzero" opacity="1" stroke="none"/>
<path d="M96.3133 193.035L94.3532 193.035L94.3532 192.056L96.3133 192.056L96.3133 193.035" fill="#767272" fill-rule="nonzero" opacity="1" stroke="none"/>
<path d="M102.816 194.755L100.853 194.755L100.853 193.776L102.816 193.776L102.816 194.755" fill="#767272" fill-rule="nonzero" opacity="1" stroke="none"/>
<path d="M102.816 193.035L100.853 193.035L100.853 192.056L102.816 192.056L102.816 193.035" fill="#767272" fill-rule="nonzero" opacity="1" stroke="none"/>
<path d="M34.9012 132.215L223.404 132.215L223.404 128.916L34.9012 128.916L34.9012 132.215" fill="#767272" fill-rule="nonzero" opacity="1" stroke="none"/>
<path d="M41.8972 156.245C41.8972 157.619 40.7817 158.732 39.4088 158.732L35.5019 158.732C34.1276 158.732 33.0148 157.619 33.0148 156.245L33.0148 149.795C33.0148 148.422 34.1276 147.308 35.5019 147.308L39.4088 147.308C40.7817 147.308 41.8972 148.422 41.8972 149.795L41.8972 156.245ZM31.4649 146.015L31.4649 174.436L43.4457 174.436L43.4457 146.015L31.4649 146.015" fill="#767272" fill-rule="nonzero" opacity="1" stroke="none"/>
<path d="M225.291 156.245C225.291 157.619 224.177 158.732 222.802 158.732L218.896 158.732C217.523 158.732 216.408 157.619 216.408 156.245L216.408 149.795C216.408 148.422 217.523 147.308 218.896 147.308L222.802 147.308C224.177 147.308 225.291 148.422 225.291 149.795L225.291 156.245ZM214.861 146.015L214.861 174.436L226.84 174.436L226.84 146.015L214.861 146.015" fill="#767272" fill-rule="nonzero" opacity="1" stroke="none"/>
<path d="M232.762 164.304L230.791 164.304L230.791 162.37L232.762 162.37L232.762 164.304ZM228.498 176.095L213.201 176.095L213.201 144.355L228.498 144.355L228.498 176.095ZM211.53 164.304L46.7761 164.304L46.7761 162.37L211.53 162.37L211.53 164.304ZM139.994 167.771L118.312 167.771C117.835 167.771 117.447 167.385 117.447 166.907C117.447 166.428 117.835 166.04 118.312 166.04L139.994 166.04C140.47 166.04 140.858 166.428 140.858 166.907C140.858 167.385 140.47 167.771 139.994 167.771ZM139.994 171.283L118.312 171.283C117.835 171.283 117.447 170.895 117.447 170.418C117.447 169.941 117.835 169.553 118.312 169.553L139.994 169.553C140.47 169.553 140.858 169.941 140.858 170.418C140.858 170.895 140.47 171.283 139.994 171.283ZM139.994 174.795L118.312 174.795C117.835 174.795 117.447 174.408 117.447 173.929C117.447 173.452 117.835 173.065 118.312 173.065L139.994 173.065C140.47 173.065 140.858 173.452 140.858 173.929C140.858 174.408 140.47 174.795 139.994 174.795ZM45.1028 176.095L29.8065 176.095L29.8065 144.355L45.1028 144.355L45.1028 176.095ZM27.5152 164.304L25.5443 164.304L25.5443 162.37L27.5152 162.37L27.5152 164.304ZM51.1388 147.156C51.1388 145.782 52.2516 144.669 53.6272 144.669L61.0508 144.669C62.4237 144.669 63.5392 145.782 63.5392 147.156L63.5392 156.245C63.5392 157.619 62.4237 158.732 61.0508 158.732L53.6272 158.732C52.2516 158.732 51.1388 157.619 51.1388 156.245L51.1388 147.156ZM72.4389 147.156C72.4389 145.782 73.5517 144.669 74.9247 144.669L87.6267 144.669C89.001 144.669 90.1124 145.782 90.1124 147.156L90.1124 156.245C90.1124 157.619 89.001 158.732 87.6267 158.732L74.9247 158.732C73.5517 158.732 72.4389 157.619 72.4389 156.245L72.4389 147.156ZM96.375 147.156C96.375 145.782 97.4905 144.669 98.8647 144.669L111.564 144.669C112.938 144.669 114.054 145.782 114.054 147.156L114.054 156.245C114.054 157.619 112.938 158.732 111.564 158.732L98.8647 158.732C97.4905 158.732 96.375 157.619 96.375 156.245L96.375 147.156ZM120.315 147.156C120.315 145.782 121.428 144.669 122.801 144.669L135.504 144.669C136.877 144.669 137.99 145.782 137.99 147.156L137.99 156.245C137.99 157.619 136.877 158.732 135.504 158.732L122.801 158.732C121.428 158.732 120.315 157.619 120.315 156.245L120.315 147.156ZM144.252 147.156C144.252 145.782 145.367 144.669 146.741 144.669L159.44 144.669C160.814 144.669 161.929 145.782 161.929 147.156L161.929 156.245C161.929 157.619 160.814 158.732 159.44 158.732L146.741 158.732C145.367 158.732 144.252 157.619 144.252 156.245L144.252 147.156ZM168.191 147.156C168.191 145.782 169.305 144.669 170.678 144.669L183.379 144.669C184.752 144.669 185.866 145.782 185.866 147.156L185.866 156.245C185.866 157.619 184.752 158.732 183.379 158.732L170.678 158.732C169.305 158.732 168.191 157.619 168.191 156.245L168.191 147.156ZM194.767 147.156C194.767 145.782 195.88 144.669 197.254 144.669L204.679 144.669C206.053 144.669 207.166 145.782 207.166 147.156L207.166 156.245C207.166 157.619 206.053 158.732 204.679 158.732L197.254 158.732C195.88 158.732 194.767 157.619 194.767 156.245L194.767 147.156ZM226.978 130.082L224.724 130.082L224.724 133.534L33.582 133.534L33.582 130.082L31.3269 130.082C27.2215 130.082 22.9165 132.007 22.9165 136.441L22.9165 158.42L22.9165 177.083L235.387 177.083L235.387 158.42L235.387 136.441C235.387 133.026 231.082 130.082 226.978 130.082" fill="#767272" fill-rule="nonzero" opacity="1" stroke="none"/>
<path d="M21.317 177.083L17.4959 177.083L17.4959 135.06L21.317 135.06L21.317 177.083" fill="#767272" fill-rule="nonzero" opacity="1" stroke="none"/>
<path d="M240.809 177.083L236.988 177.083L236.988 135.06L240.809 135.06L240.809 177.083" fill="#767272" fill-rule="nonzero" opacity="1" stroke="none"/>
<path d="M31.4649 183.297L24.7801 183.297L24.7801 178.532L31.4649 178.532L31.4649 183.297" fill="#767272" fill-rule="nonzero" opacity="1" stroke="none"/>
<path d="M30.3977 188.172L25.8473 188.172L25.8473 184.965L30.3977 184.965L30.3977 188.172" fill="#767272" fill-rule="nonzero" opacity="1" stroke="none"/>
<path d="M232.456 188.172L227.907 188.172L227.907 184.965L232.456 184.965L232.456 188.172" fill="#767272" fill-rule="nonzero" opacity="1" stroke="none"/>
<path d="M233.525 183.297L226.84 183.297L226.84 178.532L233.525 178.532L233.525 183.297" fill="#767272" fill-rule="nonzero" opacity="1" stroke="none"/>
<path d="M41.9669 179.584L32.9411 179.584L32.9411 178.532L41.9669 178.532L41.9669 179.584" fill="#767272" fill-rule="nonzero" opacity="1" stroke="none"/>
<path d="M41.9669 183.918L32.9411 183.918L32.9411 182.865L41.9669 182.865L41.9669 183.918" fill="#767272" fill-rule="nonzero" opacity="1" stroke="none"/>
<path d="M32.9411 192.583L32.9411 178.532L33.9949 178.532L33.9949 192.583L32.9411 192.583" fill="#767272" fill-rule="nonzero" opacity="1" stroke="none"/>
<path d="M40.9157 192.583L40.9157 178.532L41.9669 178.532L41.9669 192.583L40.9157 192.583" fill="#767272" fill-rule="nonzero" opacity="1" stroke="none"/>
<path d="M41.9669 188.251L32.9411 188.251L32.9411 187.198L41.9669 187.198L41.9669 188.251" fill="#767272" fill-rule="nonzero" opacity="1" stroke="none"/>
<path d="M41.9669 192.583L32.9411 192.583L32.9411 191.53L41.9669 191.53L41.9669 192.583" fill="#767272" fill-rule="nonzero" opacity="1" stroke="none"/>
<path d="M225.362 179.584L216.338 179.584L216.338 178.532L225.362 178.532L225.362 179.584" fill="#767272" fill-rule="nonzero" opacity="1" stroke="none"/>
<path d="M225.362 183.918L216.338 183.918L216.338 182.865L225.362 182.865L225.362 183.918" fill="#767272" fill-rule="nonzero" opacity="1" stroke="none"/>
<path d="M216.338 192.583L216.338 178.532L217.389 178.532L217.389 192.583L216.338 192.583" fill="#767272" fill-rule="nonzero" opacity="1" stroke="none"/>
<path d="M224.31 192.583L224.31 178.532L225.362 178.532L225.362 192.583L224.31 192.583" fill="#767272" fill-rule="nonzero" opacity="1" stroke="none"/>
<path d="M225.362 188.251L216.338 188.251L216.338 187.198L225.362 187.198L225.362 188.251" fill="#767272" fill-rule="nonzero" opacity="1" stroke="none"/>
<path d="M225.362 192.583L216.338 192.583L216.338 191.53L225.362 191.53L225.362 192.583" fill="#767272" fill-rule="nonzero" opacity="1" stroke="none"/>
<path d="M209.945 150.206L48.3595 150.206L48.3595 148.513L209.945 148.513L209.945 150.206" fill="#767272" fill-rule="nonzero" opacity="1" stroke="none"/>
<path d="M121.653 194.052L110.729 194.052L110.729 184.618L121.653 184.618L121.653 194.052" fill="#767272" fill-rule="nonzero" opacity="1" stroke="none"/>
<path d="M147.576 194.005L136.652 194.005L136.652 184.618L147.576 184.618L147.576 194.005" fill="#767272" fill-rule="nonzero" opacity="1" stroke="none"/>
</g>
<g opacity="1">
<path d="M251.327 193.663L253.925 191.066L253.925 187.392L251.327 184.795L246.503 184.795L243.906 187.392L243.906 191.066L246.503 193.663L251.327 193.663" fill="#767272" fill-rule="nonzero" opacity="1" stroke="none"/>
<path d="M368.832 188.126L368.832 194.052L368.832 184.618L368.832 188.126Z" fill="#767272" fill-rule="nonzero" opacity="1" stroke="none"/>
<path d="M353.833 194.052L353.833 184.618L353.833 194.052" fill="#767272" fill-rule="nonzero" opacity="1" stroke="none"/>
<path d="M353.833 188.126L368.832 188.126L368.832 184.618L353.833 184.618L353.833 188.126" fill="#767272" fill-rule="nonzero" opacity="1" stroke="none"/>
<path d="M475.77 193.663L478.368 191.066L478.368 187.392L475.77 184.795L470.945 184.795L468.348 187.392L468.348 191.066L470.945 193.663L475.77 193.663" fill="#767272" fill-rule="nonzero" opacity="1" stroke="none"/>
<path d="M251.721 193.663L254.317 191.066L254.317 187.392L251.721 184.795L246.896 184.795L244.297 187.392L244.297 191.066L246.896 193.663L251.721 193.663" fill="#767272" fill-rule="nonzero" opacity="1" stroke="none"/>
<path d="M413.401 180.925L413.869 180.925L413.869 179.445L412.177 179.445L412.177 180.925L412.646 180.925L412.646 183.297L362.141 183.297L362.141 181.633L365.822 181.633L365.822 181.48L375.955 181.48L375.955 180.169L365.822 180.169L365.822 180.016L362.141 180.016L362.141 179.275L360.524 179.275L360.524 180.016L356.842 180.016L356.842 180.17L346.709 180.17L346.709 181.48L356.842 181.48L356.842 181.633L360.524 181.633L360.524 183.297L310.018 183.297L310.018 180.925L310.488 180.925L310.488 179.445L308.797 179.445L308.797 180.925L309.265 180.925L309.265 183.297L276.023 183.297L276.023 178.532L446.641 178.532L446.641 183.297L413.401 183.297L413.401 180.925" fill="#767272" fill-rule="nonzero" opacity="1" stroke="none"/>
<path d="M427.812 129.976L445.035 129.976L445.035 126.867L427.812 126.867L427.812 129.976" fill="#767272" fill-rule="nonzero" opacity="1" stroke="none"/>
<path d="M276.042 129.976L295.026 129.976L295.026 126.867L276.042 126.867L276.042 129.976" fill="#767272" fill-rule="nonzero" opacity="1" stroke="none"/>
<path d="M460.087 190.383L474.349 190.383L474.349 188.075L460.087 188.075L460.087 190.383" fill="#767272" fill-rule="nonzero" opacity="1" stroke="none"/>
<path d="M248.319 190.383L262.578 190.383L262.578 188.075L248.319 188.075L248.319 190.383" fill="#767272" fill-rule="nonzero" opacity="1" stroke="none"/>
<path d="M432.965 200.142C430.003 200.142 427.603 197.745 427.603 194.786C427.603 191.824 430.003 189.425 432.965 189.425C435.922 189.425 438.322 191.824 438.322 194.786C438.322 197.745 435.922 200.142 432.965 200.142ZM426.288 189.297C425.06 190.789 424.322 192.701 424.322 194.786C424.322 199.557 428.192 203.425 432.965 203.425C437.736 203.425 441.604 199.557 441.604 194.786C441.604 192.701 440.867 190.789 439.639 189.297L426.288 189.297" fill="#767272" fill-rule="nonzero" opacity="1" stroke="none"/>
<path d="M391.899 200.142C388.942 200.142 386.543 197.745 386.543 194.786C386.543 191.824 388.942 189.425 391.899 189.425C394.861 189.425 397.261 191.824 397.261 194.786C397.261 197.745 394.861 200.142 391.899 200.142ZM385.227 189.297C384 190.789 383.261 192.701 383.261 194.786C383.261 199.557 387.129 203.425 391.899 203.425C396.674 203.425 400.543 199.557 400.543 194.786C400.543 192.701 399.806 190.789 398.578 189.297L385.227 189.297" fill="#767272" fill-rule="nonzero" opacity="1" stroke="none"/>
<path d="M416.463 190.176L408.402 190.176L408.402 186.142L416.463 186.142L416.463 190.176" fill="#767272" fill-rule="nonzero" opacity="1" stroke="none"/>
<path d="M417.628 198.552L407.237 198.552L407.237 194.673L417.628 194.673L417.628 198.552" fill="#767272" fill-rule="nonzero" opacity="1" stroke="none"/>
<path d="M413.662 193.492L411.203 193.492L411.203 192.261L413.662 192.261L413.662 193.492" fill="#767272" fill-rule="nonzero" opacity="1" stroke="none"/>
<path d="M409.698 193.492L407.237 193.492L407.237 192.261L409.698 192.261L409.698 193.492" fill="#767272" fill-rule="nonzero" opacity="1" stroke="none"/>
<path d="M417.628 193.492L415.168 193.492L415.168 192.261L417.628 192.261L417.628 193.492" fill="#767272" fill-rule="nonzero" opacity="1" stroke="none"/>
<path d="M406.346 198.552L402.038 198.552L402.038 192.846L406.346 192.846L406.346 198.552" fill="#767272" fill-rule="nonzero" opacity="1" stroke="none"/>
<path d="M406.995 189.731C406.995 189.976 406.796 190.176 406.549 190.176L401.834 190.176C401.588 190.176 401.389 189.976 401.389 189.731L401.389 189.731C401.389 189.486 401.587 189.287 401.834 189.287L406.549 189.287C406.796 189.287 406.995 189.486 406.995 189.731L406.995 189.731" fill="#767272" fill-rule="nonzero" opacity="1" stroke="none"/>
<path d="M406.995 191.611C406.995 191.858 406.796 192.056 406.549 192.056L401.834 192.056C401.588 192.056 401.389 191.858 401.389 191.611L401.389 191.611C401.389 191.367 401.587 191.167 401.834 191.167L406.549 191.167C406.796 191.167 406.995 191.367 406.995 191.611L406.995 191.611" fill="#767272" fill-rule="nonzero" opacity="1" stroke="none"/>
<path d="M422.827 198.552L418.52 198.552L418.52 192.846L422.827 192.846L422.827 198.552" fill="#767272" fill-rule="nonzero" opacity="1" stroke="none"/>
<path d="M423.476 189.731C423.476 189.976 423.278 190.176 423.031 190.176L418.316 190.176C418.07 190.176 417.871 189.976 417.871 189.731L417.871 189.731C417.871 189.486 418.071 189.287 418.316 189.287L423.031 189.287C423.278 189.287 423.476 189.486 423.476 189.731L423.476 189.731" fill="#767272" fill-rule="nonzero" opacity="1" stroke="none"/>
<path d="M423.476 191.611C423.476 191.858 423.278 192.056 423.031 192.056L418.316 192.056C418.07 192.056 417.871 191.858 417.871 191.611L417.871 191.611C417.871 191.367 418.071 191.167 418.316 191.167L423.031 191.167C423.278 191.167 423.476 191.367 423.476 191.611L423.476 191.611" fill="#767272" fill-rule="nonzero" opacity="1" stroke="none"/>
<path d="M443.334 188.172L381.531 188.172L381.531 184.965L443.334 184.965L443.334 188.172" fill="#767272" fill-rule="nonzero" opacity="1" stroke="none"/>
<path d="M396.583 197.358L387.222 197.358L387.222 195.406L396.583 195.406L396.583 197.358" fill="#767272" fill-rule="nonzero" opacity="1" stroke="none"/>
<path d="M437.645 197.337L428.283 197.337L428.283 195.385L437.645 195.385L437.645 197.337" fill="#767272" fill-rule="nonzero" opacity="1" stroke="none"/>
<path d="M393.61 194.792C393.61 195.736 392.846 196.502 391.901 196.502C390.957 196.502 390.191 195.736 390.191 194.792C390.191 193.848 390.957 193.083 391.901 193.083C392.846 193.083 393.61 193.848 393.61 194.792" fill="#767272" fill-rule="nonzero" opacity="1" stroke="none"/>
<path d="M434.674 194.792C434.674 195.736 433.907 196.502 432.965 196.502C432.018 196.502 431.255 195.736 431.255 194.792C431.255 193.848 432.018 193.083 432.965 193.083C433.907 193.083 434.674 193.848 434.674 194.792" fill="#767272" fill-rule="nonzero" opacity="1" stroke="none"/>
<path d="M389.631 194.755L387.669 194.755L387.669 193.776L389.631 193.776L389.631 194.755" fill="#767272" fill-rule="nonzero" opacity="1" stroke="none"/>
<path d="M389.631 193.035L387.669 193.035L387.669 192.056L389.631 192.056L389.631 193.035" fill="#767272" fill-rule="nonzero" opacity="1" stroke="none"/>
<path d="M396.133 194.755L394.172 194.755L394.172 193.776L396.133 193.776L396.133 194.755" fill="#767272" fill-rule="nonzero" opacity="1" stroke="none"/>
<path d="M396.133 193.035L394.172 193.035L394.172 192.056L396.133 192.056L396.133 193.035" fill="#767272" fill-rule="nonzero" opacity="1" stroke="none"/>
<path d="M430.693 194.755L428.732 194.755L428.732 193.776L430.693 193.776L430.693 194.755" fill="#767272" fill-rule="nonzero" opacity="1" stroke="none"/>
<path d="M430.693 193.035L428.732 193.035L428.732 192.056L430.693 192.056L430.693 193.035" fill="#767272" fill-rule="nonzero" opacity="1" stroke="none"/>
<path d="M437.196 194.755L435.233 194.755L435.233 193.776L437.196 193.776L437.196 194.755" fill="#767272" fill-rule="nonzero" opacity="1" stroke="none"/>
<path d="M437.196 193.035L435.233 193.035L435.233 192.056L437.196 192.056L437.196 193.035" fill="#767272" fill-rule="nonzero" opacity="1" stroke="none"/>
<path d="M330.766 200.142C327.804 200.142 325.406 197.745 325.406 194.786C325.406 191.824 327.804 189.425 330.766 189.425C333.724 189.425 336.125 191.824 336.125 194.786C336.125 197.745 333.724 200.142 330.766 200.142ZM324.088 189.297C322.861 190.789 322.122 192.701 322.122 194.786C322.122 199.557 325.992 203.425 330.766 203.425C335.536 203.425 339.404 199.557 339.404 194.786C339.404 192.701 338.667 190.789 337.439 189.297L324.088 189.297" fill="#767272" fill-rule="nonzero" opacity="1" stroke="none"/>
<path d="M289.702 200.142C286.743 200.142 284.343 197.745 284.343 194.786C284.343 191.824 286.743 189.425 289.702 189.425C292.663 189.425 295.063 191.824 295.063 194.786C295.063 197.745 292.663 200.142 289.702 200.142ZM283.028 189.297C281.8 190.789 281.061 192.701 281.061 194.786C281.061 199.557 284.929 203.425 289.702 203.425C294.474 203.425 298.343 199.557 298.343 194.786C298.343 192.701 297.606 190.789 296.378 189.297L283.028 189.297" fill="#767272" fill-rule="nonzero" opacity="1" stroke="none"/>
<path d="M314.263 190.176L306.203 190.176L306.203 186.142L314.263 186.142L314.263 190.176" fill="#767272" fill-rule="nonzero" opacity="1" stroke="none"/>
<path d="M315.43 198.552L305.038 198.552L305.038 194.673L315.43 194.673L315.43 198.552" fill="#767272" fill-rule="nonzero" opacity="1" stroke="none"/>
<path d="M311.462 193.492L309.003 193.492L309.003 192.261L311.462 192.261L311.462 193.492" fill="#767272" fill-rule="nonzero" opacity="1" stroke="none"/>
<path d="M307.498 193.492L305.038 193.492L305.038 192.261L307.498 192.261L307.498 193.492" fill="#767272" fill-rule="nonzero" opacity="1" stroke="none"/>
<path d="M315.43 193.492L312.968 193.492L312.968 192.261L315.43 192.261L315.43 193.492" fill="#767272" fill-rule="nonzero" opacity="1" stroke="none"/>
<path d="M304.147 198.552L299.838 198.552L299.838 192.846L304.147 192.846L304.147 198.552" fill="#767272" fill-rule="nonzero" opacity="1" stroke="none"/>
<path d="M304.796 189.731C304.796 189.976 304.595 190.176 304.351 190.176L299.634 190.176C299.388 190.176 299.189 189.976 299.189 189.731L299.189 189.731C299.189 189.486 299.388 189.287 299.634 189.287L304.351 189.287C304.595 189.287 304.796 189.486 304.796 189.731L304.796 189.731" fill="#767272" fill-rule="nonzero" opacity="1" stroke="none"/>
<path d="M304.796 191.611C304.796 191.858 304.595 192.056 304.351 192.056L299.634 192.056C299.388 192.056 299.189 191.858 299.189 191.611L299.189 191.611C299.189 191.367 299.388 191.167 299.634 191.167L304.351 191.167C304.595 191.167 304.796 191.367 304.796 191.611L304.796 191.611" fill="#767272" fill-rule="nonzero" opacity="1" stroke="none"/>
<path d="M320.628 198.552L316.32 198.552L316.32 192.846L320.628 192.846L320.628 198.552" fill="#767272" fill-rule="nonzero" opacity="1" stroke="none"/>
<path d="M321.278 189.731C321.278 189.976 321.078 190.176 320.833 190.176L316.116 190.176C315.869 190.176 315.671 189.976 315.671 189.731L315.671 189.731C315.671 189.486 315.869 189.287 316.116 189.287L320.833 189.287C321.078 189.287 321.278 189.486 321.278 189.731L321.278 189.731" fill="#767272" fill-rule="nonzero" opacity="1" stroke="none"/>
<path d="M321.278 191.611C321.278 191.858 321.078 192.056 320.833 192.056L316.116 192.056C315.869 192.056 315.671 191.858 315.671 191.611L315.671 191.611C315.671 191.367 315.869 191.167 316.116 191.167L320.833 191.167C321.078 191.167 321.278 191.367 321.278 191.611L321.278 191.611" fill="#767272" fill-rule="nonzero" opacity="1" stroke="none"/>
<path d="M341.134 188.172L279.332 188.172L279.332 184.965L341.134 184.965L341.134 188.172" fill="#767272" fill-rule="nonzero" opacity="1" stroke="none"/>
<path d="M294.384 197.358L285.022 197.358L285.022 195.406L294.384 195.406L294.384 197.358" fill="#767272" fill-rule="nonzero" opacity="1" stroke="none"/>
<path d="M335.447 197.337L326.084 197.337L326.084 195.385L335.447 195.385L335.447 197.337" fill="#767272" fill-rule="nonzero" opacity="1" stroke="none"/>
<path d="M291.412 194.792C291.412 195.736 290.648 196.502 289.702 196.502C288.76 196.502 287.992 195.736 287.992 194.792C287.992 193.848 288.76 193.083 289.702 193.083C290.648 193.083 291.412 193.848 291.412 194.792" fill="#767272" fill-rule="nonzero" opacity="1" stroke="none"/>
<path d="M332.474 194.792C332.474 195.736 331.709 196.502 330.766 196.502C329.821 196.502 329.055 195.736 329.055 194.792C329.055 193.848 329.821 193.083 330.766 193.083C331.709 193.083 332.474 193.848 332.474 194.792" fill="#767272" fill-rule="nonzero" opacity="1" stroke="none"/>
<path d="M287.431 194.755L285.471 194.755L285.471 193.776L287.431 193.776L287.431 194.755" fill="#767272" fill-rule="nonzero" opacity="1" stroke="none"/>
<path d="M287.431 193.035L285.471 193.035L285.471 192.056L287.431 192.056L287.431 193.035" fill="#767272" fill-rule="nonzero" opacity="1" stroke="none"/>
<path d="M293.934 194.755L291.972 194.755L291.972 193.776L293.934 193.776L293.934 194.755" fill="#767272" fill-rule="nonzero" opacity="1" stroke="none"/>
<path d="M293.934 193.035L291.972 193.035L291.972 192.056L293.934 192.056L293.934 193.035" fill="#767272" fill-rule="nonzero" opacity="1" stroke="none"/>
<path d="M328.494 194.755L326.534 194.755L326.534 193.776L328.494 193.776L328.494 194.755" fill="#767272" fill-rule="nonzero" opacity="1" stroke="none"/>
<path d="M328.494 193.035L326.534 193.035L326.534 192.056L328.494 192.056L328.494 193.035" fill="#767272" fill-rule="nonzero" opacity="1" stroke="none"/>
<path d="M334.996 194.755L333.033 194.755L333.033 193.776L334.996 193.776L334.996 194.755" fill="#767272" fill-rule="nonzero" opacity="1" stroke="none"/>
<path d="M334.996 193.035L333.033 193.035L333.033 192.056L334.996 192.056L334.996 193.035" fill="#767272" fill-rule="nonzero" opacity="1" stroke="none"/>
<path d="M267.082 132.215L455.584 132.215L455.584 128.916L267.082 128.916L267.082 132.215" fill="#767272" fill-rule="nonzero" opacity="1" stroke="none"/>
<path d="M274.078 156.245C274.078 157.619 272.962 158.732 271.589 158.732L267.682 158.732C266.308 158.732 265.195 157.619 265.195 156.245L265.195 149.795C265.195 148.422 266.308 147.308 267.682 147.308L271.589 147.308C272.962 147.308 274.078 148.422 274.078 149.795L274.078 156.245ZM263.645 146.015L263.645 174.436L275.626 174.436L275.626 146.015L263.645 146.015" fill="#767272" fill-rule="nonzero" opacity="1" stroke="none"/>
<path d="M457.472 156.245C457.472 157.619 456.358 158.732 454.982 158.732L451.076 158.732C449.704 158.732 448.588 157.619 448.588 156.245L448.588 149.795C448.588 148.422 449.704 147.308 451.076 147.308L454.982 147.308C456.358 147.308 457.472 148.422 457.472 149.795L457.472 156.245ZM447.041 146.015L447.041 174.436L459.02 174.436L459.02 146.015L447.041 146.015" fill="#767272" fill-rule="nonzero" opacity="1" stroke="none"/>
<path d="M464.942 164.304L462.971 164.304L462.971 162.37L464.942 162.37L464.942 164.304ZM460.679 176.095L445.381 176.095L445.381 144.355L460.679 144.355L460.679 176.095ZM443.71 164.304L278.956 164.304L278.956 162.37L443.711 162.37L443.71 164.304ZM372.175 167.771L350.492 167.771C350.015 167.771 349.628 167.385 349.628 166.907C349.628 166.428 350.015 166.04 350.492 166.04L372.175 166.04C372.651 166.04 373.038 166.428 373.038 166.907C373.038 167.385 372.651 167.771 372.175 167.771ZM372.175 171.283L350.492 171.283C350.015 171.283 349.628 170.895 349.628 170.418C349.628 169.941 350.015 169.553 350.492 169.553L372.175 169.553C372.651 169.553 373.038 169.941 373.038 170.418C373.038 170.895 372.651 171.283 372.175 171.283ZM372.175 174.795L350.492 174.795C350.015 174.795 349.628 174.408 349.628 173.929C349.628 173.452 350.015 173.065 350.492 173.065L372.175 173.065C372.651 173.065 373.038 173.452 373.038 173.929C373.038 174.408 372.651 174.795 372.175 174.795ZM277.283 176.095L261.987 176.095L261.987 144.355L277.283 144.355L277.283 176.095ZM259.696 164.304L257.725 164.304L257.725 162.37L259.696 162.37L259.696 164.304ZM283.319 147.156C283.319 145.782 284.432 144.669 285.808 144.669L293.231 144.669C294.604 144.669 295.72 145.782 295.72 147.156L295.72 156.245C295.72 157.619 294.604 158.732 293.231 158.732L285.808 158.732C284.432 158.732 283.319 157.619 283.319 156.245L283.319 147.156ZM304.619 147.156C304.619 145.782 305.732 144.669 307.105 144.669L319.807 144.669C321.181 144.669 322.293 145.782 322.293 147.156L322.293 156.245C322.293 157.619 321.181 158.732 319.807 158.732L307.105 158.732C305.732 158.732 304.619 157.619 304.619 156.245L304.619 147.156ZM328.555 147.156C328.555 145.782 329.671 144.669 331.045 144.669L343.744 144.669C345.119 144.669 346.234 145.782 346.234 147.156L346.234 156.245C346.234 157.619 345.119 158.732 343.744 158.732L331.045 158.732C329.671 158.732 328.555 157.619 328.555 156.245L328.555 147.156ZM352.495 147.156C352.495 145.782 353.608 144.669 354.981 144.669L367.684 144.669C369.057 144.669 370.17 145.782 370.17 147.156L370.17 156.245C370.17 157.619 369.057 158.732 367.684 158.732L354.981 158.732C353.608 158.732 352.495 157.619 352.495 156.245L352.495 147.156ZM376.433 147.156C376.433 145.782 377.547 144.669 378.921 144.669L391.621 144.669C392.995 144.669 394.109 145.782 394.109 147.156L394.109 156.245C394.109 157.619 392.995 158.732 391.621 158.732L378.921 158.732C377.547 158.732 376.433 157.619 376.433 156.245L376.433 147.156ZM400.371 147.156C400.371 145.782 401.486 144.669 402.858 144.669L415.559 144.669C416.932 144.669 418.046 145.782 418.046 147.156L418.046 156.245C418.046 157.619 416.932 158.732 415.559 158.732L402.858 158.732C401.486 158.732 400.371 157.619 400.371 156.245L400.371 147.156ZM426.947 147.156C426.947 145.782 428.06 144.669 429.434 144.669L436.859 144.669C438.234 144.669 439.346 145.782 439.346 147.156L439.346 156.245C439.346 157.619 438.234 158.732 436.859 158.732L429.434 158.732C428.06 158.732 426.947 157.619 426.947 156.245L426.947 147.156ZM459.158 130.082L456.905 130.082L456.905 133.534L265.762 133.534L265.762 130.082L263.507 130.082C259.402 130.082 255.097 132.007 255.097 136.441L255.097 158.42L255.097 177.083L467.567 177.083L467.567 158.42L467.567 136.441C467.567 133.026 463.262 130.082 459.158 130.082" fill="#767272" fill-rule="nonzero" opacity="1" stroke="none"/>
<path d="M253.497 177.083L249.676 177.083L249.676 135.06L253.497 135.06L253.497 177.083" fill="#767272" fill-rule="nonzero" opacity="1" stroke="none"/>
<path d="M472.989 177.083L469.168 177.083L469.168 135.06L472.989 135.06L472.989 177.083" fill="#767272" fill-rule="nonzero" opacity="1" stroke="none"/>
<path d="M263.645 183.297L256.96 183.297L256.96 178.532L263.645 178.532L263.645 183.297" fill="#767272" fill-rule="nonzero" opacity="1" stroke="none"/>
<path d="M262.578 188.172L258.028 188.172L258.028 184.965L262.578 184.965L262.578 188.172" fill="#767272" fill-rule="nonzero" opacity="1" stroke="none"/>
<path d="M464.637 188.172L460.087 188.172L460.087 184.965L464.637 184.965L464.637 188.172" fill="#767272" fill-rule="nonzero" opacity="1" stroke="none"/>
<path d="M465.705 183.297L459.02 183.297L459.02 178.532L465.705 178.532L465.705 183.297" fill="#767272" fill-rule="nonzero" opacity="1" stroke="none"/>
<path d="M274.147 179.584L265.121 179.584L265.121 178.532L274.147 178.532L274.147 179.584" fill="#767272" fill-rule="nonzero" opacity="1" stroke="none"/>
<path d="M274.147 183.918L265.121 183.918L265.121 182.865L274.147 182.865L274.147 183.918" fill="#767272" fill-rule="nonzero" opacity="1" stroke="none"/>
<path d="M265.121 192.583L265.121 178.532L266.175 178.532L266.175 192.583L265.121 192.583" fill="#767272" fill-rule="nonzero" opacity="1" stroke="none"/>
<path d="M273.096 192.583L273.096 178.532L274.147 178.532L274.147 192.583L273.096 192.583" fill="#767272" fill-rule="nonzero" opacity="1" stroke="none"/>
<path d="M274.147 188.251L265.121 188.251L265.121 187.198L274.147 187.198L274.147 188.251" fill="#767272" fill-rule="nonzero" opacity="1" stroke="none"/>
<path d="M274.147 192.583L265.121 192.583L265.121 191.53L274.147 191.53L274.147 192.583" fill="#767272" fill-rule="nonzero" opacity="1" stroke="none"/>
<path d="M457.543 179.584L448.518 179.584L448.518 178.532L457.543 178.532L457.543 179.584" fill="#767272" fill-rule="nonzero" opacity="1" stroke="none"/>
<path d="M457.543 183.918L448.518 183.918L448.518 182.865L457.543 182.865L457.543 183.918" fill="#767272" fill-rule="nonzero" opacity="1" stroke="none"/>
<path d="M448.518 192.583L448.518 178.532L449.569 178.532L449.569 192.583L448.518 192.583" fill="#767272" fill-rule="nonzero" opacity="1" stroke="none"/>
<path d="M456.49 192.583L456.49 178.532L457.543 178.532L457.543 192.583L456.49 192.583" fill="#767272" fill-rule="nonzero" opacity="1" stroke="none"/>
<path d="M457.543 188.251L448.518 188.251L448.518 187.198L457.543 187.198L457.543 188.251" fill="#767272" fill-rule="nonzero" opacity="1" stroke="none"/>
<path d="M457.543 192.583L448.518 192.583L448.518 191.53L457.543 191.53L457.543 192.583" fill="#767272" fill-rule="nonzero" opacity="1" stroke="none"/>
<path d="M442.126 150.206L280.54 150.206L280.54 148.513L442.126 148.513L442.126 150.206" fill="#767272" fill-rule="nonzero" opacity="1" stroke="none"/>
<path d="M353.833 194.052L342.909 194.052L342.909 184.618L353.833 184.618L353.833 194.052" fill="#767272" fill-rule="nonzero" opacity="1" stroke="none"/>
<path d="M379.756 194.005L368.832 194.005L368.832 184.618L379.756 184.618L379.756 194.005" fill="#767272" fill-rule="nonzero" opacity="1" stroke="none"/>
</g>
</g>
</svg>
