<?xml version="1.0" encoding="UTF-8" standalone="no"?>
<!DOCTYPE svg PUBLIC "-//W3C//DTD SVG 1.1//EN" "http://www.w3.org/Graphics/SVG/1.1/DTD/svg11.dtd">
<!-- Created with Vectornator (http://vectornator.io/) -->
<svg height="100%" stroke-miterlimit="10" style="fill-rule:nonzero;clip-rule:evenodd;stroke-linecap:round;stroke-linejoin:round;" version="1.1" viewBox="0 0 520 200" width="100%" xml:space="preserve" xmlns="http://www.w3.org/2000/svg" xmlns:xlink="http://www.w3.org/1999/xlink">
<defs>
<clipPath id="TextBounds">
<rect height="40.3209" width="374.117" x="111.404" y="8.76205"/>
</clipPath>
<clipPath id="TextBounds_2">
<rect height="40.3209" width="369.775" x="111.711" y="46.3276"/>
</clipPath>
</defs>
<g id="Zona">
<g opacity="1">
<path d="M24.2529 89.0664C22.5556 91.4416 19.8781 92.928 16.7872 93.0597C11.3195 93.2927 6.67162 89.0923 6.43863 83.6246C6.26401 79.5267 8.63109 75.8953 12.165 74.2316C14.6357 74.7754 16.1187 75.7209 15.2433 77.197C14.0984 79.0482 12.4989 80.4144 16.091 80.1167C19.6824 79.8933 18.1477 81.0378 20.545 81.5104C23.0166 81.9837 20.9716 83.0796 20.4378 84.0407C19.8999 84.998 20.017 86.0018 21.5976 85.9344C23.0377 85.8731 24.4595 85.3824 24.2529 89.0664" fill="#db2127" fill-rule="evenodd" opacity="1" stroke="none"/>
<path d="M18.467 75.0422C20.2205 75.5461 24.5305 73.5601 22.7095 76.5192C21.8349 77.9249 20.278 78.6402 18.0251 78.1615C14.8263 77.5041 16.7175 74.542 18.467 75.0422" fill="#db2127" fill-rule="evenodd" opacity="1" stroke="none"/>
<path d="M25.3714 78.0635C26.7342 77.9311 29.0614 78.4106 28.1829 79.8165C27.2342 81.2253 28.1337 82.055 27.1613 82.8158C26.114 83.6541 23.4097 84.4184 22.9977 83.2826C22.5193 82.1496 22.2525 80.9333 23.1331 79.672C24.0177 78.4105 24.0084 78.192 25.3714 78.0635" fill="#db2127" fill-rule="evenodd" opacity="1" stroke="none"/>
<path d="M8.51152 73.0893C8.51152 73.0893 9.29446 72.837 9.74221 73.2519C10.1236 73.6696 10.2886 74.2373 9.66308 74.698C8.95638 75.0878 8.30944 75.045 7.98688 74.265C7.73756 73.5523 8.51152 73.0893 8.51152 73.0893" fill="#db2127" fill-rule="evenodd" opacity="1" stroke="none"/>
<path d="M10.8353 71.8369C10.8353 71.8369 11.7109 72.0146 12.1402 71.9963C12.5734 71.9778 12.3152 72.7082 11.8332 73.2331C11.3482 73.6878 11.0502 73.4855 10.6697 72.9973C10.2119 72.4382 10.8353 71.8369 10.8353 71.8369" fill="#db2127" fill-rule="evenodd" opacity="1" stroke="none"/>
<path d="M25.663 71.4201C26.5203 71.1685 27.1773 71.3555 27.6983 71.8377C28.2943 72.2463 28.386 72.7467 27.4748 73.2899C26.6337 73.8301 25.7703 73.9373 25.1722 73.3881C24.4997 72.8381 24.8097 71.6715 25.663 71.4201" fill="#db2127" fill-rule="evenodd" opacity="1" stroke="none"/>
<path d="M35.2051 72.0222C36.4237 71.8999 36.371 72.4065 36.8867 72.6738C37.4055 73.0114 38.3087 73.837 37.5226 74.0152C36.7395 74.2636 36.4936 75.2828 35.6219 75.1049C34.7503 74.927 33.7981 74.604 33.6202 73.8218C33.4459 73.0355 33.9828 72.1486 35.2051 72.0222" fill="#db2127" fill-rule="evenodd" opacity="1" stroke="none"/>
<path d="M38.6394 74.902C39.217 74.8774 40.5465 75.6144 39.3984 75.7377C38.3203 75.854 37.7528 76.0228 37.7313 75.5194C37.7801 75.0129 38.6394 74.902 38.6394 74.902" fill="#db2127" fill-rule="evenodd" opacity="1" stroke="none"/>
<path d="M26.5559 87.2362C27.2496 86.6319 28.2166 85.6524 29.6751 86.0242C31.1296 86.3923 31.9526 87.0806 32.9778 87.4669C34.0032 87.8572 34.0276 88.4309 33.2692 89.2569C32.5146 90.0828 32.4742 90.8782 31.2618 91.1449C29.9722 91.3445 30.0001 93.6501 28.9747 93.2598C27.9494 92.8695 25.2998 91.614 26.3564 90.9942C27.4059 90.3005 27.5777 89.2844 26.4821 88.8971C25.3827 88.5139 25.9327 87.8414 26.5559 87.2362" fill="#db2127" fill-rule="evenodd" opacity="1" stroke="none"/>
<path d="M37.2364 82.5312C38.526 82.3316 38.8178 82.3895 38.989 83.1055C39.0968 83.8907 38.7562 84.3392 38.1053 84.2966C37.4575 84.3242 37.2732 83.3937 36.6995 83.4181C36.0546 83.516 36.021 82.7276 37.2364 82.5312" fill="#db2127" fill-rule="evenodd" opacity="1" stroke="none"/>
<path d="M45.6204 84.7661C46.4615 84.2259 46.8631 83.5598 47.5356 84.1098C48.2079 84.6558 48.5916 85.2181 48.3343 85.8781C48.1432 86.5314 48.371 86.7406 46.8637 86.8752C45.3565 87.0138 45.1845 86.3721 44.8101 86.0283C44.3615 85.6838 44.7764 85.2361 45.6204 84.7661" fill="#db2127" fill-rule="evenodd" opacity="1" stroke="none"/>
<path d="M53.7435 82.6215C54.7504 82.5786 55.2142 83.2782 56.2975 83.3767C57.4518 83.3979 57.8078 83.3123 58.4222 84.1502C59.0297 84.918 59.2047 85.63 58.1389 86.0351C57.0741 86.3698 56.5118 86.7534 55.2841 86.6611C54.1298 86.6399 53.4024 86.452 52.306 86.139C51.2868 85.8931 51.0539 85.4729 51.4472 84.5178C51.7665 83.5698 52.7396 82.7346 53.7435 82.6215" fill="#db2127" fill-rule="evenodd" opacity="1" stroke="none"/>
<path d="M54.8241 91.0049C55.8485 91.4656 57.9396 91.4508 59.1206 92.1903C60.3828 93.0006 61.3256 93.105 62.4984 93.5594C63.6681 93.9436 64.4077 94.4164 63.8515 94.9445C63.3023 95.5426 62.4856 95.0027 61.1867 94.9838C59.9622 94.9656 58.0156 94.9781 56.5053 95.0425C54.9277 95.1801 54.6236 94.8333 53.5861 94.1582C52.5516 93.5532 51.8456 93.8687 51.6583 92.868C51.5413 91.8642 51.8973 91.7787 52.8857 91.3026C53.8009 90.7592 53.7918 90.5446 54.8241 91.0049" fill="#db2127" fill-rule="evenodd" opacity="1" stroke="none"/>
<path d="M40.8983 90.66C41.6906 90.6262 42.0619 90.8997 42.3042 91.5384C42.5464 92.1771 43.059 92.3703 42.3624 92.9044C41.8101 93.4323 41.1776 93.8189 40.4838 92.7694C39.7931 91.7901 40.039 90.7709 40.8983 90.66" fill="#db2127" fill-rule="evenodd" opacity="1" stroke="none"/>
<path d="M10.4523 69.5464C10.1788 69.9178 9.6135 70.2312 9.16574 69.8163C8.64699 69.4787 8.58905 69.7705 8.47498 68.837C8.29383 67.9806 8.10968 67.054 8.36472 66.2495C8.61977 65.4449 9.20941 64.0514 9.75876 65.1071C10.3815 66.2339 11.1831 66.4187 11.2228 67.3515C11.333 68.2851 10.6485 69.1041 10.4523 69.5464" fill="#db2127" fill-rule="evenodd" opacity="1" stroke="none"/>
<path d="M16.2021 65.8412C16.2021 65.8412 16.672 65.0314 17.4672 65.0679C18.2624 65.1044 18.6431 65.5965 19.1557 65.7897C19.6653 65.9126 20.0244 65.8973 19.9259 66.9806C19.8275 68.0678 19.9934 68.5651 20.0331 69.4978C20.073 70.4345 19.8951 71.3061 19.2596 71.6225C18.6239 71.9351 18.2404 71.3767 17.4726 71.9841C16.7791 72.5923 15.6949 72.5642 15.7232 71.4839C15.7475 70.4038 15.5632 69.4733 15.382 68.6169C15.275 67.7574 14.2832 66.5016 15.2075 66.1729C16.2021 65.8412 16.2021 65.8412 16.2021 65.8412" fill="#db2127" fill-rule="evenodd" opacity="1" stroke="none"/>
<path d="M25.443 59.4655C26.0541 58.5754 26.8127 57.7533 26.2846 57.1971C25.6856 56.7183 25.1089 56.6725 24.7681 57.1171C24.3534 57.5687 23.73 58.17 23.7576 58.8179C23.715 59.4687 23.6714 60.19 24.5186 59.7942C25.443 59.4655 25.443 59.4655 25.443 59.4655" fill="#db2127" fill-rule="evenodd" opacity="1" stroke="none"/>
<path d="M15.3465 54.203C15.3465 54.203 16.581 52.7116 16.6702 51.4098C16.8296 50.1049 16.7379 49.6045 17.3512 48.8589C17.8983 48.1162 18.4749 48.162 19.0525 48.1374C19.7004 48.1098 20.0067 48.6011 20.6576 48.6438C21.3086 48.6903 21.7074 49.6078 21.8153 50.3968C21.9162 51.1119 22.0943 51.898 21.766 52.6353C21.4406 53.439 21.2588 54.3108 21.3048 55.3919C21.3539 56.5432 21.3753 57.0466 20.7866 58.3697C20.197 59.7633 19.1716 59.373 18.4496 59.4038C17.7315 59.4344 17.8202 59.8646 16.9087 58.75C16.0003 57.7096 15.6351 57.5805 15.0979 56.8097C14.6341 56.1101 15.3465 54.203 15.3465 54.203" fill="#db2127" fill-rule="evenodd" opacity="1" stroke="none"/>
<path d="M24.9799 51.994C25.9499 51.0847 26.0088 50.7225 26.6383 50.2656C27.2668 49.8752 27.7896 50.2166 28.0928 50.6337C28.471 50.9773 28.4863 51.3363 27.958 52.5162C27.4293 53.6882 27.5983 54.2596 26.6961 55.0175C25.7168 55.7082 24.9734 55.2355 24.4453 54.6794C23.8472 54.1301 24.0839 52.8963 24.9799 51.994" fill="#db2127" fill-rule="evenodd" opacity="1" stroke="none"/>
<path d="M27.2203 67.3188C29.0498 66.3025 28.8198 65.9526 29.0498 66.3025C29.2829 66.7265 28.3404 68.2798 29.5993 67.3621C30.8551 66.3702 31.6291 65.9072 31.7269 66.552C31.8988 67.1898 31.9049 67.3342 31.1494 68.2305C30.4712 69.1977 30.0656 69.864 29.2864 70.1123C28.4262 70.2936 27.3552 70.4839 27.3307 69.9102C27.3031 69.2623 27.3702 69.1852 25.9586 69.824C24.54 70.3888 25.4579 68.258 27.2203 67.3188" fill="#db2127" fill-rule="evenodd" opacity="1" stroke="none"/>
<path d="M36.9378 53.5019C39.3042 51.5987 39.1352 51.0272 38.6814 50.4718C38.2236 49.9127 38.0701 49.7042 37.0846 50.2506C36.1664 50.7237 36.4033 51.1437 35.3261 51.1895C34.3192 51.2325 33.3454 52.1419 34.5181 52.5963C35.765 53.0475 34.6407 55.4726 36.9378 53.5019" fill="#db2127" fill-rule="evenodd" opacity="1" stroke="none"/>
<path d="M49.0968 58.1721C51.3963 57.9998 50.896 58.0955 51.0799 57.3643C51.2678 56.6369 50.4199 57.107 50.1715 56.3239C49.9201 55.4706 49.6005 54.7609 48.4923 55.8207C47.3166 56.9499 46.724 58.2732 49.0968 58.1721" fill="#db2127" fill-rule="evenodd" opacity="1" stroke="none"/>
<path d="M55.9892 62.5624C57.6063 61.6998 57.9569 61.3955 58.9823 61.7858C60.0075 62.1722 60.5844 62.2219 60.7687 63.1524C60.9498 64.0087 61.3212 64.2822 60.406 64.8256C59.4947 65.3688 59.7856 65.4971 58.0729 65.8594C56.4273 66.1446 55.629 66.0379 54.9048 65.9241C54.1032 65.7393 53.8215 65.8256 54.282 64.7972C54.8158 63.8361 54.3651 63.351 55.9892 62.5624" fill="#db2127" fill-rule="evenodd" opacity="1" stroke="none"/>
<path d="M33.8501 33.5254C36.8406 29.2927 36.0026 29.9032 36.1225 29.3233C36.3125 28.7366 36.3561 28.0153 35.346 27.9841C34.3361 27.9567 33.433 27.1311 32.5308 27.889C31.6248 28.647 31.8091 29.5775 30.4952 30.8573C29.1845 32.2112 28.4748 32.5307 28.3671 33.3994C28.2666 34.342 28.705 34.5384 29.534 35.3671C30.3662 36.27 30.7864 37.6909 33.8501 33.5254" fill="#db2127" fill-rule="evenodd" opacity="1" stroke="none"/>
<path d="M46.2347 31.5589C47.386 31.5098 47.4777 32.0103 48.6541 30.8068C49.8295 29.6737 50.1733 29.2993 50.8456 29.8454C51.4448 30.3282 51.4937 31.4756 50.956 32.4368C50.3511 33.4713 50.7071 33.3858 49.8937 34.5738C49.0098 35.761 48.7365 36.1362 47.0229 36.5689C45.3805 36.9283 44.7883 36.5195 43.9043 36.0528C43.0204 35.5861 41.0401 34.8064 42.3385 33.1637C43.7113 31.5218 45.0834 31.608 46.2347 31.5589" fill="#db2127" fill-rule="evenodd" opacity="1" stroke="none"/>
<path d="M16.1619 73.338L5.62122 37.3549L9.20508 36.8824L16.6806 73.6756L15.7747 74.4375L0 54.2822L3.61722 46.1144" fill="#db2127" fill-rule="evenodd" opacity="1" stroke="none"/>
<path d="M20.344 15.8696L19.7446 71.1679L27.4357 16.7366L20.344 15.8696Z" fill="#db2127" fill-rule="evenodd" opacity="1" stroke="none"/>
<path d="M23.0231 73.6947L38.8165 21.407L42.2987 21.2095L35.5563 41.0394L49.3662 11L51.1699 19.8779L23.0231 73.6947" fill="#db2127" fill-rule="evenodd" opacity="1" stroke="none"/>
<path d="M33.4834 62.0787L64.8064 17.8143L68.1423 21.2391L33.4834 62.0787Z" fill="#db2127" fill-rule="evenodd" opacity="1" stroke="none"/>
<path d="M26.4278 77.4398L66.708 30.0375L71.4134 37.332L26.4278 77.4398Z" fill="#db2127" fill-rule="evenodd" opacity="1" stroke="none"/>
<path d="M34.5383 73.3486L82.1447 37.3714L86.1473 42.7821L34.5383 73.3486Z" fill="#db2127" fill-rule="evenodd" opacity="1" stroke="none"/>
<path d="M32.661 77.8609L86.5836 55.1764L88.8458 62.8541L32.661 77.8609Z" fill="#db2127" fill-rule="evenodd" opacity="1" stroke="none"/>
<path d="M42.5792 77.063L93.7133 66.2689L95.6482 74.9946L42.5792 77.063Z" fill="#db2127" fill-rule="evenodd" opacity="1" stroke="none"/>
<path d="M31.4559 80.4707L100.536 78.0906L101.898 84.6748L31.4559 80.4707Z" fill="#db2127" fill-rule="evenodd" opacity="1" stroke="none"/>
<path d="M23.8634 84.9738L109.717 89.5958L107.918 94.2528L23.8634 84.9738" fill="#db2127" fill-rule="evenodd" opacity="1" stroke="none"/>
</g>
<path d="M15.4434 99L209.817 99C211.37 99 212.63 99.4443 212.63 99.9925L212.63 102.008C212.63 102.556 211.37 103 209.817 103L15.4434 103C13.8896 103 12.63 102.556 12.63 102.008L12.63 99.9925C12.63 99.4443 13.8896 99 15.4434 99Z" fill="#db2127" fill-rule="nonzero" opacity="1" stroke="none"/>
<g fill="#db2127" opacity="1" stroke="none">
<path clip-path="url(#TextBounds)" d="M117.732 26.3801L121.302 26.3801C121.914 26.3801 122.487 26.3347 123.019 26.2441C123.552 26.1534 124.017 25.9947 124.413 25.7681C124.81 25.5414 125.122 25.2467 125.348 24.8841C125.575 24.5214 125.688 24.0681 125.688 23.5241C125.688 22.7534 125.382 22.1754 124.77 21.7901C124.158 21.4047 123.297 21.2121 122.186 21.2121C120.94 21.2121 119.852 21.3537 118.922 21.6371C117.993 21.9204 117.109 22.3001 116.27 22.7761L114.57 18.5941C115.477 18.0274 116.571 17.5684 117.851 17.2171C119.132 16.8657 120.588 16.6901 122.22 16.6901C123.49 16.6901 124.668 16.8317 125.756 17.1151C126.844 17.3984 127.785 17.8177 128.578 18.3731C129.372 18.9284 129.989 19.6311 130.431 20.4811C130.873 21.3311 131.094 22.3227 131.094 23.4561C131.094 24.3174 130.862 25.1731 130.397 26.0231C129.933 26.8731 129.224 27.5927 128.272 28.1821C128.794 28.4541 129.287 28.7714 129.751 29.1341C130.216 29.4967 130.624 29.9161 130.975 30.3921C131.327 30.8681 131.604 31.4064 131.808 32.0071C132.012 32.6077 132.114 33.2821 132.114 34.0301C132.114 36.5461 131.225 38.3764 129.445 39.5211C127.666 40.6657 125.19 41.2381 122.016 41.2381C121.223 41.2381 120.435 41.1814 119.653 41.0681C118.871 40.9547 118.123 40.8131 117.409 40.6431C116.695 40.4731 116.027 40.2747 115.403 40.0481C114.78 39.8214 114.23 39.5834 113.754 39.3341L115.318 35.1861C115.636 35.3221 116.027 35.4751 116.491 35.6451C116.956 35.8151 117.472 35.9794 118.038 36.1381C118.605 36.2967 119.194 36.4327 119.806 36.5461C120.418 36.6594 121.03 36.7161 121.642 36.7161C123.138 36.7161 124.345 36.5007 125.263 36.0701C126.181 35.6394 126.64 34.8914 126.64 33.8261C126.64 33.1687 126.493 32.6361 126.198 32.2281C125.904 31.8201 125.501 31.5084 124.991 31.2931C124.481 31.0777 123.881 30.9304 123.189 30.8511C122.498 30.7717 121.744 30.7321 120.928 30.7321L117.732 30.7321L117.732 26.3801Z"/>
<path clip-path="url(#TextBounds)" d="M140.818 28.9641C140.818 30.1201 140.96 31.1627 141.243 32.0921C141.527 33.0214 141.935 33.8204 142.467 34.4891C143 35.1577 143.652 35.6734 144.422 36.0361C145.193 36.3987 146.077 36.5801 147.074 36.5801C148.049 36.5801 148.927 36.3987 149.709 36.0361C150.491 35.6734 151.149 35.1577 151.681 34.4891C152.214 33.8204 152.622 33.0214 152.905 32.0921C153.189 31.1627 153.33 30.1201 153.33 28.9641C153.33 27.8081 153.189 26.7597 152.905 25.8191C152.622 24.8784 152.214 24.0737 151.681 23.4051C151.149 22.7364 150.491 22.2207 149.709 21.8581C148.927 21.4954 148.049 21.3141 147.074 21.3141C146.077 21.3141 145.193 21.5011 144.422 21.8751C143.652 22.2491 143 22.7704 142.467 23.4391C141.935 24.1077 141.527 24.9124 141.243 25.8531C140.96 26.7937 140.818 27.8307 140.818 28.9641ZM158.804 28.9641C158.804 30.9814 158.504 32.7551 157.903 34.2851C157.303 35.8151 156.481 37.0957 155.438 38.1271C154.396 39.1584 153.155 39.9347 151.715 40.4561C150.276 40.9774 148.729 41.2381 147.074 41.2381C145.465 41.2381 143.946 40.9774 142.518 40.4561C141.09 39.9347 139.844 39.1584 138.778 38.1271C137.713 37.0957 136.874 35.8151 136.262 34.2851C135.65 32.7551 135.344 30.9814 135.344 28.9641C135.344 26.9467 135.662 25.1731 136.296 23.6431C136.931 22.1131 137.787 20.8267 138.863 19.7841C139.94 18.7414 141.187 17.9594 142.603 17.4381C144.02 16.9167 145.51 16.6561 147.074 16.6561C148.684 16.6561 150.202 16.9167 151.63 17.4381C153.058 17.9594 154.305 18.7414 155.37 19.7841C156.436 20.8267 157.274 22.1131 157.886 23.6431C158.498 25.1731 158.804 26.9467 158.804 28.9641Z"/>
<path clip-path="url(#TextBounds)" d="M177.436 17.2001L182.74 17.2001L182.74 40.7621L177.436 40.7621L177.436 30.7661L168.528 30.7661L168.528 40.7621L163.224 40.7621L163.224 17.2001L168.528 17.2001L168.528 26.2101L177.436 26.2101L177.436 17.2001Z"/>
<path clip-path="url(#TextBounds)" d="M203.956 40.7621C203.707 39.9461 203.429 39.1074 203.123 38.2461C202.817 37.3847 202.517 36.5234 202.222 35.6621L193.042 35.6621C192.748 36.5234 192.447 37.3847 192.141 38.2461C191.835 39.1074 191.558 39.9461 191.308 40.7621L185.8 40.7621C186.684 38.2234 187.523 35.8774 188.316 33.7241C189.11 31.5707 189.886 29.5421 190.645 27.6381C191.405 25.7341 192.153 23.9264 192.889 22.2151C193.626 20.5037 194.391 18.8321 195.184 17.2001L200.25 17.2001C201.021 18.8321 201.78 20.5037 202.528 22.2151C203.276 23.9264 204.03 25.7341 204.789 27.6381C205.549 29.5421 206.325 31.5707 207.118 33.7241C207.912 35.8774 208.75 38.2234 209.634 40.7621L203.956 40.7621ZM197.598 22.5381C197.485 22.8781 197.315 23.3427 197.088 23.9321C196.862 24.5214 196.601 25.2014 196.306 25.9721C196.012 26.7427 195.689 27.5927 195.337 28.5221C194.986 29.4514 194.629 30.4261 194.266 31.4461L200.964 31.4461C200.602 30.4261 200.25 29.4514 199.91 28.5221C199.57 27.5927 199.247 26.7427 198.941 25.9721C198.635 25.2014 198.369 24.5214 198.142 23.9321C197.916 23.3427 197.734 22.8781 197.598 22.5381Z"/>
<path clip-path="url(#TextBounds)" d="M233.4 33.8601C232.743 35.3561 232.052 36.5857 231.326 37.5491C230.601 38.5124 229.853 39.2661 229.082 39.8101C228.312 40.3541 227.53 40.7281 226.736 40.9321C225.943 41.1361 225.138 41.2381 224.322 41.2381C223.552 41.2381 222.753 41.1644 221.925 41.0171C221.098 40.8697 220.322 40.6601 219.596 40.3881L220.548 36.1381C221.659 36.5461 222.758 36.7501 223.846 36.7501C224.549 36.7501 225.223 36.5914 225.869 36.2741C226.515 35.9567 227.133 35.2767 227.722 34.2341C226.793 32.7834 225.903 31.2931 225.053 29.7631C224.203 28.2331 223.399 26.7257 222.639 25.2411C221.88 23.7564 221.177 22.3284 220.531 20.9571C219.885 19.5857 219.313 18.3334 218.814 17.2001L224.696 17.2001C225.059 18.0841 225.461 19.0304 225.903 20.0391C226.345 21.0477 226.816 22.0904 227.314 23.1671C227.813 24.2437 228.317 25.3204 228.827 26.3971C229.337 27.4737 229.83 28.5221 230.306 29.5421C231.032 27.5474 231.723 25.5074 232.38 23.4221C233.038 21.3367 233.672 19.2627 234.284 17.2001L239.962 17.2001C239.373 18.9454 238.795 20.5774 238.228 22.0961C237.662 23.6147 237.106 25.0541 236.562 26.4141C236.018 27.7741 235.48 29.0661 234.947 30.2901C234.415 31.5141 233.899 32.7041 233.4 33.8601Z"/>
<path clip-path="url(#TextBounds)" d="M250.094 16.9281C253.608 16.9281 256.305 17.5457 258.186 18.7811C260.068 20.0164 261.008 22.0394 261.008 24.8501C261.008 27.6834 260.056 29.7291 258.152 30.9871C256.248 32.2451 253.528 32.8741 249.992 32.8741L248.326 32.8741L248.326 40.7621L243.022 40.7621L243.022 17.5401C244.178 17.3134 245.402 17.1547 246.694 17.0641C247.986 16.9734 249.12 16.9281 250.094 16.9281ZM250.434 21.4501C250.049 21.4501 249.669 21.4614 249.295 21.4841C248.921 21.5067 248.598 21.5294 248.326 21.5521L248.326 28.3521L249.992 28.3521C251.828 28.3521 253.211 28.1027 254.14 27.6041C255.07 27.1054 255.534 26.1761 255.534 24.8161C255.534 24.1587 255.415 23.6147 255.177 23.1841C254.939 22.7534 254.599 22.4077 254.157 22.1471C253.715 21.8864 253.177 21.7051 252.542 21.6031C251.908 21.5011 251.205 21.4501 250.434 21.4501Z"/>
<path clip-path="url(#TextBounds)" d="M278.382 40.7621C278.133 39.9461 277.855 39.1074 277.549 38.2461C277.243 37.3847 276.943 36.5234 276.648 35.6621L267.468 35.6621C267.174 36.5234 266.873 37.3847 266.567 38.2461C266.261 39.1074 265.984 39.9461 265.734 40.7621L260.226 40.7621C261.11 38.2234 261.949 35.8774 262.742 33.7241C263.536 31.5707 264.312 29.5421 265.071 27.6381C265.831 25.7341 266.579 23.9264 267.315 22.2151C268.052 20.5037 268.817 18.8321 269.61 17.2001L274.676 17.2001C275.447 18.8321 276.206 20.5037 276.954 22.2151C277.702 23.9264 278.456 25.7341 279.215 27.6381C279.975 29.5421 280.751 31.5707 281.544 33.7241C282.338 35.8774 283.176 38.2234 284.06 40.7621L278.382 40.7621ZM272.024 22.5381C271.911 22.8781 271.741 23.3427 271.514 23.9321C271.288 24.5214 271.027 25.2014 270.732 25.9721C270.438 26.7427 270.115 27.5927 269.763 28.5221C269.412 29.4514 269.055 30.4261 268.692 31.4461L275.39 31.4461C275.028 30.4261 274.676 29.4514 274.336 28.5221C273.996 27.5927 273.673 26.7427 273.367 25.9721C273.061 25.2014 272.795 24.5214 272.568 23.9321C272.342 23.3427 272.16 22.8781 272.024 22.5381Z"/>
<path clip-path="url(#TextBounds)" d="M285.556 40.7621C286.214 39.6061 286.916 38.4501 287.664 37.2941C288.412 36.1381 289.177 35.0217 289.959 33.9451C290.741 32.8684 291.546 31.8597 292.373 30.9191C293.201 29.9784 294.034 29.1341 294.872 28.3861C293.92 27.4114 293.036 26.4594 292.22 25.5301C291.404 24.6007 290.628 23.6827 289.891 22.7761C289.155 21.8694 288.435 20.9571 287.732 20.0391C287.03 19.1211 286.316 18.1747 285.59 17.2001L291.982 17.2001C292.662 18.1521 293.303 19.0247 293.903 19.8181C294.504 20.6114 295.093 21.3821 295.671 22.1301C296.249 22.8781 296.833 23.6147 297.422 24.3401C298.012 25.0654 298.646 25.8361 299.326 26.6521L299.326 17.2001L304.494 17.2001L304.494 26.6521C305.174 25.8134 305.826 25.0144 306.449 24.2551C307.073 23.4957 307.679 22.7421 308.268 21.9941C308.858 21.2461 309.447 20.4811 310.036 19.6991C310.626 18.9171 311.226 18.0841 311.838 17.2001L318.196 17.2001C317.38 18.2654 316.615 19.2627 315.901 20.1921C315.187 21.1214 314.468 22.0281 313.742 22.9121C313.017 23.7961 312.275 24.6801 311.515 25.5641C310.756 26.4481 309.923 27.3774 309.016 28.3521C310.852 30.0521 312.53 31.9617 314.048 34.0811C315.567 36.2004 316.984 38.4274 318.298 40.7621L312.382 40.7621C311.68 39.6967 311.022 38.7107 310.41 37.8041C309.798 36.8974 309.186 36.0247 308.574 35.1861C307.962 34.3474 307.328 33.5257 306.67 32.7211C306.013 31.9164 305.288 31.0834 304.494 30.2221L304.494 40.7621L299.326 40.7621L299.326 30.2221C298.51 31.1741 297.774 32.0581 297.116 32.8741C296.459 33.6901 295.83 34.5061 295.229 35.3221C294.629 36.1381 294.022 36.9824 293.41 37.8551C292.798 38.7277 292.141 39.6967 291.438 40.7621L285.556 40.7621Z"/>
<path clip-path="url(#TextBounds)" d="M321.358 40.7621L321.358 17.2001L337.27 17.2001L337.27 21.6541L326.662 21.6541L326.662 26.2781L336.08 26.2781L336.08 30.6301L326.662 30.6301L326.662 36.3081L338.052 36.3081L338.052 40.7621L321.358 40.7621Z"/>
<path clip-path="url(#TextBounds)" d="M356.174 17.2001L361.478 17.2001L361.478 40.7621L356.174 40.7621L356.174 30.7661L347.266 30.7661L347.266 40.7621L341.962 40.7621L341.962 17.2001L347.266 17.2001L347.266 26.2101L356.174 26.2101L356.174 17.2001Z"/>
<path clip-path="url(#TextBounds)" d="M381.13 17.2001L386.434 17.2001L386.434 40.7621L381.13 40.7621L381.13 30.7661L372.222 30.7661L372.222 40.7621L366.918 40.7621L366.918 17.2001L372.222 17.2001L372.222 26.2101L381.13 26.2101L381.13 17.2001Z"/>
<path clip-path="url(#TextBounds)" d="M402.482 21.5181C401.802 21.5181 401.151 21.5691 400.527 21.6711C399.904 21.7731 399.354 21.9431 398.878 22.1811C398.402 22.4191 398.017 22.7477 397.722 23.1671C397.428 23.5864 397.28 24.1134 397.28 24.7481C397.28 25.9494 397.705 26.7767 398.555 27.2301C399.405 27.6834 400.669 27.9101 402.346 27.9101L404.556 27.9101L404.556 21.5521C404.284 21.5294 403.99 21.5181 403.672 21.5181C403.355 21.5181 402.958 21.5181 402.482 21.5181ZM402.72 16.9621C403.672 16.9621 404.789 17.0187 406.069 17.1321C407.35 17.2454 408.614 17.4381 409.86 17.7101L409.86 40.7621L404.556 40.7621L404.556 32.2961L402.924 32.2961C402.63 32.2961 402.346 32.2961 402.074 32.2961C401.802 32.2961 401.474 32.2734 401.088 32.2281C400.34 33.2481 399.519 34.5231 398.623 36.0531C397.728 37.5831 396.895 39.1527 396.124 40.7621L390.514 40.7621C390.922 39.8327 391.359 38.9147 391.823 38.0081C392.288 37.1014 392.758 36.2401 393.234 35.4241C393.71 34.6081 394.175 33.8544 394.628 33.1631C395.082 32.4717 395.501 31.8654 395.886 31.3441C395.388 31.1174 394.895 30.8171 394.407 30.4431C393.92 30.0691 393.484 29.6214 393.098 29.1001C392.713 28.5787 392.401 27.9611 392.163 27.2471C391.925 26.5331 391.806 25.7114 391.806 24.7821C391.806 23.4901 392.061 22.3567 392.571 21.3821C393.081 20.4074 393.807 19.5914 394.747 18.9341C395.688 18.2767 396.833 17.7837 398.181 17.4551C399.53 17.1264 401.043 16.9621 402.72 16.9621Z"/>
<path clip-path="url(#TextBounds)" d="M420.162 23.2861C420.162 25.1221 420.094 26.8334 419.958 28.4201C419.822 30.0067 419.641 31.6161 419.414 33.2481L415.538 33.2481C415.312 31.6161 415.125 30.0067 414.977 28.4201C414.83 26.8334 414.756 25.1221 414.756 23.2861L414.756 17.2001L420.162 17.2001L420.162 23.2861ZM420.604 38.0761C420.604 39.0734 420.281 39.8441 419.635 40.3881C418.989 40.9321 418.258 41.2041 417.442 41.2041C416.626 41.2041 415.895 40.9321 415.249 40.3881C414.603 39.8441 414.28 39.0734 414.28 38.0761C414.28 37.0787 414.603 36.3081 415.249 35.7641C415.895 35.2201 416.626 34.9481 417.442 34.9481C418.258 34.9481 418.989 35.2201 419.635 35.7641C420.281 36.3081 420.604 37.0787 420.604 38.0761Z"/>
</g>
<g fill="#ff0000" opacity="1" stroke="none">
<path clip-path="url(#TextBounds_2)" d="M130.842 58.6382L132.486 60.2817L130.527 62.2407C131.025 62.8605 131.418 63.5246 131.705 64.2329C132.137 65.2844 132.353 66.4299 132.353 67.6694C132.353 68.8758 132.137 70.0047 131.705 71.0562C131.274 72.1076 130.621 73.0705 129.746 73.9448C128.872 74.8081 127.909 75.4611 126.858 75.9038C125.806 76.3465 124.669 76.5679 123.446 76.5679C122.223 76.5679 121.086 76.3465 120.034 75.9038C119.326 75.6161 118.662 75.2232 118.042 74.7251L116.083 76.6841L114.44 75.0405L116.382 73.0982C115.884 72.4562 115.486 71.7756 115.187 71.0562C114.755 70.0047 114.539 68.8758 114.539 67.6694C114.539 66.4299 114.755 65.2844 115.187 64.2329C115.618 63.1815 116.271 62.2186 117.146 61.3442C118.02 60.4699 118.983 59.8114 120.034 59.3687C121.086 58.926 122.223 58.7046 123.446 58.7046C124.669 58.7046 125.806 58.926 126.858 59.3687C127.577 59.6786 128.258 60.0825 128.9 60.5806L130.842 58.6382ZM125.961 61.5435C125.186 61.2114 124.348 61.0454 123.446 61.0454C122.544 61.0454 121.7 61.2114 120.914 61.5435C120.151 61.8755 119.448 62.3569 118.806 62.9878C118.153 63.6408 117.669 64.3547 117.353 65.1294C117.038 65.9041 116.88 66.7508 116.88 67.6694C116.88 68.5549 117.035 69.3849 117.345 70.1597C117.533 70.6024 117.771 71.023 118.059 71.4214L127.223 62.2573C126.825 61.9696 126.404 61.7316 125.961 61.5435ZM128.866 63.9009L119.702 73.065C120.09 73.3416 120.494 73.5685 120.914 73.7456C121.7 74.0776 122.544 74.2437 123.446 74.2437C124.348 74.2437 125.186 74.0776 125.961 73.7456C126.736 73.4136 127.444 72.9321 128.086 72.3013C128.739 71.6483 129.223 70.9344 129.539 70.1597C129.854 69.3849 130.012 68.5549 130.012 67.6694C130.012 66.7508 129.857 65.9041 129.547 65.1294C129.37 64.6978 129.143 64.2883 128.866 63.9009Z"/>
<path clip-path="url(#TextBounds_2)" d="M143.761 72.6156C143.761 72.0743 143.64 71.5936 143.397 71.1736C143.154 70.7536 142.734 70.4036 142.137 70.1236C141.54 69.8436 140.737 69.629 139.729 69.4796C138.721 69.3303 137.452 69.2556 135.921 69.2556C136.126 67.5196 136.294 65.7556 136.425 63.9636C136.556 62.1716 136.658 60.4916 136.733 58.9236L147.233 58.9236L147.233 62.4236L140.233 62.4236C140.196 63.0956 140.154 63.7443 140.107 64.3696C140.06 64.995 140.009 65.541 139.953 66.0076C142.678 66.1943 144.69 66.8336 145.987 67.9256C147.284 69.0176 147.933 70.5343 147.933 72.4756C147.933 73.3716 147.774 74.2023 147.457 74.9676C147.14 75.733 146.664 76.3956 146.029 76.9556C145.394 77.5156 144.596 77.9543 143.635 78.2716C142.674 78.589 141.549 78.7476 140.261 78.7476C139.757 78.7476 139.23 78.715 138.679 78.6496C138.128 78.5843 137.596 78.5003 137.083 78.3976C136.57 78.295 136.108 78.1876 135.697 78.0756C135.286 77.9636 134.969 77.8516 134.745 77.7396L135.501 74.2956C135.968 74.501 136.584 74.7016 137.349 74.8976C138.114 75.0936 139.029 75.1916 140.093 75.1916C141.381 75.1916 142.314 74.935 142.893 74.4216C143.472 73.9083 143.761 73.3063 143.761 72.6156Z"/>
<path clip-path="url(#TextBounds_2)" d="M162.409 69.8436C162.372 70.497 162.334 71.2063 162.297 71.9716C162.26 72.737 162.227 73.507 162.199 74.2816C162.171 75.0563 162.143 75.7936 162.115 76.4936C162.087 77.1936 162.064 77.805 162.045 78.3276L157.985 78.3276C158.022 77.301 158.083 76.1436 158.167 74.8556C158.251 73.5676 158.344 72.2563 158.447 70.9216C158.55 69.587 158.662 68.285 158.783 67.0156C158.904 65.7463 159.021 64.6076 159.133 63.5996L162.605 63.5996C163.408 64.9063 164.145 66.2596 164.817 67.6596C165.489 69.0596 166.198 70.5996 166.945 72.2796C167.729 70.4876 168.494 68.831 169.241 67.3096C169.988 65.7883 170.66 64.5516 171.257 63.5996L174.785 63.5996C174.916 64.6076 175.042 65.7463 175.163 67.0156C175.284 68.285 175.396 69.587 175.499 70.9216C175.602 72.2563 175.69 73.5676 175.765 74.8556C175.84 76.1436 175.896 77.301 175.933 78.3276L171.789 78.3276C171.752 76.8716 171.7 75.425 171.635 73.9876C171.57 72.5503 171.509 71.1596 171.453 69.8156L168.373 76.5916L165.489 76.5916L162.409 69.8436Z"/>
<path clip-path="url(#TextBounds_2)" d="M178.873 71.0756C178.873 69.769 179.074 68.6256 179.475 67.6456C179.876 66.6656 180.404 65.849 181.057 65.1956C181.71 64.5423 182.462 64.0476 183.311 63.7116C184.16 63.3756 185.033 63.2076 185.929 63.2076C188.02 63.2076 189.672 63.847 190.885 65.1256C192.098 66.4043 192.705 68.285 192.705 70.7676C192.705 71.0103 192.696 71.2763 192.677 71.5656C192.658 71.855 192.64 72.1116 192.621 72.3356L183.157 72.3356C183.25 73.1943 183.652 73.8756 184.361 74.3796C185.07 74.8836 186.022 75.1356 187.217 75.1356C187.982 75.1356 188.734 75.0656 189.471 74.9256C190.208 74.7856 190.81 74.613 191.277 74.4076L191.837 77.7956C191.613 77.9076 191.314 78.0196 190.941 78.1316C190.568 78.2436 190.152 78.3416 189.695 78.4256C189.238 78.5096 188.748 78.5796 188.225 78.6356C187.702 78.6916 187.18 78.7196 186.657 78.7196C185.332 78.7196 184.179 78.5236 183.199 78.1316C182.219 77.7396 181.407 77.203 180.763 76.5216C180.119 75.8403 179.643 75.033 179.335 74.0996C179.027 73.1663 178.873 72.1583 178.873 71.0756ZM188.673 69.4796C188.654 69.125 188.594 68.7796 188.491 68.4436C188.388 68.1076 188.23 67.809 188.015 67.5476C187.8 67.2863 187.53 67.0716 187.203 66.9036C186.876 66.7356 186.47 66.6516 185.985 66.6516C185.518 66.6516 185.117 66.731 184.781 66.8896C184.445 67.0483 184.165 67.2583 183.941 67.5196C183.717 67.781 183.544 68.0843 183.423 68.4296C183.302 68.775 183.213 69.125 183.157 69.4796L188.673 69.4796Z"/>
<path clip-path="url(#TextBounds_2)" d="M208.105 67.0156L203.401 67.0156L203.401 78.3276L199.229 78.3276L199.229 67.0156L194.525 67.0156L194.525 63.5996L208.105 63.5996L208.105 67.0156Z"/>
<path clip-path="url(#TextBounds_2)" d="M220.061 71.0756C220.061 69.7876 219.772 68.7563 219.193 67.9816C218.614 67.207 217.756 66.8196 216.617 66.8196C216.244 66.8196 215.898 66.8336 215.581 66.8616C215.264 66.8896 215.002 66.9223 214.797 66.9596L214.797 74.4916C215.058 74.6596 215.399 74.7996 215.819 74.9116C216.239 75.0236 216.664 75.0796 217.093 75.0796C219.072 75.0796 220.061 73.745 220.061 71.0756ZM224.317 70.9636C224.317 72.1023 224.177 73.1383 223.897 74.0716C223.617 75.005 223.206 75.8076 222.665 76.4796C222.124 77.1516 221.452 77.6743 220.649 78.0476C219.846 78.421 218.922 78.6076 217.877 78.6076C217.298 78.6076 216.757 78.5516 216.253 78.4396C215.749 78.3276 215.264 78.169 214.797 77.9636L214.797 83.5076L210.625 83.5076L210.625 64.1036C210.998 63.9916 211.428 63.8843 211.913 63.7816C212.398 63.679 212.907 63.5903 213.439 63.5156C213.971 63.441 214.512 63.3803 215.063 63.3336C215.614 63.287 216.141 63.2636 216.645 63.2636C217.858 63.2636 218.941 63.4456 219.893 63.8096C220.845 64.1736 221.648 64.687 222.301 65.3496C222.954 66.0123 223.454 66.8196 223.799 67.7716C224.144 68.7236 224.317 69.7876 224.317 70.9636Z"/>
<path clip-path="url(#TextBounds_2)" d="M231.709 78.3276L227.537 78.3276L227.537 63.5996L231.709 63.5996L231.709 78.3276ZM232.101 59.3436C232.101 60.109 231.854 60.711 231.359 61.1496C230.864 61.5883 230.281 61.8076 229.609 61.8076C228.937 61.8076 228.354 61.5883 227.859 61.1496C227.364 60.711 227.117 60.109 227.117 59.3436C227.117 58.5783 227.364 57.9763 227.859 57.5376C228.354 57.099 228.937 56.8796 229.609 56.8796C230.281 56.8796 230.864 57.099 231.359 57.5376C231.854 57.9763 232.101 58.5783 232.101 59.3436Z"/>
<path clip-path="url(#TextBounds_2)" d="M239.801 75.2476C240.062 75.285 240.412 75.3176 240.851 75.3456C241.29 75.3736 241.696 75.3876 242.069 75.3876C243.002 75.3876 243.73 75.271 244.253 75.0376C244.776 74.8043 245.037 74.3796 245.037 73.7636C245.037 73.1663 244.799 72.751 244.323 72.5176C243.847 72.2843 243.152 72.1676 242.237 72.1676L239.801 72.1676L239.801 75.2476ZM242.153 69.3676C242.844 69.3676 243.404 69.279 243.833 69.1016C244.262 68.9243 244.477 68.537 244.477 67.9396C244.477 67.3796 244.234 66.997 243.749 66.7916C243.264 66.5863 242.629 66.4836 241.845 66.4836C241.584 66.4836 241.243 66.4976 240.823 66.5256C240.403 66.5536 240.062 66.5863 239.801 66.6236L239.801 69.3676L242.153 69.3676ZM242.013 78.6076C241.49 78.6076 240.93 78.589 240.333 78.5516C239.736 78.5143 239.148 78.463 238.569 78.3976C237.99 78.3323 237.444 78.2576 236.931 78.1736C236.418 78.0896 235.984 78.0103 235.629 77.9356L235.629 63.8236C235.984 63.749 236.418 63.679 236.931 63.6136C237.444 63.5483 237.99 63.4876 238.569 63.4316C239.148 63.3756 239.736 63.3336 240.333 63.3056C240.93 63.2776 241.49 63.2636 242.013 63.2636C243.226 63.2636 244.248 63.385 245.079 63.6276C245.91 63.8703 246.582 64.1876 247.095 64.5796C247.608 64.9716 247.977 65.4103 248.201 65.8956C248.425 66.381 248.537 66.8663 248.537 67.3516C248.537 68.005 248.378 68.6023 248.061 69.1436C247.744 69.685 247.342 70.077 246.857 70.3196C247.118 70.4316 247.384 70.5903 247.655 70.7956C247.926 71.001 248.173 71.2483 248.397 71.5376C248.621 71.827 248.803 72.1723 248.943 72.5736C249.083 72.975 249.153 73.437 249.153 73.9596C249.153 74.557 249.036 75.1356 248.803 75.6956C248.57 76.2556 248.173 76.7503 247.613 77.1796C247.053 77.609 246.316 77.9543 245.401 78.2156C244.486 78.477 243.357 78.6076 242.013 78.6076Z"/>
</g>
<path d="M251.044 100.742L211.044 110.742L211.044 90.7423L251.044 100.742Z" fill="#db2127" fill-rule="nonzero" opacity="1" stroke="none"/>
</g>
<clipPath id="ArtboardFrame">
<rect height="200" width="520" x="0" y="0"/>
</clipPath>
<g clip-path="url(#ArtboardFrame)" id="Distance">
<g opacity="1">
<path d="M67.4126 166.133C76.7623 166.133 84.3686 173.74 84.3686 183.089C84.3686 192.439 76.7619 200.045 67.4126 200.045C58.0629 200.045 50.4566 192.438 50.4566 183.089C50.4567 173.739 58.0633 166.133 67.4126 166.133ZM67.4126 193.263C73.0217 193.263 77.5864 188.698 77.5864 183.089C77.5864 177.48 73.0217 172.915 67.4126 172.915C61.8035 172.915 57.2388 177.48 57.2388 183.089C57.2392 188.698 61.8035 193.263 67.4126 193.263Z" fill="#767272" fill-rule="nonzero" opacity="1" stroke="none"/>
<path d="M182.714 166.133C192.064 166.133 199.67 173.74 199.67 183.089C199.67 192.439 192.064 200.045 182.714 200.045C173.364 200.045 165.758 192.438 165.758 183.089C165.758 173.739 173.364 166.133 182.714 166.133ZM182.714 193.263C188.323 193.263 192.888 188.698 192.888 183.089C192.888 177.48 188.323 172.915 182.714 172.915C177.105 172.915 172.54 177.48 172.54 183.089C172.54 188.698 177.105 193.263 182.714 193.263Z" fill="#767272" fill-rule="nonzero" opacity="1" stroke="none"/>
<path d="M26.7181 155.139L26.7181 139.003C26.7181 138.895 26.8472 138.257 26.9146 138.037C26.9825 137.813 27.0639 137.609 27.1723 137.406C27.2231 137.314 40.8525 116.773 40.8525 116.773C41.3713 115.997 42.1887 115.464 43.1144 115.309C128.071 101.049 149.846 115.251 150.836 115.943L177.176 135.697L220.278 139.01C221.499 139.105 222.574 139.847 223.089 140.957C223.402 141.621 230.601 157.512 223.286 183.991C222.879 185.463 221.543 186.48 220.017 186.48L209.844 186.48C207.972 186.48 206.453 184.961 206.453 183.089C206.453 169.999 195.804 159.35 182.714 159.35C169.624 159.35 158.976 169.999 158.976 183.089C158.976 184.961 157.457 186.48 155.584 186.48L94.5424 186.48C92.6703 186.48 91.1511 184.961 91.1511 183.089C91.1511 169.999 80.5025 159.35 67.4126 159.35C54.3223 159.35 43.6741 169.999 43.6741 183.089C43.6741 184.961 42.1549 186.48 40.2828 186.48L30.109 186.48C28.8848 186.48 27.7554 185.819 27.152 184.751C19.7252 171.545 25.0596 158.553 26.7181 155.139ZM45.6851 121.755L36.4474 135.612L72.2282 135.612L82.8835 116.967C72.1877 117.889 59.881 119.405 45.6851 121.755ZM111.499 115.804C105.564 115.716 98.7375 115.865 90.897 116.36C90.8292 116.553 90.8089 116.757 90.7037 116.943L80.0349 135.612L111.499 135.615C111.499 135.615 111.499 115.804 111.499 115.804ZM146.92 121.474C146.801 121.399 139.686 117.089 118.281 116.018L118.281 135.615L165.775 135.619L146.92 121.474ZM32.1847 179.698L37.0781 179.698C38.7704 164.457 51.7281 152.568 67.4126 152.568C83.0971 152.568 96.0548 164.457 97.7471 179.698L152.38 179.698C154.072 164.457 167.03 152.568 182.714 152.568C198.399 152.568 211.356 164.457 213.049 179.698L217.4 179.698C219.377 171.664 219.848 164.864 219.682 159.35L216.63 159.35C214.758 159.35 213.238 157.831 213.238 155.959C213.238 154.087 214.758 152.568 216.63 152.568L219.119 152.568C218.661 149.455 218.054 147.06 217.59 145.609L175.932 142.394L33.5003 142.394L33.5003 149.177L36.8916 149.177C38.7637 149.177 40.2828 150.696 40.2828 152.568C40.2828 154.44 38.7637 155.959 36.8916 155.959L33.5003 155.959C33.5003 156.532 33.3479 157.109 33.0696 157.61C32.8155 158.075 27.108 168.629 32.1847 179.698Z" fill="#767272" fill-rule="nonzero" opacity="1" stroke="none"/>
</g>
<g opacity="1">
<path d="M67.4126 167.133C76.7623 167.133 84.3686 174.74 84.3686 184.089C84.3686 193.439 76.7619 201.045 67.4126 201.045C58.0629 201.045 50.4566 193.438 50.4566 184.089C50.4567 174.739 58.0633 167.133 67.4126 167.133ZM67.4126 194.263C73.0217 194.263 77.5864 189.698 77.5864 184.089C77.5864 178.48 73.0217 173.915 67.4126 173.915C61.8035 173.915 57.2388 178.48 57.2388 184.089C57.2392 189.698 61.8035 194.263 67.4126 194.263Z" fill="#767272" fill-rule="nonzero" opacity="1" stroke="none"/>
<path d="M182.714 167.133C192.064 167.133 199.67 174.74 199.67 184.089C199.67 193.439 192.064 201.045 182.714 201.045C173.364 201.045 165.758 193.438 165.758 184.089C165.758 174.739 173.364 167.133 182.714 167.133ZM182.714 194.263C188.323 194.263 192.888 189.698 192.888 184.089C192.888 178.48 188.323 173.915 182.714 173.915C177.105 173.915 172.54 178.48 172.54 184.089C172.54 189.698 177.105 194.263 182.714 194.263Z" fill="#767272" fill-rule="nonzero" opacity="1" stroke="none"/>
<path d="M26.7181 156.139L26.7181 140.003C26.7181 139.895 26.8472 139.257 26.9146 139.037C26.9825 138.813 27.0639 138.609 27.1723 138.406C27.2231 138.314 40.8525 117.773 40.8525 117.773C41.3713 116.997 42.1887 116.464 43.1144 116.309C128.071 102.049 149.846 116.251 150.836 116.943L177.176 136.697L220.278 140.01C221.499 140.105 222.574 140.847 223.089 141.957C223.402 142.621 230.601 158.512 223.286 184.991C222.879 186.463 221.543 187.48 220.017 187.48L209.844 187.48C207.972 187.48 206.453 185.961 206.453 184.089C206.453 170.999 195.804 160.35 182.714 160.35C169.624 160.35 158.976 170.999 158.976 184.089C158.976 185.961 157.457 187.48 155.584 187.48L94.5424 187.48C92.6703 187.48 91.1511 185.961 91.1511 184.089C91.1511 170.999 80.5025 160.35 67.4126 160.35C54.3223 160.35 43.6741 170.999 43.6741 184.089C43.6741 185.961 42.1549 187.48 40.2828 187.48L30.109 187.48C28.8848 187.48 27.7554 186.819 27.152 185.751C19.7252 172.545 25.0596 159.553 26.7181 156.139ZM45.6851 122.755L36.4474 136.612L72.2282 136.612L82.8835 117.967C72.1877 118.889 59.881 120.405 45.6851 122.755ZM111.499 116.804C105.564 116.716 98.7375 116.865 90.897 117.36C90.8292 117.553 90.8089 117.757 90.7037 117.943L80.0349 136.612L111.499 136.615C111.499 136.615 111.499 116.804 111.499 116.804ZM146.92 122.474C146.801 122.399 139.686 118.089 118.281 117.018L118.281 136.615L165.775 136.619L146.92 122.474ZM32.1847 180.698L37.0781 180.698C38.7704 165.457 51.7281 153.568 67.4126 153.568C83.0971 153.568 96.0548 165.457 97.7471 180.698L152.38 180.698C154.072 165.457 167.03 153.568 182.714 153.568C198.399 153.568 211.356 165.457 213.049 180.698L217.4 180.698C219.377 172.664 219.848 165.864 219.682 160.35L216.63 160.35C214.758 160.35 213.238 158.831 213.238 156.959C213.238 155.087 214.758 153.568 216.63 153.568L219.119 153.568C218.661 150.455 218.054 148.06 217.59 146.609L175.932 143.394L33.5003 143.394L33.5003 150.177L36.8916 150.177C38.7637 150.177 40.2828 151.696 40.2828 153.568C40.2828 155.44 38.7637 156.959 36.8916 156.959L33.5003 156.959C33.5003 157.532 33.3479 158.109 33.0696 158.61C32.8155 159.075 27.108 169.629 32.1847 180.698Z" fill="#767272" fill-rule="nonzero" opacity="1" stroke="none"/>
</g>
</g>
</svg>
